<svg width="1800" height="1800" viewBox="0 0 1800 1800" fill="none" xmlns="http://www.w3.org/2000/svg">
<rect width="1800" height="1800" fill="white"/>
<path d="M1111.88 1478.19L1147.3 1406.98L1103.91 1318.77H1137.92L1156.69 1357.74C1158.34 1361.28 1159.76 1364.53 1160.94 1367.48C1162.24 1370.31 1163.3 1373.09 1164.13 1375.8C1165.08 1373.09 1166.2 1370.31 1167.5 1367.48C1168.8 1364.53 1170.33 1361.28 1172.1 1357.74L1191.23 1318.77H1224L1145 1478.19H1111.88Z" fill="url(#paint0_linear_1058_320)"/>
<path d="M988.824 1425.05V1265.63H1037C1048.1 1265.63 1057.49 1267.28 1065.17 1270.59C1072.96 1273.9 1079.22 1278.26 1083.94 1283.7C1088.67 1289.01 1092.09 1294.86 1094.22 1301.23C1096.46 1307.49 1097.58 1313.69 1097.58 1319.83C1097.58 1325.85 1096.52 1332.05 1094.39 1338.43C1092.27 1344.69 1088.78 1350.53 1083.94 1355.97C1079.22 1361.28 1073.02 1365.59 1065.34 1368.9C1057.67 1372.2 1048.22 1373.86 1037 1373.86H1019.64V1425.05H988.824ZM1019.64 1346.22H1035.23C1042.79 1346.22 1048.75 1344.92 1053.12 1342.33C1057.61 1339.61 1060.8 1336.25 1062.69 1332.23C1064.7 1328.22 1065.7 1324.08 1065.7 1319.83C1065.7 1315.7 1064.75 1311.62 1062.86 1307.61C1060.98 1303.48 1057.79 1300.05 1053.3 1297.34C1048.93 1294.62 1042.91 1293.26 1035.23 1293.26H1019.64V1346.22Z" fill="url(#paint1_linear_1058_320)"/>
<path d="M900.492 1427.88C893.053 1427.88 886.085 1426.46 879.591 1423.63C873.214 1420.68 867.605 1416.66 862.763 1411.58C857.922 1406.39 854.084 1400.42 851.25 1393.69C848.534 1386.84 847.176 1379.58 847.176 1371.91C847.176 1364.23 848.534 1357.03 851.25 1350.3C854.084 1343.45 857.922 1337.48 862.763 1332.41C867.605 1327.21 873.214 1323.2 879.591 1320.36C886.085 1317.41 893.053 1315.93 900.492 1315.93C906.16 1315.93 911.415 1316.76 916.257 1318.41C921.098 1320.07 925.468 1322.43 929.364 1325.5V1255H960.185V1425.05H933.616V1414.59C929.601 1418.73 924.759 1421.98 919.091 1424.34C913.423 1426.7 907.223 1427.88 900.492 1427.88ZM904.035 1400.78C909.231 1400.78 913.954 1399.48 918.205 1396.88C922.456 1394.28 925.822 1390.8 928.302 1386.43C930.9 1382.06 932.199 1377.22 932.199 1371.91C932.199 1366.59 930.9 1361.75 928.302 1357.38C925.822 1353.01 922.456 1349.53 918.205 1346.93C913.954 1344.33 909.231 1343.03 904.035 1343.03C898.839 1343.03 894.115 1344.33 889.864 1346.93C885.613 1349.53 882.189 1353.01 879.591 1357.38C877.111 1361.75 875.871 1366.59 875.871 1371.91C875.871 1377.22 877.111 1382.06 879.591 1386.43C882.189 1390.8 885.613 1394.28 889.864 1396.88C894.115 1399.48 898.839 1400.78 904.035 1400.78Z" fill="url(#paint2_linear_1058_320)"/>
<path d="M732.76 1478.19L768.186 1406.98L724.789 1318.77H758.798L777.574 1357.74C779.227 1361.28 780.644 1364.53 781.825 1367.48C783.124 1370.31 784.187 1373.09 785.014 1375.8C785.958 1373.09 787.08 1370.31 788.379 1367.48C789.678 1364.53 791.213 1361.28 792.984 1357.74L812.115 1318.77H844.884L765.883 1478.19H732.76Z" fill="url(#paint3_linear_1058_320)"/>
<path d="M599 1425.05V1265.63H629.821V1316.64H675.875V1265.63H706.695V1425.05H675.875V1345.34H629.821V1425.05H599Z" fill="url(#paint4_linear_1058_320)"/>
<path d="M763.763 609.088C768.574 609.129 773.399 609.451 778.297 609.76C783.174 610.067 788.117 610.361 793.059 610.327H793.062C881.573 609.534 970.081 609.931 1058.61 610.063H1058.62C1062.52 610.063 1066.47 610.57 1070.38 611.223C1076.18 612.279 1080.58 614.723 1083.62 618.405C1086.66 622.101 1088.49 627.231 1088.77 633.919V633.918C1089.23 648.624 1088.76 663.154 1089 678.14V678.141C1089.02 680.086 1088.75 681.253 1088.41 681.945C1088.11 682.571 1087.73 682.881 1087.26 683.079C1086.72 683.309 1085.99 683.417 1084.98 683.437C1084.49 683.446 1083.97 683.434 1083.41 683.418C1082.87 683.402 1082.27 683.383 1081.68 683.383H728.981C726.247 683.383 724.39 683.379 723.039 683.207C721.703 683.037 721.299 682.747 721.112 682.532C720.875 682.26 720.583 681.649 720.424 680.004C720.268 678.395 720.266 676.206 720.266 673.091C720.266 660.485 720.032 647.865 720.381 635.346V635.343C720.548 629.006 721.905 625.124 724.248 622.223C726.652 619.246 730.274 617.059 735.556 614.49L735.557 614.491C744.78 610.051 754.161 609.007 763.763 609.088Z" fill="url(#paint5_radial_1058_320)" stroke="#2C70A8" stroke-width="4"/>
<path d="M627.555 779.274L627.574 781.274C641.115 781.142 654.528 781.143 668.082 781.143C681.603 781.143 695.058 781.275 708.618 781.143C709.868 781.143 710.811 781.232 711.488 781.398C712.177 781.568 712.382 781.768 712.426 781.821C712.426 781.822 712.551 781.936 712.486 782.473C712.416 783.056 712.136 783.946 711.475 785.239C707.876 792.193 707.642 799.649 707.642 806.776V806.779C707.706 851.203 707.706 895.628 707.706 940.037C707.706 973.344 707.706 1006.64 707.733 1039.92L707.771 1073.2C707.77 1090.01 707.478 1108.74 707.185 1127.58C706.892 1146.41 706.6 1165.35 706.601 1182.56C706.601 1184.18 705.219 1185.57 703.52 1185.57H636.959C635.249 1185.57 633.944 1184.26 633.944 1182.65C633.962 1113.94 634.321 880.849 633.943 819.722V819.713L633.913 817.63C633.712 806.971 632.673 792.86 627.035 782.521C626.904 782.279 626.897 781.941 627.057 781.639C627.208 781.351 627.402 781.274 627.555 781.274V779.274Z" fill="url(#paint6_radial_1058_320)" stroke="#2C70A8" stroke-width="4"/>
<path d="M1176.32 781.465C1177.51 781.465 1178.19 781.625 1178.55 781.786C1178.85 781.92 1178.86 782.017 1178.87 782.028C1178.9 782.112 1178.96 782.38 1178.83 782.96C1178.71 783.528 1178.44 784.241 1178.02 785.099L1178.02 785.107L1178.01 785.117C1173 795.669 1172.77 806.724 1172.77 817.595C1172.77 849.544 1172.56 925.765 1172.35 1002.16C1172.14 1077.03 1171.94 1152.07 1171.93 1185.74H1097.12C1097.07 1152.02 1097.26 1059.9 1097.47 975.453C1097.57 932.366 1097.68 891.275 1097.76 860.956C1097.81 845.797 1097.84 833.331 1097.87 824.654C1097.88 820.316 1097.89 816.925 1097.89 814.619C1097.9 813.466 1097.9 812.584 1097.9 811.99C1097.9 811.694 1097.9 811.469 1097.9 811.318C1097.9 811.274 1097.9 811.236 1097.9 811.205C1097.91 811.145 1097.91 811.087 1097.91 811.043C1097.92 810.933 1097.92 810.786 1097.93 810.614C1097.93 810.266 1097.94 809.76 1097.95 809.119C1097.96 807.834 1097.97 805.976 1097.98 803.682C1098 799.091 1098.01 792.736 1098.01 785.678C1098.01 784.298 1098.01 782.891 1098.01 781.465H1176.32ZM1093.91 785.021C1093.87 784.947 1093.84 784.871 1093.8 784.798C1092.73 782.659 1093.05 782.054 1093.06 782.038C1093.07 782.024 1093.17 781.877 1093.63 781.728C1093.72 781.7 1093.81 781.675 1093.91 781.651C1093.91 782.753 1093.91 783.876 1093.91 785.021Z" fill="url(#paint7_radial_1058_320)" stroke="#2C70A8" stroke-width="4"/>
<path d="M609.561 700.619H609.577C629.084 700.884 648.6 700.752 668.071 700.752C687.284 700.752 706.543 700.884 725.663 700.619V700.62L725.676 700.619C728.788 700.555 730.38 701.071 731.247 701.891C732.035 702.636 732.651 704.046 732.674 706.969L732.67 707.574C732.282 723.873 732.412 740.164 732.67 756.563V756.571C732.732 759.776 732.226 761.451 731.418 762.358C730.666 763.203 729.218 763.85 726.062 763.788L726.049 763.787H726.036C687.048 763.523 648.061 763.654 608.957 763.786C606.175 763.786 604.877 763.288 604.208 762.62C603.549 761.962 603.024 760.661 603.085 757.765V757.752C603.343 740.808 603.343 723.863 603.085 706.919V706.91C603.024 703.772 603.637 702.405 604.373 701.729C605.153 701.014 606.617 700.555 609.561 700.619Z" fill="url(#paint8_radial_1058_320)" stroke="#2C70A8" stroke-width="4"/>
<path d="M1196.92 700.613C1199.68 700.613 1200.99 701.136 1201.66 701.821C1202.34 702.503 1202.86 703.82 1202.8 706.636V706.648C1202.54 723.593 1202.54 740.537 1202.8 757.481V757.49C1202.86 760.605 1202.22 761.979 1201.47 762.663C1200.67 763.391 1199.19 763.845 1196.32 763.781H1196.3C1177.06 763.517 1157.8 763.648 1138.58 763.648C1119.11 763.648 1099.6 763.517 1080.09 763.781H1080.07C1077.12 763.844 1075.76 763.304 1075.05 762.574C1074.33 761.822 1073.79 760.347 1073.86 757.226C1074.24 740.661 1074.11 723.973 1073.86 707.309L1073.86 707.297C1073.79 704.321 1074.22 702.81 1074.91 701.992C1075.54 701.252 1076.82 700.614 1079.85 700.613C1118.84 700.878 1157.82 700.745 1196.92 700.613Z" fill="url(#paint9_radial_1058_320)" stroke="#2C70A8" stroke-width="4"/>
<path d="M1191.93 540.495C1195.42 540.431 1197.34 540.931 1198.41 541.868C1199.39 542.728 1200.14 544.416 1199.96 548.18C1199.31 561.075 1199.44 574.094 1199.57 586.909V586.93C1199.63 589.896 1199.03 591.402 1198.22 592.218C1197.39 593.042 1195.9 593.614 1193.05 593.614C1155.23 593.482 1117.54 593.482 1079.73 593.614C1077.08 593.614 1075.75 593.076 1075.04 592.351C1074.33 591.622 1073.79 590.247 1073.85 587.461V587.456C1074.11 573.944 1074.11 560.432 1073.85 546.92V546.919C1073.79 543.834 1074.45 542.447 1075.24 541.736C1076.09 540.97 1077.63 540.498 1080.49 540.496C1099.34 540.761 1118.21 540.629 1137.03 540.629C1155.32 540.629 1173.57 540.892 1191.93 540.495Z" fill="url(#paint10_radial_1058_320)" stroke="#2C70A8" stroke-width="4"/>
<path d="M724.005 540.496C725.987 540.464 727.59 540.542 728.879 540.787C730.161 541.031 731.004 541.417 731.576 541.911C732.639 542.829 733.447 544.76 732.944 549.526L732.943 549.53C731.765 560.935 732.29 572.462 732.676 583.785V583.79C732.803 587.231 732.407 589.268 731.48 590.534C730.626 591.702 728.975 592.652 725.342 592.962C717.035 593.616 708.711 593.749 700.472 593.749H700.463C672.125 593.881 643.521 593.617 615.14 593.881H615.125C611.355 593.944 609.403 593.219 608.35 592.108C607.285 590.986 606.645 588.954 606.831 585.137L606.832 585.119V585.102C607.22 572.773 607.221 560.444 606.833 548.246C606.772 544.85 607.412 543.089 608.37 542.117C609.328 541.147 611.058 540.501 614.357 540.497C632.837 540.894 651.47 540.63 670.012 540.63C687.912 540.63 705.908 540.894 724.006 540.497L724.005 540.496Z" fill="url(#paint11_radial_1058_320)" stroke="#2C70A8" stroke-width="4"/>
<path d="M1138.21 610.447C1150.25 610.447 1162.21 610.315 1174.07 610.447H1174.09C1174.97 610.447 1175.83 610.495 1176.59 610.627C1177.38 610.763 1177.89 610.963 1178.18 611.163C1178.39 611.313 1178.44 611.418 1178.45 611.586C1178.48 611.864 1178.41 612.518 1177.76 613.701L1177.75 613.707L1177.75 613.714C1173.74 621.159 1172.52 628.836 1172.24 636.421C1172.1 640.206 1172.19 643.998 1172.3 647.725C1172.42 651.472 1172.54 655.144 1172.48 658.788L1172.48 658.794C1172.38 665.456 1172.32 670.287 1171.91 673.879C1171.48 677.491 1170.73 679.408 1169.61 680.568C1168.5 681.713 1166.68 682.469 1163.2 682.867C1159.73 683.264 1155.04 683.267 1148.54 683.267C1135.14 683.267 1121.55 683.134 1108.12 683.267L1108.1 683.268H1108.09C1105.56 683.329 1104.35 682.839 1103.73 682.215C1103.1 681.591 1102.59 680.366 1102.65 677.777L1102.65 677.765V677.753C1102.72 672.048 1102.68 666.346 1102.65 660.68C1102.62 655.009 1102.59 649.375 1102.65 643.776C1102.78 633.86 1102.55 623.744 1097.52 614.131C1096.79 612.684 1096.64 611.843 1096.65 611.423C1096.66 611.145 1096.73 611.094 1096.84 611.018C1097.07 610.859 1097.54 610.681 1098.38 610.571C1099.2 610.466 1100.14 610.447 1101.17 610.447H1138.21Z" fill="url(#paint12_radial_1058_320)" stroke="#2C70A8" stroke-width="4"/>
<path d="M672.205 610.447C684.239 610.447 696.202 610.315 708.192 610.447H708.214C709.057 610.447 709.849 610.441 710.586 610.506C711.348 610.573 711.809 610.701 712.047 610.831C712.173 610.9 712.123 610.881 712.126 610.903C712.145 611.073 712.116 611.562 711.681 612.519L711.467 612.958C707.418 620.643 706.063 628.592 705.668 636.494C705.471 640.444 705.513 644.407 705.586 648.322C705.659 652.256 705.762 656.124 705.698 659.979V659.992C705.633 666.355 705.592 670.963 705.201 674.386C704.808 677.829 704.098 679.635 703.049 680.721C702.017 681.789 700.319 682.507 697.032 682.886C693.752 683.264 689.324 683.267 683.176 683.267C671.061 683.267 658.629 682.645 646.395 683.454L645.221 683.536C640.623 683.854 638.459 682.991 637.354 681.712C636.167 680.339 635.613 677.859 635.868 673.483V673.48C636.195 667.726 636.194 661.985 636.146 656.294C636.097 650.585 636.001 644.945 636.129 639.3L636.13 639.288C636.261 631.385 635.62 623.327 631.92 615.887L631.919 615.886L631.652 615.333C631.074 614.089 630.792 613.159 630.704 612.484C630.608 611.745 630.76 611.471 630.837 611.367C630.937 611.231 631.215 610.979 631.992 610.77C632.769 610.56 633.852 610.447 635.291 610.447H672.205Z" fill="url(#paint13_radial_1058_320)" stroke="#2C70A8" stroke-width="4"/>
<path d="M667.452 436.175C692.035 435.92 715.299 454.163 722.428 478.89L722.429 478.892C722.924 480.606 723.183 481.964 723.221 483.026C723.259 484.085 723.073 484.697 722.839 485.065C722.423 485.721 721.201 486.516 717.318 486.386L717.301 486.385H717.283C700.873 486.12 684.293 486.385 667.818 486.385C651.062 486.385 634.255 486.252 617.467 486.385H617.445C613.936 486.449 612.772 485.693 612.351 485.046C612.115 484.684 611.925 484.102 611.932 483.117C611.938 482.128 612.142 480.862 612.57 479.262C619.312 454.707 642.563 436.43 667.452 436.175Z" fill="url(#paint14_radial_1058_320)" stroke="#2C70A8" stroke-width="4"/>
<path d="M1136.78 436.304C1161.18 436.429 1184.19 453.786 1191.2 477.091L1191.52 478.205C1192.13 480.429 1192.47 482.052 1192.54 483.261C1192.62 484.466 1192.41 484.97 1192.22 485.214C1192.04 485.457 1191.61 485.806 1190.41 486.077C1189.22 486.349 1187.53 486.48 1185.16 486.513C1177.05 486.513 1168.96 486.48 1160.87 486.447C1152.77 486.414 1144.67 486.381 1136.53 486.381C1120.38 486.381 1104.14 486.513 1088.02 486.381H1088.02C1085.83 486.348 1084.27 486.217 1083.17 485.956C1082.08 485.697 1081.7 485.37 1081.53 485.15C1081.37 484.923 1081.17 484.441 1081.23 483.289C1081.3 482.135 1081.62 480.582 1082.19 478.458L1082.19 478.453C1088.44 455.091 1111.8 436.757 1135.64 436.312L1136.78 436.304Z" fill="url(#paint15_radial_1058_320)" stroke="#2C70A8" stroke-width="4"/>
<path d="M642.973 503.48V503.481C661.861 504.012 680.744 503.747 699.576 503.482C702.241 503.484 703.527 503.924 704.229 504.58C704.911 505.219 705.502 506.502 705.563 509.457V509.464C705.661 513.514 705.737 516.388 705.573 518.511C705.407 520.664 705.016 521.58 704.574 522.061C704.154 522.517 703.351 522.943 701.342 523.178C699.344 523.411 696.611 523.414 692.72 523.414H692.702L692.684 523.415C685.477 523.547 678.057 523.414 670.521 523.414C661.606 523.414 652.539 523.017 643.429 523.55H643.424C639.442 523.793 637.825 522.797 637.02 521.612C636.051 520.189 635.735 517.828 635.864 514.254C635.936 512.424 635.909 511.023 636.005 509.49C636.095 508.039 636.284 506.908 636.656 506.036C637 505.231 637.504 504.635 638.345 504.209C639.245 503.753 640.676 503.42 642.973 503.48Z" fill="url(#paint16_radial_1058_320)" stroke="#2C70A8" stroke-width="4"/>
<path d="M1167.96 503.612C1169.87 503.553 1171.02 503.867 1171.72 504.26C1172.37 504.627 1172.79 505.149 1173.07 505.88C1173.36 506.663 1173.5 507.672 1173.52 508.92C1173.55 510.173 1173.46 511.471 1173.39 512.887C1173.32 514.317 1173.43 515.934 1173.47 517.241C1173.52 518.651 1173.49 519.815 1173.26 520.761C1173.05 521.647 1172.69 522.219 1172.1 522.615C1171.47 523.046 1170.31 523.443 1168.19 523.413H1168.16C1148.82 523.413 1129.3 523.281 1109.92 523.546H1109.92C1107.87 523.576 1106.61 523.238 1105.84 522.81C1105.11 522.409 1104.67 521.853 1104.37 521.097C1104.05 520.283 1103.91 519.236 1103.87 517.923C1103.83 516.59 1103.91 515.237 1103.95 513.692C1103.96 512.949 1103.95 512.196 1103.93 511.48C1103.92 510.751 1103.9 510.066 1103.9 509.395C1103.91 508.031 1104 506.931 1104.29 506.062C1104.55 505.258 1104.94 504.709 1105.6 504.322C1106.31 503.903 1107.52 503.553 1109.63 503.613H1109.64C1119.61 503.879 1129.51 503.613 1139.25 503.613C1148.76 503.613 1158.36 503.746 1167.93 503.613H1167.94L1167.96 503.612Z" fill="url(#paint17_radial_1058_320)" stroke="#2C70A8" stroke-width="4"/>
<path d="M843.896 570.131H852.394C855.105 570.131 856.991 570.333 858.328 570.797C859.558 571.224 860.292 571.858 860.8 572.865C861.364 573.985 861.717 575.709 861.769 578.433C861.82 581.129 861.576 584.598 861.107 589.078L861.106 589.092C860.878 591.437 860.342 592.196 860.055 592.45C859.789 592.685 859.357 592.839 858.194 592.839C855.654 592.839 852.657 592.71 849.769 592.839H845.203C842.92 592.839 841.477 592.832 840.452 592.649C839.548 592.488 839.329 592.254 839.179 592.013C838.91 591.582 838.648 590.696 838.512 588.732C838.38 586.829 838.379 584.259 838.379 580.691C838.379 577.594 838.39 575.354 838.514 573.689C838.641 571.973 838.874 571.198 839.096 570.828C839.209 570.639 839.352 570.462 840.024 570.323C840.832 570.156 841.995 570.131 843.896 570.131Z" fill="url(#paint18_radial_1058_320)" stroke="#2C70A8" stroke-width="4"/>
<path d="M786.133 569.969C788.273 569.969 789.609 569.976 790.555 570.145C791.38 570.291 791.552 570.498 791.672 570.688C791.909 571.064 792.158 571.865 792.296 573.697C792.396 575.027 792.431 576.708 792.45 578.872L792.467 581.203C792.467 584.632 792.465 587.098 792.337 588.924C792.205 590.812 791.952 591.645 791.702 592.041C791.57 592.251 791.375 592.473 790.5 592.627C789.508 592.802 788.109 592.81 785.888 592.81H777.88C775.531 592.81 773.826 592.473 772.59 591.869C771.41 591.293 770.551 590.425 769.944 589.101C768.636 586.245 768.498 581.311 769.727 573.159L769.729 573.146C769.985 571.367 770.429 570.735 770.677 570.504C770.895 570.3 771.224 570.153 772.041 570.097C773.489 570.034 774.945 570.035 776.45 570.035C777.936 570.035 779.471 570.035 781.014 569.969H786.133Z" fill="url(#paint19_radial_1058_320)" stroke="#2C70A8" stroke-width="4"/>
<path d="M823.824 570.008C824.479 569.944 824.898 569.93 825.214 569.985C825.458 570.028 825.552 570.096 825.638 570.2C825.764 570.355 826.014 570.782 826.15 571.827L826.151 571.837L826.152 571.846C826.648 575.386 827.199 579.157 827.268 582.73C827.337 586.325 826.905 589.442 825.644 591.763C825.122 592.7 824.599 593.065 824.157 593.238C823.658 593.434 823.018 593.481 822.126 593.381C821.124 593.268 820.374 593.068 819.146 592.869C818.183 592.714 816.989 592.582 815.805 592.84H810.321C808.227 592.84 806.932 592.823 806.026 592.647C805.256 592.498 805.09 592.297 804.963 592.083C804.719 591.673 804.479 590.826 804.354 588.961C804.234 587.153 804.232 584.721 804.232 581.354C804.232 578.018 804.234 575.62 804.355 573.844C804.481 572.01 804.723 571.199 804.96 570.812C805.083 570.611 805.255 570.404 806.064 570.245C806.997 570.062 808.315 570.032 810.435 569.998C814.275 569.997 817.965 569.869 821.62 570.126L821.633 570.127L821.645 570.128C822.417 570.173 823.279 570.061 823.824 570.008Z" fill="url(#paint20_radial_1058_320)" stroke="#2C70A8" stroke-width="4"/>
<path d="M927.234 570.104C927.864 570.079 928.235 570.177 928.457 570.285C928.656 570.382 928.85 570.542 929.042 570.874C929.465 571.607 929.775 572.985 929.812 575.407L929.815 575.906C929.753 581.648 929.831 585.485 929.741 588.259C929.697 589.627 929.613 590.599 929.477 591.306C929.34 592.014 929.179 592.29 929.097 592.394C929.015 592.496 928.765 592.783 926.717 592.815C925.767 592.83 924.646 592.798 923.187 592.776C921.762 592.755 920.089 592.747 918.139 592.813H914.166C911.883 592.813 910.44 592.806 909.417 592.623C908.514 592.462 908.303 592.229 908.157 591.993C907.893 591.565 907.636 590.682 907.511 588.718C907.39 586.814 907.403 584.244 907.424 580.677V580.666C907.424 577.533 907.43 575.274 907.548 573.6C907.67 571.869 907.898 571.107 908.11 570.752C908.209 570.587 908.33 570.416 909.015 570.282C909.834 570.121 911.01 570.104 912.94 570.104C917.6 570.104 922.442 570.238 927.214 570.104L927.225 570.104H927.234Z" fill="url(#paint21_radial_1058_320)" stroke="#2C70A8" stroke-width="4"/>
<path d="M1065.31 570.104C1065.94 570.079 1066.31 570.177 1066.53 570.285C1066.73 570.382 1066.92 570.542 1067.12 570.874C1067.54 571.607 1067.85 572.985 1067.89 575.407L1067.89 575.906C1067.83 581.648 1067.91 585.485 1067.82 588.259C1067.77 589.627 1067.69 590.599 1067.55 591.306C1067.41 592.014 1067.25 592.29 1067.17 592.394C1067.09 592.496 1066.84 592.783 1064.79 592.815C1063.84 592.83 1062.72 592.798 1061.26 592.776C1059.84 592.755 1058.16 592.747 1056.21 592.813H1052.24C1049.96 592.813 1048.51 592.806 1047.49 592.623C1046.59 592.462 1046.38 592.229 1046.23 591.993C1045.97 591.565 1045.71 590.682 1045.58 588.718C1045.46 586.814 1045.48 584.244 1045.5 580.677V580.666C1045.5 577.533 1045.5 575.274 1045.62 573.6C1045.74 571.869 1045.97 571.107 1046.18 570.752C1046.28 570.587 1046.4 570.416 1047.09 570.282C1047.91 570.121 1049.08 570.104 1051.01 570.104C1055.67 570.104 1060.52 570.238 1065.29 570.104L1065.3 570.104H1065.31Z" fill="url(#paint22_radial_1058_320)" stroke="#2C70A8" stroke-width="4"/>
<path d="M1029.28 570.104C1029.91 570.079 1030.28 570.177 1030.5 570.285C1030.7 570.382 1030.9 570.542 1031.09 570.874C1031.51 571.607 1031.82 572.985 1031.86 575.407L1031.86 575.906C1031.8 581.648 1031.88 585.485 1031.79 588.259C1031.74 589.627 1031.66 590.599 1031.52 591.306C1031.39 592.014 1031.23 592.29 1031.14 592.394C1031.06 592.496 1030.81 592.783 1028.76 592.815C1027.81 592.83 1026.69 592.798 1025.23 592.776C1023.81 592.755 1022.14 592.747 1020.19 592.813H1016.21C1013.93 592.813 1012.49 592.806 1011.46 592.623C1010.56 592.462 1010.35 592.229 1010.2 591.993C1009.94 591.565 1009.68 590.682 1009.56 588.718C1009.44 586.814 1009.45 584.244 1009.47 580.677V580.666C1009.47 577.533 1009.48 575.274 1009.59 573.6C1009.72 571.869 1009.94 571.107 1010.16 570.752C1010.26 570.587 1010.38 570.416 1011.06 570.282C1011.88 570.121 1013.06 570.104 1014.99 570.104C1019.65 570.104 1024.49 570.238 1029.26 570.104L1029.27 570.104H1029.28Z" fill="url(#paint23_radial_1058_320)" stroke="#2C70A8" stroke-width="4"/>
<path d="M892.832 570.103C893.43 570.079 893.784 570.182 894 570.296C894.203 570.403 894.415 570.587 894.623 570.961C895.095 571.81 895.412 573.384 895.412 576.037C895.392 581.624 895.458 585.434 895.344 588.146C895.287 589.492 895.189 590.458 895.04 591.164C894.891 591.87 894.72 592.176 894.612 592.311C894.484 592.472 894.171 592.764 892.244 592.817C891.338 592.843 890.257 592.818 888.869 592.798C887.516 592.778 885.929 592.763 884.09 592.812H881.807C879.213 592.812 877.385 592.566 876.083 592.059C874.873 591.587 874.095 590.885 873.552 589.781C872.964 588.586 872.6 586.807 872.546 584.119C872.493 581.451 872.745 578.063 873.253 573.76L873.254 573.749C873.481 571.73 873.939 570.888 874.261 570.543C874.501 570.286 874.849 570.104 875.679 570.104C881.332 570.104 887.055 570.236 892.802 570.104H892.816L892.832 570.103Z" fill="url(#paint24_radial_1058_320)" stroke="#2C70A8" stroke-width="4"/>
<path d="M739.73 570.131H755.091C755.615 570.131 755.931 570.222 756.13 570.323C756.314 570.417 756.502 570.571 756.695 570.879C757.138 571.586 757.507 572.932 757.668 575.374H757.669C757.916 580.162 758.084 583.673 758.005 586.301C757.924 588.985 757.586 590.369 757.107 591.144C756.734 591.749 756.131 592.206 754.607 592.494C752.99 592.799 750.733 592.839 747.411 592.839H745.695C743.166 592.839 741.364 592.564 740.073 592.026C738.863 591.522 738.052 590.77 737.485 589.603C736.88 588.357 736.508 586.539 736.457 583.868C736.406 581.214 736.673 577.874 737.22 573.68C737.482 571.677 737.964 570.874 738.285 570.553C738.538 570.3 738.903 570.131 739.73 570.131Z" fill="url(#paint25_radial_1058_320)" stroke="#2C70A8" stroke-width="4"/>
<path d="M953.554 570.32C960.503 570.32 963.59 571.516 965.018 573.776C965.773 574.973 966.239 576.716 966.293 579.332C966.347 581.943 965.989 585.248 965.255 589.428L965.251 589.451C965.015 590.896 964.637 591.607 964.308 591.952C964.046 592.227 963.643 592.454 962.773 592.454H951.978V592.684C946.93 592.446 943.993 590.751 942.48 588.1C940.745 585.057 940.478 580.116 942.349 572.849C942.654 571.673 943.044 571.165 943.342 570.919C943.631 570.68 944.066 570.498 944.867 570.447C947.776 570.32 950.587 570.32 953.554 570.32Z" fill="url(#paint26_radial_1058_320)" stroke="#2C70A8" stroke-width="4"/>
<path d="M986.781 569.969C989.349 569.969 991.179 570.252 992.489 570.804C993.718 571.321 994.544 572.095 995.119 573.295C995.732 574.574 996.102 576.434 996.145 579.156C996.187 581.861 995.906 585.26 995.339 589.521L995.337 589.53L995.336 589.54C995.145 591.082 994.831 591.867 994.566 592.232C994.406 592.454 994.273 592.545 993.89 592.545H985.107V592.738C983.663 592.59 982.498 592.21 981.566 591.656C980.364 590.941 979.415 589.857 978.74 588.297C977.344 585.068 977.162 579.883 978.612 572.45L978.611 572.449C978.864 571.165 979.193 570.621 979.399 570.396C979.54 570.243 979.713 570.133 980.149 570.096C982.358 569.969 984.497 569.969 986.781 569.969Z" fill="url(#paint27_radial_1058_320)" stroke="#2C70A8" stroke-width="4"/>
<path d="M843.896 700.818H852.394C855.105 700.818 856.991 701.02 858.328 701.484C859.558 701.911 860.292 702.545 860.8 703.553C861.364 704.673 861.717 706.397 861.769 709.12C861.82 711.817 861.576 715.285 861.107 719.766L861.106 719.779C860.878 722.124 860.342 722.883 860.055 723.138C859.789 723.373 859.357 723.526 858.194 723.526C855.654 723.526 852.657 723.398 849.769 723.526H845.203C842.92 723.526 841.477 723.519 840.452 723.337C839.548 723.176 839.329 722.942 839.179 722.7C838.91 722.269 838.648 721.383 838.512 719.42C838.38 717.516 838.379 714.946 838.379 711.379C838.379 708.282 838.39 706.041 838.514 704.377C838.641 702.66 838.874 701.886 839.096 701.516C839.209 701.326 839.352 701.15 840.024 701.011C840.832 700.844 841.995 700.818 843.896 700.818Z" fill="url(#paint28_radial_1058_320)" stroke="#2C70A8" stroke-width="4"/>
<path d="M786.133 700.654C788.273 700.654 789.609 700.662 790.555 700.83C791.38 700.977 791.552 701.183 791.672 701.373C791.909 701.749 792.158 702.551 792.296 704.383C792.396 705.713 792.431 707.393 792.45 709.558L792.467 711.889C792.467 715.318 792.465 717.783 792.337 719.609C792.205 721.497 791.952 722.33 791.702 722.727C791.57 722.936 791.375 723.158 790.5 723.312C789.508 723.488 788.109 723.495 785.888 723.495H777.88C775.531 723.495 773.826 723.158 772.59 722.555C771.41 721.979 770.551 721.11 769.944 719.786C768.636 716.931 768.498 711.997 769.727 703.845L769.729 703.832C769.985 702.052 770.429 701.421 770.677 701.189C770.895 700.986 771.224 700.838 772.041 700.782C773.489 700.72 774.945 700.721 776.45 700.721C777.936 700.721 779.471 700.72 781.014 700.654H786.133Z" fill="url(#paint29_radial_1058_320)" stroke="#2C70A8" stroke-width="4"/>
<path d="M823.824 700.691C824.479 700.627 824.898 700.614 825.214 700.669C825.458 700.712 825.552 700.779 825.638 700.884C825.764 701.038 826.014 701.466 826.15 702.511L826.151 702.521L826.152 702.529C826.648 706.069 827.199 709.84 827.268 713.414C827.337 717.008 826.905 720.125 825.644 722.446C825.122 723.384 824.599 723.749 824.157 723.922C823.658 724.118 823.018 724.164 822.126 724.064C821.124 723.952 820.374 723.751 819.146 723.553C818.183 723.397 816.989 723.265 815.805 723.523H810.321C808.227 723.523 806.932 723.507 806.026 723.331C805.256 723.181 805.09 722.981 804.963 722.767C804.719 722.356 804.479 721.51 804.354 719.645C804.234 717.837 804.232 715.405 804.232 712.037C804.232 708.701 804.234 706.304 804.355 704.527C804.481 702.694 804.723 701.882 804.96 701.495C805.083 701.294 805.255 701.087 806.064 700.929C806.997 700.746 808.315 700.716 810.435 700.682C814.275 700.681 817.965 700.552 821.62 700.81L821.633 700.811L821.645 700.812C822.417 700.856 823.279 700.745 823.824 700.691Z" fill="url(#paint30_radial_1058_320)" stroke="#2C70A8" stroke-width="4"/>
<path d="M927.234 700.789C927.864 700.765 928.235 700.863 928.457 700.971C928.656 701.068 928.85 701.227 929.042 701.56C929.465 702.292 929.775 703.67 929.812 706.093L929.815 706.592C929.753 712.333 929.831 716.171 929.741 718.944C929.697 720.312 929.613 721.285 929.477 721.991C929.34 722.699 929.179 722.975 929.097 723.079C929.015 723.181 928.765 723.469 926.717 723.501C925.767 723.516 924.646 723.483 923.187 723.462C921.762 723.441 920.089 723.433 918.139 723.499H914.166C911.883 723.499 910.44 723.491 909.417 723.309C908.514 723.148 908.303 722.915 908.157 722.679C907.893 722.251 907.636 721.368 907.511 719.403C907.39 717.5 907.403 714.93 907.424 711.362V711.352C907.424 708.218 907.43 705.959 907.548 704.285C907.67 702.555 907.898 701.793 908.11 701.438C908.209 701.273 908.33 701.102 909.015 700.968C909.834 700.807 911.01 700.79 912.94 700.79C917.6 700.79 922.442 700.923 927.214 700.79L927.225 700.789H927.234Z" fill="url(#paint31_radial_1058_320)" stroke="#2C70A8" stroke-width="4"/>
<path d="M1065.31 700.789C1065.94 700.765 1066.31 700.863 1066.53 700.971C1066.73 701.068 1066.92 701.227 1067.12 701.56C1067.54 702.292 1067.85 703.67 1067.89 706.093L1067.89 706.592C1067.83 712.333 1067.91 716.171 1067.82 718.944C1067.77 720.312 1067.69 721.285 1067.55 721.991C1067.41 722.699 1067.25 722.975 1067.17 723.079C1067.09 723.181 1066.84 723.469 1064.79 723.501C1063.84 723.516 1062.72 723.483 1061.26 723.462C1059.84 723.441 1058.16 723.433 1056.21 723.499H1052.24C1049.96 723.499 1048.51 723.491 1047.49 723.309C1046.59 723.148 1046.38 722.915 1046.23 722.679C1045.97 722.251 1045.71 721.368 1045.58 719.403C1045.46 717.5 1045.48 714.93 1045.5 711.362V711.352C1045.5 708.218 1045.5 705.959 1045.62 704.285C1045.74 702.555 1045.97 701.793 1046.18 701.438C1046.28 701.273 1046.4 701.102 1047.09 700.968C1047.91 700.807 1049.08 700.79 1051.01 700.79C1055.67 700.79 1060.52 700.923 1065.29 700.79L1065.3 700.789H1065.31Z" fill="url(#paint32_radial_1058_320)" stroke="#2C70A8" stroke-width="4"/>
<path d="M1029.28 700.789C1029.91 700.765 1030.28 700.863 1030.5 700.971C1030.7 701.068 1030.9 701.227 1031.09 701.56C1031.51 702.292 1031.82 703.67 1031.86 706.093L1031.86 706.592C1031.8 712.333 1031.88 716.171 1031.79 718.944C1031.74 720.312 1031.66 721.285 1031.52 721.991C1031.39 722.699 1031.23 722.975 1031.14 723.079C1031.06 723.181 1030.81 723.469 1028.76 723.501C1027.81 723.516 1026.69 723.483 1025.23 723.462C1023.81 723.441 1022.14 723.433 1020.19 723.499H1016.21C1013.93 723.499 1012.49 723.491 1011.46 723.309C1010.56 723.148 1010.35 722.915 1010.2 722.679C1009.94 722.251 1009.68 721.368 1009.56 719.403C1009.44 717.5 1009.45 714.93 1009.47 711.362V711.352C1009.47 708.218 1009.48 705.959 1009.59 704.285C1009.72 702.555 1009.94 701.793 1010.16 701.438C1010.26 701.273 1010.38 701.102 1011.06 700.968C1011.88 700.807 1013.06 700.79 1014.99 700.79C1019.65 700.79 1024.49 700.923 1029.26 700.79L1029.27 700.789H1029.28Z" fill="url(#paint33_radial_1058_320)" stroke="#2C70A8" stroke-width="4"/>
<path d="M892.832 700.788C893.43 700.765 893.784 700.868 894 700.981C894.203 701.088 894.415 701.273 894.623 701.646C895.095 702.495 895.412 704.069 895.412 706.723C895.392 712.309 895.458 716.119 895.344 718.832C895.287 720.178 895.189 721.144 895.04 721.85C894.891 722.556 894.72 722.862 894.612 722.996C894.484 723.158 894.171 723.449 892.244 723.503C891.338 723.528 890.257 723.504 888.869 723.483C887.516 723.463 885.929 723.449 884.09 723.498H881.807C879.213 723.498 877.385 723.251 876.083 722.744C874.873 722.273 874.095 721.57 873.552 720.467C872.964 719.272 872.6 717.493 872.546 714.805C872.493 712.136 872.745 708.749 873.253 704.445L873.254 704.435C873.481 702.415 873.939 701.574 874.261 701.229C874.501 700.972 874.849 700.79 875.679 700.79C881.332 700.79 887.055 700.922 892.802 700.789H892.816L892.832 700.788Z" fill="url(#paint34_radial_1058_320)" stroke="#2C70A8" stroke-width="4"/>
<path d="M739.73 700.818H755.091C755.615 700.818 755.931 700.91 756.13 701.011C756.314 701.104 756.502 701.258 756.695 701.566C757.138 702.273 757.507 703.62 757.668 706.062H757.669C757.916 710.85 758.084 714.361 758.005 716.988C757.924 719.672 757.586 721.057 757.107 721.831C756.734 722.436 756.131 722.894 754.607 723.182C752.99 723.487 750.733 723.526 747.411 723.526H745.695C743.166 723.526 741.364 723.251 740.073 722.714C738.863 722.21 738.052 721.457 737.485 720.29C736.88 719.044 736.508 717.227 736.457 714.556C736.406 711.901 736.673 708.561 737.22 704.367C737.482 702.364 737.964 701.561 738.285 701.24C738.538 700.987 738.903 700.818 739.73 700.818Z" fill="url(#paint35_radial_1058_320)" stroke="#2C70A8" stroke-width="4"/>
<path d="M953.554 700.998C960.503 700.998 963.59 702.194 965.018 704.454C965.773 705.65 966.239 707.394 966.293 710.01C966.347 712.621 965.989 715.926 965.255 720.105L965.251 720.129C965.015 721.574 964.637 722.285 964.308 722.63C964.046 722.905 963.643 723.132 962.773 723.132H951.978V723.361C946.93 723.124 943.993 721.429 942.48 718.777C940.745 715.735 940.478 710.794 942.349 703.526C942.654 702.351 943.044 701.842 943.342 701.597C943.631 701.358 944.066 701.176 944.867 701.125C947.776 700.998 950.587 700.998 953.554 700.998Z" fill="url(#paint36_radial_1058_320)" stroke="#2C70A8" stroke-width="4"/>
<path d="M986.781 700.654C989.349 700.654 991.179 700.938 992.489 701.489C993.718 702.007 994.544 702.78 995.119 703.98C995.732 705.26 996.102 707.12 996.145 709.842C996.187 712.547 995.906 715.946 995.339 720.207L995.337 720.216L995.336 720.226C995.145 721.767 994.831 722.552 994.566 722.918C994.406 723.139 994.273 723.23 993.89 723.23H985.107V723.424C983.663 723.275 982.498 722.896 981.566 722.342C980.364 721.626 979.415 720.542 978.74 718.982C977.344 715.754 977.162 710.568 978.612 703.136L978.611 703.135C978.864 701.851 979.193 701.307 979.399 701.082C979.54 700.929 979.713 700.818 980.149 700.781C982.358 700.655 984.497 700.654 986.781 700.654Z" fill="url(#paint37_radial_1058_320)" stroke="#2C70A8" stroke-width="4"/>
<path d="M676.956 433.241C676.956 438.143 673.078 442.117 668.295 442.117C663.512 442.117 659.635 438.143 659.635 433.241C659.635 428.339 663.512 414.898 668.295 414.898C673.078 414.898 676.956 428.339 676.956 433.241Z" fill="#2C70A8"/>
<path d="M1146.27 433.241C1146.27 438.143 1142.39 442.117 1137.61 442.117C1132.82 442.117 1128.95 438.143 1128.95 433.241C1128.95 428.339 1132.82 414.898 1137.61 414.898C1142.39 414.898 1146.27 428.339 1146.27 433.241Z" fill="#2C70A8"/>
<path d="M1322 578.067C1321.87 587.488 1314.9 594.587 1305.48 594.587C1296.44 594.587 1288.96 586.972 1288.96 578.067C1288.96 568.645 1296.96 560.642 1306.12 560.901C1315.16 561.288 1322.13 568.774 1322 578.067Z" fill="#2C70A8"/>
<path d="M479.663 653.761C483.922 649.114 481.341 643.952 479.405 638.273C477.598 633.11 482.115 629.883 487.536 632.594C491.924 634.788 495.022 636.337 499.41 632.465C501.475 630.529 505.476 630.4 507.67 632.723C510.123 635.304 509.735 639.176 507.541 641.757C504.315 645.5 504.573 648.211 507.541 651.825C509.477 654.148 509.994 657.633 507.67 660.085C505.347 662.537 501.604 662.279 499.41 660.472C495.409 657.246 492.699 657.891 488.439 660.472C483.019 663.699 478.888 660.601 479.663 653.761Z" fill="#2C70A8"/>
<path d="M1237.5 365.326C1231.83 370.36 1235.96 376.426 1237.25 382.879C1238.54 389.204 1232.99 389.849 1229.11 387.913C1224.47 385.59 1221.11 384.945 1216.08 387.01C1209.88 389.462 1206.14 385.074 1208.98 378.62C1210.66 374.619 1211.05 371.78 1208.59 368.037C1206.92 365.584 1206.66 362.1 1209.11 359.647C1211.56 357.195 1214.92 357.711 1217.37 359.647C1221.11 362.616 1223.82 361.841 1227.69 359.647C1233.5 356.292 1237.76 358.615 1237.5 365.326Z" fill="#2C70A8"/>
<path d="M895.755 325.5C902.286 325.5 909.102 326.055 915.646 326.891C925.807 328.683 934.195 336.209 934.195 346.215V382.504C934.195 392.987 926.033 401.404 915.714 401.404H877.75C864.634 401.405 853.524 412.654 853.523 425.491V442.438H840.903C835.524 442.438 831.256 440.502 828.001 437.196C824.735 433.879 822.465 429.158 821.152 423.563L821.151 423.561L820.824 422.172C817.554 407.998 817.789 399.122 821.151 385.133L821.152 385.13C824.028 372.804 833.589 366.255 844.393 366.255H897.232V360.37H859.129V346.354C859.129 340.868 859.864 336.766 862.482 333.681C865.106 330.589 869.706 328.418 877.696 327.028L877.699 327.027C883.111 326.056 889.223 325.5 895.755 325.5ZM875.238 336.224C871.048 336.224 867.62 339.664 867.62 343.981C867.62 348.299 871.048 351.739 875.238 351.739C879.429 351.739 882.856 348.299 882.856 343.981C882.856 339.664 879.429 336.224 875.238 336.224Z" fill="#2C70A8" stroke="#0F64AA"/>
<path d="M953.669 366.39C959.037 366.39 962.948 368.385 965.872 371.715C968.63 374.856 970.528 379.207 971.898 384.255L972.166 385.273C975.919 400.563 976.046 411.907 972.176 423.655L972.175 423.657C970.292 429.445 968.327 434.175 965.502 437.46C962.704 440.713 959.042 442.573 953.669 442.573H896.224V448.458H934.187V462.474C934.186 467.823 931.926 471.845 928.477 474.887C925.229 477.75 920.925 479.746 916.461 481.126L915.565 481.394C901.292 485.551 889.807 484.859 877.887 481.395C867.874 478.335 859.26 472.442 859.26 462.474V426.185C859.26 415.979 867.564 407.284 877.741 407.284H915.705C928.546 407.284 939.932 396.031 939.933 382.639V366.39H953.669ZM918.078 456.948C913.893 456.948 910.526 460.172 910.456 464.319L910.46 464.724C910.469 469.033 913.893 472.464 918.078 472.464C922.268 472.464 925.696 469.023 925.696 464.706C925.696 460.389 922.268 456.948 918.078 456.948Z" fill="#FFDE57" stroke="#E0B402"/>
<path d="M643.186 341.65C643.057 351.33 636.345 357.912 626.536 357.783C616.856 357.654 610.145 350.813 610.145 341.262C610.274 332.099 617.63 325 626.923 325C636.603 325 643.315 331.97 643.186 341.65Z" fill="#2C70A8"/>
<path d="M679.586 870.441C679.586 881.347 679.586 892.383 679.586 903.289C679.586 907.493 678.552 911.698 671.665 911.829C664.951 911.829 663.057 907.756 663.057 903.551C662.885 881.084 662.885 858.485 663.057 836.018C663.057 831.813 664.779 828.003 671.838 828.134C679.241 828.266 679.413 832.733 679.413 836.674C679.758 847.974 679.758 859.273 679.586 870.441Z" fill="#2C70A8"/>
<path d="M1141.36 869.258C1141.36 879.901 1141.36 890.543 1141.36 901.317C1141.36 906.047 1141.19 911.303 1133.1 911.565C1124.83 911.828 1124.14 906.572 1124.14 901.842C1124.14 880.557 1123.97 859.141 1124.14 837.856C1124.14 833.126 1124.49 828.002 1133.1 828.133C1141.53 828.265 1141.36 833.652 1141.53 838.25C1141.36 848.499 1141.36 858.878 1141.36 869.258Z" fill="#2C70A8"/>
<path d="M1141.19 950.179C1141.19 954.12 1141.36 958.062 1141.19 962.004C1141.02 965.814 1138.44 968.442 1133.1 968.573C1127.76 968.704 1124.49 966.339 1124.32 962.66C1123.8 954.12 1123.97 945.58 1124.32 937.04C1124.49 933.229 1127.42 930.733 1132.75 930.864C1137.92 930.996 1140.85 933.492 1141.02 937.302C1141.36 941.638 1141.19 945.843 1141.19 950.179Z" fill="#2C70A8"/>
<path d="M680.127 950.179C680.127 954.12 680.299 958.062 680.127 962.004C679.954 965.814 677.372 968.442 672.034 968.573C666.697 968.704 663.426 966.339 663.254 962.66C662.737 954.12 662.909 945.58 663.254 937.04C663.426 933.229 666.353 930.733 671.69 930.864C676.855 930.996 679.782 933.492 679.954 937.302C680.299 941.638 680.127 945.843 680.127 950.179Z" fill="#2C70A8"/>
<path d="M670.026 747.778C656.723 747.778 643.272 747.778 629.969 747.778C626.126 747.778 621.839 747.515 621.692 742.917C621.544 738.581 625.387 737.398 629.526 737.398C656.575 737.398 683.624 737.398 710.673 737.398C714.812 737.398 718.655 738.581 718.507 742.917C718.359 747.384 713.925 747.647 710.082 747.647C696.779 747.778 683.476 747.778 670.026 747.778Z" fill="#2C70A8"/>
<path d="M905.143 657.052C862.315 657.052 819.011 657.052 776.183 657.052C763.811 657.052 750.011 656.789 749.535 652.19C749.059 647.854 761.431 646.672 774.756 646.672C861.839 646.672 948.923 646.672 1036.01 646.672C1049.33 646.672 1061.7 647.854 1061.23 652.19C1060.75 656.657 1046.48 656.92 1034.1 656.92C991.275 657.052 948.447 657.052 905.143 657.052Z" fill="#2C70A8"/>
<path d="M1138.51 747.778C1125.21 747.778 1111.76 747.778 1098.46 747.778C1094.61 747.778 1090.33 747.515 1090.18 742.917C1090.03 738.581 1093.88 737.398 1098.01 737.398C1125.06 737.398 1152.11 737.398 1179.16 737.398C1183.3 737.398 1187.14 738.581 1187 742.917C1186.85 747.384 1182.41 747.647 1178.57 747.647C1165.27 747.778 1151.96 747.778 1138.51 747.778Z" fill="#2C70A8"/>
<path d="M672.124 728.513C667.982 728.513 663.988 728.645 659.846 728.513C656.444 728.382 653.93 726.674 653.93 723.389C653.93 720.63 656 718.79 658.959 718.528C668.13 717.608 677.3 717.608 686.471 718.528C689.282 718.79 691.501 720.761 691.501 723.52C691.353 726.674 688.838 728.382 685.436 728.513C680.998 728.645 676.561 728.513 672.124 728.513Z" fill="#2C70A8"/>
<path d="M1140.61 728.513C1136.47 728.513 1132.47 728.645 1128.33 728.513C1124.93 728.382 1122.42 726.674 1122.42 723.389C1122.42 720.63 1124.49 718.79 1127.45 718.528C1136.62 717.608 1145.79 717.608 1154.96 718.528C1157.77 718.79 1159.99 720.761 1159.99 723.52C1159.84 726.674 1157.32 728.382 1153.92 728.513C1149.48 728.645 1145.05 728.513 1140.61 728.513Z" fill="#2C70A8"/>
<path d="M634.658 728.225C632.618 728.225 630.577 728.357 628.537 728.225C624.748 728.092 621.688 726.899 621.688 722.923C621.833 718.947 625.185 717.887 628.683 717.755C632.764 717.49 636.844 717.622 640.779 717.755C644.277 717.887 647.92 718.815 648.066 722.658C648.357 727.164 644.422 728.092 640.488 728.225C638.739 728.357 636.698 728.357 634.658 728.225C634.658 728.357 634.658 728.357 634.658 728.225Z" fill="#2C70A8"/>
<path d="M1103.15 728.225C1101.11 728.225 1099.07 728.357 1097.03 728.225C1093.24 728.092 1090.18 726.899 1090.18 722.923C1090.32 718.947 1093.67 717.887 1097.17 717.755C1101.25 717.49 1105.33 717.622 1109.27 717.755C1112.76 717.887 1116.41 718.815 1116.55 722.658C1116.85 727.164 1112.91 728.092 1108.98 728.225C1107.23 728.357 1105.19 728.357 1103.15 728.225C1103.15 728.357 1103.15 728.357 1103.15 728.225Z" fill="#2C70A8"/>
<path d="M708.066 717.986C712.504 718.38 718.864 717.329 719.012 723.242C719.16 729.286 712.799 728.629 708.066 728.629C703.481 728.629 697.12 729.549 697.416 723.11C697.86 717.724 703.481 718.249 708.066 717.986Z" fill="#2C70A8"/>
<path d="M1176.55 717.986C1180.99 718.38 1187.35 717.329 1187.5 723.242C1187.64 729.286 1181.28 728.629 1176.55 728.629C1171.97 728.629 1165.6 729.549 1165.9 723.11C1166.34 717.724 1171.97 718.249 1176.55 717.986Z" fill="#2C70A8"/>
<path d="M671.536 573.337C659.987 573.337 648.295 573.337 636.746 573.337C632.041 573.337 627.621 572.417 627.478 567.293C627.193 561.774 631.613 560.066 636.746 560.066C659.987 560.066 683.086 560.066 706.327 560.066C711.317 560.066 715.024 561.906 715.167 566.767C715.31 572.023 711.317 573.337 706.469 573.337C694.778 573.337 683.086 573.337 671.536 573.337Z" fill="#2C70A8"/>
<path d="M1139.2 573.337C1127.65 573.337 1115.96 573.337 1104.41 573.337C1099.7 573.337 1095.28 572.417 1095.14 567.293C1094.85 561.774 1099.27 560.066 1104.41 560.066C1127.65 560.066 1150.75 560.066 1173.99 560.066C1178.98 560.066 1182.68 561.906 1182.83 566.767C1182.97 572.023 1178.98 573.337 1174.13 573.337C1162.44 573.337 1150.75 573.337 1139.2 573.337Z" fill="#2C70A8"/>
<path d="M821.156 838.648C794.272 838.648 794.272 838.648 794.272 811.207C794.272 802.414 793.057 793.165 800.803 786.798C809.005 779.975 817.359 773.456 829.206 778.611C841.205 783.917 849.102 791.649 847.887 805.901C847.432 811.51 847.887 817.12 847.736 822.729C847.584 836.223 845.305 838.497 831.636 838.648C828.143 838.8 824.649 838.648 821.156 838.648Z" fill="#2C70A8"/>
<path d="M803.931 811.084C801.755 796.376 805.89 785.346 820.908 783.278C831.573 781.899 838.32 793.619 838.756 810.624C839.191 823.952 838.538 833.604 821.126 833.374C804.367 833.144 801.755 825.101 803.931 811.084Z" fill="url(#paint38_radial_1058_320)"/>
<path d="M752.5 891.797C725.616 891.797 725.616 891.797 725.616 864.355C725.616 855.562 724.401 846.314 732.147 839.946C740.349 833.124 748.703 826.604 760.549 831.759C772.548 837.066 780.446 844.798 779.231 859.049C778.775 864.659 779.231 870.268 779.079 875.878C778.927 889.371 776.649 891.645 762.98 891.797C759.486 891.948 755.993 891.797 752.5 891.797Z" fill="#2C70A8"/>
<path d="M734.931 863.384C732.626 848.677 737.005 837.647 752.906 835.579C764.199 834.2 771.343 845.92 771.804 862.925C772.265 876.253 771.573 885.905 753.137 885.675C735.392 885.445 732.626 877.402 734.931 863.384Z" fill="url(#paint39_radial_1058_320)"/>
<path d="M904.556 818.721C877.673 818.721 877.673 818.721 877.673 791.279C877.673 782.486 876.458 773.238 884.204 766.87C892.405 760.048 900.759 753.528 912.606 758.683C924.605 763.989 932.503 771.722 931.288 785.973C930.832 791.582 931.288 797.192 931.136 802.802C930.984 816.295 928.706 818.569 915.036 818.721C911.543 818.872 908.05 818.721 904.556 818.721Z" fill="#2C70A8"/>
<path d="M885.562 790.162C883.257 775.455 887.636 764.424 903.537 762.356C914.83 760.977 921.974 772.697 922.435 789.702C922.896 803.03 922.204 812.682 903.768 812.452C886.023 812.222 883.257 804.179 885.562 790.162Z" fill="url(#paint40_radial_1058_320)"/>
<path d="M987.974 838.648C961.091 838.648 961.091 838.648 961.091 811.207C961.091 802.414 959.876 793.165 967.622 786.798C975.823 779.975 984.177 773.456 996.024 778.611C1008.02 783.917 1015.92 791.649 1014.71 805.901C1014.25 811.51 1014.71 817.12 1014.55 822.729C1014.4 836.223 1012.12 838.497 998.454 838.648C994.961 838.8 991.468 838.648 987.974 838.648Z" fill="#2C70A8"/>
<path d="M1005.58 812.912C1008.1 826.019 1003.29 833.148 985.869 833.378C966.844 833.378 968.449 822.11 968.678 809.922C968.907 793.595 976.471 782.097 987.932 783.247C1001.91 784.627 1006.96 794.055 1005.58 807.393C1005.35 808.313 1005.58 809.462 1005.58 812.912Z" fill="url(#paint41_radial_1058_320)"/>
<path d="M1052.94 891.797C1026.05 891.797 1026.05 891.797 1026.05 864.355C1026.05 855.562 1024.84 846.314 1032.58 839.946C1040.78 833.124 1049.14 826.604 1060.99 831.759C1072.98 837.066 1080.88 844.798 1079.67 859.049C1079.21 864.659 1079.67 870.268 1079.51 875.878C1079.36 889.371 1077.08 891.645 1063.42 891.797C1059.92 891.948 1056.43 891.797 1052.94 891.797Z" fill="#2C70A8"/>
<path d="M1072.49 866.452C1075.16 880.106 1070.07 887.531 1051.69 887.771C1031.61 887.771 1033.3 876.033 1033.54 863.338C1033.78 846.33 1041.77 834.353 1053.86 835.551C1068.62 836.988 1073.95 846.81 1072.49 860.703C1072.25 861.661 1072.49 862.859 1072.49 866.452Z" fill="url(#paint42_radial_1058_320)"/>
<path d="M901.056 853.901C903.033 853.887 905.033 853.993 906.827 854.235C908.572 854.472 910.262 854.856 911.557 855.471C927.522 862.405 946.777 870.319 965.3 879.644C983.833 888.973 1001.8 899.791 1015.18 912.611H1015.18C1024.42 921.442 1030.84 934.829 1034.86 949.198C1038.89 963.601 1040.57 979.198 1040.15 992.658V992.666C1039.13 1021.99 1040.15 1062.13 1040.15 1091.59C1040.15 1122.43 1040.56 1142.96 1040.15 1173.64L1040.15 1173.64C1040.15 1175.2 1039.64 1176.57 1038.68 1177.68C1037.75 1178.75 1036.49 1179.46 1035.15 1179.94C1032.51 1180.89 1029.02 1181.13 1025.37 1181.11C1021.68 1181.08 1017.59 1180.76 1013.66 1180.44C1009.68 1180.11 1005.88 1179.79 1002.64 1179.74H1002.64C999.82 1179.69 997.339 1179.94 995.165 1180.21C993.076 1180.48 991.037 1180.81 989.429 1180.86C987.821 1180.9 985.953 1180.7 984.601 1179.28C983.307 1177.91 982.947 1175.9 982.946 1173.62L982.854 1151.29C982.611 1098.86 982.232 1044.35 982.946 992.568V992.56C983.355 970.13 981.894 952.07 967.509 938.812L967.505 938.809C956.621 928.728 948.82 922.322 940.479 917.004C932.13 911.682 923.176 907.409 909.926 901.652H909.925C907.931 900.829 904.6 900.35 901.07 900.35C897.531 900.35 894.19 900.831 892.198 901.658C878.243 907.672 868.74 911.444 859.922 916.482C851.17 921.483 843.077 927.749 832.146 938.751L832.141 938.756C819.48 951.404 810.676 973.287 810.872 992.568C811.689 1051.74 810.872 1093.47 810.872 1152.59C810.872 1154.86 810.974 1158.91 811.025 1163.08C811.076 1167.17 811.079 1171.39 810.864 1173.8L810.863 1173.79C810.701 1175.9 809.607 1177.4 808.035 1178.31C806.587 1179.16 804.798 1179.49 803.12 1179.63C801.41 1179.77 799.558 1179.74 797.878 1179.71C796.142 1179.67 794.616 1179.64 793.36 1179.74C790.511 1179.96 781.196 1180.23 772.428 1179.8C768.049 1179.58 763.714 1179.18 760.358 1178.48C758.692 1178.14 757.157 1177.7 755.953 1177.11C754.853 1176.57 753.489 1175.66 753.118 1174.08C752.814 1172.78 752.683 1171.03 752.635 1169.19C752.585 1167.32 752.619 1165.21 752.684 1163.12C752.815 1158.86 753.065 1154.84 753.065 1152.59C753.065 1092.32 753.474 1052.85 753.065 992.612C752.961 979.921 756.088 964.18 761.3 949.555C766.503 934.953 773.877 921.203 782.44 912.641C796.059 899.014 814.837 888.293 834.264 879.211C853.644 870.15 874.042 862.564 890.63 855.45L890.634 855.448C893.057 854.415 897.196 853.929 901.056 853.901Z" fill="url(#paint43_radial_1058_320)" stroke="#2C70A8" stroke-width="4"/>
<defs>
<linearGradient id="paint0_linear_1058_320" x1="1163.95" y1="1318.77" x2="1163.95" y2="1478.19" gradientUnits="userSpaceOnUse">
<stop stop-color="#306998"/>
<stop offset="1" stop-color="#347AB4"/>
</linearGradient>
<linearGradient id="paint1_linear_1058_320" x1="1043.2" y1="1265.63" x2="1043.2" y2="1425.05" gradientUnits="userSpaceOnUse">
<stop stop-color="#306998"/>
<stop offset="1" stop-color="#347AB4"/>
</linearGradient>
<linearGradient id="paint2_linear_1058_320" x1="903.68" y1="1255" x2="903.68" y2="1427.88" gradientUnits="userSpaceOnUse">
<stop stop-color="#306998"/>
<stop offset="1" stop-color="#347AB4"/>
</linearGradient>
<linearGradient id="paint3_linear_1058_320" x1="784.836" y1="1318.77" x2="784.836" y2="1478.19" gradientUnits="userSpaceOnUse">
<stop stop-color="#306998"/>
<stop offset="1" stop-color="#347AB4"/>
</linearGradient>
<linearGradient id="paint4_linear_1058_320" x1="652.848" y1="1265.63" x2="652.848" y2="1425.05" gradientUnits="userSpaceOnUse">
<stop stop-color="#306998"/>
<stop offset="1" stop-color="#347AB4"/>
</linearGradient>
<radialGradient id="paint5_radial_1058_320" cx="0" cy="0" r="1" gradientUnits="userSpaceOnUse" gradientTransform="translate(904.594 646.262) rotate(90) scale(39.178 186.405)">
<stop stop-color="#FFDF5A"/>
<stop offset="1" stop-color="#FEE477"/>
</radialGradient>
<radialGradient id="paint6_radial_1058_320" cx="0" cy="0" r="1" gradientUnits="userSpaceOnUse" gradientTransform="translate(668.513 983.356) rotate(90) scale(204.213 45.9914)">
<stop stop-color="#FFDF5A"/>
<stop offset="1" stop-color="#FEE477"/>
</radialGradient>
<radialGradient id="paint7_radial_1058_320" cx="0" cy="0" r="1" gradientUnits="userSpaceOnUse" gradientTransform="translate(1135.96 959.26) rotate(90) scale(228.481 44.9516)">
<stop stop-color="#FFDF5A"/>
<stop offset="1" stop-color="#FEE477"/>
</radialGradient>
<radialGradient id="paint8_radial_1058_320" cx="0" cy="0" r="1" gradientUnits="userSpaceOnUse" gradientTransform="translate(667.878 732.203) rotate(90) scale(33.5893 66.7977)">
<stop stop-color="#FFDF5A"/>
<stop offset="1" stop-color="#FEE477"/>
</radialGradient>
<radialGradient id="paint9_radial_1058_320" cx="0" cy="0" r="1" gradientUnits="userSpaceOnUse" gradientTransform="translate(1138.33 732.2) rotate(90) scale(33.587 66.4757)">
<stop stop-color="#FFDF5A"/>
<stop offset="1" stop-color="#FEE477"/>
</radialGradient>
<radialGradient id="paint10_radial_1058_320" cx="0" cy="0" r="1" gradientUnits="userSpaceOnUse" gradientTransform="translate(1136.92 567.053) rotate(90) scale(28.5625 65.0674)">
<stop stop-color="#FFDF5A"/>
<stop offset="1" stop-color="#FEE477"/>
</radialGradient>
<radialGradient id="paint11_radial_1058_320" cx="0" cy="0" r="1" gradientUnits="userSpaceOnUse" gradientTransform="translate(669.948 567.188) rotate(90) scale(28.6973 65.149)">
<stop stop-color="#FFDF5A"/>
<stop offset="1" stop-color="#FEE477"/>
</radialGradient>
<radialGradient id="paint12_radial_1058_320" cx="0" cy="0" r="1" gradientUnits="userSpaceOnUse" gradientTransform="translate(1137.55 646.831) rotate(90) scale(38.442 42.9032)">
<stop stop-color="#FFDF5A"/>
<stop offset="1" stop-color="#FEE477"/>
</radialGradient>
<radialGradient id="paint13_radial_1058_320" cx="0" cy="0" r="1" gradientUnits="userSpaceOnUse" gradientTransform="translate(671.402 646.995) rotate(90) scale(38.6067 42.7281)">
<stop stop-color="#FFDF5A"/>
<stop offset="1" stop-color="#FEE477"/>
</radialGradient>
<radialGradient id="paint14_radial_1058_320" cx="0" cy="0" r="1" gradientUnits="userSpaceOnUse" gradientTransform="translate(667.578 461.286) rotate(90) scale(27.114 57.6468)">
<stop stop-color="#FFDF5A"/>
<stop offset="1" stop-color="#FEE477"/>
</radialGradient>
<radialGradient id="paint15_radial_1058_320" cx="0" cy="0" r="1" gradientUnits="userSpaceOnUse" gradientTransform="translate(1136.89 461.408) rotate(90) scale(27.1053 57.668)">
<stop stop-color="#FFDF5A"/>
<stop offset="1" stop-color="#FEE477"/>
</radialGradient>
<radialGradient id="paint16_radial_1058_320" cx="0" cy="0" r="1" gradientUnits="userSpaceOnUse" gradientTransform="translate(670.752 513.531) rotate(90) scale(12.056 36.9163)">
<stop stop-color="#FFDF5A"/>
<stop offset="1" stop-color="#FEE477"/>
</radialGradient>
<radialGradient id="paint17_radial_1058_320" cx="0" cy="0" r="1" gradientUnits="userSpaceOnUse" gradientTransform="translate(1138.69 513.576) rotate(90) scale(11.971 36.8325)">
<stop stop-color="#FFDF5A"/>
<stop offset="1" stop-color="#FEE477"/>
</radialGradient>
<radialGradient id="paint18_radial_1058_320" cx="0" cy="0" r="1" gradientUnits="userSpaceOnUse" gradientTransform="translate(850.077 581.485) rotate(90) scale(13.3542 13.6983)">
<stop stop-color="#FFDF5A"/>
<stop offset="1" stop-color="#FEE477"/>
</radialGradient>
<radialGradient id="paint19_radial_1058_320" cx="0" cy="0" r="1" gradientUnits="userSpaceOnUse" gradientTransform="translate(780.673 581.389) rotate(90) scale(13.4203 13.7938)">
<stop stop-color="#FFDF5A"/>
<stop offset="1" stop-color="#FEE477"/>
</radialGradient>
<radialGradient id="paint20_radial_1058_320" cx="0" cy="0" r="1" gradientUnits="userSpaceOnUse" gradientTransform="translate(815.753 581.692) rotate(90) scale(13.7405 13.521)">
<stop stop-color="#FFDF5A"/>
<stop offset="1" stop-color="#FEE477"/>
</radialGradient>
<radialGradient id="paint21_radial_1058_320" cx="0" cy="0" r="1" gradientUnits="userSpaceOnUse" gradientTransform="translate(918.613 581.459) rotate(90) scale(13.3598 13.2024)">
<stop stop-color="#FFDF5A"/>
<stop offset="1" stop-color="#FEE477"/>
</radialGradient>
<radialGradient id="paint22_radial_1058_320" cx="0" cy="0" r="1" gradientUnits="userSpaceOnUse" gradientTransform="translate(1056.69 581.459) rotate(90) scale(13.3598 13.2024)">
<stop stop-color="#FFDF5A"/>
<stop offset="1" stop-color="#FEE477"/>
</radialGradient>
<radialGradient id="paint23_radial_1058_320" cx="0" cy="0" r="1" gradientUnits="userSpaceOnUse" gradientTransform="translate(1020.66 581.459) rotate(90) scale(13.3598 13.2024)">
<stop stop-color="#FFDF5A"/>
<stop offset="1" stop-color="#FEE477"/>
</radialGradient>
<radialGradient id="paint24_radial_1058_320" cx="0" cy="0" r="1" gradientUnits="userSpaceOnUse" gradientTransform="translate(883.976 581.464) rotate(90) scale(13.3644 13.4371)">
<stop stop-color="#FFDF5A"/>
<stop offset="1" stop-color="#FEE477"/>
</radialGradient>
<radialGradient id="paint25_radial_1058_320" cx="0" cy="0" r="1" gradientUnits="userSpaceOnUse" gradientTransform="translate(747.238 581.485) rotate(90) scale(13.3542 12.7865)">
<stop stop-color="#FFDF5A"/>
<stop offset="1" stop-color="#FEE477"/>
</radialGradient>
<radialGradient id="paint26_radial_1058_320" cx="0" cy="0" r="1" gradientUnits="userSpaceOnUse" gradientTransform="translate(953.679 581.517) rotate(90) scale(13.1968 14.62)">
<stop stop-color="#FFDF5A"/>
<stop offset="1" stop-color="#FEE477"/>
</radialGradient>
<radialGradient id="paint27_radial_1058_320" cx="0" cy="0" r="1" gradientUnits="userSpaceOnUse" gradientTransform="translate(986.877 581.389) rotate(90) scale(13.4203 11.2717)">
<stop stop-color="#FFDF5A"/>
<stop offset="1" stop-color="#FEE477"/>
</radialGradient>
<radialGradient id="paint28_radial_1058_320" cx="0" cy="0" r="1" gradientUnits="userSpaceOnUse" gradientTransform="translate(850.077 712.173) rotate(90) scale(13.3542 13.6983)">
<stop stop-color="#FFDF5A"/>
<stop offset="1" stop-color="#FEE477"/>
</radialGradient>
<radialGradient id="paint29_radial_1058_320" cx="0" cy="0" r="1" gradientUnits="userSpaceOnUse" gradientTransform="translate(780.673 712.075) rotate(90) scale(13.4203 13.7938)">
<stop stop-color="#FFDF5A"/>
<stop offset="1" stop-color="#FEE477"/>
</radialGradient>
<radialGradient id="paint30_radial_1058_320" cx="0" cy="0" r="1" gradientUnits="userSpaceOnUse" gradientTransform="translate(815.753 712.375) rotate(90) scale(13.7405 13.521)">
<stop stop-color="#FFDF5A"/>
<stop offset="1" stop-color="#FEE477"/>
</radialGradient>
<radialGradient id="paint31_radial_1058_320" cx="0" cy="0" r="1" gradientUnits="userSpaceOnUse" gradientTransform="translate(918.613 712.145) rotate(90) scale(13.3598 13.2024)">
<stop stop-color="#FFDF5A"/>
<stop offset="1" stop-color="#FEE477"/>
</radialGradient>
<radialGradient id="paint32_radial_1058_320" cx="0" cy="0" r="1" gradientUnits="userSpaceOnUse" gradientTransform="translate(1056.69 712.145) rotate(90) scale(13.3598 13.2024)">
<stop stop-color="#FFDF5A"/>
<stop offset="1" stop-color="#FEE477"/>
</radialGradient>
<radialGradient id="paint33_radial_1058_320" cx="0" cy="0" r="1" gradientUnits="userSpaceOnUse" gradientTransform="translate(1020.66 712.145) rotate(90) scale(13.3598 13.2024)">
<stop stop-color="#FFDF5A"/>
<stop offset="1" stop-color="#FEE477"/>
</radialGradient>
<radialGradient id="paint34_radial_1058_320" cx="0" cy="0" r="1" gradientUnits="userSpaceOnUse" gradientTransform="translate(883.976 712.15) rotate(90) scale(13.3644 13.4371)">
<stop stop-color="#FFDF5A"/>
<stop offset="1" stop-color="#FEE477"/>
</radialGradient>
<radialGradient id="paint35_radial_1058_320" cx="0" cy="0" r="1" gradientUnits="userSpaceOnUse" gradientTransform="translate(747.238 712.173) rotate(90) scale(13.3542 12.7865)">
<stop stop-color="#FFDF5A"/>
<stop offset="1" stop-color="#FEE477"/>
</radialGradient>
<radialGradient id="paint36_radial_1058_320" cx="0" cy="0" r="1" gradientUnits="userSpaceOnUse" gradientTransform="translate(953.679 712.195) rotate(90) scale(13.1968 14.62)">
<stop stop-color="#FFDF5A"/>
<stop offset="1" stop-color="#FEE477"/>
</radialGradient>
<radialGradient id="paint37_radial_1058_320" cx="0" cy="0" r="1" gradientUnits="userSpaceOnUse" gradientTransform="translate(986.877 712.075) rotate(90) scale(13.4203 11.2717)">
<stop stop-color="#FFDF5A"/>
<stop offset="1" stop-color="#FEE477"/>
</radialGradient>
<radialGradient id="paint38_radial_1058_320" cx="0" cy="0" r="1" gradientUnits="userSpaceOnUse" gradientTransform="translate(821.056 808.273) rotate(90) scale(25.1051 17.7828)">
<stop stop-color="#FFDF5A"/>
<stop offset="1" stop-color="#FEE477"/>
</radialGradient>
<radialGradient id="paint39_radial_1058_320" cx="0" cy="0" r="1" gradientUnits="userSpaceOnUse" gradientTransform="translate(753.063 860.574) rotate(90) scale(25.1051 18.8288)">
<stop stop-color="#FFDF5A"/>
<stop offset="1" stop-color="#FEE477"/>
</radialGradient>
<radialGradient id="paint40_radial_1058_320" cx="0" cy="0" r="1" gradientUnits="userSpaceOnUse" gradientTransform="translate(903.694 787.351) rotate(90) scale(25.1051 18.8288)">
<stop stop-color="#FFDF5A"/>
<stop offset="1" stop-color="#FEE477"/>
</radialGradient>
<radialGradient id="paint41_radial_1058_320" cx="0" cy="0" r="1" gradientUnits="userSpaceOnUse" gradientTransform="translate(987.378 808.273) rotate(90) scale(25.1051 18.8288)">
<stop stop-color="#FFDF5A"/>
<stop offset="1" stop-color="#FEE477"/>
</radialGradient>
<radialGradient id="paint42_radial_1058_320" cx="0" cy="0" r="1" gradientUnits="userSpaceOnUse" gradientTransform="translate(1053.28 861.62) rotate(90) scale(26.1511 19.8748)">
<stop stop-color="#FFDF5A"/>
<stop offset="1" stop-color="#FEE477"/>
</radialGradient>
<radialGradient id="paint43_radial_1058_320" cx="0" cy="0" r="1" gradientUnits="userSpaceOnUse" gradientTransform="translate(896.472 1017.5) rotate(90) scale(161.604 141.861)">
<stop stop-color="#FFDF5A"/>
<stop offset="1" stop-color="#FEE477"/>
</radialGradient>
</defs>
</svg>
