<svg width="1800" height="1800" viewBox="0 0 1800 1800" fill="none" xmlns="http://www.w3.org/2000/svg">
<rect width="1800" height="1800" fill="white"/>
<path d="M1106.61 1475.03L1141.54 1404.83L1098.76 1317.87H1132.28L1150.79 1356.28C1152.42 1359.77 1153.82 1362.98 1154.98 1365.89C1156.26 1368.68 1157.31 1371.42 1158.13 1374.09C1159.06 1371.42 1160.16 1368.68 1161.45 1365.89C1162.73 1362.98 1164.24 1359.77 1165.99 1356.28L1184.84 1317.87H1217.15L1139.27 1475.03H1106.61Z" fill="#2C70A8"/>
<path d="M985.305 1422.64V1265.48H1032.8C1043.75 1265.48 1053 1267.11 1060.57 1270.37C1068.25 1273.63 1074.42 1277.94 1079.08 1283.29C1083.73 1288.53 1087.11 1294.29 1089.21 1300.58C1091.42 1306.75 1092.52 1312.86 1092.52 1318.92C1092.52 1324.85 1091.48 1330.96 1089.38 1337.25C1087.28 1343.42 1083.85 1349.18 1079.08 1354.54C1074.42 1359.78 1068.31 1364.03 1060.74 1367.29C1053.17 1370.55 1043.86 1372.18 1032.8 1372.18H1015.69V1422.64H985.305ZM1015.69 1344.93H1031.06C1038.51 1344.93 1044.39 1343.65 1048.69 1341.09C1053.12 1338.41 1056.26 1335.1 1058.12 1331.14C1060.1 1327.18 1061.09 1323.11 1061.09 1318.92C1061.09 1314.84 1060.16 1310.82 1058.3 1306.87C1056.43 1302.79 1053.29 1299.42 1048.87 1296.74C1044.56 1294.06 1038.62 1292.72 1031.06 1292.72H1015.69V1344.93Z" fill="#2C70A8"/>
<path d="M898.222 1425.43C890.887 1425.43 884.019 1424.03 877.616 1421.24C871.33 1418.33 865.8 1414.37 861.027 1409.37C856.254 1404.24 852.47 1398.37 849.676 1391.73C846.999 1384.98 845.66 1377.82 845.66 1370.25C845.66 1362.68 846.999 1355.58 849.676 1348.95C852.47 1342.2 856.254 1336.32 861.027 1331.31C865.8 1326.19 871.33 1322.23 877.616 1319.44C884.019 1316.53 890.887 1315.07 898.222 1315.07C903.81 1315.07 908.99 1315.89 913.763 1317.51C918.536 1319.14 922.843 1321.47 926.685 1324.5V1255H957.07V1422.64H930.876V1412.34C926.918 1416.41 922.145 1419.61 916.557 1421.94C910.969 1424.27 904.857 1425.43 898.222 1425.43ZM901.714 1398.71C906.836 1398.71 911.493 1397.43 915.684 1394.87C919.875 1392.31 923.193 1388.88 925.637 1384.57C928.199 1380.26 929.479 1375.49 929.479 1370.25C929.479 1365.01 928.199 1360.24 925.637 1355.93C923.193 1351.62 919.875 1348.19 915.684 1345.63C911.493 1343.07 906.836 1341.79 901.714 1341.79C896.592 1341.79 891.935 1343.07 887.744 1345.63C883.553 1348.19 880.177 1351.62 877.616 1355.93C875.171 1360.24 873.949 1365.01 873.949 1370.25C873.949 1375.49 875.171 1380.26 877.616 1384.57C880.177 1388.88 883.553 1392.31 887.744 1394.87C891.935 1397.43 896.592 1398.71 901.714 1398.71Z" fill="#2C70A8"/>
<path d="M732.864 1475.03L767.788 1404.83L725.006 1317.87H758.533L777.043 1356.28C778.673 1359.77 780.07 1362.98 781.234 1365.89C782.515 1368.68 783.563 1371.42 784.378 1374.09C785.309 1371.42 786.415 1368.68 787.695 1365.89C788.976 1362.98 790.489 1359.77 792.236 1356.28L811.095 1317.87H843.4L765.518 1475.03H732.864Z" fill="#2C70A8"/>
<path d="M600.998 1422.64V1265.48H631.382V1315.77H676.784V1265.48H707.169V1422.64H676.784V1344.06H631.382V1422.64H600.998Z" fill="#2C70A8"/>
<path d="M763.424 608.754C768.229 608.795 773.048 609.116 777.94 609.425C782.811 609.732 787.748 610.026 792.685 609.992H792.688C881.093 609.2 969.497 609.596 1057.92 609.728H1057.93C1061.83 609.728 1065.77 610.234 1069.68 610.886C1075.47 611.941 1079.86 614.383 1082.9 618.06C1085.94 621.747 1087.76 626.863 1088.04 633.533V633.534C1088.48 647.312 1088.09 660.935 1088.23 674.924L1088.27 677.727C1088.3 679.668 1088.02 680.831 1087.69 681.521C1087.38 682.146 1087 682.455 1086.54 682.652C1086 682.881 1085.27 682.991 1084.26 683.01C1083.77 683.019 1083.25 683.007 1082.69 682.991C1082.15 682.976 1081.55 682.956 1080.96 682.956H728.684C725.952 682.956 724.098 682.952 722.749 682.78C721.415 682.61 721.012 682.32 720.826 682.106C720.59 681.835 720.298 681.226 720.139 679.584C719.983 677.977 719.98 675.791 719.98 672.679C719.98 660.088 719.748 647.483 720.096 634.979V634.976C720.263 628.647 721.617 624.77 723.957 621.872C726.359 618.898 729.979 616.715 735.259 614.147L735.258 614.146C744.468 609.715 753.836 608.673 763.424 608.754Z" fill="#FFDE57" stroke="#2C70A8" stroke-width="4"/>
<path d="M627.377 778.735L627.396 780.735C640.921 780.603 654.319 780.604 667.856 780.604C681.361 780.604 694.8 780.736 708.344 780.604C709.593 780.604 710.535 780.693 711.211 780.859C711.898 781.029 712.102 781.227 712.146 781.28C712.162 781.3 712.183 781.331 712.2 781.404C712.22 781.488 712.239 781.652 712.205 781.929C712.135 782.509 711.857 783.396 711.2 784.683C707.601 791.631 707.366 799.083 707.366 806.205V806.208C707.431 850.579 707.431 894.951 707.431 939.308C707.431 983.664 707.431 1028 707.495 1072.31C707.495 1089.1 707.203 1107.8 706.91 1126.62C706.618 1145.43 706.325 1164.35 706.326 1181.53C706.326 1183.16 704.945 1184.54 703.246 1184.54H636.776C635.067 1184.54 633.761 1183.23 633.761 1181.63C633.779 1112.99 634.137 880.188 633.76 819.135V819.126C633.647 808.295 632.868 792.992 626.86 781.977C626.729 781.736 626.723 781.4 626.882 781.098C627.033 780.811 627.226 780.735 627.377 780.735V778.735Z" fill="#FFDE57" stroke="#2C70A8" stroke-width="4"/>
<path d="M1175.49 780.926C1176.68 780.926 1177.36 781.086 1177.72 781.247C1178.02 781.381 1178.03 781.478 1178.04 781.488C1178.07 781.572 1178.12 781.839 1178 782.417C1177.87 782.985 1177.61 783.696 1177.19 784.553L1177.18 784.562L1177.18 784.571C1172.18 795.111 1171.94 806.154 1171.94 817.012C1171.94 848.923 1171.73 925.054 1171.52 1001.36C1171.32 1076.14 1171.11 1151.08 1171.11 1184.72H1096.39C1096.34 1151.03 1096.53 1059.03 1096.74 974.683C1096.84 931.646 1096.95 890.604 1097.03 860.321C1097.07 845.18 1097.11 832.729 1097.13 824.062C1097.15 819.729 1097.16 816.343 1097.16 814.039C1097.17 812.887 1097.17 812.006 1097.17 811.413C1097.17 811.117 1097.17 810.893 1097.17 810.742C1097.17 810.699 1097.17 810.661 1097.17 810.63C1097.18 810.57 1097.18 810.511 1097.18 810.468C1097.19 810.358 1097.19 810.211 1097.19 810.04C1097.2 809.692 1097.21 809.186 1097.21 808.546C1097.23 807.262 1097.24 805.407 1097.25 803.115C1097.26 798.53 1097.28 792.182 1097.28 785.132C1097.28 783.754 1097.28 782.349 1097.28 780.926H1175.49ZM1093.18 784.465C1093.14 784.399 1093.11 784.332 1093.08 784.266H1093.08C1092 782.119 1092.32 781.513 1092.33 781.498C1092.34 781.486 1092.44 781.338 1092.91 781.188C1092.99 781.162 1093.08 781.137 1093.18 781.113C1093.18 782.21 1093.18 783.327 1093.18 784.465Z" fill="#FFDE57" stroke="#2C70A8" stroke-width="4"/>
<path d="M609.405 700.176H609.422C628.906 700.44 648.4 700.309 667.848 700.309C687.037 700.309 706.273 700.44 725.371 700.176V700.177L725.384 700.176C728.492 700.112 730.081 700.627 730.946 701.445C731.784 702.238 732.427 703.784 732.367 707.109C731.98 723.393 732.109 739.668 732.367 756.052V756.059C732.43 759.26 731.924 760.932 731.117 761.838C730.367 762.68 728.922 763.327 725.77 763.265H725.743C686.801 763 647.86 763.132 608.803 763.264C606.024 763.263 604.729 762.765 604.062 762.099C603.404 761.442 602.879 760.143 602.94 757.251V757.239C603.199 740.315 603.199 723.39 602.94 706.466V706.457C602.879 703.322 603.492 701.958 604.227 701.284C605.005 700.57 606.466 700.112 609.405 700.176Z" fill="#FFDE57" stroke="#2C70A8" stroke-width="4"/>
<path d="M1196.07 700.17C1198.82 700.17 1200.13 700.692 1200.8 701.376C1201.48 702.056 1202 703.371 1201.94 706.183L1201.93 706.195C1201.68 723.12 1201.68 740.044 1201.93 756.969L1201.94 756.977C1202 760.087 1201.36 761.459 1200.61 762.142C1199.81 762.868 1198.33 763.322 1195.47 763.258H1195.45C1176.23 762.993 1156.99 763.126 1137.8 763.126C1118.35 763.126 1098.86 762.993 1079.38 763.258H1079.36C1076.41 763.321 1075.05 762.782 1074.35 762.054C1073.63 761.303 1073.09 759.831 1073.15 756.713C1073.54 740.168 1073.41 723.5 1073.15 706.855L1073.15 706.844L1073.15 706.304C1073.14 703.685 1073.56 702.311 1074.21 701.546C1074.84 700.807 1076.11 700.171 1079.14 700.17C1118.08 700.434 1157.02 700.302 1196.07 700.17Z" fill="#FFDE57" stroke="#2C70A8" stroke-width="4"/>
<path d="M1191.08 540.243C1194.57 540.179 1196.49 540.678 1197.55 541.613C1198.53 542.471 1199.28 544.157 1199.1 547.916C1198.45 560.796 1198.58 573.8 1198.71 586.6L1198.71 586.609V586.62C1198.77 589.583 1198.18 591.086 1197.36 591.9C1196.54 592.723 1195.05 593.295 1192.2 593.295C1154.43 593.163 1116.79 593.163 1079.01 593.295C1076.37 593.295 1075.05 592.757 1074.34 592.033C1073.63 591.307 1073.09 589.934 1073.15 587.151V587.146C1073.41 573.65 1073.41 560.154 1073.15 546.658V546.657L1073.15 546.1C1073.17 543.406 1073.79 542.148 1074.53 541.482C1075.39 540.717 1076.92 540.246 1079.77 540.244C1098.61 540.508 1117.45 540.376 1136.25 540.376C1154.52 540.376 1172.75 540.641 1191.08 540.244L1191.08 540.243Z" fill="#FFDE57" stroke="#2C70A8" stroke-width="4"/>
<path d="M723.716 540.244C725.695 540.212 727.297 540.29 728.583 540.534C729.864 540.777 730.705 541.164 731.276 541.657C732.337 542.573 733.144 544.5 732.642 549.261L732.641 549.266C731.463 560.657 731.988 572.17 732.373 583.479L732.374 583.484C732.501 586.922 732.105 588.956 731.18 590.22C730.327 591.385 728.679 592.333 725.051 592.643C716.754 593.296 708.44 593.429 700.21 593.429H700.201C671.897 593.561 643.327 593.297 614.979 593.561H614.972L614.964 593.562C611.199 593.625 609.25 592.9 608.198 591.791C607.136 590.67 606.497 588.641 606.683 584.829L606.684 584.812V584.795C607.071 572.481 607.072 560.166 606.685 547.982C606.623 544.59 607.263 542.832 608.22 541.862C609.175 540.894 610.903 540.249 614.198 540.245C632.656 540.641 651.267 540.378 669.786 540.378C687.666 540.378 705.639 540.641 723.716 540.244Z" fill="#FFDE57" stroke="#2C70A8" stroke-width="4"/>
<path d="M1137.43 610.111C1149.45 610.111 1161.4 609.979 1173.24 610.111H1173.27C1174.14 610.111 1175.01 610.158 1175.76 610.29C1176.55 610.426 1177.06 610.627 1177.35 610.826C1177.56 610.975 1177.6 611.08 1177.62 611.247C1177.65 611.525 1177.57 612.176 1176.93 613.357L1176.92 613.364L1176.92 613.37C1172.92 620.807 1171.69 628.476 1171.41 636.052C1171.27 639.832 1171.37 643.619 1171.48 647.342C1171.59 651.085 1171.72 654.753 1171.65 658.393V658.398C1171.56 665.053 1171.5 669.878 1171.08 673.466C1170.66 677.073 1169.91 678.986 1168.79 680.145C1167.68 681.287 1165.86 682.043 1162.39 682.44C1158.92 682.837 1154.24 682.84 1147.74 682.84C1134.36 682.84 1120.79 682.708 1107.37 682.84H1107.36L1107.34 682.841C1104.82 682.902 1103.61 682.412 1102.99 681.789C1102.36 681.167 1101.85 679.944 1101.91 677.358V677.347L1101.92 677.335C1101.98 671.636 1101.95 665.941 1101.92 660.281C1101.88 654.617 1101.85 648.99 1101.92 643.398C1102.04 633.803 1101.83 624.021 1097.25 614.688L1096.79 613.787C1096.06 612.342 1095.91 611.502 1095.92 611.083C1095.93 610.806 1096 610.757 1096.11 610.681C1096.33 610.522 1096.81 610.345 1097.65 610.235C1098.46 610.13 1099.4 610.111 1100.43 610.111H1137.43Z" fill="#FFDE57" stroke="#2C70A8" stroke-width="4"/>
<path d="M671.976 610.111C683.996 610.111 695.944 609.979 707.92 610.111H707.942C708.784 610.111 709.575 610.105 710.311 610.17C711.072 610.237 711.533 610.365 711.77 610.494C711.895 610.563 711.844 610.543 711.847 610.564C711.868 610.758 711.828 611.366 711.189 612.615C707.145 620.291 705.791 628.231 705.396 636.124C705.199 640.069 705.242 644.028 705.314 647.938C705.387 651.868 705.49 655.732 705.427 659.583V659.596C705.362 665.951 705.32 670.553 704.93 673.972C704.537 677.411 703.828 679.213 702.781 680.297C701.751 681.364 700.056 682.081 696.773 682.459C693.497 682.837 689.074 682.84 682.933 682.84C670.832 682.84 658.415 682.218 646.195 683.026L645.023 683.108C640.431 683.426 638.27 682.564 637.167 681.287C635.983 679.916 635.43 677.44 635.685 673.07V673.067C636.011 667.319 636.01 661.585 635.962 655.901C635.913 650.199 635.817 644.566 635.945 638.928V638.915C636.076 631.021 635.436 622.973 631.74 615.541L631.739 615.54L631.474 614.987C630.896 613.745 630.614 612.817 630.526 612.144C630.43 611.406 630.582 611.133 630.658 611.029C630.758 610.894 631.035 610.642 631.811 610.433C632.586 610.224 633.668 610.111 635.105 610.111H671.976Z" fill="#FFDE57" stroke="#2C70A8" stroke-width="4"/>
<path d="M667.228 436.046C691.781 435.792 715.016 454.012 722.136 478.709L722.137 478.71C722.632 480.422 722.89 481.779 722.928 482.84C722.966 483.897 722.78 484.507 722.547 484.875C722.132 485.529 720.913 486.323 717.035 486.192H717.018L717 486.191L713.925 486.148C698.54 485.96 683.021 486.191 667.594 486.191C650.857 486.191 634.07 486.059 617.302 486.191H617.28C613.775 486.255 612.613 485.501 612.193 484.855C611.959 484.495 611.769 483.913 611.775 482.931C611.782 481.943 611.986 480.678 612.413 479.08C619.041 454.938 641.647 436.872 666.063 436.07L667.228 436.046Z" fill="#FFDE57" stroke="#2C70A8" stroke-width="4"/>
<path d="M1136 436.175C1160.76 436.302 1184.08 454.189 1190.68 478.023C1191.28 480.245 1191.62 481.867 1191.69 483.074C1191.77 484.278 1191.56 484.781 1191.38 485.023C1191.19 485.266 1190.77 485.614 1189.57 485.885C1188.37 486.156 1186.69 486.287 1184.33 486.319C1176.22 486.319 1168.14 486.287 1160.06 486.254C1151.97 486.221 1143.88 486.188 1135.75 486.188C1119.62 486.188 1103.41 486.32 1087.31 486.188H1087.31C1085.12 486.156 1083.56 486.025 1082.46 485.764C1081.36 485.505 1080.98 485.179 1080.82 484.96C1080.66 484.733 1080.46 484.253 1080.52 483.103C1080.59 481.95 1080.9 480.399 1081.48 478.277L1081.48 478.272C1087.82 454.569 1111.79 436.048 1136 436.175Z" fill="#FFDE57" stroke="#2C70A8" stroke-width="4"/>
<path d="M642.776 503.271V503.272C661.643 503.802 680.502 503.537 699.312 503.273C701.974 503.275 703.258 503.715 703.958 504.369C704.639 505.006 705.229 506.288 705.29 509.239V509.246C705.388 513.291 705.463 516.162 705.3 518.282C705.134 520.433 704.744 521.346 704.303 521.825C703.884 522.281 703.082 522.706 701.075 522.94C699.08 523.173 696.352 523.177 692.465 523.177H692.446L692.428 523.178C685.23 523.309 677.819 523.177 670.291 523.177C661.387 523.177 652.331 522.78 643.231 523.312H643.227C639.25 523.556 637.636 522.56 636.832 521.378C635.866 519.957 635.55 517.599 635.679 514.029C635.75 512.202 635.724 510.803 635.819 509.272C635.91 507.823 636.098 506.694 636.47 505.823C636.813 505.019 637.316 504.424 638.155 503.999C639.054 503.543 640.483 503.211 642.776 503.271Z" fill="#FFDE57" stroke="#2C70A8" stroke-width="4"/>
<path d="M1167.14 503.403C1169.05 503.344 1170.2 503.658 1170.9 504.05C1171.55 504.417 1171.96 504.938 1172.24 505.667C1172.54 506.449 1172.67 507.456 1172.7 508.702C1172.72 509.954 1172.63 511.25 1172.56 512.664C1172.49 514.093 1172.6 515.708 1172.65 517.014C1172.69 518.422 1172.67 519.584 1172.44 520.528C1172.22 521.413 1171.86 521.985 1171.28 522.38C1170.65 522.809 1169.49 523.206 1167.37 523.176H1167.34C1148.02 523.176 1128.53 523.044 1109.17 523.309H1109.17C1107.12 523.339 1105.87 523.001 1105.09 522.573C1104.37 522.173 1103.93 521.619 1103.63 520.864C1103.32 520.052 1103.17 519.006 1103.13 517.694C1103.1 516.363 1103.17 515.012 1103.21 513.469C1103.22 512.726 1103.21 511.975 1103.2 511.26C1103.18 510.531 1103.16 509.847 1103.17 509.176C1103.17 507.814 1103.27 506.716 1103.55 505.85C1103.81 505.046 1104.2 504.498 1104.86 504.112C1105.56 503.693 1106.78 503.344 1108.89 503.404H1108.89C1118.85 503.669 1128.74 503.404 1138.46 503.404C1147.96 503.404 1157.55 503.537 1167.11 503.404H1167.13L1167.14 503.403Z" fill="#FFDE57" stroke="#2C70A8" stroke-width="4"/>
<path d="M843.463 569.844H851.95C854.658 569.844 856.542 570.046 857.877 570.509C859.105 570.935 859.838 571.568 860.345 572.573C860.908 573.691 861.261 575.413 861.312 578.133C861.364 580.826 861.12 584.29 860.652 588.766L860.65 588.779C860.422 591.12 859.888 591.878 859.602 592.132C859.337 592.366 858.906 592.52 857.745 592.521C855.2 592.521 852.195 592.39 849.302 592.521H844.769C842.488 592.521 841.048 592.513 840.024 592.331C839.121 592.17 838.904 591.936 838.754 591.695C838.486 591.265 838.224 590.382 838.088 588.421C837.956 586.52 837.955 583.953 837.955 580.39C837.955 577.296 837.966 575.059 838.09 573.396C838.217 571.682 838.45 570.908 838.671 570.539C838.784 570.351 838.925 570.174 839.597 570.035C840.403 569.869 841.564 569.844 843.463 569.844Z" fill="#FFDE57" stroke="#2C70A8" stroke-width="4"/>
<path d="M785.768 569.68C787.905 569.68 789.24 569.687 790.185 569.855C791.008 570.002 791.179 570.208 791.298 570.396C791.534 570.772 791.784 571.571 791.922 573.401C792.022 574.73 792.056 576.408 792.075 578.57L792.092 580.898C792.092 584.323 792.091 586.786 791.963 588.61C791.831 590.495 791.578 591.326 791.329 591.722C791.198 591.93 791.004 592.152 790.13 592.307C789.139 592.481 787.741 592.488 785.522 592.488H777.525C775.18 592.488 773.476 592.152 772.242 591.55C771.064 590.975 770.207 590.107 769.602 588.785C768.295 585.934 768.157 581.006 769.384 572.864L769.385 572.852C769.641 571.074 770.085 570.444 770.332 570.214C770.549 570.011 770.878 569.863 771.694 569.808C773.14 569.746 774.593 569.746 776.097 569.746C777.58 569.746 779.114 569.745 780.655 569.68H785.768Z" fill="#FFDE57" stroke="#2C70A8" stroke-width="4"/>
<path d="M823.414 569.721C824.068 569.657 824.486 569.643 824.802 569.698C825.045 569.741 825.139 569.807 825.224 569.911C825.35 570.065 825.599 570.492 825.734 571.536L825.736 571.545L825.737 571.555C826.232 575.09 826.782 578.856 826.851 582.426C826.92 586.016 826.488 589.129 825.229 591.446C824.708 592.382 824.187 592.746 823.746 592.919C823.248 593.114 822.608 593.161 821.718 593.062C820.717 592.949 819.969 592.749 818.741 592.551C817.78 592.396 816.586 592.263 815.403 592.521H809.927C807.835 592.521 806.542 592.504 805.638 592.328C804.869 592.179 804.704 591.979 804.577 591.766C804.334 591.356 804.094 590.511 803.97 588.648C803.849 586.843 803.848 584.414 803.848 581.05C803.848 577.718 803.849 575.324 803.971 573.55C804.096 571.718 804.338 570.909 804.574 570.522C804.696 570.323 804.867 570.115 805.675 569.957C806.606 569.775 807.923 569.745 810.04 569.711C813.876 569.71 817.561 569.582 821.212 569.839L821.237 569.841C822.009 569.885 822.87 569.774 823.414 569.721Z" fill="#FFDE57" stroke="#2C70A8" stroke-width="4"/>
<path d="M926.703 569.814C927.332 569.79 927.702 569.887 927.923 569.995C928.121 570.092 928.314 570.252 928.506 570.583C928.956 571.363 929.277 572.876 929.277 575.607H929.278C929.216 581.343 929.294 585.176 929.204 587.946C929.16 589.312 929.076 590.283 928.939 590.988C928.803 591.696 928.642 591.971 928.561 592.074C928.48 592.175 928.232 592.463 926.186 592.495C925.237 592.51 924.117 592.478 922.659 592.456C921.236 592.435 919.565 592.426 917.617 592.492H913.65C911.37 592.492 909.929 592.485 908.907 592.303C908.006 592.142 907.795 591.91 907.649 591.675C907.386 591.248 907.13 590.366 907.005 588.404C906.914 586.978 906.899 585.178 906.906 582.864L906.918 580.373V580.361C906.918 577.232 906.924 574.977 907.042 573.305C907.164 571.576 907.391 570.815 907.604 570.461C907.701 570.297 907.822 570.127 908.505 569.993C909.323 569.833 910.498 569.815 912.426 569.815C917.08 569.815 921.916 569.948 926.682 569.815L926.692 569.814H926.703Z" fill="#FFDE57" stroke="#2C70A8" stroke-width="4"/>
<path d="M1064.61 569.814C1065.24 569.79 1065.61 569.887 1065.83 569.995C1066.03 570.092 1066.22 570.252 1066.42 570.583C1066.87 571.363 1067.19 572.876 1067.19 575.607H1067.19C1067.13 581.343 1067.2 585.176 1067.11 587.946C1067.07 589.312 1066.99 590.283 1066.85 590.988C1066.71 591.696 1066.55 591.971 1066.47 592.074C1066.39 592.175 1066.14 592.463 1064.1 592.495C1063.15 592.51 1062.03 592.478 1060.57 592.456C1059.15 592.435 1057.48 592.426 1055.53 592.492H1051.56C1049.28 592.492 1047.84 592.485 1046.82 592.303C1045.92 592.142 1045.7 591.91 1045.56 591.675C1045.3 591.248 1045.04 590.366 1044.92 588.404C1044.82 586.978 1044.81 585.178 1044.82 582.864L1044.83 580.373V580.361C1044.83 577.232 1044.83 574.977 1044.95 573.305C1045.07 571.576 1045.3 570.815 1045.51 570.461C1045.61 570.297 1045.73 570.127 1046.42 569.993C1047.23 569.833 1048.41 569.815 1050.34 569.815C1054.99 569.815 1059.83 569.948 1064.59 569.815L1064.6 569.814H1064.61Z" fill="#FFDE57" stroke="#2C70A8" stroke-width="4"/>
<path d="M1028.63 569.814C1029.26 569.79 1029.63 569.887 1029.85 569.995C1030.05 570.092 1030.24 570.252 1030.43 570.583C1030.88 571.363 1031.2 572.876 1031.2 575.607H1031.2C1031.14 581.343 1031.22 585.176 1031.13 587.946C1031.09 589.312 1031 590.283 1030.87 590.988C1030.73 591.696 1030.57 591.971 1030.49 592.074C1030.41 592.175 1030.16 592.463 1028.11 592.495C1027.16 592.51 1026.04 592.478 1024.58 592.456C1023.16 592.435 1021.49 592.426 1019.54 592.492H1015.58C1013.3 592.492 1011.85 592.485 1010.83 592.303C1009.93 592.142 1009.72 591.91 1009.58 591.675C1009.31 591.248 1009.06 590.366 1008.93 588.404C1008.84 586.978 1008.83 585.178 1008.83 582.864L1008.84 580.373V580.361C1008.84 577.232 1008.85 574.977 1008.97 573.305C1009.09 571.576 1009.32 570.815 1009.53 570.461C1009.63 570.297 1009.75 570.127 1010.43 569.993C1011.25 569.833 1012.42 569.815 1014.35 569.815C1019.01 569.815 1023.84 569.948 1028.61 569.815L1028.62 569.814H1028.63Z" fill="#FFDE57" stroke="#2C70A8" stroke-width="4"/>
<path d="M892.341 569.813C892.938 569.79 893.291 569.894 893.507 570.007C893.709 570.113 893.92 570.296 894.127 570.669C894.569 571.463 894.876 572.895 894.912 575.255L894.916 575.739C894.895 581.319 894.962 585.124 894.848 587.834C894.791 589.178 894.693 590.143 894.544 590.848C894.395 591.553 894.224 591.857 894.117 591.991C893.989 592.152 893.678 592.443 891.753 592.497C890.848 592.522 889.768 592.498 888.382 592.478C887.018 592.457 885.416 592.442 883.559 592.492H881.328C878.737 592.492 876.912 592.245 875.612 591.739C874.404 591.269 873.627 590.568 873.085 589.466C872.498 588.273 872.135 586.496 872.081 583.811C872.028 581.145 872.28 577.762 872.787 573.464L872.788 573.453C873.015 571.437 873.472 570.597 873.793 570.253C874.032 569.997 874.379 569.815 875.208 569.815C880.855 569.815 886.571 569.947 892.311 569.814H892.326L892.341 569.813Z" fill="#FFDE57" stroke="#2C70A8" stroke-width="4"/>
<path d="M739.421 569.844H754.764C755.287 569.844 755.603 569.935 755.801 570.035C755.984 570.128 756.171 570.282 756.364 570.59C756.808 571.298 757.178 572.649 757.338 575.104C757.583 579.874 757.75 583.373 757.672 585.992C757.592 588.673 757.253 590.055 756.775 590.828C756.402 591.432 755.802 591.889 754.28 592.176C752.665 592.481 750.411 592.521 747.093 592.521H745.379C742.853 592.521 741.053 592.245 739.765 591.708C738.556 591.205 737.746 590.454 737.181 589.289C736.577 588.045 736.205 586.23 736.154 583.562C736.104 580.911 736.37 577.575 736.916 573.386C737.178 571.386 737.66 570.585 737.979 570.265C738.231 570.013 738.595 569.844 739.421 569.844Z" fill="#FFDE57" stroke="#2C70A8" stroke-width="4"/>
<path d="M952.991 570.031C959.932 570.031 963.014 571.226 964.439 573.482C965.194 574.677 965.66 576.418 965.714 579.03C965.768 581.638 965.41 584.939 964.677 589.113L964.673 589.137C964.438 590.58 964.059 591.29 963.73 591.634C963.469 591.907 963.068 592.134 962.201 592.134H951.415V592.362C946.375 592.124 943.444 590.433 941.934 587.786C940.2 584.749 939.934 579.817 941.802 572.56C942.107 571.383 942.496 570.874 942.793 570.629C943.082 570.391 943.515 570.209 944.314 570.158C947.22 570.031 950.028 570.031 952.991 570.031Z" fill="#FFDE57" stroke="#2C70A8" stroke-width="4"/>
<path d="M986.178 569.68C988.743 569.68 990.57 569.963 991.878 570.514C993.105 571.03 993.93 571.803 994.504 573.001C995.116 574.279 995.486 576.135 995.528 578.854C995.571 581.555 995.289 584.95 994.723 589.206L994.722 589.216L994.721 589.225C994.53 590.765 994.216 591.548 993.952 591.913C993.793 592.134 993.66 592.225 993.278 592.225H984.504V592.416C983.063 592.267 981.901 591.89 980.971 591.337C979.77 590.623 978.823 589.54 978.149 587.982C976.755 584.758 976.573 579.58 978.021 572.156L978.021 572.155C978.273 570.873 978.601 570.329 978.807 570.105C978.947 569.953 979.119 569.843 979.555 569.807C981.76 569.68 983.896 569.68 986.178 569.68Z" fill="#FFDE57" stroke="#2C70A8" stroke-width="4"/>
<path d="M843.463 700.375H851.95C854.658 700.375 856.542 700.577 857.877 701.04C859.105 701.466 859.838 702.099 860.345 703.104C860.908 704.223 861.261 705.944 861.312 708.664C861.364 711.357 861.12 714.822 860.652 719.297L860.65 719.311C860.422 721.651 859.888 722.409 859.602 722.663C859.337 722.897 858.906 723.052 857.745 723.052C855.2 723.052 852.195 722.921 849.302 723.052H844.769C842.488 723.052 841.048 723.045 840.024 722.862C839.121 722.701 838.904 722.467 838.754 722.227C838.486 721.797 838.224 720.913 838.088 718.952C837.956 717.051 837.955 714.484 837.955 710.921C837.955 707.828 837.966 705.59 838.09 703.928C838.217 702.213 838.45 701.44 838.671 701.07C838.784 700.882 838.925 700.705 839.597 700.566C840.403 700.4 841.564 700.375 843.463 700.375Z" fill="#FFDE57" stroke="#2C70A8" stroke-width="4"/>
<path d="M785.768 700.211C787.905 700.211 789.24 700.219 790.185 700.387C791.008 700.533 791.179 700.739 791.298 700.928C791.534 701.303 791.784 702.103 791.922 703.933C792.022 705.261 792.056 706.94 792.075 709.102L792.092 711.43C792.092 714.855 792.091 717.318 791.963 719.142C791.831 721.026 791.578 721.858 791.329 722.253C791.198 722.462 791.004 722.684 790.13 722.838C789.139 723.013 787.741 723.02 785.522 723.02H777.525C775.18 723.02 773.476 722.684 772.242 722.081C771.064 721.506 770.207 720.638 769.602 719.316C768.295 716.465 768.157 711.538 769.384 703.396L769.385 703.383C769.641 701.605 770.085 700.976 770.332 700.745C770.549 700.542 770.878 700.395 771.694 700.339C773.14 700.277 774.593 700.277 776.097 700.277C777.58 700.277 779.114 700.277 780.655 700.211H785.768Z" fill="#FFDE57" stroke="#2C70A8" stroke-width="4"/>
<path d="M823.414 700.248C824.068 700.184 824.486 700.17 824.802 700.226C825.045 700.268 825.139 700.335 825.224 700.438C825.35 700.592 825.599 701.019 825.734 702.063L825.736 702.072L825.737 702.082C826.232 705.618 826.782 709.384 826.851 712.953C826.92 716.543 826.488 719.656 825.229 721.974C824.708 722.909 824.187 723.273 823.746 723.446C823.248 723.642 822.608 723.689 821.718 723.589C820.717 723.477 819.969 723.276 818.741 723.078C817.78 722.923 816.586 722.79 815.403 723.048H809.927C807.835 723.048 806.542 723.031 805.638 722.855C804.869 722.706 804.704 722.506 804.577 722.293C804.334 721.884 804.094 721.039 803.97 719.176C803.849 717.371 803.848 714.941 803.848 711.577C803.848 708.246 803.849 705.851 803.971 704.077C804.096 702.246 804.338 701.436 804.574 701.05C804.696 700.85 804.867 700.643 805.675 700.484C806.606 700.302 807.923 700.273 810.04 700.238C813.876 700.238 817.561 700.109 821.212 700.366L821.237 700.368C822.009 700.413 822.87 700.301 823.414 700.248Z" fill="#FFDE57" stroke="#2C70A8" stroke-width="4"/>
<path d="M926.703 700.346C927.332 700.321 927.702 700.419 927.923 700.526C928.121 700.623 928.314 700.783 928.506 701.114C928.956 701.894 929.277 703.407 929.277 706.139H929.278C929.216 711.874 929.294 715.707 929.204 718.478C929.16 719.844 929.076 720.814 928.939 721.52C928.803 722.227 928.642 722.502 928.561 722.605C928.48 722.707 928.232 722.994 926.186 723.026C925.237 723.041 924.117 723.009 922.659 722.987C921.236 722.966 919.565 722.957 917.617 723.023H913.65C911.37 723.023 909.929 723.016 908.907 722.834C908.006 722.673 907.795 722.441 907.649 722.206C907.386 721.779 907.13 720.897 907.005 718.936C906.914 717.51 906.899 715.71 906.906 713.396L906.918 710.904V710.893C906.918 707.763 906.924 705.508 907.042 703.836C907.164 702.107 907.391 701.346 907.604 700.992C907.701 700.829 907.822 700.658 908.505 700.524C909.323 700.364 910.498 700.347 912.426 700.347C917.08 700.347 921.916 700.48 926.682 700.347L926.692 700.346H926.703Z" fill="#FFDE57" stroke="#2C70A8" stroke-width="4"/>
<path d="M1064.61 700.346C1065.24 700.321 1065.61 700.419 1065.83 700.526C1066.03 700.623 1066.22 700.783 1066.42 701.114C1066.87 701.894 1067.19 703.407 1067.19 706.139H1067.19C1067.13 711.874 1067.2 715.707 1067.11 718.478C1067.07 719.844 1066.99 720.814 1066.85 721.52C1066.71 722.227 1066.55 722.502 1066.47 722.605C1066.39 722.707 1066.14 722.994 1064.1 723.026C1063.15 723.041 1062.03 723.009 1060.57 722.987C1059.15 722.966 1057.48 722.957 1055.53 723.023H1051.56C1049.28 723.023 1047.84 723.016 1046.82 722.834C1045.92 722.673 1045.7 722.441 1045.56 722.206C1045.3 721.779 1045.04 720.897 1044.92 718.936C1044.82 717.51 1044.81 715.71 1044.82 713.396L1044.83 710.904V710.893C1044.83 707.763 1044.83 705.508 1044.95 703.836C1045.07 702.107 1045.3 701.346 1045.51 700.992C1045.61 700.829 1045.73 700.658 1046.42 700.524C1047.23 700.364 1048.41 700.347 1050.34 700.347C1054.99 700.347 1059.83 700.48 1064.59 700.347L1064.6 700.346H1064.61Z" fill="#FFDE57" stroke="#2C70A8" stroke-width="4"/>
<path d="M1028.63 700.346C1029.26 700.321 1029.63 700.419 1029.85 700.526C1030.05 700.623 1030.24 700.783 1030.43 701.114C1030.88 701.894 1031.2 703.407 1031.2 706.139H1031.2C1031.14 711.874 1031.22 715.707 1031.13 718.478C1031.09 719.844 1031 720.814 1030.87 721.52C1030.73 722.227 1030.57 722.502 1030.49 722.605C1030.41 722.707 1030.16 722.994 1028.11 723.026C1027.16 723.041 1026.04 723.009 1024.58 722.987C1023.16 722.966 1021.49 722.957 1019.54 723.023H1015.58C1013.3 723.023 1011.85 723.016 1010.83 722.834C1009.93 722.673 1009.72 722.441 1009.58 722.206C1009.31 721.779 1009.06 720.897 1008.93 718.936C1008.84 717.51 1008.83 715.71 1008.83 713.396L1008.84 710.904V710.893C1008.84 707.763 1008.85 705.508 1008.97 703.836C1009.09 702.107 1009.32 701.346 1009.53 700.992C1009.63 700.829 1009.75 700.658 1010.43 700.524C1011.25 700.364 1012.42 700.347 1014.35 700.347C1019.01 700.347 1023.84 700.48 1028.61 700.347L1028.62 700.346H1028.63Z" fill="#FFDE57" stroke="#2C70A8" stroke-width="4"/>
<path d="M892.341 700.345C892.938 700.322 893.291 700.425 893.507 700.538C893.709 700.645 893.92 700.828 894.127 701.2C894.569 701.995 894.876 703.426 894.912 705.786L894.916 706.271C894.895 711.85 894.962 715.656 894.848 718.365C894.791 719.709 894.693 720.674 894.544 721.379C894.395 722.084 894.224 722.389 894.117 722.522C893.989 722.683 893.678 722.975 891.753 723.028C890.848 723.054 889.768 723.029 888.382 723.009C887.018 722.989 885.416 722.973 883.559 723.023H881.328C878.737 723.023 876.912 722.777 875.612 722.271C874.404 721.8 873.627 721.099 873.085 719.997C872.498 718.804 872.135 717.027 872.081 714.342C872.028 711.677 872.28 708.293 872.787 703.995L872.788 703.984C873.015 701.968 873.472 701.128 873.793 700.784C874.032 700.528 874.379 700.347 875.208 700.347C880.855 700.347 886.571 700.478 892.311 700.346H892.326L892.341 700.345Z" fill="#FFDE57" stroke="#2C70A8" stroke-width="4"/>
<path d="M739.421 700.375H754.764C755.287 700.375 755.603 700.466 755.801 700.566C755.984 700.66 756.171 700.814 756.364 701.121C756.808 701.829 757.178 703.181 757.338 705.636C757.583 710.405 757.75 713.904 757.672 716.523C757.592 719.204 757.253 720.587 756.775 721.359C756.402 721.963 755.802 722.42 754.28 722.707C752.665 723.012 750.411 723.052 747.093 723.052H745.379C742.853 723.052 741.053 722.776 739.765 722.239C738.556 721.736 737.746 720.985 737.181 719.82C736.577 718.576 736.205 716.762 736.154 714.094C736.104 711.443 736.37 708.106 736.916 703.917C737.178 701.917 737.66 701.116 737.979 700.796C738.231 700.544 738.595 700.375 739.421 700.375Z" fill="#FFDE57" stroke="#2C70A8" stroke-width="4"/>
<path d="M952.991 700.555C959.932 700.555 963.014 701.749 964.439 704.006C965.194 705.2 965.66 706.941 965.714 709.554C965.768 712.161 965.41 715.462 964.677 719.637L964.673 719.66C964.438 721.104 964.059 721.813 963.73 722.157C963.469 722.431 963.068 722.657 962.201 722.657H951.415V722.886C946.375 722.648 943.444 720.956 941.934 718.31C940.2 715.272 939.934 710.34 941.802 703.083C942.107 701.907 942.496 701.398 942.793 701.152C943.082 700.914 943.515 700.732 944.314 700.682C947.22 700.555 950.028 700.555 952.991 700.555Z" fill="#FFDE57" stroke="#2C70A8" stroke-width="4"/>
<path d="M986.178 700.211C988.743 700.211 990.57 700.494 991.878 701.045C993.105 701.562 993.93 702.334 994.504 703.532C995.116 704.81 995.486 706.667 995.528 709.385C995.571 712.086 995.289 715.481 994.723 719.737L994.722 719.747L994.721 719.756C994.53 721.296 994.216 722.08 993.952 722.444C993.793 722.665 993.66 722.756 993.278 722.756H984.504V722.947C983.063 722.799 981.901 722.421 980.971 721.868C979.77 721.154 978.823 720.071 978.149 718.514C976.755 715.289 976.573 710.111 978.021 702.688L978.021 702.687C978.273 701.404 978.601 700.86 978.807 700.637C978.947 700.485 979.119 700.375 979.555 700.338C981.76 700.212 983.896 700.211 986.178 700.211Z" fill="#FFDE57" stroke="#2C70A8" stroke-width="4"/>
<path d="M676.72 433.112C676.72 438.008 672.847 441.977 668.07 441.977C663.293 441.977 659.42 438.008 659.42 433.112C659.42 428.216 663.293 414.791 668.07 414.791C672.847 414.791 676.72 428.216 676.72 433.112Z" fill="#2C70A8"/>
<path d="M1145.47 433.112C1145.47 438.008 1141.6 441.977 1136.82 441.977C1132.05 441.977 1128.17 438.008 1128.17 433.112C1128.17 428.216 1132.05 414.791 1136.82 414.791C1141.6 414.791 1145.47 428.216 1145.47 433.112Z" fill="#2C70A8"/>
<path d="M1321 577.767C1320.87 587.178 1313.91 594.268 1304.5 594.268C1295.47 594.268 1288 586.662 1288 577.767C1288 568.356 1295.99 560.363 1305.14 560.621C1314.17 561.008 1321.13 568.485 1321 577.767Z" fill="#2C70A8"/>
<path d="M479.662 653.37C483.916 648.73 481.338 643.573 479.404 637.901C477.599 632.744 482.111 629.521 487.526 632.229C491.909 634.42 495.003 635.967 499.386 632.1C501.449 630.166 505.445 630.037 507.636 632.357C510.086 634.936 509.699 638.803 507.507 641.381C504.285 645.12 504.542 647.827 507.507 651.437C509.441 653.757 509.957 657.238 507.636 659.687C505.316 662.137 501.577 661.879 499.386 660.074C495.39 656.851 492.682 657.496 488.428 660.074C483.014 663.297 478.889 660.203 479.662 653.37Z" fill="#2C70A8"/>
<path d="M1236.6 365.279C1230.93 370.306 1235.06 376.365 1236.35 382.811C1237.63 389.128 1232.09 389.772 1228.22 387.839C1223.58 385.518 1220.23 384.873 1215.2 386.936C1209.02 389.385 1205.28 385.002 1208.11 378.557C1209.79 374.56 1210.18 371.724 1207.73 367.986C1206.05 365.536 1205.79 362.056 1208.24 359.606C1210.69 357.157 1214.04 357.673 1216.49 359.606C1220.23 362.571 1222.94 361.798 1226.81 359.606C1232.61 356.255 1236.86 358.575 1236.6 365.279Z" fill="#2C70A8"/>
<path d="M895.261 325.5C901.778 325.5 908.578 326.054 915.108 326.887H915.109C925.267 328.671 933.655 336.19 933.655 346.189V382.436C933.655 392.906 925.502 401.312 915.195 401.312H877.277C864.176 401.312 853.078 412.55 853.078 425.372V442.298H840.474C835.101 442.298 830.838 440.365 827.587 437.062C824.325 433.75 822.058 429.034 820.747 423.446L820.746 423.443L820.419 422.057C817.152 407.9 817.387 399.034 820.746 385.062L820.747 385.059C823.62 372.748 833.169 366.207 843.959 366.207H896.736V360.327H858.679V346.329C858.679 340.849 859.412 336.753 862.027 333.671C864.648 330.583 869.243 328.414 877.224 327.026L877.227 327.025C882.632 326.055 888.737 325.5 895.261 325.5ZM874.768 336.21C870.582 336.21 867.158 339.647 867.158 343.959C867.158 348.271 870.582 351.708 874.768 351.708C878.953 351.708 882.378 348.272 882.378 343.959C882.378 339.647 878.953 336.21 874.768 336.21Z" fill="#2C70A8" stroke="#0F64AA"/>
<path d="M953.104 366.343C958.466 366.343 962.373 368.336 965.293 371.661C968.231 375.007 970.192 379.726 971.578 385.199V385.2C975.327 400.474 975.455 411.805 971.589 423.54V423.541C969.708 429.322 967.746 434.047 964.924 437.328C962.13 440.577 958.471 442.435 953.104 442.435H895.728V448.313H933.646V462.312C933.646 467.655 931.388 471.672 927.942 474.71C924.699 477.57 920.399 479.563 915.94 480.941L915.047 481.209C900.791 485.361 889.319 484.67 877.413 481.21C867.412 478.154 858.809 472.268 858.809 462.312V426.066C858.809 415.873 867.102 407.189 877.268 407.188H915.187C928.013 407.188 939.386 395.948 939.386 382.571V366.343H953.104ZM917.557 456.793C913.247 456.793 909.808 460.215 909.947 464.542H909.946C909.946 468.855 913.371 472.291 917.557 472.291C921.742 472.291 925.166 468.854 925.166 464.542C925.166 460.23 921.742 456.793 917.557 456.793Z" fill="#FFDE57" stroke="#E0B402"/>
<path d="M642.99 341.63C642.861 351.298 636.158 357.873 626.36 357.744C616.692 357.615 609.988 350.783 609.988 341.243C610.117 332.09 617.465 325 626.747 325C636.416 325 643.119 331.961 642.99 341.63Z" fill="#2C70A8"/>
<path d="M679.347 869.796C679.347 880.688 679.347 891.711 679.347 902.604C679.347 906.803 678.315 911.003 671.436 911.134C664.73 911.134 662.838 907.066 662.838 902.866C662.666 880.425 662.666 857.853 662.838 835.412C662.838 831.213 664.558 827.407 671.608 827.538C679.003 827.67 679.175 832.132 679.175 836.069C679.519 847.355 679.519 858.641 679.347 869.796Z" fill="#2C70A8"/>
<path d="M1140.57 868.614C1140.57 879.243 1140.57 889.873 1140.57 900.634C1140.57 905.359 1140.4 910.608 1132.32 910.871C1124.06 911.133 1123.38 905.884 1123.38 901.159C1123.38 879.9 1123.21 858.509 1123.38 837.249C1123.38 832.525 1123.72 827.406 1132.32 827.538C1140.75 827.669 1140.57 833.049 1140.75 837.643C1140.57 847.879 1140.57 858.246 1140.57 868.614Z" fill="#2C70A8"/>
<path d="M1140.4 949.437C1140.4 953.374 1140.58 957.311 1140.4 961.248C1140.23 965.054 1137.65 967.678 1132.32 967.809C1126.99 967.941 1123.72 965.579 1123.55 961.904C1123.04 953.374 1123.21 944.844 1123.55 936.314C1123.72 932.508 1126.65 930.014 1131.98 930.146C1137.14 930.277 1140.06 932.77 1140.23 936.576C1140.58 940.907 1140.4 945.106 1140.4 949.437Z" fill="#2C70A8"/>
<path d="M679.887 949.437C679.887 953.374 680.059 957.311 679.887 961.248C679.715 965.054 677.136 967.678 671.805 967.809C666.474 967.941 663.207 965.579 663.035 961.904C662.519 953.374 662.691 944.844 663.035 936.314C663.207 932.508 666.13 930.014 671.461 930.146C676.62 930.277 679.544 932.77 679.716 936.576C680.059 940.907 679.887 945.106 679.887 949.437Z" fill="#2C70A8"/>
<path d="M669.798 747.278C656.511 747.278 643.076 747.278 629.789 747.278C625.951 747.278 621.669 747.015 621.522 742.422C621.374 738.091 625.213 736.91 629.346 736.91C656.363 736.91 683.381 736.91 710.398 736.91C714.532 736.91 718.37 738.091 718.222 742.422C718.075 746.884 713.646 747.146 709.807 747.146C696.52 747.278 683.233 747.278 669.798 747.278Z" fill="#2C70A8"/>
<path d="M904.636 656.656C861.859 656.656 818.606 656.656 775.829 656.656C763.471 656.656 749.688 656.394 749.212 651.801C748.737 647.47 761.095 646.289 774.403 646.289C861.384 646.289 948.364 646.289 1035.34 646.289C1048.65 646.289 1061.01 647.47 1060.54 651.801C1060.06 656.263 1045.8 656.525 1033.44 656.525C990.666 656.656 947.889 656.656 904.636 656.656Z" fill="#2C70A8"/>
<path d="M1137.73 747.278C1124.44 747.278 1111.01 747.278 1097.72 747.278C1093.88 747.278 1089.6 747.015 1089.46 742.422C1089.31 738.091 1093.15 736.91 1097.28 736.91C1124.3 736.91 1151.31 736.91 1178.33 736.91C1182.47 736.91 1186.3 738.091 1186.16 742.422C1186.01 746.884 1181.58 747.146 1177.74 747.146C1164.45 747.278 1151.17 747.278 1137.73 747.278Z" fill="#2C70A8"/>
<path d="M671.895 728.036C667.758 728.036 663.769 728.167 659.632 728.036C656.234 727.904 653.723 726.198 653.723 722.918C653.723 720.162 655.791 718.324 658.746 718.062C667.906 717.143 677.066 717.143 686.226 718.062C689.033 718.324 691.249 720.293 691.249 723.049C691.101 726.198 688.59 727.904 685.192 728.036C680.759 728.167 676.327 728.036 671.895 728.036Z" fill="#2C70A8"/>
<path d="M1139.82 728.036C1135.69 728.036 1131.7 728.167 1127.56 728.036C1124.16 727.904 1121.65 726.198 1121.65 722.918C1121.65 720.162 1123.72 718.324 1126.68 718.062C1135.84 717.143 1145 717.143 1154.16 718.062C1156.96 718.324 1159.18 720.293 1159.18 723.049C1159.03 726.198 1156.52 727.904 1153.12 728.036C1148.69 728.167 1144.26 728.036 1139.82 728.036Z" fill="#2C70A8"/>
<path d="M634.473 727.747C632.435 727.747 630.397 727.879 628.359 727.747C624.574 727.615 621.518 726.423 621.518 722.452C621.663 718.481 625.011 717.422 628.505 717.29C632.581 717.025 636.656 717.157 640.586 717.29C644.08 717.422 647.719 718.349 647.865 722.187C648.156 726.688 644.226 727.615 640.295 727.747C638.549 727.879 636.511 727.879 634.473 727.747C634.473 727.879 634.473 727.879 634.473 727.747Z" fill="#2C70A8"/>
<path d="M1102.41 727.747C1100.37 727.747 1098.33 727.879 1096.29 727.747C1092.51 727.615 1089.45 726.423 1089.45 722.452C1089.6 718.481 1092.94 717.422 1096.44 717.29C1100.51 717.025 1104.59 717.157 1108.52 717.29C1112.01 717.422 1115.65 718.349 1115.8 722.187C1116.09 726.688 1112.16 727.615 1108.23 727.747C1106.48 727.879 1104.44 727.879 1102.41 727.747C1102.41 727.879 1102.41 727.879 1102.41 727.747Z" fill="#2C70A8"/>
<path d="M707.796 717.52C712.228 717.913 718.581 716.863 718.729 722.769C718.876 728.806 712.523 728.149 707.796 728.149C703.216 728.149 696.863 729.068 697.158 722.638C697.602 717.257 703.216 717.782 707.796 717.52Z" fill="#2C70A8"/>
<path d="M1175.72 717.52C1180.16 717.913 1186.51 716.863 1186.66 722.769C1186.8 728.806 1180.45 728.149 1175.72 728.149C1171.14 728.149 1164.79 729.068 1165.09 722.638C1165.53 717.257 1171.14 717.782 1175.72 717.52Z" fill="#2C70A8"/>
<path d="M671.308 573.042C659.773 573.042 648.095 573.042 636.559 573.042C631.859 573.042 627.445 572.123 627.302 567.005C627.017 561.493 631.432 559.787 636.559 559.787C659.773 559.787 682.844 559.787 706.057 559.787C711.042 559.787 714.745 561.624 714.887 566.48C715.03 571.729 711.042 573.042 706.2 573.042C694.522 573.042 682.844 573.042 671.308 573.042Z" fill="#2C70A8"/>
<path d="M1138.41 573.042C1126.88 573.042 1115.2 573.042 1103.66 573.042C1098.96 573.042 1094.55 572.123 1094.41 567.005C1094.12 561.493 1098.54 559.787 1103.66 559.787C1126.88 559.787 1149.95 559.787 1173.16 559.787C1178.15 559.787 1181.85 561.624 1181.99 566.48C1182.13 571.729 1178.15 573.042 1173.3 573.042C1161.63 573.042 1149.95 573.042 1138.41 573.042Z" fill="#2C70A8"/>
<path d="M820.749 838.04C793.897 838.04 793.897 838.04 793.897 810.631C793.897 801.848 792.684 792.611 800.42 786.251C808.612 779.436 816.956 772.925 828.789 778.073C840.774 783.373 848.662 791.096 847.449 805.331C846.994 810.934 847.449 816.537 847.297 822.14C847.145 835.617 844.87 837.888 831.217 838.04C827.727 838.191 824.238 838.04 820.749 838.04Z" fill="#2C70A8"/>
<path d="M803.546 810.506C801.372 795.816 805.502 784.799 820.502 782.733C831.155 781.356 837.894 793.062 838.329 810.046C838.764 823.359 838.111 832.999 820.72 832.77C803.981 832.54 801.372 824.507 803.546 810.506Z" fill="#FFDE57"/>
<path d="M752.177 891.124C725.325 891.124 725.325 891.124 725.325 863.715C725.325 854.932 724.111 845.695 731.848 839.335C740.04 832.52 748.384 826.009 760.217 831.157C772.202 836.457 780.09 844.18 778.876 858.415C778.421 864.018 778.877 869.621 778.725 875.224C778.573 888.701 776.298 890.972 762.644 891.124C759.155 891.275 755.666 891.124 752.177 891.124Z" fill="#2C70A8"/>
<path d="M734.627 862.746C732.326 848.056 736.699 837.039 752.582 834.973C763.86 833.596 770.996 845.302 771.456 862.287C771.917 875.599 771.226 885.239 752.812 885.01C735.088 884.78 732.326 876.747 734.627 862.746Z" fill="#FFDE57"/>
<path d="M904.052 818.136C877.2 818.136 877.2 818.136 877.2 790.727C877.2 781.944 875.986 772.706 883.723 766.346C891.915 759.532 900.259 753.02 912.092 758.169C924.077 763.469 931.965 771.192 930.751 785.427C930.296 791.029 930.752 796.632 930.6 802.235C930.448 815.713 928.173 817.984 914.519 818.136C911.03 818.287 907.541 818.136 904.052 818.136Z" fill="#2C70A8"/>
<path d="M885.079 789.611C882.777 774.921 887.15 763.904 903.033 761.838C914.312 760.461 921.447 772.167 921.908 789.152C922.368 802.464 921.678 812.105 903.263 811.875C885.539 811.646 882.777 803.612 885.079 789.611Z" fill="#FFDE57"/>
<path d="M987.372 838.04C960.52 838.04 960.52 838.04 960.52 810.631C960.52 801.848 959.307 792.611 967.044 786.251C975.236 779.436 983.579 772.925 995.412 778.073C1007.4 783.373 1015.29 791.096 1014.07 805.331C1013.62 810.934 1014.07 816.537 1013.92 822.14C1013.77 835.617 1011.49 837.888 997.84 838.04C994.35 838.191 990.861 838.04 987.372 838.04Z" fill="#2C70A8"/>
<path d="M1004.96 812.332C1007.48 825.424 1002.67 832.544 985.268 832.774C966.266 832.774 967.869 821.519 968.098 809.346C968.327 793.038 975.882 781.554 987.329 782.702C1001.29 784.08 1006.33 793.497 1004.96 806.819C1004.73 807.738 1004.96 808.886 1004.96 812.332Z" fill="#FFDE57"/>
<path d="M1052.25 891.124C1025.4 891.124 1025.4 891.124 1025.4 863.715C1025.4 854.932 1024.19 845.695 1031.93 839.335C1040.12 832.52 1048.46 826.009 1060.3 831.157C1072.28 836.457 1080.17 844.18 1078.95 858.415C1078.5 864.018 1078.95 869.621 1078.8 875.224C1078.65 888.701 1076.38 890.972 1062.72 891.124C1059.23 891.275 1055.74 891.124 1052.25 891.124Z" fill="#2C70A8"/>
<path d="M1071.79 865.81C1074.45 879.447 1069.37 886.864 1051.01 887.103C1030.95 887.103 1032.64 875.38 1032.88 862.699C1033.12 845.712 1041.1 833.749 1053.18 834.946C1067.92 836.381 1073.24 846.191 1071.79 860.067C1071.55 861.025 1071.79 862.221 1071.79 865.81Z" fill="#FFDE57"/>
<path d="M900.557 853.271C902.531 853.256 904.528 853.362 906.32 853.604C908.047 853.838 909.72 854.217 911.009 854.821L917.138 857.467C931.763 863.751 948.524 870.827 964.726 878.982C983.236 888.3 1001.18 899.105 1014.54 911.909L1014.97 912.326C1023.97 921.148 1030.25 934.328 1034.21 948.456C1038.23 962.842 1039.9 978.421 1039.49 991.865V991.873C1038.47 1021.16 1039.49 1061.26 1039.49 1090.67C1039.49 1121.48 1039.9 1141.99 1039.49 1172.64L1039.49 1172.64C1039.48 1174.19 1038.98 1175.56 1038.02 1176.67C1037.09 1177.74 1035.83 1178.44 1034.49 1178.92C1031.85 1179.87 1028.37 1180.12 1024.73 1180.09C1021.04 1180.06 1016.95 1179.74 1013.02 1179.42C1009.05 1179.1 1005.26 1178.78 1002.02 1178.73H1002.02C999.202 1178.68 996.726 1178.92 994.555 1179.2C992.468 1179.47 990.43 1179.8 988.824 1179.85C987.218 1179.89 985.352 1179.69 984 1178.27C982.707 1176.9 982.347 1174.89 982.347 1172.62L982.255 1150.31C982.012 1097.94 981.633 1043.5 982.347 991.775V991.767C982.755 969.363 981.295 951.326 966.929 938.085L966.925 938.081C956.054 928.013 948.262 921.613 939.931 916.302C931.598 910.99 922.661 906.724 909.441 900.98C907.453 900.152 904.112 899.668 900.57 899.668C897.034 899.668 893.698 900.149 891.709 900.976C877.771 906.982 868.279 910.75 859.472 915.782C850.731 920.777 842.648 927.035 831.729 938.023L831.725 938.029C819.079 950.662 810.285 972.518 810.481 991.775C811.297 1050.88 810.482 1092.56 810.482 1151.61C810.482 1153.88 810.583 1157.92 810.635 1162.08C810.685 1166.16 810.689 1170.38 810.475 1172.78C810.314 1174.89 809.219 1176.38 807.647 1177.3C806.201 1178.15 804.413 1178.47 802.737 1178.62C801.029 1178.76 799.178 1178.73 797.5 1178.7C795.767 1178.66 794.242 1178.62 792.988 1178.72C790.142 1178.95 780.838 1179.22 772.08 1178.79C767.707 1178.57 763.377 1178.17 760.025 1177.47C758.361 1177.13 756.827 1176.69 755.624 1176.1C754.525 1175.56 753.162 1174.65 752.791 1173.07C752.487 1171.77 752.357 1170.03 752.309 1168.19C752.259 1166.32 752.292 1164.21 752.356 1162.13C752.488 1157.87 752.738 1153.86 752.738 1151.61C752.738 1091.41 753.146 1051.99 752.738 991.819V990.622C752.832 978.161 755.92 962.964 760.963 948.812C766.16 934.227 773.525 920.493 782.079 911.94C795.682 898.33 814.438 887.621 833.842 878.55C853.199 869.5 873.574 861.922 890.142 854.817L890.146 854.815C892.566 853.784 896.702 853.298 900.557 853.271Z" fill="#FFDE57" stroke="#2C70A8" stroke-width="4"/>
</svg>
