<?xml version="1.0" encoding="UTF-8" standalone="no"?>
<!-- Created with Inkscape (http://www.inkscape.org/) -->

<svg
   width="15cm"
   height="10.214cm"
   viewBox="0 0 150 102.14"
   version="1.1"
   id="svg1241"
   inkscape:version="1.2.1 (9c6d41e410, 2022-07-14)"
   sodipodi:docname="PythonPune_banner.svg"
   inkscape:export-filename="/home/akgaikwad/design/Python_Pune/final/PythonPune_logo_white.png"
   inkscape:export-xdpi="150"
   inkscape:export-ydpi="150"
   xmlns:inkscape="http://www.inkscape.org/namespaces/inkscape"
   xmlns:sodipodi="http://sodipodi.sourceforge.net/DTD/sodipodi-0.dtd"
   xmlns="http://www.w3.org/2000/svg"
   xmlns:svg="http://www.w3.org/2000/svg"
   xmlns:rdf="http://www.w3.org/1999/02/22-rdf-syntax-ns#"
   xmlns:cc="http://creativecommons.org/ns#"
   xmlns:dc="http://purl.org/dc/elements/1.1/">
  <defs
     id="defs1235" />
  <sodipodi:namedview
     id="base"
     pagecolor="#ffffff"
     bordercolor="#666666"
     borderopacity="1.0"
     inkscape:pageopacity="0.0"
     inkscape:pageshadow="2"
     inkscape:zoom="0.7"
     inkscape:cx="297.85714"
     inkscape:cy="182.14286"
     inkscape:document-units="mm"
     inkscape:current-layer="layer1"
     showgrid="false"
     inkscape:window-width="1829"
     inkscape:window-height="1051"
     inkscape:window-x="82"
     inkscape:window-y="-9"
     inkscape:window-maximized="1"
     units="cm"
     inkscape:showpageshadow="2"
     inkscape:pagecheckerboard="0"
     inkscape:deskcolor="#d1d1d1" />
  <metadata
     id="metadata1238">
    <rdf:RDF>
      <cc:Work
         rdf:about="">
        <dc:format>image/svg+xml</dc:format>
        <dc:type
           rdf:resource="http://purl.org/dc/dcmitype/StillImage" />
      </cc:Work>
    </rdf:RDF>
  </metadata>
  <g
     inkscape:label="Layer 1"
     inkscape:groupmode="layer"
     id="layer1"
     transform="translate(0,-194.86)">
    <g
       id="g1227"
       transform="matrix(0.12395248,0,0,0.12395248,-1274.5454,214.28258)"
       inkscape:export-filename="/home/akgaikwad/design/Python_Pune/final/PythonPune_Logo_print.png"
       inkscape:export-xdpi="150.00824"
       inkscape:export-ydpi="150.00824">
      <path
         style="fill:#306998;fill-opacity:1;stroke:#306998;stroke-width:2.09218955;stroke-linecap:butt;stroke-linejoin:miter;stroke-miterlimit:4;stroke-dasharray:none;stroke-opacity:1"
         d="m 10625.752,2.8736027 -76.099,42.2174863 0.41,264.749051 -16.079,8.2861 -26.491,-28.46828 -15.026,-129.29588 -26.491,-26.88652 h -43.1 l -86.591,119.8054 -5.141,78.68423 12.259,35.98131 100.431,78.52742 22.056,-0.0209 62.483,-54.78279 h 28.468 l -61.223,54.80367 h 35.312 l 62.479,-54.80333 h 28.47 l -61.098,54.80327 c 29.069,0.3813 58.347,0.0211 87.623,0.0789 l 40.775,-40.84546 V 206.5863 l 45.003,-42.49751 44.563,-0.0692 0.387,-118.928579 -76.699,-42.1655892 c 0,0 -51.123,-0.016528 -76.681,-0.051865 z m 35.276,36.1932123 h 9.122 l 11.329,6.63513 v 63.531645 h -31.765 V 45.701945 Z m -75.917,20.560584 h 9.124 l 11.327,6.635128 v 63.531653 h -31.765 V 66.262527 Z m 153.416,0 h 9.122 l 11.329,6.635128 v 63.531653 h -31.765 V 66.262527 Z m -336.606,175.465071 9.886,18.97884 v 50.61167 l -30.467,7.58873 -15.658,-31.31391 z"
         id="path2664-35"
         inkscape:connector-curvature="0" />
      <path
         style="fill:#306998;fill-opacity:1;stroke:#306998;stroke-width:2.09218955;stroke-linecap:butt;stroke-linejoin:miter;stroke-miterlimit:4;stroke-dasharray:none;stroke-opacity:1"
         d="m 11149.456,0.63666716 c -25.558,0.0355463 -76.681,0.0518654 -76.681,0.0518654 l -76.697,42.16558344 0.387,118.928574 44.561,0.0703 45.003,42.49752 v 199.11997 l 40.777,43.00344 86.213,-0.15252 -60.427,-54.65089 h 28.469 l 61.525,54.80335 h 36.481 l -61.439,-54.80335 h 28.468 l 62.139,54.80335 h 23.141 l 100.429,-80.76439 12.259,-35.98131 -5.141,-78.68421 -86.591,-119.8054 h -43.1 l -26.491,26.88649 -15.024,129.29591 -26.493,28.46826 -16.079,-8.28608 0.41,-264.749069 z m -44.792,38.43014784 h 9.125 l 11.327,6.63513 v 63.531645 h -31.766 V 45.701945 Z m -75.915,20.560584 h 9.124 l 11.328,6.635128 v 63.531653 h -31.766 V 66.262527 Z m 153.414,0 h 9.124 l 11.328,6.635128 v 63.531653 h -31.766 V 66.262527 Z m 191.124,173.228121 36.239,45.86535 -15.658,31.31389 -30.467,-7.58873 v -50.61058 z"
         id="path2666-62"
         inkscape:connector-curvature="0" />
      <path
         style="fill:#ffd63f;fill-opacity:1;stroke:none;stroke-width:2.09218955;stroke-linecap:butt;stroke-linejoin:miter;stroke-miterlimit:4;stroke-dasharray:none;stroke-opacity:1"
         d="m 10727.736,-55.075964 -0.02,2.41641 4.377,0.807635 6.339,4.686864 17.807,13.436769 -0.08,24.1187125 -0.352,23.8646435 39.315,21.782309 0.659,144.687431 h -56.822 l -33.052,35.18124 v 189.80246 l -38.656,40.76541 h 120.701 l 38.657,-40.69191 v -62.7089 l -51.731,60.85687 -0.839,-30.196 52.57,-60.43733 v -60.92711 l 43.503,-23.87977 h 35.08 l 43.555,23.87977 v 62.58563 l 53.058,60.55842 -0.839,30.19492 -52.219,-61.11743 0.167,61.3001 38.831,40.58274 h 119.659 l -38.657,-40.76541 V 215.90605 l -33.053,-35.18124 -55.989,-0.0345 0.473,-144.532817 38.967,-21.648251 0.209,-48.114171 17.966,-13.659493 5.923,-4.538741 4.372,-0.927648 -0.104,-2.345051 z m 84.98,23.632186 h 7.344 l 9.118,3.872749 V 9.5022489 h -25.569 V -27.571029 Z m 34.948,0 h 7.344 l 9.117,3.872749 V 9.5022489 h -25.566 V -27.571029 Z m 36.348,0 h 7.341 l 9.118,3.872749 V 9.5022489 h -25.567 V -27.571029 Z m 36.626,0 h 7.343 l 9.118,3.872749 V 9.5022489 h -25.567 V -27.571029 Z m 34.948,0 h 7.343 l 9.118,3.872749 V 9.5022489 h -25.567 V -27.571029 Z"
         id="path2668-9"
         inkscape:connector-curvature="0" />
      <path
         style="fill:#ffd63f;fill-opacity:1;stroke:none;stroke-width:2.09218955;stroke-linecap:butt;stroke-linejoin:miter;stroke-miterlimit:4;stroke-dasharray:none;stroke-opacity:1"
         d="m 10890.531,-156.708 -3.954,5.23502 v 96.471613 h 3.954 v -60.762773 l 38.908,21.54878 -11.843,-27.40006 11.03,-3.7149 -15.673,-7.54656 -1.511,-3.71597 -20.911,-10.17056 z"
         id="path2670-1"
         inkscape:connector-curvature="0" />
    </g>
    <g
       aria-label="PythonPune"
       transform="matrix(0.1429846,0,0,0.1429846,-866.54804,393.14044)"
       style="font-style:normal;font-weight:normal;font-size:40px;line-height:1.25;font-family:sans-serif;letter-spacing:0px;word-spacing:0px;fill:#306998;fill-opacity:1;stroke:none"
       id="flowRoot951-1-2">
      <path
         d="m 6060.4292,-713.4712 h 53.76 v -16.32 l -18.432,-0.576 v -27.84 h 16.32 c 28.992,0 49.728,-14.592 49.728,-43.776 0,-25.728 -17.28,-39.168 -45.504,-39.168 h -54.912 v 16.32 l 10.944,0.576 v 89.28 c 0,3.84 -2.304,4.992 -5.568,5.376 l -6.336,0.576 z m 35.328,-63.36 v -45.696 h 11.712 c 18.816,0 30.144,3.072 30.144,22.848 0,17.088 -11.328,22.848 -28.032,22.848 z"
         style="font-style:normal;font-variant:normal;font-weight:normal;font-stretch:normal;font-size:192px;font-family:'Bree Serif';-inkscape-font-specification:'Bree Serif';fill:#306998;fill-opacity:1"
         id="path821"
         inkscape:connector-curvature="0" />
      <path
         d="m 6244.5272,-717.1192 c 0,17.472 -7.104,28.224 -24.768,28.224 -5.76,0 -9.984,-0.576 -13.632,-1.92 -3.456,-1.344 -4.416,-3.264 -4.416,-6.912 v -9.216 l -18.24,1.536 v 26.688 c 8.064,4.032 24,6.336 36.096,6.336 28.608,0 44.544,-13.056 44.544,-44.736 v -92.928 h -33.792 v 15.744 l 6.144,0.384 c 3.648,0 4.8,1.536 4.8,5.76 v 34.752 c 0,9.984 -7.104,19.008 -20.544,19.008 -12.288,0 -14.208,-8.832 -14.208,-20.544 v -55.104 h -33.792 v 15.744 l 6.144,0.384 c 3.264,0.192 4.8,1.344 4.8,5.376 v 38.592 c 0,22.656 10.56,33.216 29.76,33.216 12.672,0 24.384,-5.376 31.104,-14.976 z"
         style="font-style:normal;font-variant:normal;font-weight:normal;font-stretch:normal;font-size:192px;font-family:'Bree Serif';-inkscape-font-specification:'Bree Serif';fill:#306998;fill-opacity:1"
         id="path823"
         inkscape:connector-curvature="0" />
      <path
         d="m 6305.0582,-830.3992 c -4.032,10.944 -8.64,21.312 -22.08,22.464 l -1.92,14.016 h 13.632 v 51.264 c 0,13.44 -0.192,31.872 29.76,31.872 9.024,0 18.624,-2.688 24.384,-6.72 l -5.76,-14.784 c -3.072,1.92 -7.872,4.032 -13.056,4.032 -7.872,0 -12.48,-3.456 -12.48,-15.168 v -50.496 h 23.616 l 1.92,-16.128 h -25.536 v -20.352 z"
         style="font-style:normal;font-variant:normal;font-weight:normal;font-stretch:normal;font-size:192px;font-family:'Bree Serif';-inkscape-font-specification:'Bree Serif';fill:#306998;fill-opacity:1"
         id="path825"
         inkscape:connector-curvature="0" />
      <path
         d="m 6367.8332,-734.9752 c 0,4.8 -1.92,5.952 -5.568,6.336 l -6.336,0.576 v 14.592 h 45.696 v -15.36 l -10.944,-0.576 v -46.464 c 0,-9.984 7.104,-19.392 20.544,-19.392 12.288,0 14.976,9.024 14.976,20.736 v 39.552 c 0,4.8 -1.92,5.952 -5.568,6.336 l -6.336,0.576 v 14.592 h 45.696 v -15.36 l -10.944,-0.576 v -50.112 c 0,-22.656 -11.328,-33.408 -30.528,-33.408 -12.672,0 -22.272,5.952 -28.032,14.208 v -51.648 h -34.176 v 15.936 l 6.72,0.384 c 3.648,0.192 4.8,1.344 4.8,5.568 z"
         style="font-style:normal;font-variant:normal;font-weight:normal;font-stretch:normal;font-size:192px;font-family:'Bree Serif';-inkscape-font-specification:'Bree Serif';fill:#306998;fill-opacity:1"
         id="path827"
         inkscape:connector-curvature="0" />
      <path
         d="m 6515.4062,-727.4872 c -18.432,0 -20.928,-19.2 -20.928,-37.056 0,-18.432 6.144,-31.488 21.312,-31.488 15.36,0 20.544,13.248 20.544,34.752 0,19.968 -5.952,33.792 -20.928,33.792 z m -44.16,-34.368 c 0,34.752 16.896,51.264 42.624,51.264 25.344,0 45.888,-16.896 45.888,-53.76 0,-44.16 -28.608,-48.576 -42.816,-48.576 -19.776,0 -45.696,11.136 -45.696,51.072 z"
         style="font-style:normal;font-variant:normal;font-weight:normal;font-stretch:normal;font-size:192px;font-family:'Bree Serif';-inkscape-font-specification:'Bree Serif';fill:#306998;fill-opacity:1"
         id="path829"
         inkscape:connector-curvature="0" />
      <path
         d="m 6571.3442,-794.6872 8.064,0.576 c 3.456,0.192 4.8,1.728 4.8,5.952 v 53.184 c 0,4.8 -1.92,5.952 -5.568,6.336 l -6.336,0.576 v 14.592 h 45.696 v -15.36 l -10.944,-0.576 v -46.464 c 0,-9.984 7.104,-19.392 19.776,-19.392 13.056,0 15.744,8.064 15.744,20.736 v 39.552 c 0,4.8 -1.92,5.952 -5.568,6.336 l -6.336,0.576 v 14.592 h 45.696 v -15.36 l -10.944,-0.576 v -50.112 c 0,-22.656 -11.328,-33.408 -30.528,-33.408 -12.672,0 -24.384,5.76 -31.104,15.36 v -12.48 h -32.448 z"
         style="font-style:normal;font-variant:normal;font-weight:normal;font-stretch:normal;font-size:192px;font-family:'Bree Serif';-inkscape-font-specification:'Bree Serif';fill:#306998;fill-opacity:1"
         id="path831"
         inkscape:connector-curvature="0" />
      <path
         d="m 6687.4292,-713.4712 h 53.76 v -16.32 l -18.432,-0.576 v -27.84 h 16.32 c 28.992,0 49.728,-14.592 49.728,-43.776 0,-25.728 -17.28,-39.168 -45.504,-39.168 h -54.912 v 16.32 l 10.944,0.576 v 89.28 c 0,3.84 -2.304,4.992 -5.568,5.376 l -6.336,0.576 z m 35.328,-63.36 v -45.696 h 11.712 c 18.816,0 30.144,3.072 30.144,22.848 0,17.088 -11.328,22.848 -28.032,22.848 z"
         style="font-style:normal;font-variant:normal;font-weight:normal;font-stretch:normal;font-size:192px;font-family:'Bree Serif';-inkscape-font-specification:'Bree Serif';fill:#306998;fill-opacity:1"
         id="path833"
         inkscape:connector-curvature="0" />
      <path
         d="m 6902.6312,-728.6392 -6.72,-0.576 c -3.648,-0.384 -4.8,-1.344 -4.8,-5.568 v -75.264 h -33.792 v 15.744 l 6.144,0.384 c 3.648,0.192 4.8,1.536 4.8,5.76 v 40.512 c 0,9.984 -7.104,19.008 -20.544,19.008 -12.288,0 -14.208,-8.832 -14.208,-20.544 v -60.864 h -33.792 v 15.744 l 6.144,0.384 c 3.264,0.192 4.8,1.344 4.8,5.376 v 44.352 c 0,22.656 10.56,33.216 29.76,33.216 12.672,0 24.384,-5.376 31.104,-14.976 v 12.48 h 31.104 z"
         style="font-style:normal;font-variant:normal;font-weight:normal;font-stretch:normal;font-size:192px;font-family:'Bree Serif';-inkscape-font-specification:'Bree Serif';fill:#306998;fill-opacity:1"
         id="path835"
         inkscape:connector-curvature="0" />
      <path
         d="m 6913.3442,-794.6872 8.064,0.576 c 3.456,0.192 4.8,1.728 4.8,5.952 v 53.184 c 0,4.8 -1.92,5.952 -5.568,6.336 l -6.336,0.576 v 14.592 h 45.696 v -15.36 l -10.944,-0.576 v -46.464 c 0,-9.984 7.104,-19.392 19.776,-19.392 13.056,0 15.744,8.064 15.744,20.736 v 39.552 c 0,4.8 -1.92,5.952 -5.568,6.336 l -6.336,0.576 v 14.592 h 45.696 v -15.36 l -10.944,-0.576 v -50.112 c 0,-22.656 -11.328,-33.408 -30.528,-33.408 -12.672,0 -24.384,5.76 -31.104,15.36 v -12.48 h -32.448 z"
         style="font-style:normal;font-variant:normal;font-weight:normal;font-stretch:normal;font-size:192px;font-family:'Bree Serif';-inkscape-font-specification:'Bree Serif';fill:#306998;fill-opacity:1"
         id="path837"
         inkscape:connector-curvature="0" />
      <path
         d="m 7077.8132,-812.9272 c -31.488,0 -47.424,24.96 -47.424,53.376 0,28.608 12.672,48.576 45.312,48.576 18.048,0 30.72,-8.064 33.792,-10.752 l -7.296,-15.552 c -4.608,3.264 -12.864,8.448 -24.192,8.448 -16.32,0 -22.848,-10.176 -23.616,-22.656 22.656,-0.192 54.72,-5.184 54.72,-34.752 0,-17.088 -12.48,-26.688 -31.296,-26.688 z m 10.176,27.072 c 0,14.784 -20.16,18.048 -34.368,18.24 0.576,-14.208 7.488,-28.992 22.848,-28.992 6.912,0 11.52,3.648 11.52,10.752 z"
         style="font-style:normal;font-variant:normal;font-weight:normal;font-stretch:normal;font-size:192px;font-family:'Bree Serif';-inkscape-font-specification:'Bree Serif';fill:#306998;fill-opacity:1"
         id="path839"
         inkscape:connector-curvature="0" />
    </g>
  </g>
</svg>
