<svg width="1062" height="472" viewBox="0 0 1062 472" fill="none" xmlns="http://www.w3.org/2000/svg">
<path d="M937.397 471.389L976.766 392.258L928.539 294.229H966.333L987.199 337.535C989.036 341.471 990.611 345.08 991.923 348.361C993.367 351.511 994.548 354.594 995.467 357.613C996.516 354.594 997.763 351.511 999.207 348.361C1000.65 345.08 1002.36 341.471 1004.32 337.535L1025.58 294.229H1062L974.207 471.389H937.397Z" fill="url(#paint0_linear_1050_213)"/>
<path d="M800.65 412.337V235.176H854.192C866.528 235.176 876.961 237.013 885.491 240.687C894.152 244.362 901.107 249.217 906.356 255.254C911.606 261.159 915.411 267.655 917.773 274.742C920.267 281.697 921.513 288.587 921.513 295.41C921.513 302.103 920.332 308.993 917.97 316.079C915.608 323.034 911.737 329.53 906.356 335.567C901.107 341.472 894.218 346.262 885.688 349.937C877.158 353.611 866.659 355.448 854.192 355.448H834.902V412.337H800.65ZM834.902 324.74H852.224C860.623 324.74 867.25 323.297 872.105 320.41C877.092 317.392 880.635 313.652 882.735 309.19C884.966 304.728 886.081 300.135 886.081 295.41C886.081 290.817 885.031 286.29 882.932 281.828C880.832 277.235 877.289 273.429 872.302 270.411C867.447 267.393 860.754 265.884 852.224 265.884H834.902V324.74Z" fill="url(#paint1_linear_1050_213)"/>
<path d="M702.485 415.484C694.217 415.484 686.475 413.91 679.257 410.76C672.171 407.479 665.937 403.018 660.557 397.375C655.176 391.601 650.911 384.973 647.762 377.493C644.744 369.882 643.234 361.811 643.234 353.281C643.234 344.751 644.744 336.746 647.762 329.266C650.911 321.655 655.176 315.028 660.557 309.385C665.937 303.611 672.171 299.149 679.257 295.999C686.475 292.719 694.217 291.078 702.485 291.078C708.784 291.078 714.624 291.997 720.004 293.834C725.385 295.671 730.24 298.296 734.571 301.708V223.363H768.822V412.335H739.295V400.721C734.833 405.314 729.453 408.923 723.154 411.548C716.855 414.172 709.965 415.484 702.485 415.484ZM706.422 385.367C712.196 385.367 717.445 383.924 722.169 381.037C726.894 378.149 730.634 374.278 733.39 369.423C736.277 364.567 737.72 359.187 737.72 353.281C737.72 347.376 736.277 341.995 733.39 337.14C730.634 332.284 726.894 328.413 722.169 325.526C717.445 322.639 712.196 321.195 706.422 321.195C700.648 321.195 695.398 322.639 690.674 325.526C685.95 328.413 682.144 332.284 679.257 337.14C676.501 341.995 675.123 347.376 675.123 353.281C675.123 359.187 676.501 364.567 679.257 369.423C682.144 374.278 685.95 378.149 690.674 381.037C695.398 383.924 700.648 385.367 706.422 385.367Z" fill="url(#paint2_linear_1050_213)"/>
<path d="M516.085 471.389L555.454 392.258L507.227 294.229H545.021L565.887 337.535C567.724 341.471 569.298 345.08 570.611 348.361C572.054 351.511 573.235 354.594 574.154 357.613C575.204 354.594 576.451 351.511 577.894 348.361C579.338 345.08 581.044 341.471 583.012 337.535L604.271 294.229H640.688L552.895 471.389H516.085Z" fill="url(#paint3_linear_1050_213)"/>
<path d="M367.438 412.337V235.176H401.689V291.867H452.868V235.176H487.12V412.337H452.868V323.756H401.689V412.337H367.438Z" fill="url(#paint4_linear_1050_213)"/>
<path d="M136.104 136.836C138.37 136.855 140.645 137.007 142.995 137.155C145.324 137.302 147.721 137.445 150.124 137.429H150.128C192.428 137.05 234.726 137.239 277.048 137.302H277.051C278.836 137.302 280.658 137.534 282.512 137.843C285.074 138.314 286.933 139.379 288.195 140.91C289.472 142.459 290.293 144.673 290.419 147.704V147.703C290.614 153.87 290.465 159.85 290.501 166.112L290.529 168.816C290.541 169.656 290.417 170.032 290.354 170.162C290.347 170.178 290.341 170.189 290.336 170.197L290.335 170.198C290.262 170.229 290.072 170.278 289.634 170.286C289.426 170.29 289.2 170.285 288.933 170.277C288.68 170.27 288.375 170.26 288.075 170.26H119.488C118.152 170.26 117.344 170.256 116.78 170.185C116.669 170.17 116.586 170.154 116.524 170.141C116.499 170.037 116.464 169.863 116.438 169.589C116.369 168.882 116.366 167.896 116.366 166.385C116.366 160.333 116.255 154.337 116.421 148.372L116.422 148.369C116.498 145.482 117.109 143.876 118.038 142.726C119.028 141.499 120.569 140.539 123.084 139.315C127.291 137.29 131.596 136.798 136.104 136.836Z" fill="url(#paint5_radial_1050_213)" stroke="#FFDE57" stroke-width="4"/>
<path d="M90.3789 219.076C96.8242 219.076 103.272 219.139 109.756 219.076C109.998 219.076 110.206 219.085 110.386 219.099C110.335 219.218 110.273 219.354 110.195 219.506C108.344 223.08 108.244 226.882 108.244 230.285V230.288C108.275 251.521 108.275 272.755 108.275 293.982C108.275 309.903 108.275 325.819 108.288 341.729L108.306 357.636C108.306 365.235 108.18 373.662 108.048 382.187C107.916 390.706 107.777 399.323 107.751 407.276C107.745 408.93 106.372 410.3 104.693 410.3H78.1357C76.4329 410.3 75.1057 408.968 75.1064 407.357C75.1224 371.621 75.2815 264.962 75.1055 236.466L75.1045 236.458L75.0908 235.463C75.0016 230.659 74.5581 224.196 72.1523 219.131C78.2372 219.078 84.2757 219.076 90.3789 219.076Z" fill="url(#paint6_radial_1050_213)" stroke="#FFDE57" stroke-width="4"/>
<path d="M333.297 219.23C333.264 219.304 333.227 219.383 333.187 219.466L333.183 219.475L333.178 219.484C330.672 224.766 330.57 230.272 330.57 235.456C330.57 250.726 330.47 287.157 330.37 323.674C330.274 358.706 330.18 393.818 330.172 410.383H296.501C296.481 393.478 296.569 350.442 296.666 310.914C296.716 290.319 296.768 270.678 296.808 256.186C296.827 248.94 296.845 242.98 296.856 238.833C296.862 236.76 296.867 235.138 296.87 234.036C296.872 233.485 296.872 233.064 296.873 232.78C296.873 232.639 296.874 232.531 296.874 232.459C296.874 232.447 296.874 232.435 296.874 232.425C296.875 232.402 296.877 232.383 296.878 232.37C296.881 232.305 296.883 232.225 296.885 232.142C296.888 231.969 296.892 231.722 296.895 231.415C296.9 230.798 296.906 229.907 296.91 228.81C296.919 226.614 296.924 223.575 296.927 220.201C296.927 219.881 296.927 219.557 296.927 219.23H333.297Z" fill="url(#paint7_radial_1050_213)" stroke="#FFDE57" stroke-width="4"/>
<path d="M62.4004 180.587C71.7341 180.714 81.0775 180.65 90.375 180.65C98.4019 180.65 106.464 180.699 114.483 180.626L117.918 180.587H117.931C119.357 180.558 119.754 180.814 119.854 180.909C119.928 180.979 120.235 181.338 120.209 182.837C120.023 190.65 120.085 198.455 120.209 206.3V206.308C120.238 207.787 119.983 208.237 119.874 208.359C119.821 208.419 119.519 208.721 118.114 208.693L118.102 208.692H118.089C99.4476 208.566 80.8075 208.628 62.1182 208.691C60.8521 208.691 60.5984 208.452 60.5859 208.439C60.5752 208.429 60.3282 208.166 60.3555 206.88V206.868C60.4792 198.758 60.4792 190.648 60.3555 182.538V182.529C60.3279 181.116 60.6218 180.854 60.6338 180.843C60.6835 180.797 60.9472 180.613 61.9209 180.587H62.4004Z" fill="url(#paint8_radial_1050_213)" stroke="#FFDE57" stroke-width="4"/>
<path d="M343.161 180.584C344.401 180.584 344.663 180.83 344.685 180.852C344.703 180.87 344.952 181.137 344.925 182.396L344.924 182.408C344.8 190.518 344.8 198.628 344.924 206.738L344.925 206.747C344.952 208.136 344.653 208.406 344.632 208.426C344.562 208.489 344.212 208.72 342.896 208.69L342.889 208.689H342.88C333.669 208.563 324.449 208.626 315.275 208.626C305.978 208.626 296.635 208.563 287.302 208.689H287.286C285.95 208.718 285.682 208.456 285.66 208.433C285.617 208.388 285.352 208.053 285.38 206.628C285.566 198.689 285.503 190.695 285.38 182.725V182.238C285.403 181.236 285.579 180.943 285.636 180.876C285.647 180.863 285.698 180.8 285.912 180.73C286.152 180.653 286.553 180.584 287.202 180.584C305.84 180.71 324.476 180.647 343.161 180.584Z" fill="url(#paint9_radial_1050_213)" stroke="#FFDE57" stroke-width="4"/>
<path d="M340.791 104.05C342.427 104.019 342.99 104.276 343.184 104.446C343.289 104.538 343.65 104.934 343.568 106.626C343.256 112.827 343.319 119.081 343.381 125.201V125.222C343.407 126.532 343.133 126.899 343.041 126.99C342.941 127.09 342.573 127.351 341.31 127.352C323.233 127.288 305.218 127.288 287.142 127.352C285.975 127.351 285.695 127.107 285.651 127.062C285.606 127.016 285.352 126.711 285.379 125.478V125.472C285.503 119 285.503 112.528 285.379 106.057V106.056L285.383 105.595C285.423 104.629 285.658 104.408 285.695 104.375C285.802 104.28 286.195 104.051 287.502 104.05C296.522 104.176 305.551 104.113 314.534 104.113C323.253 104.113 332.004 104.239 340.79 104.049L340.791 104.05Z" fill="url(#paint10_radial_1050_213)" stroke="#FFDE57" stroke-width="4"/>
<path d="M117.133 104.049C118.053 104.034 118.734 104.073 119.245 104.17C119.75 104.266 119.959 104.397 120.047 104.473C120.141 104.554 120.578 105.002 120.345 107.213V107.217C119.772 112.755 120.028 118.345 120.212 123.732V123.738C120.271 125.35 120.06 126.007 119.841 126.307C119.693 126.508 119.273 126.905 117.662 127.043C113.734 127.352 109.789 127.416 105.861 127.416H105.853C92.3368 127.479 78.6236 127.353 65.0645 127.479H65.0488C63.3338 127.508 62.7805 127.162 62.5859 126.957C62.3804 126.74 62.0593 126.141 62.1445 124.395L62.1465 124.359C62.3326 118.45 62.333 112.539 62.1475 106.691C62.1198 105.159 62.4225 104.675 62.5811 104.514C62.741 104.352 63.2151 104.051 64.7129 104.051V104.05C73.5491 104.239 82.4719 104.113 91.3027 104.113C99.8384 104.113 108.468 104.24 117.134 104.05L117.133 104.049Z" fill="url(#paint11_radial_1050_213)" stroke="#FFDE57" stroke-width="4"/>
<path d="M315.097 137.485C320.866 137.485 326.563 137.422 332.226 137.485H332.248C332.549 137.485 332.826 137.498 333.066 137.526C331.055 141.273 330.455 145.113 330.318 148.817C330.25 150.665 330.297 152.51 330.35 154.29C330.403 156.091 330.462 157.818 330.433 159.529V159.535C330.386 162.746 330.358 164.989 330.166 166.64C329.971 168.31 329.645 168.932 329.355 169.23C329.081 169.513 328.515 169.837 326.922 170.02C325.336 170.201 323.167 170.204 320.032 170.204C313.644 170.204 307.131 170.141 300.703 170.204H300.688L300.674 170.205C300.147 170.218 299.805 170.172 299.594 170.113C299.399 170.06 299.351 170.007 299.351 170.006C299.349 170.004 299.294 169.954 299.239 169.757C299.179 169.541 299.131 169.19 299.144 168.648V168.637L299.145 168.624C299.176 165.887 299.16 163.152 299.145 160.445C299.129 157.734 299.114 155.05 299.145 152.386C299.206 147.653 299.112 142.583 296.583 137.738C296.541 137.655 296.505 137.579 296.473 137.509C296.732 137.491 297.035 137.485 297.391 137.485H315.097Z" fill="url(#paint12_radial_1050_213)" stroke="#FFDE57" stroke-width="4"/>
<path d="M92.3506 137.485C98.1191 137.485 103.817 137.422 109.541 137.485H109.562C109.731 137.485 109.884 137.485 110.026 137.486C108.127 141.24 107.49 145.089 107.303 148.839C107.207 150.765 107.228 152.691 107.263 154.564C107.298 156.457 107.346 158.281 107.316 160.1V160.112C107.285 163.179 107.264 165.316 107.085 166.885C106.904 168.475 106.596 169.044 106.343 169.306C106.107 169.55 105.598 169.855 104.099 170.028C102.605 170.201 100.56 170.204 97.5938 170.204C91.6935 170.204 85.457 169.886 79.3799 170.335C77.2751 170.481 76.6774 170.049 76.4814 169.822C76.2045 169.502 75.9042 168.696 76.0244 166.633V166.63C76.1826 163.843 76.1814 161.07 76.1582 158.347C76.1349 155.605 76.0896 152.933 76.1504 150.256V150.244C76.2138 146.413 75.9104 142.359 74.0293 138.576L74.0283 138.575L73.8145 138.114C73.7168 137.886 73.6541 137.702 73.6123 137.557C73.8622 137.514 74.2177 137.485 74.7061 137.485H92.3506Z" fill="url(#paint13_radial_1050_213)" stroke="#FFDE57" stroke-width="4"/>
<path d="M90.0889 54.1846C101.332 54.0682 112.065 62.4415 115.354 73.8477V73.8496C115.58 74.6321 115.678 75.188 115.691 75.5732C115.698 75.7555 115.683 75.864 115.672 75.9209C115.644 75.9336 115.604 75.9514 115.545 75.9697C115.275 76.0538 114.781 76.1256 113.949 76.0977H113.932L113.914 76.0967C106.06 75.97 98.1041 76.0967 90.2529 76.0967C82.2554 76.0967 74.2067 76.0334 66.1777 76.0967H66.1562C65.41 76.1103 64.9702 76.0369 64.7324 75.958C64.6739 75.9386 64.6356 75.9205 64.6113 75.9082C64.599 75.8584 64.5829 75.7585 64.584 75.5859C64.5863 75.2372 64.6601 74.7254 64.8545 74C67.9137 62.8794 78.3454 54.5648 89.5547 54.1963L90.0889 54.1846Z" fill="url(#paint14_radial_1050_213)" stroke="#FFDE57" stroke-width="4"/>
<path d="M314.408 54.2461C325.61 54.3038 336.207 62.2965 339.427 72.998L339.574 73.5088C339.86 74.5591 339.996 75.2474 340.024 75.7109C340.03 75.7963 340.028 75.8642 340.026 75.917C339.974 75.9337 339.907 75.9557 339.819 75.9756C339.358 76.08 338.642 76.1417 337.526 76.1572C333.654 76.1572 329.795 76.1427 325.933 76.127C322.062 76.1112 318.186 76.0947 314.295 76.0947C306.56 76.0947 298.816 76.1578 291.114 76.0947C290.087 76.079 289.439 76.017 289.029 75.9199C288.98 75.9082 288.939 75.8933 288.903 75.8828C288.903 75.8387 288.902 75.7848 288.905 75.7207C288.93 75.2822 289.056 74.6265 289.327 73.624L289.329 73.6191C292.245 62.7241 303.307 54.1878 314.408 54.2461Z" fill="url(#paint15_radial_1050_213)" stroke="#FFDE57" stroke-width="4"/>
<path d="M78.3477 86.3555V86.3564C87.3982 86.6105 96.442 86.4836 105.437 86.3574C106.654 86.3587 106.915 86.5732 106.944 86.6006C106.956 86.6112 107.161 86.8072 107.23 87.7402L107.251 88.1904V88.1973C107.298 90.1597 107.332 91.4683 107.259 92.417C107.2 93.1753 107.086 93.4254 107.056 93.4805C107.003 93.5121 106.785 93.6169 106.155 93.6904C105.275 93.7931 104.043 93.7969 102.156 93.7969H102.119C98.686 93.8597 95.174 93.7969 91.5449 93.7969C87.3462 93.7969 82.928 93.6061 78.5342 93.8633H78.5283C76.8036 93.9687 76.4845 93.5238 76.3945 93.3916C76.1422 93.0203 75.9612 92.212 76.0225 90.5029C76.0602 89.5362 76.0428 88.9886 76.0889 88.25C76.1299 87.5923 76.2114 87.1949 76.3184 86.9443C76.3971 86.76 76.4771 86.6727 76.6367 86.5918C76.8566 86.4804 77.3484 86.3292 78.3477 86.3555Z" fill="url(#paint16_radial_1050_213)" stroke="#FFDE57" stroke-width="4"/>
<path d="M329.351 86.4189C330.146 86.3943 330.488 86.5306 330.603 86.5947C330.671 86.6333 330.722 86.6749 330.782 86.832C330.862 87.0412 330.923 87.3833 330.933 87.9307C330.943 88.4845 330.903 89.0498 330.869 89.7578C330.833 90.4981 330.891 91.3594 330.909 91.9238C330.931 92.5904 330.911 93.0231 330.838 93.3262C330.779 93.5698 330.721 93.5879 330.711 93.5947C330.65 93.6359 330.339 93.8085 329.439 93.7959H329.412C320.176 93.7959 310.833 93.7327 301.561 93.8594H301.559C300.686 93.8721 300.285 93.7246 300.128 93.6377C300.021 93.5787 299.96 93.5167 299.896 93.3516C299.808 93.1292 299.743 92.7703 299.727 92.1875C299.71 91.5845 299.745 91.0032 299.763 90.2178C299.772 89.8368 299.764 89.4557 299.757 89.1133C299.749 88.7573 299.742 88.4475 299.743 88.1436C299.746 87.5158 299.792 87.1228 299.875 86.8672C299.937 86.6755 299.989 86.6437 300.04 86.6133C300.148 86.5495 300.511 86.3934 301.408 86.4189H301.411C306.192 86.5462 310.98 86.4199 315.593 86.4199C320.119 86.4199 324.735 86.4833 329.316 86.4199H329.333L329.351 86.4189Z" fill="url(#paint17_radial_1050_213)" stroke="#FFDE57" stroke-width="4"/>
<path d="M174.417 118.215H178.479C179.751 118.215 180.507 118.314 180.974 118.476C181.333 118.6 181.458 118.734 181.565 118.947C181.73 119.273 181.893 119.91 181.917 121.158C181.94 122.38 181.829 123.985 181.606 126.119L181.604 126.133C181.563 126.557 181.499 126.821 181.448 126.975C181.397 126.977 181.333 126.981 181.252 126.981C180.111 126.981 178.598 126.92 177.193 126.981H175.042C173.958 126.981 173.381 126.973 173.003 126.913C172.967 126.757 172.919 126.474 172.886 125.99C172.826 125.125 172.824 123.94 172.824 122.219C172.824 120.726 172.83 119.698 172.886 118.949C172.91 118.618 172.944 118.398 172.971 118.256C173.246 118.225 173.676 118.215 174.417 118.215Z" fill="url(#paint18_radial_1050_213)" stroke="#FFDE57" stroke-width="4"/>
<path d="M146.807 118.137C147.749 118.137 148.27 118.145 148.613 118.188C148.643 118.336 148.683 118.577 148.712 118.953C148.773 119.756 148.78 120.858 148.79 122.469C148.79 124.12 148.788 125.253 148.73 126.08C148.701 126.495 148.66 126.753 148.628 126.904C148.263 126.956 147.709 126.966 146.689 126.966H142.862C141.825 126.966 141.185 126.816 140.791 126.623C140.453 126.458 140.211 126.225 140.018 125.803C139.535 124.751 139.408 122.681 139.997 118.773L139.999 118.761C140.038 118.49 140.083 118.31 140.121 118.197C140.124 118.197 140.126 118.196 140.129 118.196C140.791 118.168 141.46 118.168 142.179 118.168C142.876 118.168 143.622 118.168 144.376 118.137H146.807Z" fill="url(#paint19_radial_1050_213)" stroke="#FFDE57" stroke-width="4"/>
<path d="M158.438 118.15C160.316 118.15 162.002 118.091 163.695 118.21L163.721 118.212C163.987 118.227 164.235 118.214 164.424 118.199C164.589 118.186 164.785 118.165 164.903 118.153C165.142 119.858 165.393 121.586 165.425 123.213C165.457 124.864 165.249 126.134 164.777 127.006C164.697 127.15 164.638 127.211 164.617 127.23C164.612 127.236 164.608 127.239 164.605 127.241C164.604 127.243 164.602 127.243 164.602 127.243L164.601 127.244C164.59 127.248 164.48 127.287 164.127 127.247C163.663 127.195 163.46 127.123 162.753 127.009C162.297 126.935 161.612 126.847 160.884 126.981H158.368C157.472 126.981 156.975 126.968 156.655 126.927C156.624 126.771 156.585 126.512 156.558 126.102C156.503 125.281 156.502 124.16 156.502 122.535C156.502 120.925 156.503 119.822 156.559 119.018C156.585 118.628 156.623 118.381 156.652 118.232C156.989 118.184 157.503 118.167 158.439 118.151L158.438 118.15Z" fill="url(#paint20_radial_1050_213)" stroke="#FFDE57" stroke-width="4"/>
<path d="M214.271 118.201C214.295 118.281 214.326 118.394 214.353 118.551C214.394 118.799 214.423 119.114 214.436 119.509L214.441 119.931C214.411 122.722 214.449 124.485 214.406 125.802C214.389 126.336 214.357 126.702 214.319 126.956C214.231 126.962 214.122 126.968 213.988 126.97C213.556 126.976 213.052 126.961 212.332 126.95C211.655 126.94 210.853 126.937 209.919 126.968H208.006C206.93 126.968 206.354 126.96 205.977 126.901C205.942 126.744 205.896 126.463 205.866 125.988C205.811 125.123 205.817 123.938 205.827 122.217V122.206C205.827 120.695 205.831 119.657 205.884 118.901C205.906 118.591 205.935 118.379 205.96 118.237C206.244 118.21 206.678 118.202 207.42 118.202C209.606 118.202 211.973 118.265 214.271 118.201Z" fill="url(#paint21_radial_1050_213)" stroke="#FFDE57" stroke-width="4"/>
<path d="M280.269 118.201C280.293 118.281 280.324 118.394 280.351 118.551C280.392 118.799 280.421 119.114 280.434 119.509L280.439 119.931C280.409 122.722 280.447 124.485 280.404 125.802C280.387 126.336 280.355 126.702 280.317 126.956C280.229 126.962 280.12 126.968 279.986 126.97C279.554 126.976 279.05 126.961 278.33 126.95C277.653 126.94 276.851 126.937 275.917 126.968H274.004C272.928 126.968 272.352 126.96 271.975 126.901C271.94 126.744 271.894 126.463 271.864 125.988C271.809 125.123 271.815 123.938 271.825 122.217V122.206C271.825 120.695 271.829 119.657 271.882 118.901C271.904 118.591 271.933 118.379 271.958 118.237C272.242 118.21 272.677 118.202 273.418 118.202C275.604 118.202 277.971 118.265 280.269 118.201Z" fill="url(#paint22_radial_1050_213)" stroke="#FFDE57" stroke-width="4"/>
<path d="M263.048 118.201C263.073 118.281 263.103 118.394 263.13 118.551C263.172 118.799 263.201 119.114 263.213 119.509L263.219 119.931C263.189 122.722 263.226 124.485 263.184 125.802C263.166 126.336 263.135 126.702 263.097 126.956C263.008 126.962 262.899 126.968 262.766 126.97C262.333 126.976 261.83 126.961 261.109 126.95C260.432 126.94 259.63 126.937 258.696 126.968H256.783C255.707 126.968 255.131 126.96 254.754 126.901C254.72 126.744 254.674 126.463 254.644 125.988C254.589 125.123 254.595 123.938 254.604 122.217V122.206C254.604 120.695 254.608 119.657 254.661 118.901C254.683 118.591 254.713 118.379 254.737 118.237C255.021 118.21 255.456 118.202 256.197 118.202C258.383 118.202 260.75 118.265 263.048 118.201Z" fill="url(#paint23_radial_1050_213)" stroke="#FFDE57" stroke-width="4"/>
<path d="M197.804 118.201C197.835 118.291 197.875 118.429 197.908 118.629C197.95 118.882 197.979 119.197 197.991 119.583L197.998 119.993C197.988 122.698 198.019 124.467 197.966 125.737C197.942 126.315 197.9 126.696 197.852 126.949C197.762 126.957 197.646 126.967 197.498 126.971C197.094 126.982 196.609 126.971 195.93 126.961C195.283 126.951 194.515 126.944 193.624 126.968H192.538C191.341 126.968 190.622 126.85 190.182 126.679C189.833 126.543 189.667 126.382 189.529 126.103C189.347 125.731 189.18 125.058 189.155 123.835C189.131 122.632 189.245 121.07 189.486 119.027L189.487 119.016C189.533 118.612 189.596 118.355 189.65 118.201C192.301 118.202 195.062 118.264 197.804 118.201Z" fill="url(#paint24_radial_1050_213)" stroke="#FFDE57" stroke-width="4"/>
<path d="M131.911 118.215C131.938 118.286 131.97 118.387 132.003 118.529C132.053 118.748 132.097 119.028 132.131 119.38L132.16 119.758C132.278 122.047 132.354 123.669 132.318 124.868C132.281 126.129 132.118 126.547 132.045 126.666C132.035 126.682 132.038 126.68 132.018 126.691C131.974 126.717 131.844 126.777 131.545 126.834C130.887 126.958 129.914 126.981 128.298 126.981H127.478C126.324 126.981 125.623 126.852 125.192 126.673C124.842 126.527 124.649 126.344 124.493 126.022C124.299 125.622 124.13 124.926 124.106 123.717C124.084 122.525 124.203 120.988 124.462 119.003C124.514 118.606 124.583 118.358 124.638 118.215H131.911Z" fill="url(#paint25_radial_1050_213)" stroke="#FFDE57" stroke-width="4"/>
<path d="M226.833 118.305C230.158 118.305 231.074 118.907 231.43 119.471C231.649 119.819 231.855 120.438 231.879 121.59C231.903 122.737 231.744 124.239 231.397 126.213L231.396 126.226L231.394 126.237C231.349 126.512 231.295 126.689 231.252 126.795C231.248 126.795 231.244 126.796 231.24 126.796H225.059C223.588 126.544 222.843 125.935 222.447 125.241C221.825 124.15 221.613 122.13 222.487 118.733C222.536 118.545 222.584 118.436 222.614 118.378C222.644 118.373 222.685 118.368 222.74 118.364C224.099 118.305 225.417 118.305 226.833 118.305Z" fill="url(#paint26_radial_1050_213)" stroke="#FFDE57" stroke-width="4"/>
<path d="M242.715 118.137C243.886 118.137 244.599 118.269 245.038 118.454C245.396 118.605 245.597 118.796 245.759 119.134C245.958 119.551 246.127 120.268 246.146 121.501C246.166 122.718 246.039 124.283 245.771 126.301L245.77 126.311L245.768 126.319C245.741 126.538 245.705 126.708 245.674 126.84H241.456C241.17 126.768 240.94 126.671 240.756 126.562C240.391 126.344 240.076 126.006 239.83 125.438C239.292 124.194 239.152 121.977 239.835 118.479L239.834 118.478C239.858 118.355 239.883 118.258 239.905 118.182C240.822 118.139 241.726 118.137 242.715 118.137Z" fill="url(#paint27_radial_1050_213)" stroke="#FFDE57" stroke-width="4"/>
<path d="M174.417 180.682H178.479C179.751 180.682 180.507 180.78 180.974 180.942C181.333 181.067 181.458 181.2 181.565 181.414C181.73 181.74 181.893 182.377 181.917 183.625C181.94 184.847 181.829 186.452 181.606 188.586L181.604 188.6C181.563 189.024 181.499 189.288 181.448 189.441C181.397 189.444 181.333 189.448 181.252 189.448C180.111 189.448 178.598 189.387 177.193 189.448H175.042C173.958 189.448 173.381 189.44 173.003 189.38C172.967 189.224 172.919 188.94 172.886 188.457C172.826 187.592 172.824 186.407 172.824 184.686C172.824 183.193 172.83 182.165 172.886 181.416C172.91 181.085 172.944 180.864 172.971 180.723C173.246 180.692 173.676 180.682 174.417 180.682Z" fill="url(#paint28_radial_1050_213)" stroke="#FFDE57" stroke-width="4"/>
<path d="M146.807 180.604C147.749 180.604 148.27 180.612 148.613 180.655C148.643 180.803 148.683 181.044 148.712 181.42C148.773 182.223 148.78 183.325 148.79 184.936C148.79 186.587 148.788 187.72 148.73 188.547C148.701 188.962 148.66 189.22 148.628 189.371C148.263 189.423 147.709 189.433 146.689 189.433H142.862C141.825 189.433 141.185 189.282 140.791 189.09C140.453 188.925 140.211 188.692 140.018 188.27C139.535 187.217 139.408 185.147 139.997 181.24L139.999 181.228C140.038 180.956 140.083 180.776 140.121 180.664C140.124 180.664 140.126 180.663 140.129 180.663C140.791 180.635 141.46 180.635 142.179 180.635C142.876 180.635 143.622 180.635 144.376 180.604H146.807Z" fill="url(#paint29_radial_1050_213)" stroke="#FFDE57" stroke-width="4"/>
<path d="M158.438 180.615C160.316 180.615 162.002 180.556 163.695 180.675L163.721 180.677C163.987 180.692 164.235 180.679 164.424 180.664C164.589 180.651 164.785 180.63 164.903 180.618C165.142 182.323 165.393 184.051 165.425 185.678C165.457 187.328 165.249 188.599 164.777 189.471C164.697 189.615 164.638 189.676 164.617 189.695C164.612 189.7 164.608 189.704 164.605 189.706C164.604 189.707 164.602 189.708 164.602 189.708L164.601 189.709C164.59 189.713 164.48 189.752 164.127 189.712C163.663 189.66 163.46 189.588 162.753 189.474C162.297 189.4 161.612 189.311 160.884 189.446H158.368C157.472 189.446 156.975 189.433 156.655 189.392C156.624 189.236 156.585 188.977 156.558 188.566C156.503 187.746 156.502 186.625 156.502 185C156.502 183.39 156.503 182.287 156.559 181.482C156.585 181.093 156.623 180.846 156.652 180.697C156.989 180.648 157.503 180.631 158.439 180.616L158.438 180.615Z" fill="url(#paint30_radial_1050_213)" stroke="#FFDE57" stroke-width="4"/>
<path d="M214.271 180.668C214.295 180.748 214.326 180.861 214.353 181.018C214.394 181.266 214.423 181.581 214.436 181.976L214.441 182.397C214.411 185.188 214.449 186.952 214.406 188.269C214.389 188.803 214.357 189.169 214.319 189.423C214.231 189.429 214.122 189.434 213.988 189.437C213.556 189.443 213.052 189.428 212.332 189.417C211.655 189.407 210.853 189.404 209.919 189.435H208.006C206.93 189.435 206.354 189.426 205.977 189.368C205.942 189.211 205.896 188.93 205.866 188.455C205.811 187.59 205.817 186.405 205.827 184.684V184.673C205.827 183.161 205.831 182.124 205.884 181.368C205.906 181.058 205.935 180.845 205.96 180.704C206.244 180.676 206.678 180.669 207.42 180.669C209.606 180.669 211.973 180.732 214.271 180.668Z" fill="url(#paint31_radial_1050_213)" stroke="#FFDE57" stroke-width="4"/>
<path d="M280.269 180.668C280.293 180.748 280.324 180.861 280.351 181.018C280.392 181.266 280.421 181.581 280.434 181.976L280.439 182.397C280.409 185.188 280.447 186.952 280.404 188.269C280.387 188.803 280.355 189.169 280.317 189.423C280.229 189.429 280.12 189.434 279.986 189.437C279.554 189.443 279.05 189.428 278.33 189.417C277.653 189.407 276.851 189.404 275.917 189.435H274.004C272.928 189.435 272.352 189.426 271.975 189.368C271.94 189.211 271.894 188.93 271.864 188.455C271.809 187.59 271.815 186.405 271.825 184.684V184.673C271.825 183.161 271.829 182.124 271.882 181.368C271.904 181.058 271.933 180.845 271.958 180.704C272.242 180.676 272.677 180.669 273.418 180.669C275.604 180.669 277.971 180.732 280.269 180.668Z" fill="url(#paint32_radial_1050_213)" stroke="#FFDE57" stroke-width="4"/>
<path d="M263.048 180.668C263.073 180.748 263.103 180.861 263.13 181.018C263.172 181.266 263.201 181.581 263.213 181.976L263.219 182.397C263.189 185.188 263.226 186.952 263.184 188.269C263.166 188.803 263.135 189.169 263.097 189.423C263.008 189.429 262.899 189.434 262.766 189.437C262.333 189.443 261.83 189.428 261.109 189.417C260.432 189.407 259.63 189.404 258.696 189.435H256.783C255.707 189.435 255.131 189.426 254.754 189.368C254.72 189.211 254.674 188.93 254.644 188.455C254.589 187.59 254.595 186.405 254.604 184.684V184.673C254.604 183.161 254.608 182.124 254.661 181.368C254.683 181.058 254.713 180.845 254.737 180.704C255.021 180.676 255.456 180.669 256.197 180.669C258.383 180.669 260.75 180.732 263.048 180.668Z" fill="url(#paint33_radial_1050_213)" stroke="#FFDE57" stroke-width="4"/>
<path d="M197.804 180.668C197.835 180.758 197.875 180.896 197.908 181.096C197.95 181.349 197.979 181.663 197.991 182.05L197.998 182.46C197.988 185.165 198.019 186.934 197.966 188.204C197.942 188.782 197.9 189.162 197.852 189.416C197.762 189.424 197.646 189.433 197.498 189.438C197.094 189.449 196.609 189.438 195.93 189.428C195.283 189.418 194.515 189.411 193.624 189.435H192.538C191.341 189.435 190.622 189.317 190.182 189.146C189.833 189.01 189.667 188.849 189.529 188.569C189.347 188.198 189.18 187.525 189.155 186.302C189.131 185.099 189.245 183.537 189.486 181.494L189.487 181.482C189.533 181.078 189.596 180.821 189.65 180.668C192.301 180.669 195.062 180.731 197.804 180.668Z" fill="url(#paint34_radial_1050_213)" stroke="#FFDE57" stroke-width="4"/>
<path d="M131.911 180.682C131.938 180.752 131.97 180.854 132.003 180.996C132.053 181.215 132.097 181.494 132.131 181.847L132.16 182.225C132.278 184.514 132.354 186.136 132.318 187.335C132.281 188.596 132.118 189.014 132.045 189.133C132.035 189.149 132.038 189.146 132.018 189.158C131.974 189.183 131.844 189.244 131.545 189.301C130.887 189.425 129.914 189.448 128.298 189.448H127.478C126.324 189.448 125.623 189.319 125.192 189.14C124.842 188.994 124.649 188.811 124.493 188.489C124.299 188.089 124.13 187.393 124.106 186.184C124.084 184.992 124.203 183.455 124.462 181.47C124.514 181.072 124.583 180.825 124.638 180.682H131.911Z" fill="url(#paint35_radial_1050_213)" stroke="#FFDE57" stroke-width="4"/>
<path d="M226.833 180.768C230.158 180.768 231.074 181.37 231.43 181.934C231.649 182.282 231.855 182.901 231.879 184.053C231.903 185.2 231.744 186.702 231.397 188.676L231.396 188.688L231.394 188.7C231.349 188.975 231.295 189.152 231.252 189.258C231.248 189.258 231.244 189.259 231.24 189.259H225.059C223.588 189.006 222.843 188.398 222.447 187.704C221.825 186.613 221.613 184.593 222.487 181.196C222.536 181.007 222.584 180.899 222.614 180.841C222.644 180.836 222.685 180.831 222.74 180.827C224.099 180.768 225.417 180.768 226.833 180.768Z" fill="url(#paint36_radial_1050_213)" stroke="#FFDE57" stroke-width="4"/>
<path d="M242.715 180.604C243.886 180.604 244.599 180.736 245.038 180.921C245.396 181.072 245.597 181.263 245.759 181.601C245.958 182.017 246.127 182.734 246.146 183.968C246.166 185.185 246.039 186.75 245.771 188.768L245.77 188.777L245.768 188.786C245.741 189.005 245.705 189.175 245.674 189.307H241.456C241.17 189.235 240.94 189.138 240.756 189.028C240.391 188.811 240.076 188.473 239.83 187.905C239.292 186.661 239.152 184.444 239.835 180.945L239.834 180.944C239.858 180.822 239.883 180.725 239.905 180.648C240.822 180.606 241.726 180.604 242.715 180.604Z" fill="url(#paint37_radial_1050_213)" stroke="#FFDE57" stroke-width="4"/>
<path d="M94.621 51.7384C94.621 54.0815 92.7676 55.9809 90.4814 55.9809C88.1952 55.9809 86.3418 54.0815 86.3418 51.7384C86.3418 49.3954 88.1952 42.9707 90.4814 42.9707C92.7676 42.9707 94.621 49.3954 94.621 51.7384Z" fill="#FFDE57"/>
<path d="M318.947 51.7384C318.947 54.0815 317.094 55.9809 314.808 55.9809C312.521 55.9809 310.668 54.0815 310.668 51.7384C310.668 49.3954 312.521 42.9707 314.808 42.9707C317.094 42.9707 318.947 49.3954 318.947 51.7384Z" fill="#FFDE57"/>
<path d="M402.946 120.964C402.884 125.468 399.553 128.861 395.049 128.861C390.731 128.861 387.152 125.221 387.152 120.964C387.152 116.46 390.977 112.635 395.358 112.759C399.676 112.944 403.007 116.522 402.946 120.964Z" fill="#FFDE57"/>
<path d="M0.316837 157.145C2.35271 154.924 1.11882 152.456 0.193424 149.742C-0.670277 147.274 1.48901 145.732 4.08011 147.027C6.17767 148.076 7.65829 148.816 9.75586 146.966C10.7429 146.04 12.6554 145.979 13.7042 147.089C14.8764 148.323 14.6913 150.174 13.6425 151.408C12.1002 153.197 12.2236 154.492 13.6425 156.22C14.5679 157.33 14.8147 158.996 13.7042 160.168C12.5937 161.34 10.8046 161.217 9.75586 160.353C7.84337 158.811 6.54783 159.119 4.51196 160.353C1.92086 161.895 -0.0533211 160.415 0.316837 157.145Z" fill="#FFDE57"/>
<path d="M362.558 19.2753C359.843 21.6813 361.818 24.5809 362.435 27.6655C363.052 30.6885 360.399 30.9969 358.548 30.0715C356.327 28.9611 354.723 28.6526 352.317 29.6397C349.356 30.8119 347.567 28.7143 348.924 25.6296C349.726 23.7172 349.911 22.3599 348.739 20.5708C347.937 19.3987 347.813 17.7329 348.986 16.5608C350.158 15.3886 351.762 15.6354 352.934 16.5608C354.723 17.9797 356.018 17.6096 357.869 16.5608C360.645 14.9568 362.681 16.0672 362.558 19.2753Z" fill="#FFDE57"/>
<path d="M199.205 0.5C202.311 0.5 205.556 0.76418 208.675 1.16211C213.446 2.00656 217.318 5.5253 217.318 10.1406V27.4863C217.318 32.3591 213.527 36.2598 208.745 36.2598H190.6C184.186 36.2598 178.758 41.7538 178.758 48.0342V55.873H172.986C170.485 55.873 168.512 54.9756 167.005 53.4453C165.488 51.9042 164.42 49.6963 163.8 47.0527L163.799 47.0498C162.083 39.9237 162.149 35.6671 163.799 28.8037L163.8 28.8008C165.146 23.0323 169.607 19.9806 174.654 19.9805H200.172V16.6455H181.959V10.207C181.959 7.59834 182.311 5.71911 183.5 4.31836C184.694 2.91158 186.817 1.88757 190.618 1.22656L190.621 1.22559C193.192 0.764193 196.097 0.500012 199.205 0.5ZM189.398 5.10352C187.248 5.10352 185.496 6.86875 185.496 9.07324C185.496 11.2777 187.248 13.042 189.398 13.042C191.549 13.0419 193.301 11.2776 193.301 9.07324C193.301 6.86878 191.549 5.10358 189.398 5.10352Z" fill="#2C70A8" stroke="#0F64AA"/>
<path d="M226.887 20.0449C229.377 20.0449 231.176 20.9665 232.524 22.502C233.89 24.0574 234.816 26.2687 235.475 28.8701V28.8711C237.261 36.1485 237.316 41.519 235.485 47.0752L235.484 47.0771C234.585 49.8411 233.659 52.0575 232.346 53.585C231.06 55.0799 229.382 55.9385 226.887 55.9385H199.168V59.2734H217.313V65.7109C217.313 68.1831 216.274 70.0377 214.673 71.4492C213.057 72.8736 210.868 73.8481 208.602 74.5049H208.601C202.253 76.3536 197.076 76.1803 191.793 74.7969L190.734 74.5049C185.97 73.0476 182.021 70.2862 182.021 65.7109V48.3652C182.022 43.6238 185.882 39.5928 190.595 39.5928H208.741C215.025 39.5926 220.582 34.0942 220.582 27.5508V20.0449H226.887ZM209.875 62.8096C207.668 62.8096 205.896 64.5685 205.973 66.7959C205.982 68.9924 207.73 70.748 209.875 70.748C212.025 70.748 213.777 68.9828 213.777 66.7783C213.777 64.574 212.025 62.8096 209.875 62.8096Z" fill="#FFDE57" stroke="#E0B402"/>
<path d="M78.4789 7.9584C78.4172 12.5854 75.2092 15.7317 70.5205 15.67C65.8936 15.6083 62.6855 12.3386 62.6855 7.77332C62.7472 3.39311 66.2637 0 70.7056 0C75.3326 0 78.5406 3.33142 78.4789 7.9584Z" fill="#FFDE57"/>
<path d="M95.8783 260.716C95.8783 265.929 95.8783 271.204 95.8783 276.417C95.8783 278.427 95.3845 280.436 92.0926 280.499C88.883 280.499 87.9777 278.552 87.9777 276.543C87.8954 265.803 87.8954 255.001 87.9777 244.262C87.9777 242.252 88.8007 240.431 92.1749 240.494C95.7137 240.557 95.796 242.692 95.796 244.576C95.9606 249.977 95.9606 255.378 95.8783 260.716Z" fill="#FFDE57"/>
<path d="M316.602 260.151C316.602 265.238 316.602 270.325 316.602 275.474C316.602 277.735 316.52 280.248 312.652 280.373C308.702 280.499 308.373 277.987 308.373 275.726C308.373 265.552 308.29 255.315 308.373 245.141C308.373 242.88 308.537 240.431 312.652 240.493C316.684 240.556 316.602 243.131 316.684 245.329C316.602 250.228 316.602 255.189 316.602 260.151Z" fill="#FFDE57"/>
<path d="M316.522 298.83C316.522 300.714 316.604 302.598 316.522 304.482C316.439 306.304 315.205 307.56 312.654 307.622C310.102 307.685 308.539 306.555 308.457 304.796C308.21 300.714 308.292 296.632 308.457 292.55C308.539 290.729 309.938 289.535 312.489 289.598C314.958 289.661 316.357 290.854 316.439 292.675C316.604 294.748 316.522 296.758 316.522 298.83Z" fill="#FFDE57"/>
<path d="M96.1369 298.83C96.1369 300.714 96.2192 302.598 96.1369 304.482C96.0546 306.304 94.8201 307.56 92.2689 307.622C89.7177 307.685 88.1541 306.555 88.0718 304.796C87.8249 300.714 87.9072 296.632 88.0718 292.55C88.1541 290.729 89.5532 289.535 92.1044 289.598C94.5733 289.661 95.9723 290.854 96.0546 292.675C96.2192 294.748 96.1369 296.758 96.1369 298.83Z" fill="#FFDE57"/>
<path d="M91.3083 202.084C84.9496 202.084 78.5203 202.084 72.1616 202.084C70.3246 202.084 68.2758 201.959 68.2051 199.761C68.1344 197.688 69.9714 197.123 71.9496 197.123C84.8789 197.123 97.8083 197.123 110.738 197.123C112.716 197.123 114.553 197.688 114.482 199.761C114.411 201.896 112.292 202.022 110.455 202.022C104.096 202.084 97.7376 202.084 91.3083 202.084Z" fill="#FFDE57"/>
<path d="M203.692 158.717C183.221 158.717 162.522 158.717 142.051 158.717C136.137 158.717 129.54 158.592 129.313 156.394C129.086 154.321 134.999 153.756 141.368 153.756C182.993 153.756 224.619 153.756 266.244 153.756C272.613 153.756 278.527 154.321 278.299 156.394C278.072 158.529 271.248 158.654 265.334 158.654C244.863 158.717 224.391 158.717 203.692 158.717Z" fill="#FFDE57"/>
<path d="M315.242 202.084C308.883 202.084 302.454 202.084 296.095 202.084C294.258 202.084 292.209 201.959 292.139 199.761C292.068 197.688 293.905 197.123 295.883 197.123C308.813 197.123 321.742 197.123 334.671 197.123C336.649 197.123 338.486 197.688 338.416 199.761C338.345 201.896 336.225 202.022 334.389 202.022C328.03 202.084 321.671 202.084 315.242 202.084Z" fill="#FFDE57"/>
<path d="M92.3117 192.876C90.332 192.876 88.423 192.939 86.4434 192.876C84.8172 192.813 83.6152 191.997 83.6152 190.427C83.6152 189.108 84.605 188.229 86.0191 188.103C90.4027 187.664 94.7863 187.664 99.1699 188.103C100.513 188.229 101.574 189.171 101.574 190.49C101.503 191.997 100.301 192.813 98.6749 192.876C96.5538 192.939 94.4328 192.876 92.3117 192.876Z" fill="#FFDE57"/>
<path d="M316.243 192.876C314.264 192.876 312.355 192.939 310.375 192.876C308.749 192.813 307.547 191.997 307.547 190.427C307.547 189.108 308.537 188.229 309.951 188.103C314.334 187.664 318.718 187.664 323.101 188.103C324.445 188.229 325.505 189.171 325.505 190.49C325.435 191.997 324.233 192.813 322.607 192.876C320.485 192.939 318.364 192.876 316.243 192.876Z" fill="#FFDE57"/>
<path d="M74.403 192.738C73.4277 192.738 72.4525 192.801 71.4772 192.738C69.666 192.675 68.2031 192.104 68.2031 190.204C68.2728 188.303 69.875 187.797 71.5469 187.733C73.4974 187.607 75.4479 187.67 77.3287 187.733C79.0006 187.797 80.7421 188.24 80.8118 190.077C80.9511 192.231 79.0702 192.675 77.1894 192.738C76.3535 192.801 75.3782 192.801 74.403 192.738C74.403 192.801 74.403 192.801 74.403 192.738Z" fill="#FFDE57"/>
<path d="M298.337 192.738C297.361 192.738 296.386 192.801 295.411 192.738C293.6 192.675 292.137 192.104 292.137 190.204C292.206 188.303 293.809 187.797 295.48 187.733C297.431 187.607 299.381 187.67 301.262 187.733C302.934 187.797 304.676 188.24 304.745 190.077C304.885 192.231 303.004 192.675 301.123 192.738C300.287 192.801 299.312 192.801 298.337 192.738C298.337 192.801 298.337 192.801 298.337 192.738Z" fill="#FFDE57"/>
<path d="M109.492 187.844C111.613 188.032 114.653 187.53 114.724 190.356C114.795 193.245 111.754 192.931 109.492 192.931C107.3 192.931 104.26 193.37 104.401 190.293C104.613 187.718 107.3 187.969 109.492 187.844Z" fill="#FFDE57"/>
<path d="M333.423 187.844C335.545 188.032 338.585 187.53 338.656 190.356C338.726 193.245 335.686 192.931 333.423 192.931C331.232 192.931 328.191 193.37 328.333 190.293C328.545 187.718 331.232 187.969 333.423 187.844Z" fill="#FFDE57"/>
<path d="M92.0307 118.702C86.5102 118.702 80.9216 118.702 75.4011 118.702C73.152 118.702 71.0392 118.263 70.9711 115.814C70.8348 113.176 72.9476 112.359 75.4011 112.359C86.5102 112.359 97.5511 112.359 108.66 112.359C111.046 112.359 112.818 113.239 112.886 115.562C112.954 118.074 111.046 118.702 108.728 118.702C103.14 118.702 97.5511 118.702 92.0307 118.702Z" fill="#FFDE57"/>
<path d="M315.568 118.702C310.047 118.702 304.459 118.702 298.938 118.702C296.689 118.702 294.576 118.263 294.508 115.814C294.372 113.176 296.485 112.359 298.938 112.359C310.047 112.359 321.088 112.359 332.197 112.359C334.583 112.359 336.355 113.239 336.423 115.562C336.491 118.074 334.583 118.702 332.265 118.702C326.677 118.702 321.088 118.702 315.568 118.702Z" fill="#FFDE57"/>
<path d="M163.547 245.52C150.697 245.52 150.697 245.52 150.697 232.403C150.697 228.2 150.116 223.779 153.819 220.735C157.739 217.474 161.732 214.358 167.395 216.822C173.13 219.359 176.905 223.054 176.325 229.866C176.107 232.548 176.325 235.229 176.252 237.91C176.18 244.36 175.091 245.447 168.557 245.52C166.887 245.592 165.217 245.52 163.547 245.52Z" fill="#FFDE57"/>
<path d="M155.314 232.343C154.274 225.314 156.251 220.041 163.429 219.053C168.527 218.394 171.752 223.995 171.96 232.124C172.168 238.495 171.856 243.108 163.533 242.998C155.523 242.888 154.274 239.044 155.314 232.343Z" fill="#2C70A8"/>
<path d="M130.731 270.924C117.881 270.924 117.881 270.924 117.881 257.807C117.881 253.604 117.3 249.183 121.002 246.14C124.923 242.879 128.916 239.763 134.579 242.226C140.314 244.763 144.089 248.459 143.508 255.271C143.29 257.952 143.508 260.633 143.436 263.315C143.363 269.764 142.274 270.851 135.74 270.924C134.07 270.996 132.401 270.924 130.731 270.924Z" fill="#FFDE57"/>
<path d="M122.333 257.343C121.231 250.314 123.324 245.041 130.925 244.053C136.323 243.394 139.738 248.995 139.958 257.124C140.178 263.495 139.848 268.108 131.035 267.998C122.553 267.888 121.231 264.044 122.333 257.343Z" fill="#2C70A8"/>
<path d="M203.412 235.994C190.562 235.994 190.562 235.994 190.562 222.877C190.562 218.674 189.982 214.254 193.684 211.21C197.604 207.949 201.598 204.833 207.26 207.297C212.996 209.833 216.771 213.529 216.19 220.341C215.972 223.022 216.19 225.704 216.117 228.385C216.045 234.835 214.956 235.922 208.422 235.994C206.752 236.067 205.082 235.994 203.412 235.994Z" fill="#FFDE57"/>
<path d="M194.333 222.343C193.231 215.314 195.324 210.041 202.925 209.053C208.323 208.394 211.738 213.995 211.958 222.124C212.178 228.495 211.848 233.108 203.035 232.998C194.553 232.888 193.231 229.044 194.333 222.343Z" fill="#2C70A8"/>
<path d="M243.286 245.52C230.436 245.52 230.435 245.52 230.435 232.403C230.435 228.2 229.855 223.779 233.557 220.735C237.478 217.474 241.471 214.358 247.133 216.822C252.869 219.359 256.644 223.054 256.063 229.866C255.845 232.548 256.063 235.229 255.99 237.91C255.918 244.36 254.829 245.447 248.295 245.52C246.625 245.592 244.955 245.52 243.286 245.52Z" fill="#FFDE57"/>
<path d="M251.701 233.217C252.906 239.483 250.605 242.89 242.279 243C233.185 243 233.952 237.614 234.062 231.788C234.171 223.984 237.787 218.488 243.265 219.038C249.948 219.697 252.358 224.204 251.701 230.579C251.591 231.019 251.701 231.568 251.701 233.217Z" fill="#2C70A8"/>
<path d="M274.336 270.924C261.486 270.924 261.486 270.924 261.486 257.807C261.486 253.604 260.905 249.183 264.608 246.14C268.528 242.879 272.521 239.763 278.184 242.226C283.919 244.763 287.695 248.459 287.114 255.271C286.896 257.952 287.114 260.633 287.041 263.315C286.969 269.764 285.88 270.851 279.346 270.924C277.676 270.996 276.006 270.924 274.336 270.924Z" fill="#FFDE57"/>
<path d="M283.684 258.81C284.957 265.336 282.528 268.886 273.739 269C264.14 269 264.95 263.39 265.065 257.321C265.181 249.192 268.997 243.467 274.78 244.039C281.834 244.726 284.378 249.421 283.684 256.062C283.569 256.52 283.684 257.092 283.684 258.81Z" fill="#2C70A8"/>
<path d="M201.732 251.767C202.716 251.76 203.722 251.812 204.638 251.936C205.493 252.051 206.403 252.249 207.156 252.597L207.157 252.595C214.767 255.9 224.022 259.705 232.917 264.183C241.808 268.658 250.504 273.884 257.011 280.119H257.01C261.617 284.522 264.758 291.123 266.704 298.08C268.66 305.071 269.471 312.633 269.27 319.167L269.269 319.175C268.782 333.167 269.271 352.297 269.271 366.421C269.271 381.141 269.466 390.985 269.271 405.658L269.27 405.657C269.264 406.636 268.941 407.532 268.311 408.257C267.71 408.948 266.932 409.368 266.188 409.635C264.742 410.154 262.915 410.269 261.154 410.255C259.346 410.241 257.352 410.084 255.477 409.932C253.564 409.776 251.786 409.627 250.28 409.603H250.276C249 409.579 247.872 409.69 246.855 409.819C245.924 409.938 244.848 410.113 244.011 410.137C243.173 410.16 241.883 410.076 240.916 409.056C240.008 408.099 239.839 406.783 239.838 405.639C239.74 377.379 239.447 347.378 239.838 319.077L239.839 319.068C240.034 308.333 239.297 300.155 232.796 294.164L232.792 294.161C227.608 289.36 223.933 286.345 220.022 283.853C216.11 281.358 211.898 279.344 205.587 276.602C204.82 276.283 203.383 276.056 201.746 276.056C200.111 276.056 198.675 276.283 197.908 276.601C191.201 279.491 186.742 281.261 182.596 283.63C178.515 285.962 174.72 288.892 169.542 294.104L169.536 294.108C163.694 299.945 159.587 310.128 159.677 319.077L159.741 324.289C160.02 349.899 159.677 369.11 159.677 395.58C159.677 396.661 159.725 398.565 159.75 400.581C159.774 402.502 159.776 404.557 159.671 405.774L159.672 405.775C159.672 405.777 159.671 405.779 159.671 405.78C159.67 405.79 159.67 405.8 159.669 405.81L159.668 405.809C159.559 407.178 158.822 408.183 157.803 408.778C156.907 409.301 155.864 409.474 155.016 409.546C154.135 409.621 153.195 409.603 152.399 409.587C151.549 409.569 150.88 409.554 150.344 409.597C148.932 409.708 144.435 409.84 140.204 409.629C138.095 409.524 135.959 409.329 134.275 408.979C133.445 408.807 132.614 408.575 131.925 408.239C131.339 407.954 130.301 407.329 130.01 406.089C129.838 405.358 129.775 404.434 129.752 403.544C129.728 402.619 129.744 401.588 129.775 400.583C129.84 398.483 129.957 396.644 129.957 395.58C129.957 366.762 130.152 347.91 129.957 319.121V318.534C130.002 312.424 131.513 305.033 133.954 298.182C136.466 291.133 140.055 284.397 144.304 280.148C150.944 273.505 160.053 268.318 169.371 263.962C178.643 259.627 188.494 255.958 196.345 252.591L196.349 252.589C197.707 252.01 199.86 251.78 201.732 251.767Z" fill="#2C70A8" stroke="#FFDE57" stroke-width="4"/>
<defs>
<linearGradient id="paint0_linear_1050_213" x1="995.27" y1="294.229" x2="995.27" y2="471.389" gradientUnits="userSpaceOnUse">
<stop stop-color="#FFDE57"/>
<stop offset="1" stop-color="#FFE579"/>
</linearGradient>
<linearGradient id="paint1_linear_1050_213" x1="861.082" y1="235.176" x2="861.082" y2="412.337" gradientUnits="userSpaceOnUse">
<stop stop-color="#FFDE57"/>
<stop offset="1" stop-color="#FFE579"/>
</linearGradient>
<linearGradient id="paint2_linear_1050_213" x1="706.028" y1="223.363" x2="706.028" y2="415.484" gradientUnits="userSpaceOnUse">
<stop stop-color="#FFDE57"/>
<stop offset="1" stop-color="#FFE579"/>
</linearGradient>
<linearGradient id="paint3_linear_1050_213" x1="573.957" y1="294.229" x2="573.957" y2="471.389" gradientUnits="userSpaceOnUse">
<stop stop-color="#FFDE57"/>
<stop offset="1" stop-color="#FFE579"/>
</linearGradient>
<linearGradient id="paint4_linear_1050_213" x1="427.279" y1="235.176" x2="427.279" y2="412.337" gradientUnits="userSpaceOnUse">
<stop stop-color="#FFDE57"/>
<stop offset="1" stop-color="#FFE579"/>
</linearGradient>
<radialGradient id="paint5_radial_1050_213" cx="0" cy="0" r="1" gradientUnits="userSpaceOnUse" gradientTransform="translate(203.43 153.561) rotate(90) scale(18.7267 89.0999)">
<stop stop-color="#306998"/>
<stop offset="1" stop-color="#2677BA"/>
</radialGradient>
<radialGradient id="paint6_radial_1050_213" cx="0" cy="0" r="1" gradientUnits="userSpaceOnUse" gradientTransform="translate(90.5851 314.688) rotate(90) scale(97.612 21.9835)">
<stop stop-color="#306998"/>
<stop offset="1" stop-color="#2677BA"/>
</radialGradient>
<radialGradient id="paint7_radial_1050_213" cx="0" cy="0" r="1" gradientUnits="userSpaceOnUse" gradientTransform="translate(314.02 303.171) rotate(90) scale(109.212 21.4865)">
<stop stop-color="#306998"/>
<stop offset="1" stop-color="#2677BA"/>
</radialGradient>
<radialGradient id="paint8_radial_1050_213" cx="0" cy="0" r="1" gradientUnits="userSpaceOnUse" gradientTransform="translate(90.2822 194.639) rotate(90) scale(16.0554 31.9287)">
<stop stop-color="#306998"/>
<stop offset="1" stop-color="#2677BA"/>
</radialGradient>
<radialGradient id="paint9_radial_1050_213" cx="0" cy="0" r="1" gradientUnits="userSpaceOnUse" gradientTransform="translate(315.152 194.638) rotate(90) scale(16.0543 31.7748)">
<stop stop-color="#306998"/>
<stop offset="1" stop-color="#2677BA"/>
</radialGradient>
<radialGradient id="paint10_radial_1050_213" cx="0" cy="0" r="1" gradientUnits="userSpaceOnUse" gradientTransform="translate(314.479 115.699) rotate(90) scale(13.6526 31.1017)">
<stop stop-color="#306998"/>
<stop offset="1" stop-color="#2677BA"/>
</radialGradient>
<radialGradient id="paint11_radial_1050_213" cx="0" cy="0" r="1" gradientUnits="userSpaceOnUse" gradientTransform="translate(91.2715 115.764) rotate(90) scale(13.7171 31.1406)">
<stop stop-color="#306998"/>
<stop offset="1" stop-color="#2677BA"/>
</radialGradient>
<radialGradient id="paint12_radial_1050_213" cx="0" cy="0" r="1" gradientUnits="userSpaceOnUse" gradientTransform="translate(314.783 153.832) rotate(90) scale(18.375 20.5073)">
<stop stop-color="#306998"/>
<stop offset="1" stop-color="#2677BA"/>
</radialGradient>
<radialGradient id="paint13_radial_1050_213" cx="0" cy="0" r="1" gradientUnits="userSpaceOnUse" gradientTransform="translate(91.9666 153.911) rotate(90) scale(18.4537 20.4236)">
<stop stop-color="#306998"/>
<stop offset="1" stop-color="#2677BA"/>
</radialGradient>
<radialGradient id="paint14_radial_1050_213" cx="0" cy="0" r="1" gradientUnits="userSpaceOnUse" gradientTransform="translate(90.1386 65.1438) rotate(90) scale(12.9602 27.5547)">
<stop stop-color="#306998"/>
<stop offset="1" stop-color="#2677BA"/>
</radialGradient>
<radialGradient id="paint15_radial_1050_213" cx="0" cy="0" r="1" gradientUnits="userSpaceOnUse" gradientTransform="translate(314.465 65.2022) rotate(90) scale(12.9561 27.5648)">
<stop stop-color="#306998"/>
<stop offset="1" stop-color="#2677BA"/>
</radialGradient>
<radialGradient id="paint16_radial_1050_213" cx="0" cy="0" r="1" gradientUnits="userSpaceOnUse" gradientTransform="translate(91.6554 90.1162) rotate(90) scale(5.76265 17.6457)">
<stop stop-color="#306998"/>
<stop offset="1" stop-color="#2677BA"/>
</radialGradient>
<radialGradient id="paint17_radial_1050_213" cx="0" cy="0" r="1" gradientUnits="userSpaceOnUse" gradientTransform="translate(315.328 90.138) rotate(90) scale(5.72202 17.6056)">
<stop stop-color="#306998"/>
<stop offset="1" stop-color="#2677BA"/>
</radialGradient>
<radialGradient id="paint18_radial_1050_213" cx="0" cy="0" r="1" gradientUnits="userSpaceOnUse" gradientTransform="translate(177.372 122.598) rotate(90) scale(6.38318 6.54767)">
<stop stop-color="#306998"/>
<stop offset="1" stop-color="#2677BA"/>
</radialGradient>
<radialGradient id="paint19_radial_1050_213" cx="0" cy="0" r="1" gradientUnits="userSpaceOnUse" gradientTransform="translate(144.197 122.551) rotate(90) scale(6.41477 6.59331)">
<stop stop-color="#306998"/>
<stop offset="1" stop-color="#2677BA"/>
</radialGradient>
<radialGradient id="paint20_radial_1050_213" cx="0" cy="0" r="1" gradientUnits="userSpaceOnUse" gradientTransform="translate(160.965 122.697) rotate(90) scale(6.56782 6.46294)">
<stop stop-color="#306998"/>
<stop offset="1" stop-color="#2677BA"/>
</radialGradient>
<radialGradient id="paint21_radial_1050_213" cx="0" cy="0" r="1" gradientUnits="userSpaceOnUse" gradientTransform="translate(210.131 122.585) rotate(90) scale(6.38586 6.31064)">
<stop stop-color="#306998"/>
<stop offset="1" stop-color="#2677BA"/>
</radialGradient>
<radialGradient id="paint22_radial_1050_213" cx="0" cy="0" r="1" gradientUnits="userSpaceOnUse" gradientTransform="translate(276.129 122.585) rotate(90) scale(6.38586 6.31064)">
<stop stop-color="#306998"/>
<stop offset="1" stop-color="#2677BA"/>
</radialGradient>
<radialGradient id="paint23_radial_1050_213" cx="0" cy="0" r="1" gradientUnits="userSpaceOnUse" gradientTransform="translate(258.908 122.585) rotate(90) scale(6.38586 6.31064)">
<stop stop-color="#306998"/>
<stop offset="1" stop-color="#2677BA"/>
</radialGradient>
<radialGradient id="paint24_radial_1050_213" cx="0" cy="0" r="1" gradientUnits="userSpaceOnUse" gradientTransform="translate(193.575 122.587) rotate(90) scale(6.38805 6.42284)">
<stop stop-color="#306998"/>
<stop offset="1" stop-color="#2677BA"/>
</radialGradient>
<radialGradient id="paint25_radial_1050_213" cx="0" cy="0" r="1" gradientUnits="userSpaceOnUse" gradientTransform="translate(128.215 122.598) rotate(90) scale(6.38318 6.11181)">
<stop stop-color="#306998"/>
<stop offset="1" stop-color="#2677BA"/>
</radialGradient>
<radialGradient id="paint26_radial_1050_213" cx="0" cy="0" r="1" gradientUnits="userSpaceOnUse" gradientTransform="translate(226.893 122.613) rotate(90) scale(6.30796 6.98823)">
<stop stop-color="#306998"/>
<stop offset="1" stop-color="#2677BA"/>
</radialGradient>
<radialGradient id="paint27_radial_1050_213" cx="0" cy="0" r="1" gradientUnits="userSpaceOnUse" gradientTransform="translate(242.761 122.551) rotate(90) scale(6.41477 5.38779)">
<stop stop-color="#306998"/>
<stop offset="1" stop-color="#2677BA"/>
</radialGradient>
<radialGradient id="paint28_radial_1050_213" cx="0" cy="0" r="1" gradientUnits="userSpaceOnUse" gradientTransform="translate(177.372 185.065) rotate(90) scale(6.38318 6.54767)">
<stop stop-color="#306998"/>
<stop offset="1" stop-color="#2677BA"/>
</radialGradient>
<radialGradient id="paint29_radial_1050_213" cx="0" cy="0" r="1" gradientUnits="userSpaceOnUse" gradientTransform="translate(144.197 185.018) rotate(90) scale(6.41477 6.59331)">
<stop stop-color="#306998"/>
<stop offset="1" stop-color="#2677BA"/>
</radialGradient>
<radialGradient id="paint30_radial_1050_213" cx="0" cy="0" r="1" gradientUnits="userSpaceOnUse" gradientTransform="translate(160.965 185.162) rotate(90) scale(6.56782 6.46294)">
<stop stop-color="#306998"/>
<stop offset="1" stop-color="#2677BA"/>
</radialGradient>
<radialGradient id="paint31_radial_1050_213" cx="0" cy="0" r="1" gradientUnits="userSpaceOnUse" gradientTransform="translate(210.131 185.052) rotate(90) scale(6.38586 6.31064)">
<stop stop-color="#306998"/>
<stop offset="1" stop-color="#2677BA"/>
</radialGradient>
<radialGradient id="paint32_radial_1050_213" cx="0" cy="0" r="1" gradientUnits="userSpaceOnUse" gradientTransform="translate(276.129 185.052) rotate(90) scale(6.38586 6.31064)">
<stop stop-color="#306998"/>
<stop offset="1" stop-color="#2677BA"/>
</radialGradient>
<radialGradient id="paint33_radial_1050_213" cx="0" cy="0" r="1" gradientUnits="userSpaceOnUse" gradientTransform="translate(258.908 185.052) rotate(90) scale(6.38586 6.31064)">
<stop stop-color="#306998"/>
<stop offset="1" stop-color="#2677BA"/>
</radialGradient>
<radialGradient id="paint34_radial_1050_213" cx="0" cy="0" r="1" gradientUnits="userSpaceOnUse" gradientTransform="translate(193.575 185.054) rotate(90) scale(6.38805 6.42284)">
<stop stop-color="#306998"/>
<stop offset="1" stop-color="#2677BA"/>
</radialGradient>
<radialGradient id="paint35_radial_1050_213" cx="0" cy="0" r="1" gradientUnits="userSpaceOnUse" gradientTransform="translate(128.215 185.065) rotate(90) scale(6.38318 6.11181)">
<stop stop-color="#306998"/>
<stop offset="1" stop-color="#2677BA"/>
</radialGradient>
<radialGradient id="paint36_radial_1050_213" cx="0" cy="0" r="1" gradientUnits="userSpaceOnUse" gradientTransform="translate(226.893 185.076) rotate(90) scale(6.30796 6.98823)">
<stop stop-color="#306998"/>
<stop offset="1" stop-color="#2677BA"/>
</radialGradient>
<radialGradient id="paint37_radial_1050_213" cx="0" cy="0" r="1" gradientUnits="userSpaceOnUse" gradientTransform="translate(242.761 185.018) rotate(90) scale(6.41477 5.38779)">
<stop stop-color="#306998"/>
<stop offset="1" stop-color="#2677BA"/>
</radialGradient>
</defs>
</svg>
