<svg version="1.1" xmlns="http://www.w3.org/2000/svg" xmlns:xlink="http://www.w3.org/1999/xlink" x="0px" y="0px" width="185px" height="188px" viewBox="0 0 185 188" enable-background="new 0 0 185 188" xml:space="preserve"><defs><style>.cls-1{fill:none;}.cls-2{fill:#2fb5b3;}.cls-3{fill:#f7f8f9;}.cls-4{fill:#4e5a62;}</style></defs><title>pyconf logo_2</title><g id="Layer_1" data-name="Layer 1"><rect class="cls-1" width="190" height="55"/><path class="cls-2" d="M83.23,12.67a9.63,9.63,0,0,1-.68,3.72,7.86,7.86,0,0,1-1.94,2.83A8.87,8.87,0,0,1,77.52,21a13.27,13.27,0,0,1-4.38.64H70v9.88a.48.48,0,0,1-.09.29.68.68,0,0,1-.3.21,3.46,3.46,0,0,1-.55.13,7.86,7.86,0,0,1-1.77,0,3.62,3.62,0,0,1-.56-.13.55.55,0,0,1-.29-.21.48.48,0,0,1-.09-.29V6.19A1.47,1.47,0,0,1,66.82,5a1.53,1.53,0,0,1,1-.36h5.88c.59,0,1.16,0,1.7.07A16.39,16.39,0,0,1,77.32,5a8.41,8.41,0,0,1,2.28.91,7.48,7.48,0,0,1,2,1.65A7.13,7.13,0,0,1,82.8,9.84,8.75,8.75,0,0,1,83.23,12.67ZM79.41,13a5.78,5.78,0,0,0-.62-2.81,4.39,4.39,0,0,0-1.56-1.68,5.1,5.1,0,0,0-1.91-.7,12.81,12.81,0,0,0-1.92-.15H70v11h3.3a7.64,7.64,0,0,0,2.74-.43A5.07,5.07,0,0,0,77.9,17,4.9,4.9,0,0,0,79,15.25,6.59,6.59,0,0,0,79.41,13Z"/><path id="_1" data-name="1" class="cls-2" d="M97.37,32.09l-2.54,7a1,1,0,0,1-.65.52,4.83,4.83,0,0,1-1.58.18,5.4,5.4,0,0,1-.89,0,1.21,1.21,0,0,1-.52-.18.45.45,0,0,1-.2-.34,1.17,1.17,0,0,1,.1-.51l2.64-6.65a1.17,1.17,0,0,1-.36-.28,1,1,0,0,1-.24-.4L86.32,13.15a1.93,1.93,0,0,1-.17-.7.52.52,0,0,1,.17-.41,1.09,1.09,0,0,1,.55-.2,8.82,8.82,0,0,1,1-.05c.42,0,.75,0,1,0a2.24,2.24,0,0,1,.57.12.64.64,0,0,1,.31.24,3.88,3.88,0,0,1,.2.44l5.45,15.32h.07l5.26-15.4a.86.86,0,0,1,.31-.52,1.36,1.36,0,0,1,.53-.18,9.15,9.15,0,0,1,1.05-.05,8.56,8.56,0,0,1,1,.05,1.09,1.09,0,0,1,.55.2.49.49,0,0,1,.18.41,2.26,2.26,0,0,1-.12.64Z"/><path id="_2" data-name="2" class="cls-2" d="M127.09,28.22c0,.22,0,.42,0,.59a2.54,2.54,0,0,1-.07.44,1.83,1.83,0,0,1-.14.35,2.46,2.46,0,0,1-.3.35,6.23,6.23,0,0,1-.89.65,11,11,0,0,1-1.69.85,14.74,14.74,0,0,1-2.31.7,13.54,13.54,0,0,1-2.86.28,12.46,12.46,0,0,1-4.84-.89,9.73,9.73,0,0,1-3.67-2.63,12,12,0,0,1-2.34-4.3,19.54,19.54,0,0,1-.82-5.89,19.39,19.39,0,0,1,.89-6.1,13.12,13.12,0,0,1,2.47-4.54,10.63,10.63,0,0,1,3.82-2.83,12.11,12.11,0,0,1,4.92-1,11.78,11.78,0,0,1,2.32.22,14.27,14.27,0,0,1,2.08.56,9,9,0,0,1,1.71.78,5.19,5.19,0,0,1,1,.72,2.3,2.3,0,0,1,.38.44,1.27,1.27,0,0,1,.14.35,4.13,4.13,0,0,1,.08.47,4.44,4.44,0,0,1,0,.66,5.07,5.07,0,0,1,0,.73,2.1,2.1,0,0,1-.13.51.65.65,0,0,1-.2.29.42.42,0,0,1-.28.1,1.63,1.63,0,0,1-.85-.42,13.51,13.51,0,0,0-1.37-.91,11.3,11.3,0,0,0-2.05-.91,8.88,8.88,0,0,0-2.9-.42,7.48,7.48,0,0,0-3.34.74,7.09,7.09,0,0,0-2.58,2.15,10.62,10.62,0,0,0-1.66,3.48A17.18,17.18,0,0,0,111,18.5a17.05,17.05,0,0,0,.57,4.63,9.56,9.56,0,0,0,1.62,3.36,6.77,6.77,0,0,0,2.59,2,8.46,8.46,0,0,0,3.49.69,9.2,9.2,0,0,0,2.87-.41,10.24,10.24,0,0,0,2.09-.9c.58-.33,1.05-.63,1.42-.89a1.72,1.72,0,0,1,.87-.41.44.44,0,0,1,.26.07.38.38,0,0,1,.17.24,2.19,2.19,0,0,1,.1.49Q127.09,27.73,127.09,28.22Z"/><path id="_3" data-name="3" class="cls-2" d="M149.26,21.78a14.32,14.32,0,0,1-.61,4.3,9.55,9.55,0,0,1-1.83,3.39,8.54,8.54,0,0,1-3.05,2.21,10.68,10.68,0,0,1-4.26.8,10.9,10.9,0,0,1-4.1-.7,7.55,7.55,0,0,1-2.92-2,8.73,8.73,0,0,1-1.73-3.25,14.74,14.74,0,0,1-.58-4.33,14.58,14.58,0,0,1,.61-4.29,9.38,9.38,0,0,1,1.82-3.39,8.3,8.3,0,0,1,3-2.21,10.8,10.8,0,0,1,4.26-.78,11,11,0,0,1,4.11.7,7.32,7.32,0,0,1,2.91,2,8.84,8.84,0,0,1,1.75,3.25A14.69,14.69,0,0,1,149.26,21.78Zm-3.65.22a13.8,13.8,0,0,0-.29-2.93,7,7,0,0,0-.95-2.42A4.58,4.58,0,0,0,142.58,15a5.76,5.76,0,0,0-2.81-.61,6,6,0,0,0-2.67.55,5,5,0,0,0-1.84,1.56,7.06,7.06,0,0,0-1.07,2.39,12,12,0,0,0-.36,3,14.54,14.54,0,0,0,.29,3,6.84,6.84,0,0,0,1,2.41,4.72,4.72,0,0,0,1.8,1.63,5.81,5.81,0,0,0,2.81.61,5.93,5.93,0,0,0,2.66-.55,4.92,4.92,0,0,0,1.86-1.55A6.65,6.65,0,0,0,145.27,25a12.58,12.58,0,0,0,.34-3Z"/><path id="_4" data-name="4" class="cls-2" d="M170.88,31.56a.48.48,0,0,1-.09.29.76.76,0,0,1-.27.2,2,2,0,0,1-.54.12,7.42,7.42,0,0,1-1.72,0,1.89,1.89,0,0,1-.54-.12.81.81,0,0,1-.28-.2.55.55,0,0,1-.08-.29V20.37a10.9,10.9,0,0,0-.26-2.63,5.23,5.23,0,0,0-.74-1.73,3.24,3.24,0,0,0-1.25-1.1,4,4,0,0,0-1.78-.38,4.43,4.43,0,0,0-2.61.93A14.42,14.42,0,0,0,158,18.2V31.56a.48.48,0,0,1-.09.29.68.68,0,0,1-.27.2,2,2,0,0,1-.54.12,6.58,6.58,0,0,1-.87,0,6.47,6.47,0,0,1-.85,0,2.16,2.16,0,0,1-.55-.12.72.72,0,0,1-.28-.2.54.54,0,0,1-.07-.29V12.45a.62.62,0,0,1,.06-.29.74.74,0,0,1,.26-.21,1.51,1.51,0,0,1,.49-.13c.2,0,.46,0,.79,0s.57,0,.78,0a1.32,1.32,0,0,1,.48.13.92.92,0,0,1,.25.21.62.62,0,0,1,.07.29V15a11.38,11.38,0,0,1,3.21-2.65,6.85,6.85,0,0,1,3.22-.84,7.2,7.2,0,0,1,3.21.64,6,6,0,0,1,2.11,1.73,7,7,0,0,1,1.15,2.54,15.43,15.43,0,0,1,.35,3.5V31.56Z"/><path id="_5" data-name="5" class="cls-2" d="M187.5,4.59a3.8,3.8,0,0,1,0,.65,2.18,2.18,0,0,1-.1.39.42.42,0,0,1-.13.21.46.46,0,0,1-.21.05.9.9,0,0,1-.38-.1l-.54-.21a5.09,5.09,0,0,0-.76-.21,4.37,4.37,0,0,0-1-.1,3.2,3.2,0,0,0-1.34.26,2.08,2.08,0,0,0-.89.8,3.83,3.83,0,0,0-.49,1.4,12.62,12.62,0,0,0-.15,2.11v2.08h4.26A.51.51,0,0,1,186,12a.63.63,0,0,1,.21.26,1.31,1.31,0,0,1,.15.46,3.2,3.2,0,0,1,.06.67,2.45,2.45,0,0,1-.19,1.11.57.57,0,0,1-.51.34h-4.26V31.56a.48.48,0,0,1-.09.29.72.72,0,0,1-.28.2,2.18,2.18,0,0,1-.54.12,7.25,7.25,0,0,1-1.7,0,2.18,2.18,0,0,1-.54-.12.72.72,0,0,1-.28-.2.48.48,0,0,1-.09-.29V14.83h-2.71a.54.54,0,0,1-.51-.34,2.66,2.66,0,0,1-.17-1.11,6,6,0,0,1,0-.67,2,2,0,0,1,.13-.46.56.56,0,0,1,.21-.26.6.6,0,0,1,.3-.07h2.71v-2a13.77,13.77,0,0,1,.37-3.44,6,6,0,0,1,1.14-2.35,4.56,4.56,0,0,1,1.92-1.36,8,8,0,0,1,2.74-.43,6.9,6.9,0,0,1,1.44.14,6.14,6.14,0,0,1,1.08.29,1.91,1.91,0,0,1,.51.29.85.85,0,0,1,.21.33,1.68,1.68,0,0,1,.12.49,6.73,6.73,0,0,1,0,.69Z"/><path class="cls-3" d="M74.27,52.19a.24.24,0,0,1-.05.14.45.45,0,0,1-.17.1,1.7,1.7,0,0,1-.31.06,3.38,3.38,0,0,1-.49,0,3.43,3.43,0,0,1-.5,0,1.67,1.67,0,0,1-.32-.06.4.4,0,0,1-.16-.1.24.24,0,0,1-.05-.14v-4.1h-3.8v4.1a.19.19,0,0,1-.05.14.34.34,0,0,1-.16.1,1.7,1.7,0,0,1-.31.06,3.43,3.43,0,0,1-.5,0,3.53,3.53,0,0,1-.5,0,1.7,1.7,0,0,1-.31-.06.38.38,0,0,1-.17-.1.24.24,0,0,1-.05-.14V42.62a.24.24,0,0,1,.05-.14.31.31,0,0,1,.17-.1,1.13,1.13,0,0,1,.31-.06,3.53,3.53,0,0,1,.5,0,3.43,3.43,0,0,1,.5,0,1.13,1.13,0,0,1,.31.06.28.28,0,0,1,.16.1.19.19,0,0,1,.05.14v3.73h3.8V42.62a.24.24,0,0,1,.05-.14.32.32,0,0,1,.16-.1,1.14,1.14,0,0,1,.32-.06,3.43,3.43,0,0,1,.5,0,3.38,3.38,0,0,1,.49,0,1.13,1.13,0,0,1,.31.06.35.35,0,0,1,.17.1.24.24,0,0,1,.05.14Z"/><path id="_1-2" data-name="1" class="cls-3" d="M80.57,48.62v3.57a.2.2,0,0,1-.06.14.4.4,0,0,1-.16.1,1.84,1.84,0,0,1-.32.06,3.53,3.53,0,0,1-.5,0,3.43,3.43,0,0,1-.5,0,2,2,0,0,1-.32-.06.34.34,0,0,1-.16-.1.19.19,0,0,1-.05-.14V48.62l-2.77-5.51a2.89,2.89,0,0,1-.2-.46.23.23,0,0,1,.05-.24.58.58,0,0,1,.33-.1l.67,0,.58,0a1.39,1.39,0,0,1,.34.06.4.4,0,0,1,.18.11.78.78,0,0,1,.11.18l1.14,2.49.32.76c.11.27.22.54.33.84h0c.1-.29.2-.56.3-.83s.21-.51.3-.75l1.12-2.48a.75.75,0,0,1,.1-.2.37.37,0,0,1,.17-.12,1.22,1.22,0,0,1,.32-.06l.54,0,.7,0a.58.58,0,0,1,.33.1.22.22,0,0,1,0,.25,3,3,0,0,1-.18.45Z"/><path id="_2-2" data-name="2" class="cls-3" d="M93.22,47.25a6.78,6.78,0,0,1-.37,2.39,3.92,3.92,0,0,1-2.7,2.53,7.92,7.92,0,0,1-2.32.3H85.42a.61.61,0,0,1-.44-.16.6.6,0,0,1-.18-.49V43a.62.62,0,0,1,.18-.5.65.65,0,0,1,.44-.15H88a7.33,7.33,0,0,1,2.3.32,4.18,4.18,0,0,1,1.59.93,4,4,0,0,1,1,1.54,6.28,6.28,0,0,1,.34,2.12Zm-2.14.08A5.18,5.18,0,0,0,90.92,46a2.92,2.92,0,0,0-.54-1.07,2.56,2.56,0,0,0-1-.71A3.85,3.85,0,0,0,87.89,44h-1v6.87h1.07a4,4,0,0,0,1.42-.22,2.33,2.33,0,0,0,1-.66,3,3,0,0,0,.57-1.09A5.43,5.43,0,0,0,91.08,47.33Z"/><path id="_3-2" data-name="3" class="cls-3" d="M100.9,51.66a3.79,3.79,0,0,1,0,.38.83.83,0,0,1-.06.25.28.28,0,0,1-.1.13.21.21,0,0,1-.13,0H95.51a.59.59,0,0,1-.61-.65V43a.62.62,0,0,1,.18-.5.64.64,0,0,1,.43-.15h5.06a.17.17,0,0,1,.12,0,.32.32,0,0,1,.1.14,2.33,2.33,0,0,1,.06.25,3.84,3.84,0,0,1,0,.39c0,.14,0,.27,0,.37a2.33,2.33,0,0,1-.06.25.39.39,0,0,1-.1.14.17.17,0,0,1-.12,0H97v2.47h3a.2.2,0,0,1,.13,0,.34.34,0,0,1,.1.13,1.85,1.85,0,0,1,.06.25c0,.1,0,.22,0,.36s0,.28,0,.38a2.08,2.08,0,0,1-.06.24.34.34,0,0,1-.1.13.28.28,0,0,1-.13,0H97v2.85h3.63a.2.2,0,0,1,.13,0,.39.39,0,0,1,.1.14.76.76,0,0,1,.06.25A3.79,3.79,0,0,1,100.9,51.66Z"/><path id="_4-2" data-name="4" class="cls-3" d="M110.24,52.2a.33.33,0,0,1,0,.15.27.27,0,0,1-.14.1,2.06,2.06,0,0,1-.35,0l-.61,0-.53,0a1.13,1.13,0,0,1-.31-.06.33.33,0,0,1-.16-.11,1.19,1.19,0,0,1-.08-.16l-.91-2.27c-.11-.25-.22-.48-.32-.68a1.93,1.93,0,0,0-.35-.5,1.37,1.37,0,0,0-.45-.3,1.45,1.45,0,0,0-.57-.1h-.65v3.87a.19.19,0,0,1-.05.14.38.38,0,0,1-.17.1,1.54,1.54,0,0,1-.31.06,3.43,3.43,0,0,1-.5,0,3.38,3.38,0,0,1-.49,0,1.67,1.67,0,0,1-.32-.06.34.34,0,0,1-.16-.1.24.24,0,0,1-.05-.14V43a.57.57,0,0,1,.61-.65h2.62l.66,0,.47,0a4.55,4.55,0,0,1,1.1.3,2.86,2.86,0,0,1,.83.55,2.45,2.45,0,0,1,.52.81,2.91,2.91,0,0,1,.18,1.06,3.37,3.37,0,0,1-.13.93,2.65,2.65,0,0,1-.38.75,2.82,2.82,0,0,1-.62.57,3.6,3.6,0,0,1-.84.39,2.73,2.73,0,0,1,.43.26,2.23,2.23,0,0,1,.37.38,4.1,4.1,0,0,1,.34.51c.1.19.2.41.3.65l.86,2a2.84,2.84,0,0,1,.15.44.76.76,0,0,1,.05.21Zm-2.66-6.87a1.52,1.52,0,0,0-.23-.85,1.21,1.21,0,0,0-.75-.48l-.35-.07-.56,0h-.92v2.87h1.05a2.55,2.55,0,0,0,.77-.11,1.53,1.53,0,0,0,.55-.3,1.25,1.25,0,0,0,.33-.45A1.63,1.63,0,0,0,107.58,45.33Z"/><path id="_5-2" data-name="5" class="cls-3" d="M120,51.7a2.56,2.56,0,0,1,.12.45.26.26,0,0,1-.06.25.62.62,0,0,1-.31.1l-.6,0-.62,0a1.37,1.37,0,0,1-.34,0,.34.34,0,0,1-.16-.1.38.38,0,0,1-.08-.17l-.67-2h-3.82l-.64,2a.49.49,0,0,1-.08.18.34.34,0,0,1-.16.12,1.14,1.14,0,0,1-.32.06l-.55,0a4.07,4.07,0,0,1-.56,0,.39.39,0,0,1-.28-.11.35.35,0,0,1-.06-.26,3.87,3.87,0,0,1,.12-.44l3.12-9a.9.9,0,0,1,.11-.22.43.43,0,0,1,.2-.12,1.59,1.59,0,0,1,.38-.06h1.38a1.9,1.9,0,0,1,.42.06.39.39,0,0,1,.22.13.82.82,0,0,1,.11.23Zm-4.64-7.43h0L114,48.57h2.84Z"/><path id="_6" data-name="6" class="cls-3" d="M128.77,49.43a3.36,3.36,0,0,1-.14,1,2.57,2.57,0,0,1-1,1.35,3.15,3.15,0,0,1-.8.4,4.52,4.52,0,0,1-.93.23,7.51,7.51,0,0,1-1.11.08h-2.69a.59.59,0,0,1-.61-.65V43a.62.62,0,0,1,.18-.5.64.64,0,0,1,.43-.15h2.54a6.43,6.43,0,0,1,1.57.16,3.1,3.1,0,0,1,1.09.47,2.07,2.07,0,0,1,.67.8,2.67,2.67,0,0,1,.14,1.83,1.88,1.88,0,0,1-.27.59,2,2,0,0,1-.44.47,2.05,2.05,0,0,1-.6.33,3,3,0,0,1,.8.28,2.36,2.36,0,0,1,.63.5,2.51,2.51,0,0,1,.43.73,2.67,2.67,0,0,1,.15.93Zm-2.65-4.27a1.63,1.63,0,0,0-.1-.55.94.94,0,0,0-.28-.4,1.24,1.24,0,0,0-.47-.25,3,3,0,0,0-.76-.08h-1v2.63h1.15a2,2,0,0,0,.71-.11,1.35,1.35,0,0,0,.44-.29,1.18,1.18,0,0,0,.26-.43A1.5,1.5,0,0,0,126.12,45.16Zm.52,4.34a1.81,1.81,0,0,0-.11-.63,1.23,1.23,0,0,0-.35-.46,1.51,1.51,0,0,0-.58-.3,3.64,3.64,0,0,0-.91-.1h-1.22V50.9H125a2.53,2.53,0,0,0,.72-.09,1.47,1.47,0,0,0,.51-.27,1.22,1.22,0,0,0,.33-.44A1.4,1.4,0,0,0,126.64,49.5Z"/><path id="_7" data-name="7" class="cls-3" d="M138.57,51.7a3.93,3.93,0,0,1,.12.45.32.32,0,0,1-.06.25.62.62,0,0,1-.31.1l-.6,0-.62,0a1.46,1.46,0,0,1-.35,0,.4.4,0,0,1-.16-.1.54.54,0,0,1-.08-.17l-.66-2H132l-.64,2a.75.75,0,0,1-.08.18.34.34,0,0,1-.16.12,1.22,1.22,0,0,1-.32.06l-.55,0a4,4,0,0,1-.56,0,.39.39,0,0,1-.28-.11.31.31,0,0,1-.06-.26,3.87,3.87,0,0,1,.12-.44l3.12-9a.65.65,0,0,1,.11-.22.38.38,0,0,1,.2-.12,1.5,1.5,0,0,1,.38-.06h1.37a1.91,1.91,0,0,1,.43.06.43.43,0,0,1,.22.13.82.82,0,0,1,.11.23l3.13,9Zm-4.65-7.43h0l-1.41,4.3h2.84Z"/><path id="_8" data-name="8" class="cls-3" d="M148.4,47.25a7,7,0,0,1-.36,2.39A4,4,0,0,1,147,51.25a4,4,0,0,1-1.65.92,7.92,7.92,0,0,1-2.32.3H140.6a.59.59,0,0,1-.43-.16.6.6,0,0,1-.18-.49V43a.57.57,0,0,1,.61-.65h2.6a7.22,7.22,0,0,1,2.29.32,3.94,3.94,0,0,1,2.58,2.47A6.29,6.29,0,0,1,148.4,47.25Zm-2.13.08A4.78,4.78,0,0,0,146.1,46a2.77,2.77,0,0,0-.54-1.07,2.45,2.45,0,0,0-.95-.71,3.88,3.88,0,0,0-1.53-.25h-1v6.87h1.07a4,4,0,0,0,1.43-.22,2.3,2.3,0,0,0,1-.66,2.84,2.84,0,0,0,.58-1.09,5.43,5.43,0,0,0,.19-1.53Z"/><path id="_9" data-name="9" class="cls-3" d="M160.09,51.63c0,.15,0,.28,0,.39a.83.83,0,0,1-.06.26.22.22,0,0,1-.1.14.24.24,0,0,1-.14,0h-5.83a1.23,1.23,0,0,1-.29,0,.57.57,0,0,1-.21-.13.52.52,0,0,1-.11-.26,2.45,2.45,0,0,1,0-.44,2.9,2.9,0,0,1,0-.45,1.14,1.14,0,0,1,.08-.33,3,3,0,0,1,.17-.28,2,2,0,0,1,.25-.3l1.76-1.87a9.09,9.09,0,0,0,.84-1,5.65,5.65,0,0,0,.5-.82,2.91,2.91,0,0,0,.25-.69,2.49,2.49,0,0,0,.07-.59,1.33,1.33,0,0,0-.09-.49,1,1,0,0,0-.24-.4,1.13,1.13,0,0,0-.4-.27,1.42,1.42,0,0,0-.57-.1,2.57,2.57,0,0,0-.82.12,4.81,4.81,0,0,0-.63.26l-.45.27a.56.56,0,0,1-.28.12.13.13,0,0,1-.12,0,.35.35,0,0,1-.08-.15,1.69,1.69,0,0,1-.05-.3,3,3,0,0,1,0-.45,2.63,2.63,0,0,1,0-.3,1.12,1.12,0,0,1,0-.21.44.44,0,0,1,.06-.16.76.76,0,0,1,.13-.16,2.72,2.72,0,0,1,.36-.24,4.07,4.07,0,0,1,.65-.28,6.15,6.15,0,0,1,.85-.23,4.87,4.87,0,0,1,1-.1,4.37,4.37,0,0,1,1.38.2,2.83,2.83,0,0,1,1,.56,2.22,2.22,0,0,1,.59.84,3.07,3.07,0,0,1,.19,1.06,4.56,4.56,0,0,1-.1,1,3.58,3.58,0,0,1-.39,1,8.17,8.17,0,0,1-.84,1.22,19.68,19.68,0,0,1-1.43,1.55l-1.18,1.21h4a.24.24,0,0,1,.14,0A.42.42,0,0,1,160,51a.83.83,0,0,1,.06.26,2.09,2.09,0,0,1,0,.38Z"/><path id="_10" data-name="10" class="cls-3" d="M168.42,47.36a10.47,10.47,0,0,1-.2,2.19,4.85,4.85,0,0,1-.63,1.67,2.93,2.93,0,0,1-1.16,1,4.31,4.31,0,0,1-3.45,0,2.61,2.61,0,0,1-1.08-1,4.41,4.41,0,0,1-.56-1.63,13.15,13.15,0,0,1-.16-2.19,10.44,10.44,0,0,1,.2-2.18,4.66,4.66,0,0,1,.64-1.67,2.93,2.93,0,0,1,1.15-1.06,3.78,3.78,0,0,1,1.73-.37,3.65,3.65,0,0,1,1.72.36,2.74,2.74,0,0,1,1.09,1,4.66,4.66,0,0,1,.55,1.64,13,13,0,0,1,.16,2.18Zm-2.07.11c0-.48,0-.9,0-1.27a7.6,7.6,0,0,0-.12-1,3.08,3.08,0,0,0-.2-.68,1.27,1.27,0,0,0-.3-.45,1.15,1.15,0,0,0-.39-.24,1.53,1.53,0,0,0-.49-.07A1.25,1.25,0,0,0,164,44a1.51,1.51,0,0,0-.48.67,4,4,0,0,0-.24,1.11,13.81,13.81,0,0,0-.08,1.54,14.63,14.63,0,0,0,.09,1.79,4.35,4.35,0,0,0,.27,1.13,1.18,1.18,0,0,0,.48.58,1.37,1.37,0,0,0,.7.17,1.33,1.33,0,0,0,.54-.1,1.18,1.18,0,0,0,.42-.29,1.76,1.76,0,0,0,.29-.49,3.8,3.8,0,0,0,.19-.69,5.61,5.61,0,0,0,.1-.89q0-.48,0-1.08Z"/><path id="_11" data-name="11" class="cls-3" d="M176.24,51.68a2.09,2.09,0,0,1,0,.38,1,1,0,0,1-.06.24.49.49,0,0,1-.1.13.28.28,0,0,1-.13,0h-5.6a.21.21,0,0,1-.11,0,.34.34,0,0,1-.1-.13,1,1,0,0,1-.07-.24c0-.11,0-.23,0-.38a2.24,2.24,0,0,1,0-.38.7.7,0,0,1,.06-.24.39.39,0,0,1,.1-.14.19.19,0,0,1,.12,0h1.89V44.3l-1.62.89a1.08,1.08,0,0,1-.29.11.21.21,0,0,1-.19,0A.38.38,0,0,1,170,45a2.69,2.69,0,0,1,0-.46c0-.13,0-.23,0-.31a1.12,1.12,0,0,1,0-.21.42.42,0,0,1,.09-.14l.14-.12,2.18-1.4.09,0a.53.53,0,0,1,.16,0h1.12a.93.93,0,0,1,.28,0,.22.22,0,0,1,.12.07.21.21,0,0,1,0,.12v8.36h1.65a.2.2,0,0,1,.13,0,.39.39,0,0,1,.1.14,1,1,0,0,1,.07.24c0,.11,0,.24,0,.38Z"/><path id="_12" data-name="12" class="cls-3" d="M184.45,43.2c0,.16,0,.29,0,.4a2.51,2.51,0,0,1-.05.31,1.27,1.27,0,0,1-.07.28l-.11.27-3.33,7.73a.43.43,0,0,1-.12.17.69.69,0,0,1-.21.1,1.51,1.51,0,0,1-.34,0l-.51,0a5.74,5.74,0,0,1-.66,0,1,1,0,0,1-.35-.09q-.12-.06-.12-.15a.4.4,0,0,1,.05-.22l3.57-7.91h-4.25c-.11,0-.19-.07-.25-.21a2.31,2.31,0,0,1-.08-.69c0-.15,0-.29,0-.4a1.63,1.63,0,0,1,.07-.28.36.36,0,0,1,.1-.15.24.24,0,0,1,.14,0h6a.71.71,0,0,1,.23,0,.23.23,0,0,1,.15.12.71.71,0,0,1,.09.26,3,3,0,0,1,0,.45Z"/><path class="cls-3" d="M32.72,46.42h.12v-.55H33v-.33h.11v-.11h.11V45.2h.11v-.11h.11V45h.11v-.11h.11v-.11h.23v-.11h.22v-.11h.33v-.12H35.5v.12h.34v.11h.22v.11h.11v.11h.22V45h.11v.11h.11v.11h.12v.23h.11v.22H37v.22h.11V47.2H37v.34h-.11v.22h-.11v.11h-.12V48H36.5v.11h-.11v.11h-.11v.11h-.11v.12H36v.11h-.23v.11h-.44v.11h-.67v-.11h-.44v-.11H34v-.11h-.22v-.12h-.12V48.2H33.5v-.11h-.11V48h-.11v-.11h-.11v-.11h-.11v-.22H33v-.23h-.11v-.66h-.12ZM42,22.31h-.11v.56h-.11v.33h-.11v.33H41.5v.23h-.11v.33h-.11v.22h-.11v.11h-.11v.22h-.11v.23h-.11V25h-.11v.22h-.12v.11H40.5v.11h-.11v.23h-.11v.11h-.11v.11h-.11V26h-.11v.11h-.11v.11h-.11v.11h-.12v.11H39.5v.11h-.11v.11h-.22v.12h-.11v.11h-.11V27h-.23v.11h-.11v.11h-.22v.11h-.11v.11h-.22v.11h-.22v.11h-.23v.12h-.22v.11h-.33V28h-.33v.11h-.34v.11h-.55v.11h-14v.11h-1v.11h-.55v.12h-.45v.11H19.5v.11h-.22V29h-.22v.11h-.22v.11h-.23v.11h-.22v.11h-.11v.11h-.22v.12h-.11v.11h-.12v.11h-.11V30h-.11v.11H17.5v.11h-.11v.11h-.11v.11h-.11v.11h-.11v.23h-.11v.11h-.12v.22h-.11v.11h-.11v.22H16.5v.23h-.11v.22h-.11v.33h-.11v.33h-.11V33h-.12v.44h-.11v.78h-.11v5.89h.11V44h.11v3h.12v.44h.11v.34h.11V48h.11v.22h.11v.23h.11v.22h.11v.11h.11v.11h.12v.22h.11v.11h.11v.11h.11v.12h.11v.11h.11v.11h.11v.11h.22v.11h.12V50h.11v.11h.11v.11h.22v.11h.11v.12h.22v.11h.23v.11h.11v.11h.22v.11h.22V51h.22v.11h.34v.11h.22v.11h.22v.12h.33v.11h.34v.11h.33v.11h.45v.11h.33V52h.56v.11h.55v.11h.56v.11h.77v.12h1.23v.11h4.33v-.11H31.5v-.12h.89V52.2h.67v-.11h.55V52h.56v-.11h.44v-.11h.34v-.11h.44v-.11h.33v-.11h.34v-.12h.22V51.2h.33v-.11h.23V51h.22v-.11h.22v-.11h.22v-.11h.23v-.11h.11v-.11h.22v-.12h.11V50.2h.22v-.11h.11V50h.11v-.11h.11v-.11h.12v-.11h.11v-.11h.11v-.11h.11v-.12h.11V49.2h.11v-.11h.11v-.22h.11v-.11h.12v-.22h.11v-.23h.11V48h.11v-.33h.11V41.2H28.06V39.42H46.61v-.11h.56V39.2h.45v-.11h.33V39h.22v-.11h.22v-.11h.23v-.11h.22v-.12h.22v-.11h.22v-.11h.11V38.2h.23v-.11h.11V38h.11v-.11H50v-.11h.22v-.11h.11v-.11h.11v-.12h.11v-.11h.12V37.2h.11v-.11h.11v-.22H51v-.11h.11v-.11h.11v-.11h.11v-.23h.11V36.2h.11V36h.12v-.11h.11v-.22h.11v-.23H52V35.2h.11V35h.11v-.22h.11v-.23h.11V34.2h.11V34h.12v-.33h.11v-.34h.11v-.44H53v-.45h.11v-.55h.11v-.56h.11v-.78h.11V29.42h.11v-4h-.11V24.2h-.11v-.78h-.11v-.66h-.11V22.2H53v-.44h-.11v-.45h-.11V21h-.11v-.45H52.5v-.22h-.11V20h-.11v-.34h-.11v-.22h-.11V19.2H52V19h-.11v-.22h-.11v-.23h-.11v-.22H51.5V18.2h-.11V18h-.11v-.11h-.11v-.23h-.11v-.11H51v-.11h-.11V17.2h-.11v-.11h-.11V17H50.5v-.11h-.11v-.11h-.11v-.12h-.11v-.11h-.11v-.11H50v-.11h-.22V16.2h-.11v-.11H49.5V16h-.22v-.11h-.11v-.12h-.22v-.11h-.22v-.11H48.5v-.11h-.22v-.11h-.33V15.2h-.33v-.11h-.45V15H41.95v7.33Z"/><path class="cls-2" d="M23,9.42v.11h-.11v.22h-.12V10h-.11v.11h-.22v.11h-.22v.11H22v.11h-.11v.11H21.5v.11h-.89v-.11h-.33v-.11H20v-.11h-.12V10.2h-.22V10H19.5V9.87h-.22V9.75h-.11V9.42h-.11V9.2h-.11V9.09h-.11V7.75h.11V7.42h.11V7.2h.11V7.09h.11V6.87h.11V6.75h.11V6.64h.22V6.53H20V6.42h.22V6.31h.11V6.2h.55V6.09h.45V6.2h.44v.11h.34v.11h.22v.22h.22v.11h.11v.12h.11v.22H23v.33h.11v.11h.11v.33h.11v1h-.11v.22h-.11v.33Zm2.22-6.89v.11H24.06v.11h-.78v.12h-.56V3h-.55v.11h-.56V3.2h-.44v.11h-.34v.11H20.5v.11h-.33v.11h-.34v.11h-.22v.11h-.44V4H19v.11h-.23V4.2H18.5v.11h-.11v.11h-.11v.11H18v.22h-.34V5H17.5v.11h-.22V5.2h-.11v.11h-.11v.11h-.11v.11h-.12v.11h-.11v.23H16.5V6.2h-.22v.22h-.11v.22h-.11v.45h-.12v.55h-.11v6.12H27.95v1.77H9.83v.11H9.06v.11H8.61v.12H8.28V16H7.83v.11H7.72v.11H7.5v.11H7.28v.11H7.06v.11H6.72v.23H6.39V17H6.17v.11H6.06v.11H5.83v.11H5.72v.11H5.61v.22H5.39v.12H5.28v.11H5.17v.22H5.06v.11H4.94v.22H4.72v.34H4.5v.33H4.28v.22H4.17v.33H4.06v.23H3.94v.22H3.83v.11H3.72v.22H3.61v.45H3.5v.33H3.39v.33H3.28v.34H3.17v.44H3.06v.45H2.94v.55H2.83V24H2.72v.89H2.61v1.77H2.5v1.67h.11V30.2h.11v.89h.11v.78h.11v.55h.12V33h.11v.44h.11v.45h.11v.33H3.5v.33h.11V35h.11v.11h.11v.22h.11v.45h.12V36h.11v.22h.11v.11h.11v.11H4.5v.34h.11v.11h.11V37h.11v.22h.11v.22h.23v.23h.11v.11h.11v.11H5.5v.22h.11v.11h.11v.11h.22v.11h.12v.11h.11v.12h.22v.22h.22V39h.11v.11h.34v.11h.11v.11h.11v.11h.44v.12h.23v.11h.33v.11H8.5v.11h.56V40h4.89V32.65h.11v-.56h.11v-.33h.11v-.34h.11v-.33h.11v-.22h.11v-.22h.11v-.23h.11v-.11h.12V30.2h.11v-.33h.22v-.22h.11v-.23h.22v-.11h.11v-.22h.11V29h.11v-.11h.12v-.11h.11v-.11h.11v-.12h.11v-.11h.11v-.11h.22v-.22h.11V28h.34v-.22h.22v-.12h.11v-.11h.33v-.11h.23v-.11h.22V27.2h.22v-.11h.11V27h.45v-.11h.22v-.11h.33v-.12h.56v-.11H34.28v-.11h.89v-.11h.55V26.2h.45v-.11h.22V26h.45v-.11h.11v-.11h.22v-.11h.33v-.12h.11v-.11h.23V25.2h.22v-.11h.11V25h.22v-.11h.11v-.23h.11v-.11h.11v-.22h.12V24.2H39v-.11h.11v-.22h.11v-.11h.11v-.12h.11v-.22h.11V23h.11v-.22h.12v-.34h.11V22H40v-.45h.11v-.77h.11v-6h-.11V10.87H40V8h-.11V7.53h-.11V7.2h-.12V7H39.5V6.75h-.11V6.42h-.11V6.31h-.11V6.09H39V5.87h-.11V5.75h-.12V5.64h-.11V5.53H38.5V5.42h-.11V5.31h-.11V5.2h-.22V5h-.22V4.86h-.23V4.64h-.33V4.42h-.22V4.31h-.33V4.2H36.5V4.09h-.22V4h-.22V3.86h-.11V3.75H35.5V3.64h-.11V3.53h-.44V3.42h-.34V3.31h-.33V3.2h-.44V3.09h-.45V3h-.55V2.87h-.56V2.75h-.67V2.64h-1V2.53H28.84V2.42H27.06v.11Z"/></g><g id="Layer_2" data-name="Layer 2"><g id="Layer_1-2" data-name="Layer_1"><rect class="cls-1" x="0.25" y="63.76" width="190" height="55"/><g id="_2364822566192" data-name=" 2364822566192"><path class="cls-2" d="M83.48,76.43a9.63,9.63,0,0,1-.68,3.72A7.86,7.86,0,0,1,80.86,83a8.87,8.87,0,0,1-3.09,1.8,13.27,13.27,0,0,1-4.38.64H70.27V95.3a.48.48,0,0,1-.09.29.68.68,0,0,1-.3.21,3.46,3.46,0,0,1-.55.13,7.86,7.86,0,0,1-1.77,0A3.62,3.62,0,0,1,67,95.8a.55.55,0,0,1-.29-.21.48.48,0,0,1-.09-.29V70a1.47,1.47,0,0,1,.45-1.21,1.53,1.53,0,0,1,1-.36h5.88c.59,0,1.16,0,1.7.07a16.39,16.39,0,0,1,1.93.32,8.41,8.41,0,0,1,2.28.91,7.48,7.48,0,0,1,2,1.65,7.13,7.13,0,0,1,1.24,2.27A8.75,8.75,0,0,1,83.48,76.43Zm-3.82.29A5.78,5.78,0,0,0,79,73.91a4.39,4.39,0,0,0-1.56-1.68,5.1,5.1,0,0,0-1.91-.7,12.81,12.81,0,0,0-1.92-.15H70.27v11h3.3A7.64,7.64,0,0,0,76.31,82a5.07,5.07,0,0,0,1.84-1.18A4.9,4.9,0,0,0,79.27,79,6.59,6.59,0,0,0,79.66,76.72Z"/><path id="_1-3" data-name="1" class="cls-2" d="M97.62,95.85l-2.54,7a1,1,0,0,1-.65.52,4.83,4.83,0,0,1-1.58.18,5.4,5.4,0,0,1-.89,0,1.21,1.21,0,0,1-.52-.18.45.45,0,0,1-.2-.34,1.17,1.17,0,0,1,.1-.51L94,95.85a1.17,1.17,0,0,1-.36-.28,1,1,0,0,1-.24-.4L86.57,76.91a1.93,1.93,0,0,1-.17-.7.52.52,0,0,1,.17-.41,1.09,1.09,0,0,1,.55-.2,8.82,8.82,0,0,1,1-.05c.42,0,.75,0,1,0a2.24,2.24,0,0,1,.57.12.64.64,0,0,1,.31.24,3.88,3.88,0,0,1,.2.44L95.67,91.7h.07L101,76.3a.86.86,0,0,1,.31-.52,1.36,1.36,0,0,1,.53-.18,9.15,9.15,0,0,1,1.05-.05,8.56,8.56,0,0,1,1,.05,1.09,1.09,0,0,1,.55.2.49.49,0,0,1,.18.41,2.26,2.26,0,0,1-.12.64Z"/><path id="_2-3" data-name="2" class="cls-2" d="M127.34,92c0,.22,0,.42,0,.59a2.54,2.54,0,0,1-.07.44,1.83,1.83,0,0,1-.14.35,2.46,2.46,0,0,1-.3.35,6.23,6.23,0,0,1-.89.65,11,11,0,0,1-1.69.85,14.74,14.74,0,0,1-2.31.7,13.54,13.54,0,0,1-2.86.28,12.46,12.46,0,0,1-4.84-.89,9.73,9.73,0,0,1-3.67-2.63,12,12,0,0,1-2.34-4.3,21.45,21.45,0,0,1,.07-12,13.12,13.12,0,0,1,2.47-4.54A10.63,10.63,0,0,1,114.57,69a12.11,12.11,0,0,1,4.92-1,11.78,11.78,0,0,1,2.32.22,14.27,14.27,0,0,1,2.08.56,9,9,0,0,1,1.71.78,5.19,5.19,0,0,1,1,.72,2.3,2.3,0,0,1,.38.44,1.27,1.27,0,0,1,.14.35,4.13,4.13,0,0,1,.08.47,4.44,4.44,0,0,1,0,.66,5.07,5.07,0,0,1,0,.73,2.1,2.1,0,0,1-.13.51.65.65,0,0,1-.2.29.42.42,0,0,1-.28.1,1.63,1.63,0,0,1-.85-.42,13.51,13.51,0,0,0-1.37-.91,11.3,11.3,0,0,0-2.05-.91,8.88,8.88,0,0,0-2.9-.42,7.48,7.48,0,0,0-3.34.74,7.09,7.09,0,0,0-2.58,2.15,10.62,10.62,0,0,0-1.66,3.48,19,19,0,0,0,0,9.32,9.56,9.56,0,0,0,1.62,3.36,6.77,6.77,0,0,0,2.59,2,8.46,8.46,0,0,0,3.49.69,9.2,9.2,0,0,0,2.87-.41,10.24,10.24,0,0,0,2.09-.9c.58-.33,1.05-.63,1.42-.89a1.72,1.72,0,0,1,.87-.41.44.44,0,0,1,.26.07.38.38,0,0,1,.17.24,2.19,2.19,0,0,1,.1.49Q127.34,91.49,127.34,92Z"/><path id="_3-3" data-name="3" class="cls-2" d="M149.51,85.54a14.32,14.32,0,0,1-.61,4.3,9.55,9.55,0,0,1-1.83,3.39A8.54,8.54,0,0,1,144,95.44a10.68,10.68,0,0,1-4.26.8,10.9,10.9,0,0,1-4.1-.7,7.55,7.55,0,0,1-2.92-2A8.73,8.73,0,0,1,131,90.25a14.74,14.74,0,0,1-.58-4.33,14.58,14.58,0,0,1,.61-4.29,9.38,9.38,0,0,1,1.82-3.39,8.3,8.3,0,0,1,3-2.21,10.8,10.8,0,0,1,4.26-.78,11,11,0,0,1,4.11.7,7.32,7.32,0,0,1,2.91,2,8.84,8.84,0,0,1,1.75,3.25A14.69,14.69,0,0,1,149.51,85.54Zm-3.65.22a13.8,13.8,0,0,0-.29-2.93,7,7,0,0,0-.95-2.42,4.58,4.58,0,0,0-1.79-1.64,5.76,5.76,0,0,0-2.81-.61,6,6,0,0,0-2.67.55,5,5,0,0,0-1.84,1.56,7.06,7.06,0,0,0-1.07,2.39,12,12,0,0,0-.36,3,14.54,14.54,0,0,0,.29,3,6.84,6.84,0,0,0,1,2.41,4.72,4.72,0,0,0,1.8,1.63,5.81,5.81,0,0,0,2.81.61,5.93,5.93,0,0,0,2.66-.55,4.92,4.92,0,0,0,1.86-1.55,6.65,6.65,0,0,0,1.06-2.38,12.58,12.58,0,0,0,.34-3Z"/><path id="_4-3" data-name="4" class="cls-2" d="M171.13,95.32a.48.48,0,0,1-.09.29.76.76,0,0,1-.27.2,2,2,0,0,1-.54.12,7.42,7.42,0,0,1-1.72,0,1.89,1.89,0,0,1-.54-.12.81.81,0,0,1-.28-.2.55.55,0,0,1-.08-.29V84.13a10.9,10.9,0,0,0-.26-2.63,5.23,5.23,0,0,0-.74-1.73,3.24,3.24,0,0,0-1.25-1.1,4,4,0,0,0-1.78-.38,4.43,4.43,0,0,0-2.61.93A14.42,14.42,0,0,0,158.22,82V95.32a.48.48,0,0,1-.09.29.68.68,0,0,1-.27.2,2,2,0,0,1-.54.12,6.58,6.58,0,0,1-.87,0,6.47,6.47,0,0,1-.85,0,2.16,2.16,0,0,1-.55-.12.72.72,0,0,1-.28-.2.54.54,0,0,1-.07-.29V76.21a.62.62,0,0,1,.06-.29.74.74,0,0,1,.26-.21,1.51,1.51,0,0,1,.49-.13c.2,0,.46,0,.79,0s.57,0,.78,0a1.32,1.32,0,0,1,.48.13.92.92,0,0,1,.25.21.62.62,0,0,1,.07.29v2.53a11.38,11.38,0,0,1,3.21-2.65,6.85,6.85,0,0,1,3.22-.84,7.2,7.2,0,0,1,3.21.64,6,6,0,0,1,2.11,1.73,7,7,0,0,1,1.15,2.54,15.43,15.43,0,0,1,.35,3.5V95.32Z"/><path id="_5-3" data-name="5" class="cls-2" d="M187.75,68.35a3.8,3.8,0,0,1,0,.65,2.18,2.18,0,0,1-.1.39.42.42,0,0,1-.13.21.46.46,0,0,1-.21.05.9.9,0,0,1-.38-.1l-.54-.21a5.09,5.09,0,0,0-.76-.21,4.37,4.37,0,0,0-1-.1,3.2,3.2,0,0,0-1.34.26,2.08,2.08,0,0,0-.89.8,3.83,3.83,0,0,0-.49,1.4,12.62,12.62,0,0,0-.15,2.11v2.08H186a.51.51,0,0,1,.28.07.63.63,0,0,1,.21.26,1.31,1.31,0,0,1,.15.46,3.2,3.2,0,0,1,.06.67,2.45,2.45,0,0,1-.19,1.11.57.57,0,0,1-.51.34h-4.26V95.32a.48.48,0,0,1-.09.29.72.72,0,0,1-.28.2,2.18,2.18,0,0,1-.54.12,7.25,7.25,0,0,1-1.7,0,2.18,2.18,0,0,1-.54-.12.72.72,0,0,1-.28-.2.48.48,0,0,1-.09-.29V78.59h-2.71a.54.54,0,0,1-.51-.34,2.66,2.66,0,0,1-.17-1.11,6,6,0,0,1,0-.67A2,2,0,0,1,175,76a.56.56,0,0,1,.21-.26.6.6,0,0,1,.3-.07h2.71v-2a13.77,13.77,0,0,1,.37-3.44,6,6,0,0,1,1.14-2.35,4.56,4.56,0,0,1,1.92-1.36,8,8,0,0,1,2.74-.43,6.9,6.9,0,0,1,1.44.14,6.14,6.14,0,0,1,1.08.29,1.91,1.91,0,0,1,.51.29.85.85,0,0,1,.21.33,1.68,1.68,0,0,1,.12.49,6.73,6.73,0,0,1,0,.69Z"/><path class="cls-4" d="M74.52,116a.24.24,0,0,1-.05.14.45.45,0,0,1-.17.1,1.7,1.7,0,0,1-.31.06,3.38,3.38,0,0,1-.49,0,3.43,3.43,0,0,1-.5,0,1.67,1.67,0,0,1-.32-.06.4.4,0,0,1-.16-.1.24.24,0,0,1-.05-.14v-4.1h-3.8V116a.19.19,0,0,1-.05.14.34.34,0,0,1-.16.1,1.7,1.7,0,0,1-.31.06,3.43,3.43,0,0,1-.5,0,3.53,3.53,0,0,1-.5,0,1.7,1.7,0,0,1-.31-.06.38.38,0,0,1-.17-.1.24.24,0,0,1-.05-.14v-9.57a.24.24,0,0,1,.05-.14.31.31,0,0,1,.17-.1,1.13,1.13,0,0,1,.31-.06,3.53,3.53,0,0,1,.5,0,3.43,3.43,0,0,1,.5,0,1.13,1.13,0,0,1,.31.06.28.28,0,0,1,.16.1.19.19,0,0,1,.05.14v3.73h3.8v-3.73a.24.24,0,0,1,.05-.14.32.32,0,0,1,.16-.1,1.14,1.14,0,0,1,.32-.06,3.43,3.43,0,0,1,.5,0,3.38,3.38,0,0,1,.49,0,1.13,1.13,0,0,1,.31.06.35.35,0,0,1,.17.1.24.24,0,0,1,.05.14Z"/><path id="_1-4" data-name="1" class="cls-4" d="M80.82,112.38V116a.2.2,0,0,1-.06.14.4.4,0,0,1-.16.1,1.84,1.84,0,0,1-.32.06,3.53,3.53,0,0,1-.5,0,3.43,3.43,0,0,1-.5,0,2,2,0,0,1-.32-.06.34.34,0,0,1-.16-.1.19.19,0,0,1-.05-.14v-3.57L76,106.87a2.89,2.89,0,0,1-.2-.46.23.23,0,0,1,.05-.24.58.58,0,0,1,.33-.1l.67,0,.58,0a1.39,1.39,0,0,1,.34.06.4.4,0,0,1,.18.11.78.78,0,0,1,.11.18l1.14,2.49.32.76c.11.27.22.54.33.84h0c.1-.29.2-.56.3-.83s.21-.51.3-.75l1.12-2.48a.75.75,0,0,1,.1-.2.37.37,0,0,1,.17-.12,1.22,1.22,0,0,1,.32-.06l.54,0,.7,0a.58.58,0,0,1,.33.1.22.22,0,0,1,0,.25,3,3,0,0,1-.18.45Z"/><path id="_2-4" data-name="2" class="cls-4" d="M93.47,111a6.78,6.78,0,0,1-.37,2.39,3.92,3.92,0,0,1-2.7,2.53,7.92,7.92,0,0,1-2.32.3H85.67a.61.61,0,0,1-.44-.16.6.6,0,0,1-.18-.49v-8.83a.62.62,0,0,1,.18-.5.65.65,0,0,1,.44-.15h2.59a7.33,7.33,0,0,1,2.3.32,4.18,4.18,0,0,1,1.59.93,4,4,0,0,1,1,1.54,6.28,6.28,0,0,1,.34,2.12Zm-2.14.08a5.18,5.18,0,0,0-.16-1.34,2.92,2.92,0,0,0-.54-1.07,2.56,2.56,0,0,0-1-.71,3.85,3.85,0,0,0-1.53-.25h-1v6.87h1.07a4,4,0,0,0,1.42-.22,2.33,2.33,0,0,0,1-.66,3,3,0,0,0,.57-1.09A5.43,5.43,0,0,0,91.33,111.09Z"/><path id="_3-4" data-name="3" class="cls-4" d="M101.15,115.42a3.79,3.79,0,0,1,0,.38.83.83,0,0,1-.06.25.28.28,0,0,1-.1.13.21.21,0,0,1-.13,0H95.76a.59.59,0,0,1-.61-.65v-8.83a.62.62,0,0,1,.18-.5.64.64,0,0,1,.43-.15h5.06a.17.17,0,0,1,.12,0,.32.32,0,0,1,.1.14,2.33,2.33,0,0,1,.06.25,3.84,3.84,0,0,1,0,.39c0,.14,0,.27,0,.37a2.33,2.33,0,0,1-.06.25.39.39,0,0,1-.1.14.17.17,0,0,1-.12,0H97.21v2.47h3a.2.2,0,0,1,.13,0,.34.34,0,0,1,.1.13,1.85,1.85,0,0,1,.06.25c0,.1,0,.22,0,.36s0,.28,0,.38a2.08,2.08,0,0,1-.06.24.34.34,0,0,1-.1.13.28.28,0,0,1-.13,0h-3v2.85h3.63a.2.2,0,0,1,.13,0,.39.39,0,0,1,.1.14.76.76,0,0,1,.06.25A3.79,3.79,0,0,1,101.15,115.42Z"/><path id="_4-4" data-name="4" class="cls-4" d="M110.49,116a.33.33,0,0,1,0,.15.27.27,0,0,1-.14.1,2.06,2.06,0,0,1-.35,0l-.61,0-.53,0a1.13,1.13,0,0,1-.31-.06.33.33,0,0,1-.16-.11,1.19,1.19,0,0,1-.08-.16l-.91-2.27c-.11-.25-.22-.48-.32-.68a1.93,1.93,0,0,0-.35-.5,1.37,1.37,0,0,0-.45-.3,1.45,1.45,0,0,0-.57-.1H105V116a.19.19,0,0,1-.05.14.38.38,0,0,1-.17.1,1.54,1.54,0,0,1-.31.06,3.43,3.43,0,0,1-.5,0,3.38,3.38,0,0,1-.49,0,1.67,1.67,0,0,1-.32-.06.34.34,0,0,1-.16-.1A.24.24,0,0,1,103,116v-9.2a.57.57,0,0,1,.61-.65h2.62l.66,0,.47,0a4.55,4.55,0,0,1,1.1.3,2.86,2.86,0,0,1,.83.55,2.45,2.45,0,0,1,.52.81,2.91,2.91,0,0,1,.18,1.06,3.37,3.37,0,0,1-.13.93,2.65,2.65,0,0,1-.38.75,2.82,2.82,0,0,1-.62.57,3.6,3.6,0,0,1-.84.39,2.73,2.73,0,0,1,.43.26,2.23,2.23,0,0,1,.37.38,4.1,4.1,0,0,1,.34.51c.1.19.2.41.3.65l.86,2a2.84,2.84,0,0,1,.15.44.76.76,0,0,1,.05.21Zm-2.66-6.87a1.52,1.52,0,0,0-.23-.85,1.21,1.21,0,0,0-.75-.48l-.35-.07-.56,0H105v2.87h1.05a2.55,2.55,0,0,0,.77-.11,1.53,1.53,0,0,0,.55-.3,1.25,1.25,0,0,0,.33-.45A1.63,1.63,0,0,0,107.83,109.09Z"/><path id="_5-4" data-name="5" class="cls-4" d="M120.28,115.46a2.56,2.56,0,0,1,.12.45.26.26,0,0,1-.06.25.62.62,0,0,1-.31.1l-.6,0-.62,0a1.37,1.37,0,0,1-.34,0,.34.34,0,0,1-.16-.1.38.38,0,0,1-.08-.17l-.67-2h-3.82l-.64,2a.49.49,0,0,1-.08.18.34.34,0,0,1-.16.12,1.14,1.14,0,0,1-.32.06l-.55,0a4.07,4.07,0,0,1-.56,0,.39.39,0,0,1-.28-.11.35.35,0,0,1-.06-.26,3.87,3.87,0,0,1,.12-.44l3.12-9a.9.9,0,0,1,.11-.22.43.43,0,0,1,.2-.12,1.59,1.59,0,0,1,.38-.06h1.38a1.9,1.9,0,0,1,.42.06.39.39,0,0,1,.22.13.82.82,0,0,1,.11.23ZM115.64,108h0l-1.41,4.3h2.84Z"/><path id="_6-2" data-name="6" class="cls-4" d="M129,113.19a3.36,3.36,0,0,1-.14,1,2.57,2.57,0,0,1-1,1.35,3.15,3.15,0,0,1-.8.4,4.52,4.52,0,0,1-.93.23,7.51,7.51,0,0,1-1.11.08h-2.69a.59.59,0,0,1-.61-.65v-8.83a.62.62,0,0,1,.18-.5.64.64,0,0,1,.43-.15h2.54a6.43,6.43,0,0,1,1.57.16,3.1,3.1,0,0,1,1.09.47,2.07,2.07,0,0,1,.67.8,2.67,2.67,0,0,1,.14,1.83,1.88,1.88,0,0,1-.27.59,2,2,0,0,1-.44.47,2.05,2.05,0,0,1-.6.33,3,3,0,0,1,.8.28,2.36,2.36,0,0,1,.63.5,2.51,2.51,0,0,1,.43.73,2.67,2.67,0,0,1,.15.93Zm-2.65-4.27a1.63,1.63,0,0,0-.1-.55.94.94,0,0,0-.28-.4,1.24,1.24,0,0,0-.47-.25,3,3,0,0,0-.76-.08h-1v2.63h1.15a2,2,0,0,0,.71-.11,1.35,1.35,0,0,0,.44-.29,1.18,1.18,0,0,0,.26-.43A1.5,1.5,0,0,0,126.37,108.92Zm.52,4.34a1.81,1.81,0,0,0-.11-.63,1.23,1.23,0,0,0-.35-.46,1.51,1.51,0,0,0-.58-.3,3.64,3.64,0,0,0-.91-.1h-1.22v2.89h1.49a2.53,2.53,0,0,0,.72-.09,1.47,1.47,0,0,0,.51-.27,1.22,1.22,0,0,0,.33-.44A1.4,1.4,0,0,0,126.89,113.26Z"/><path id="_7-2" data-name="7" class="cls-4" d="M138.82,115.46a3.93,3.93,0,0,1,.12.45.32.32,0,0,1-.06.25.62.62,0,0,1-.31.1l-.6,0-.62,0a1.46,1.46,0,0,1-.35,0,.4.4,0,0,1-.16-.1.54.54,0,0,1-.08-.17l-.66-2h-3.82l-.64,2a.75.75,0,0,1-.08.18.34.34,0,0,1-.16.12,1.22,1.22,0,0,1-.32.06l-.55,0a4,4,0,0,1-.56,0,.39.39,0,0,1-.28-.11.31.31,0,0,1-.06-.26,3.87,3.87,0,0,1,.12-.44l3.12-9a.65.65,0,0,1,.11-.22.38.38,0,0,1,.2-.12,1.5,1.5,0,0,1,.38-.06h1.37a1.91,1.91,0,0,1,.43.06.43.43,0,0,1,.22.13.82.82,0,0,1,.11.23l3.13,9ZM134.17,108h0l-1.41,4.3h2.84Z"/><path id="_8-2" data-name="8" class="cls-4" d="M148.65,111a7,7,0,0,1-.36,2.39,4,4,0,0,1-1.05,1.61,4,4,0,0,1-1.65.92,7.92,7.92,0,0,1-2.32.3h-2.42a.59.59,0,0,1-.43-.16.6.6,0,0,1-.18-.49v-8.83a.57.57,0,0,1,.61-.65h2.6a7.22,7.22,0,0,1,2.29.32,3.94,3.94,0,0,1,2.58,2.47A6.29,6.29,0,0,1,148.65,111Zm-2.13.08a4.78,4.78,0,0,0-.17-1.34,2.77,2.77,0,0,0-.54-1.07,2.45,2.45,0,0,0-.95-.71,3.88,3.88,0,0,0-1.53-.25h-1v6.87h1.07a4,4,0,0,0,1.43-.22,2.3,2.3,0,0,0,1-.66,2.84,2.84,0,0,0,.58-1.09,5.43,5.43,0,0,0,.19-1.53Z"/><path id="_9-2" data-name="9" class="cls-4" d="M160.34,115.39c0,.15,0,.28,0,.39a.83.83,0,0,1-.06.26.22.22,0,0,1-.1.14.24.24,0,0,1-.14,0h-5.83a1.23,1.23,0,0,1-.29,0,.57.57,0,0,1-.21-.13.52.52,0,0,1-.11-.26,2.45,2.45,0,0,1,0-.44,2.9,2.9,0,0,1,0-.45,1.14,1.14,0,0,1,.08-.33,3,3,0,0,1,.17-.28,2,2,0,0,1,.25-.3l1.76-1.87a9.09,9.09,0,0,0,.84-1,5.65,5.65,0,0,0,.5-.82,2.91,2.91,0,0,0,.25-.69,2.49,2.49,0,0,0,.07-.59,1.33,1.33,0,0,0-.09-.49,1,1,0,0,0-.24-.4,1.13,1.13,0,0,0-.4-.27,1.42,1.42,0,0,0-.57-.1,2.57,2.57,0,0,0-.82.12,4.81,4.81,0,0,0-.63.26l-.45.27a.56.56,0,0,1-.28.12.13.13,0,0,1-.12,0,.35.35,0,0,1-.08-.15,1.69,1.69,0,0,1-.05-.3,3,3,0,0,1,0-.45,2.63,2.63,0,0,1,0-.3,1.12,1.12,0,0,1,0-.21.44.44,0,0,1,.06-.16.76.76,0,0,1,.13-.16,2.72,2.72,0,0,1,.36-.24,4.07,4.07,0,0,1,.65-.28,6.15,6.15,0,0,1,.85-.23,4.87,4.87,0,0,1,1-.1,4.37,4.37,0,0,1,1.38.2,2.83,2.83,0,0,1,1,.56,2.22,2.22,0,0,1,.59.84,3.07,3.07,0,0,1,.19,1.06,4.56,4.56,0,0,1-.1,1,3.58,3.58,0,0,1-.39,1,8.17,8.17,0,0,1-.84,1.22,19.68,19.68,0,0,1-1.43,1.55L156,114.56h4a.24.24,0,0,1,.14,0,.42.42,0,0,1,.12.14.83.83,0,0,1,.06.26,2.09,2.09,0,0,1,0,.38Z"/><path id="_10-2" data-name="10" class="cls-4" d="M168.67,111.12a10.47,10.47,0,0,1-.2,2.19,4.85,4.85,0,0,1-.63,1.67,2.93,2.93,0,0,1-1.16,1,4.31,4.31,0,0,1-3.45,0,2.61,2.61,0,0,1-1.08-1,4.41,4.41,0,0,1-.56-1.63,13.15,13.15,0,0,1-.16-2.19,10.44,10.44,0,0,1,.2-2.18,4.66,4.66,0,0,1,.64-1.67,2.93,2.93,0,0,1,1.15-1.06,3.78,3.78,0,0,1,1.73-.37,3.65,3.65,0,0,1,1.72.36,2.74,2.74,0,0,1,1.09,1,4.66,4.66,0,0,1,.55,1.64,13,13,0,0,1,.16,2.18Zm-2.07.11c0-.48,0-.9,0-1.27a7.6,7.6,0,0,0-.12-1,3.08,3.08,0,0,0-.2-.68,1.27,1.27,0,0,0-.3-.45,1.15,1.15,0,0,0-.39-.24,1.53,1.53,0,0,0-.49-.07,1.25,1.25,0,0,0-.77.22,1.51,1.51,0,0,0-.48.67,4,4,0,0,0-.24,1.11,13.81,13.81,0,0,0-.08,1.54,14.63,14.63,0,0,0,.09,1.79,4.35,4.35,0,0,0,.27,1.13,1.18,1.18,0,0,0,.48.58,1.37,1.37,0,0,0,.7.17,1.33,1.33,0,0,0,.54-.1,1.18,1.18,0,0,0,.42-.29,1.76,1.76,0,0,0,.29-.49,3.8,3.8,0,0,0,.19-.69,5.61,5.61,0,0,0,.1-.89q0-.48,0-1.08Z"/><path id="_11-2" data-name="11" class="cls-4" d="M176.49,115.44a2.09,2.09,0,0,1,0,.38,1,1,0,0,1-.06.24.49.49,0,0,1-.1.13.28.28,0,0,1-.13,0h-5.6a.21.21,0,0,1-.11,0,.34.34,0,0,1-.1-.13,1,1,0,0,1-.07-.24c0-.11,0-.23,0-.38a2.24,2.24,0,0,1,0-.38.7.7,0,0,1,.06-.24.39.39,0,0,1,.1-.14.19.19,0,0,1,.12,0h1.89v-6.58l-1.62.89a1.08,1.08,0,0,1-.29.11.21.21,0,0,1-.19,0,.38.38,0,0,1-.08-.23,2.69,2.69,0,0,1,0-.46c0-.13,0-.23,0-.31a1.12,1.12,0,0,1,0-.21.42.42,0,0,1,.09-.14l.14-.12,2.18-1.4.09,0a.53.53,0,0,1,.16,0h1.12a.93.93,0,0,1,.28,0,.22.22,0,0,1,.12.07.21.21,0,0,1,0,.12v8.36h1.65a.2.2,0,0,1,.13,0,.39.39,0,0,1,.1.14,1,1,0,0,1,.07.24c0,.11,0,.24,0,.38Z"/><path id="_12-2" data-name="12" class="cls-4" d="M184.7,107c0,.16,0,.29,0,.4a2.51,2.51,0,0,1-.05.31,1.27,1.27,0,0,1-.07.28l-.11.27L181.13,116a.43.43,0,0,1-.12.17.69.69,0,0,1-.21.1,1.51,1.51,0,0,1-.34,0l-.51,0a5.74,5.74,0,0,1-.66,0,1,1,0,0,1-.35-.09q-.12-.06-.12-.15a.4.4,0,0,1,.05-.22l3.57-7.91h-4.25c-.11,0-.19-.07-.25-.21a2.31,2.31,0,0,1-.08-.69c0-.15,0-.29,0-.4a1.63,1.63,0,0,1,.07-.28.36.36,0,0,1,.1-.15.24.24,0,0,1,.14,0h6a.71.71,0,0,1,.23,0,.23.23,0,0,1,.15.12.71.71,0,0,1,.09.26,3,3,0,0,1,0,.45Z"/><path class="cls-4" d="M33,110.18h.12v-.55h.11v-.33h.11v-.11h.11V109h.11v-.11h.11v-.11h.11v-.11h.11v-.11h.23v-.11h.22v-.11h.33v-.12h1.11v.12h.34v.11h.22v.11h.11v.11h.22v.11h.11v.11h.11V109H37v.23h.11v.22h.11v.22h.11V111H37.2v.34h-.11v.22H37v.11h-.12v.11h-.11v.11h-.11V112h-.11v.11h-.11v.12H36.2v.11H36v.11h-.44v.11h-.67v-.11h-.44v-.11H34.2v-.11H34v-.12h-.12V112h-.11v-.11h-.11v-.11h-.11v-.11h-.11v-.11h-.11v-.22H33.2v-.23h-.11v-.66H33ZM42.2,86.07h-.11v.56H42V87h-.11v.33h-.12v.23h-.11v.33h-.11v.22h-.11v.11h-.11v.22H41.2v.23h-.11v.11H41V89h-.12v.11h-.11v.11h-.11v.23h-.11v.11h-.11v.11h-.11v.11H40.2v.11h-.11V90H40v.11h-.12v.11h-.11v.11h-.11v.11h-.22v.12h-.11v.11H39.2v.11H39v.11h-.11V91h-.22v.11h-.11v.11h-.22v.11h-.22v.11h-.23v.12h-.22v.11h-.33v.11H37v.11h-.34V92h-.55v.11h-14v.11h-1v.11h-.55v.12h-.45v.11h-.33v.11h-.22v.11h-.22v.11h-.22V93h-.23v.11h-.22v.11h-.11v.11h-.22v.12H18.2v.11h-.12v.11H18v.11h-.11v.11h-.11V94h-.11v.11h-.11v.11h-.11v.11h-.11v.23H17.2v.11h-.12v.22H17V95h-.11v.22h-.11v.23h-.11v.22h-.11V96h-.11v.33h-.11v.45h-.12v.44h-.11V98H16v5.89h.11v3.89h.11v3h.12v.44h.11v.34h.11v.22h.11V112h.11v.23h.11v.22H17v.11h.11v.11h.12v.22h.11V113h.11v.11h.11v.12h.11v.11h.11v.11h.11v.11h.22v.11h.12v.11h.11v.11h.11V114h.22v.11h.11v.12H19v.11h.23v.11h.11v.11h.22v.11h.22v.11H20v.11h.34V115h.22v.11h.22v.12h.33v.11h.34v.11h.33v.11h.45v.11h.33v.11h.56v.11h.55V116h.56v.11H25v.12H26.2v.11h4.33v-.11h1.22v-.12h.89V116h.67v-.11h.55v-.11h.56v-.11h.44v-.11h.34v-.11h.44v-.11H36v-.11h.34v-.12h.22V115h.33v-.11h.23v-.11h.22v-.11h.22v-.11h.22v-.11H38v-.11h.11v-.11h.22v-.12h.11V114h.22v-.11h.11v-.11h.11v-.11H39v-.11h.12v-.11h.11v-.11h.11v-.11h.11v-.12h.11V113h.11v-.11h.11v-.22h.11v-.11H40v-.22h.11v-.23h.11v-.33h.11v-.33h.11V105H28.31v-1.78H46.86v-.11h.56V103h.45v-.11h.33v-.11h.22v-.11h.22v-.11h.23v-.11h.22v-.12h.22v-.11h.22v-.11h.11V102h.23v-.11H50v-.11h.11v-.11h.11v-.11h.22v-.11h.11v-.11h.11v-.12h.11v-.11h.12V101H51v-.11h.11v-.22h.11v-.11h.11v-.11h.11v-.11h.11v-.23h.11V100h.11v-.22h.12v-.11H52v-.22h.11v-.23h.11V99h.11v-.22h.11v-.22h.11v-.23h.11V98h.11v-.22h.12v-.33H53v-.34h.11v-.44h.11v-.45h.11v-.55h.11v-.56h.11v-.78h.11V93.18h.11v-4h-.11V88h-.11v-.78h-.11v-.66h-.11V86H53.2v-.44h-.11v-.45H53v-.33h-.11v-.45h-.12v-.22h-.11v-.33h-.11V83.4h-.11v-.22h-.11V83H52.2v-.22h-.11v-.22H52v-.23h-.11v-.22h-.12V82h-.11v-.22h-.11v-.11h-.11V81.4h-.11v-.11H51.2v-.11h-.11V81H51v-.11h-.11v-.11h-.12v-.11h-.11v-.11h-.11V80.4h-.11v-.11h-.11v-.11H50.2v-.11H50V80h-.11v-.11h-.12v-.11h-.22v-.11h-.11v-.12H49.2V79.4H49v-.11h-.23v-.11h-.22v-.11H48.2V79h-.33v-.11h-.45v-.11H42.2v7.33Z"/><path class="cls-2" d="M23.2,73.18v.11h-.11v.22H23v.23h-.11v.11h-.22V74h-.22v.11H22.2v.11h-.11v.11h-.34v.11h-.89v-.11h-.33v-.11H20.2v-.11h-.12V74h-.22v-.22h-.11v-.11h-.22v-.12h-.11v-.33h-.11V73H19.2v-.11h-.11V71.51h.11v-.33h.11V71h.11v-.11h.11v-.22h.11v-.12h.11V70.4H20v-.11h.23v-.11h.22v-.11h.11V70h.55v-.11h.45V70H22v.11h.34v.11h.22v.22h.22v.11h.11v.12H23v.22h.23v.33h.11v.11h.11v.33h.11v1h-.11v.22h-.11v.33Zm2.22-6.89v.11H24.31v.11h-.78v.12H23v.11h-.55v.11h-.56V67h-.44v.11h-.34v.11h-.33v.11h-.33v.11h-.34v.11h-.22v.11h-.44v.12H19.2v.11H19V68h-.22v.11h-.11v.11h-.11v.11H18.2v.22h-.34v.23h-.11v.11h-.22V69h-.11v.11h-.11v.11H17.2v.11h-.12v.11H17v.23h-.22V70h-.22v.22h-.11v.22h-.11v.45h-.12v.55h-.11v6.12H28.2v1.77H10.08v.11H9.31v.11H8.86v.12H8.53v.11H8.08v.11H8V80H7.75v.11H7.53v.11H7.31v.11H7v.23H6.64v.22H6.42v.11H6.31V81H6.08v.11H6v.11H5.86v.22H5.64v.12H5.53v.11H5.42v.22H5.31V82H5.19v.22H5v.34H4.75v.33H4.53v.22H4.42v.33H4.31v.23H4.19v.22H4.08V84H4v.22H3.86v.45H3.75V85H3.64v.33H3.53v.34H3.42v.44H3.31v.45H3.19v.55H3.08v.67H3v.89H2.86V90.4H2.75v1.67h.11V94H3v.89h.11v.78h.11v.55h.12v.56h.11v.44h.11v.45h.11V98h.11v.33h.11v.45H4v.11h.11v.22h.11v.45h.12v.22h.11V100h.11v.11h.11v.11h.11v.34h.11v.11H5v.11h.11V101h.11v.22h.23v.23h.11v.11h.11v.11h.11v.22h.11V102H6v.11h.22v.11h.12v.11h.11v.12h.22v.22h.22v.11H7v.11h.34V103h.11v.11h.11v.11H8v.12H8.2v.11h.33v.11h.22v.11h.56v.11H14.2V96.41h.11v-.56h.11v-.33h.11v-.34h.11v-.33h.11v-.22h.11v-.22H15v-.23h.11v-.11h.12V94h.11v-.33h.22v-.22h.11v-.23h.22v-.11H16v-.22h.11v-.11h.11v-.11h.12v-.11h.11v-.11h.11v-.12h.11v-.11h.11v-.11H17v-.22h.11v-.11h.34v-.22h.22V91.4h.11v-.11h.33v-.11h.23v-.11h.22V91h.22v-.11h.11v-.11h.45v-.11h.22v-.11h.33V90.4h.56v-.11H34.53v-.11h.89v-.11H36V90h.45v-.11h.22v-.11h.45v-.11h.11v-.11h.22v-.11h.33v-.12h.11v-.11h.23V89h.22v-.11h.11v-.11h.22v-.11h.11V88.4h.11v-.11H39v-.22h.12V88h.11v-.11h.11v-.22h.11v-.11h.11V87.4h.11v-.22h.11v-.44h.11v-.22H40v-.34h.11v-.44h.11v-.45h.11v-.77h.11v-6h-.11V74.63H40.2V71.74h-.11v-.45H40V71h-.12v-.22h-.11v-.23h-.11v-.33h-.11v-.11h-.11v-.22H39.2v-.22h-.11v-.12H39V69.4h-.11v-.11h-.11v-.11h-.11v-.11h-.11V69h-.22v-.22h-.22v-.12h-.23V68.4h-.33v-.22h-.22v-.11H37V68h-.23v-.11h-.22v-.11h-.22v-.12H36.2v-.11h-.45V67.4h-.11v-.11H35.2v-.11h-.34v-.11h-.33V67h-.44v-.11h-.45v-.11h-.55v-.11h-.56v-.12h-.67V66.4h-1v-.11H29.09v-.11H27.31v.11Z"/></g></g></g></svg>