<svg width="1800" height="1800" viewBox="0 0 1800 1800" fill="none" xmlns="http://www.w3.org/2000/svg">
<rect width="1800" height="1800" fill="#011F37"/>
<path d="M1106.61 1475.03L1141.54 1404.83L1098.76 1317.87H1132.28L1150.79 1356.28C1152.42 1359.77 1153.82 1362.98 1154.98 1365.89C1156.26 1368.68 1157.31 1371.42 1158.13 1374.09C1159.06 1371.42 1160.16 1368.68 1161.45 1365.89C1162.73 1362.98 1164.24 1359.77 1165.99 1356.28L1184.84 1317.87H1217.15L1139.27 1475.03H1106.61Z" fill="url(#paint0_linear_1054_106)"/>
<path d="M985.305 1422.64V1265.48H1032.8C1043.75 1265.48 1053 1267.11 1060.57 1270.37C1068.25 1273.63 1074.42 1277.94 1079.08 1283.29C1083.73 1288.53 1087.11 1294.29 1089.21 1300.58C1091.42 1306.75 1092.52 1312.86 1092.52 1318.92C1092.52 1324.85 1091.48 1330.96 1089.38 1337.25C1087.28 1343.42 1083.85 1349.18 1079.08 1354.54C1074.42 1359.78 1068.31 1364.03 1060.74 1367.29C1053.17 1370.55 1043.86 1372.18 1032.8 1372.18H1015.69V1422.64H985.305ZM1015.69 1344.93H1031.06C1038.51 1344.93 1044.39 1343.65 1048.69 1341.09C1053.12 1338.41 1056.26 1335.1 1058.12 1331.14C1060.1 1327.18 1061.09 1323.11 1061.09 1318.92C1061.09 1314.84 1060.16 1310.82 1058.3 1306.87C1056.43 1302.79 1053.29 1299.42 1048.87 1296.74C1044.56 1294.06 1038.62 1292.72 1031.06 1292.72H1015.69V1344.93Z" fill="url(#paint1_linear_1054_106)"/>
<path d="M898.222 1425.43C890.887 1425.43 884.019 1424.03 877.616 1421.24C871.33 1418.33 865.8 1414.37 861.027 1409.37C856.254 1404.24 852.47 1398.37 849.676 1391.73C846.999 1384.98 845.66 1377.82 845.66 1370.25C845.66 1362.68 846.999 1355.58 849.676 1348.95C852.47 1342.2 856.254 1336.32 861.027 1331.31C865.8 1326.19 871.33 1322.23 877.616 1319.44C884.019 1316.53 890.887 1315.07 898.222 1315.07C903.81 1315.07 908.99 1315.89 913.763 1317.51C918.536 1319.14 922.843 1321.47 926.685 1324.5V1255H957.07V1422.64H930.876V1412.34C926.918 1416.41 922.145 1419.61 916.557 1421.94C910.969 1424.27 904.857 1425.43 898.222 1425.43ZM901.714 1398.71C906.836 1398.71 911.493 1397.43 915.684 1394.87C919.875 1392.31 923.193 1388.88 925.637 1384.57C928.199 1380.26 929.479 1375.49 929.479 1370.25C929.479 1365.01 928.199 1360.24 925.637 1355.93C923.193 1351.62 919.875 1348.19 915.684 1345.63C911.493 1343.07 906.836 1341.79 901.714 1341.79C896.592 1341.79 891.935 1343.07 887.744 1345.63C883.553 1348.19 880.177 1351.62 877.616 1355.93C875.171 1360.24 873.949 1365.01 873.949 1370.25C873.949 1375.49 875.171 1380.26 877.616 1384.57C880.177 1388.88 883.553 1392.31 887.744 1394.87C891.935 1397.43 896.592 1398.71 901.714 1398.71Z" fill="url(#paint2_linear_1054_106)"/>
<path d="M732.864 1475.03L767.788 1404.83L725.006 1317.87H758.533L777.043 1356.28C778.673 1359.77 780.07 1362.98 781.234 1365.89C782.515 1368.68 783.563 1371.42 784.378 1374.09C785.309 1371.42 786.415 1368.68 787.695 1365.89C788.976 1362.98 790.489 1359.77 792.236 1356.28L811.095 1317.87H843.4L765.518 1475.03H732.864Z" fill="url(#paint3_linear_1054_106)"/>
<path d="M600.998 1422.64V1265.48H631.382V1315.77H676.784V1265.48H707.169V1422.64H676.784V1344.06H631.382V1422.64H600.998Z" fill="url(#paint4_linear_1054_106)"/>
<path d="M763.67 609C768.48 609.041 773.303 609.363 778.199 609.672C783.074 609.979 788.016 610.273 792.956 610.239H792.96C881.441 609.447 969.921 609.842 1058.42 609.975H1058.43C1062.33 609.975 1066.28 610.481 1070.19 611.134C1075.98 612.19 1080.38 614.634 1083.42 618.314C1086.37 621.894 1088.17 626.818 1088.54 633.2L1088.57 633.822C1089 647.606 1088.62 661.234 1088.76 675.229L1088.8 678.034C1088.82 679.977 1088.55 681.141 1088.21 681.833C1087.91 682.459 1087.53 682.768 1087.06 682.966C1086.52 683.195 1085.79 683.304 1084.78 683.323C1084.29 683.333 1083.77 683.321 1083.21 683.305C1082.67 683.289 1082.07 683.27 1081.48 683.27H728.9C726.167 683.27 724.31 683.266 722.96 683.094C721.625 682.924 721.221 682.633 721.034 682.419C720.797 682.147 720.505 681.537 720.346 679.893C720.19 678.284 720.188 676.096 720.188 672.981C720.188 660.38 719.954 647.764 720.303 635.249V635.246C720.47 628.911 721.826 625.03 724.168 622.13C726.572 619.153 730.196 616.967 735.479 614.397C744.697 609.962 754.074 608.919 763.67 609Z" fill="url(#paint5_radial_1054_106)" stroke="#FFDE57" stroke-width="4"/>
<path d="M668.021 780.996C681.537 780.996 694.988 781.128 708.543 780.996C709.793 780.997 710.735 781.085 711.412 781.252C712.101 781.422 712.306 781.62 712.35 781.674C712.35 781.674 712.474 781.789 712.409 782.325C712.339 782.908 712.059 783.798 711.398 785.091C707.801 792.042 707.566 799.496 707.566 806.621V806.624C707.631 851.033 707.631 895.443 707.631 939.838C707.631 984.232 707.631 1028.61 707.695 1072.96C707.695 1089.76 707.402 1108.48 707.109 1127.32C706.817 1146.14 706.524 1165.08 706.525 1182.28C706.525 1183.91 705.143 1185.29 703.444 1185.29H636.909C635.199 1185.29 633.893 1183.98 633.894 1182.37C633.912 1113.68 634.271 880.668 633.894 819.562V819.554L633.863 817.471C633.663 806.816 632.624 792.709 626.987 782.373C626.856 782.132 626.85 781.794 627.01 781.491C627.161 781.204 627.355 781.128 627.507 781.128H627.526C641.062 780.996 654.471 780.996 668.021 780.996Z" fill="url(#paint6_radial_1054_106)" stroke="#FFDE57" stroke-width="4"/>
<path d="M1176.09 781.317C1177.28 781.317 1177.96 781.478 1178.32 781.639C1178.62 781.772 1178.64 781.87 1178.64 781.881C1178.67 781.964 1178.73 782.232 1178.6 782.812C1178.48 783.38 1178.21 784.092 1177.79 784.949L1177.79 784.959L1177.78 784.968C1172.78 795.517 1172.54 806.568 1172.54 817.436C1172.54 849.374 1172.33 925.572 1172.12 1001.94C1171.92 1076.79 1171.71 1151.8 1171.71 1185.46H1096.92C1096.87 1151.75 1097.06 1059.66 1097.27 975.242C1097.37 932.169 1097.48 891.092 1097.56 860.783C1097.61 845.629 1097.64 833.167 1097.67 824.493C1097.68 820.156 1097.69 816.766 1097.69 814.461C1097.7 813.308 1097.7 812.427 1097.7 811.833C1097.7 811.536 1097.7 811.312 1097.7 811.161C1097.7 811.116 1097.7 811.077 1097.7 811.045C1097.71 810.986 1097.71 810.929 1097.71 810.886C1097.72 810.776 1097.72 810.629 1097.73 810.458C1097.73 810.11 1097.74 809.604 1097.75 808.963C1097.76 807.678 1097.77 805.821 1097.78 803.527C1097.8 798.938 1097.81 792.586 1097.81 785.529C1097.81 784.15 1097.81 782.743 1097.81 781.317H1176.09ZM1093.71 784.868C1093.67 784.8 1093.64 784.73 1093.61 784.662H1093.61C1092.54 782.531 1092.85 781.916 1092.86 781.892C1092.87 781.881 1092.96 781.731 1093.43 781.58C1093.52 781.553 1093.61 781.529 1093.71 781.505C1093.71 782.605 1093.71 783.726 1093.71 784.868Z" fill="url(#paint7_radial_1054_106)" stroke="#FFDE57" stroke-width="4"/>
<path d="M609.519 700.498H609.535C629.036 700.763 648.546 700.631 668.011 700.631C687.217 700.631 706.469 700.763 725.583 700.498V700.499L725.597 700.498C728.708 700.434 730.299 700.95 731.165 701.77C732.004 702.563 732.648 704.111 732.588 707.439C732.2 723.737 732.33 740.026 732.588 756.424V756.431C732.65 759.635 732.143 761.309 731.336 762.216C730.585 763.06 729.138 763.707 725.982 763.645H725.956C686.98 763.38 648.006 763.511 608.915 763.644C606.134 763.643 604.838 763.145 604.169 762.478C603.51 761.82 602.984 760.519 603.046 757.624V757.612C603.304 740.673 603.304 723.734 603.046 706.795V706.787L603.042 706.219C603.062 703.481 603.644 702.241 604.334 701.608C605.113 700.894 606.576 700.434 609.519 700.498Z" fill="url(#paint8_radial_1054_106)" stroke="#FFDE57" stroke-width="4"/>
<path d="M1196.69 700.492C1199.44 700.492 1200.75 701.014 1201.43 701.699C1202.1 702.38 1202.62 703.697 1202.56 706.512L1202.56 706.524C1202.3 723.463 1202.3 740.402 1202.56 757.341L1202.56 757.35C1202.62 760.463 1201.99 761.837 1201.23 762.521C1200.43 763.248 1198.95 763.702 1196.09 763.639L1196.08 763.638H1196.07C1176.83 763.373 1157.58 763.506 1138.37 763.506C1118.9 763.506 1099.39 763.373 1079.89 763.638H1079.89L1079.88 763.639C1076.93 763.702 1075.56 763.161 1074.86 762.432C1074.14 761.679 1073.6 760.206 1073.66 757.086L1073.66 757.085C1074.05 740.526 1073.92 723.844 1073.66 707.185L1073.66 707.174L1073.66 706.633C1073.65 704.012 1074.07 702.637 1074.72 701.87C1075.35 701.13 1076.62 700.493 1079.66 700.492C1118.63 700.757 1157.6 700.624 1196.69 700.492Z" fill="url(#paint9_radial_1054_106)" stroke="#FFDE57" stroke-width="4"/>
<path d="M1191.7 540.429C1195.18 540.364 1197.11 540.864 1198.17 541.801C1199.15 542.66 1199.9 544.348 1199.72 548.11C1199.07 561.002 1199.2 574.015 1199.33 586.826V586.847C1199.39 589.813 1198.8 591.318 1197.98 592.134C1197.16 592.958 1195.66 593.529 1192.82 593.529C1155.01 593.397 1117.34 593.397 1079.53 593.529C1076.88 593.529 1075.56 592.991 1074.85 592.266C1074.14 591.538 1073.6 590.164 1073.66 587.379V587.373C1073.89 575.554 1073.92 563.735 1073.75 551.916L1073.66 546.851L1073.66 546.291C1073.68 543.595 1074.3 542.336 1075.05 541.67C1075.9 540.903 1077.43 540.431 1080.29 540.43C1099.14 540.694 1118 540.562 1136.82 540.562C1155.1 540.563 1173.35 540.826 1191.7 540.429Z" fill="url(#paint10_radial_1054_106)" stroke="#FFDE57" stroke-width="4"/>
<path d="M723.925 540.43C725.906 540.398 727.509 540.476 728.797 540.721C730.079 540.964 730.921 541.351 731.493 541.845C732.555 542.762 733.363 544.691 732.86 549.456V549.461C731.682 560.862 732.207 572.384 732.593 583.703V583.709C732.719 587.149 732.324 589.185 731.397 590.45C730.543 591.617 728.893 592.567 725.262 592.877C716.958 593.531 708.636 593.663 700.399 593.663H700.391C672.062 593.795 643.468 593.532 615.096 593.796H615.081C611.312 593.859 609.361 593.134 608.308 592.023C607.244 590.901 606.604 588.87 606.79 585.055L606.791 585.037V585.021C607.179 572.696 607.18 560.37 606.792 548.176C606.731 544.781 607.371 543.021 608.329 542.05C609.286 541.08 611.015 540.434 614.313 540.431C632.787 540.827 651.415 540.563 669.95 540.563C687.845 540.563 705.834 540.828 723.926 540.431L723.925 540.43Z" fill="url(#paint11_radial_1054_106)" stroke="#FFDE57" stroke-width="4"/>
<path d="M1138 610.357C1150.03 610.357 1161.98 610.225 1173.84 610.357H1173.86C1174.74 610.357 1175.61 610.405 1176.36 610.537C1177.15 610.673 1177.66 610.873 1177.95 611.073C1178.16 611.223 1178.21 611.327 1178.22 611.495C1178.25 611.773 1178.18 612.426 1177.53 613.609L1177.53 613.615L1177.52 613.622C1173.52 621.065 1172.29 628.739 1172.01 636.321C1171.87 640.105 1171.97 643.896 1172.08 647.622C1172.19 651.368 1172.32 655.039 1172.25 658.682V658.688C1172.15 665.348 1172.1 670.177 1171.68 673.768C1171.26 677.378 1170.51 679.294 1169.38 680.454C1168.27 681.598 1166.45 682.354 1162.97 682.752C1159.5 683.149 1154.82 683.152 1148.32 683.152C1134.93 683.152 1121.34 683.02 1107.91 683.152H1107.88C1105.36 683.214 1104.15 682.723 1103.52 682.1C1102.9 681.476 1102.39 680.252 1102.45 677.664L1102.45 677.652V677.641C1102.51 671.937 1102.48 666.237 1102.45 660.572C1102.42 654.903 1102.38 649.271 1102.45 643.675C1102.58 633.769 1102.35 623.664 1097.33 614.06C1096.59 612.6 1096.43 611.754 1096.45 611.332C1096.46 611.054 1096.53 611.004 1096.64 610.928C1096.87 610.769 1097.34 610.591 1098.18 610.481C1098.99 610.376 1099.94 610.357 1100.97 610.357H1138Z" fill="url(#paint12_radial_1054_106)" stroke="#FFDE57" stroke-width="4"/>
<path d="M672.142 610.357C684.172 610.357 696.131 610.225 708.117 610.357H708.14C708.982 610.357 709.774 610.351 710.511 610.416C711.272 610.483 711.733 610.611 711.971 610.74C712.097 610.809 712.046 610.79 712.049 610.812C712.071 611.006 712.03 611.616 711.391 612.866C707.343 620.549 705.988 628.495 705.594 636.395C705.397 640.343 705.438 644.305 705.511 648.219C705.584 652.152 705.688 656.019 705.624 659.873V659.886C705.559 666.246 705.516 670.853 705.126 674.274C704.733 677.717 704.024 679.521 702.976 680.606C701.944 681.674 700.247 682.392 696.962 682.771C693.683 683.149 689.256 683.152 683.108 683.152C670.61 683.152 657.774 682.49 645.166 683.421C640.57 683.739 638.407 682.876 637.302 681.598C636.116 680.225 635.562 677.746 635.817 673.372L635.818 673.369C636.145 667.616 636.143 661.877 636.095 656.188C636.046 650.481 635.95 644.843 636.078 639.2H636.079V639.188C636.21 631.287 635.569 623.232 631.87 615.794V615.793L631.604 615.24C631.025 613.997 630.743 613.068 630.655 612.394C630.559 611.656 630.711 611.381 630.787 611.277C630.887 611.141 631.165 610.888 631.942 610.679C632.719 610.47 633.802 610.357 635.24 610.357H672.142Z" fill="url(#paint13_radial_1054_106)" stroke="#FFDE57" stroke-width="4"/>
<path d="M667.39 436.142H667.391C691.966 435.888 715.221 454.124 722.348 478.843L722.349 478.844C722.844 480.557 723.102 481.915 723.14 482.978C723.177 484.036 722.991 484.647 722.758 485.016C722.342 485.671 721.12 486.465 717.24 486.335L717.223 486.334H717.205C700.8 486.069 684.226 486.334 667.757 486.334C651.006 486.334 634.203 486.202 617.421 486.334H617.4C613.892 486.398 612.727 485.643 612.307 484.996C612.072 484.635 611.882 484.052 611.889 483.068C611.895 482.08 612.099 480.813 612.527 479.214C619.267 454.667 642.509 436.397 667.39 436.142Z" fill="url(#paint14_radial_1054_106)" stroke="#FFDE57" stroke-width="4"/>
<path d="M1136.56 436.271C1161.34 436.398 1184.69 454.301 1191.29 478.157C1191.9 480.38 1192.23 482.004 1192.31 483.212C1192.38 484.418 1192.17 484.921 1191.99 485.164C1191.8 485.407 1191.38 485.756 1190.18 486.026C1188.98 486.298 1187.29 486.429 1184.93 486.462C1176.82 486.462 1168.73 486.429 1160.65 486.396C1152.55 486.363 1144.45 486.33 1136.32 486.33C1120.17 486.33 1103.95 486.462 1087.83 486.33H1087.83C1085.64 486.297 1084.08 486.167 1082.97 485.905C1081.88 485.646 1081.5 485.32 1081.34 485.101C1081.17 484.873 1080.97 484.392 1081.04 483.24C1081.1 482.086 1081.42 480.534 1081.99 478.41L1081.99 478.405C1088.34 454.681 1112.33 436.143 1136.56 436.271Z" fill="url(#paint15_radial_1054_106)" stroke="#FFDE57" stroke-width="4"/>
<path d="M642.919 503.424V503.425C661.802 503.955 680.677 503.69 699.504 503.426C702.167 503.427 703.453 503.867 704.154 504.522C704.837 505.161 705.427 506.444 705.488 509.398V509.405C705.586 513.454 705.662 516.327 705.498 518.449C705.332 520.602 704.942 521.517 704.5 521.997C704.08 522.453 703.277 522.879 701.269 523.113C699.271 523.346 696.54 523.35 692.65 523.35H692.632L692.613 523.351C685.41 523.482 677.992 523.35 670.458 523.35C661.546 523.35 652.482 522.952 643.375 523.485H643.369C639.389 523.729 637.774 522.733 636.969 521.549C636.001 520.126 635.685 517.766 635.813 514.193C635.885 512.365 635.859 510.963 635.954 509.432C636.045 507.981 636.233 506.85 636.605 505.979C636.949 505.173 637.453 504.577 638.293 504.151C639.193 503.695 640.623 503.363 642.919 503.424Z" fill="url(#paint16_radial_1054_106)" stroke="#FFDE57" stroke-width="4"/>
<path d="M1167.74 503.558C1169.64 503.498 1170.79 503.812 1171.49 504.205C1172.15 504.572 1172.56 505.094 1172.84 505.824C1173.14 506.607 1173.27 507.615 1173.3 508.862C1173.32 510.115 1173.23 511.413 1173.16 512.828C1173.09 514.258 1173.2 515.875 1173.25 517.182C1173.29 518.591 1173.27 519.754 1173.04 520.699C1172.82 521.585 1172.46 522.158 1171.88 522.554C1171.24 522.984 1170.09 523.38 1167.96 523.351H1167.93C1148.6 523.351 1129.09 523.219 1109.71 523.483H1109.71C1107.66 523.513 1106.41 523.177 1105.63 522.748C1104.91 522.347 1104.47 521.792 1104.17 521.036C1103.85 520.223 1103.7 519.176 1103.67 517.863C1103.63 516.531 1103.71 515.178 1103.74 513.634C1103.76 512.891 1103.75 512.138 1103.73 511.423C1103.72 510.694 1103.7 510.009 1103.7 509.337C1103.71 507.974 1103.8 506.875 1104.08 506.007C1104.34 505.202 1104.74 504.654 1105.39 504.268C1106.1 503.848 1107.32 503.499 1109.43 503.559H1109.43C1119.4 503.824 1129.3 503.559 1139.03 503.559C1148.54 503.559 1158.14 503.691 1167.7 503.559H1167.72L1167.74 503.558Z" fill="url(#paint17_radial_1054_106)" stroke="#FFDE57" stroke-width="4"/>
<path d="M843.778 570.053H852.273C854.983 570.053 856.869 570.255 858.205 570.719C859.435 571.145 860.169 571.779 860.677 572.786C861.24 573.905 861.593 575.629 861.645 578.351C861.696 581.046 861.452 584.514 860.983 588.993L860.982 589.007C860.754 591.35 860.218 592.109 859.932 592.363C859.666 592.598 859.234 592.752 858.072 592.752C855.533 592.752 852.536 592.623 849.648 592.752H845.085C842.802 592.752 841.36 592.745 840.336 592.562C839.432 592.401 839.214 592.167 839.063 591.926C838.795 591.495 838.533 590.61 838.396 588.647C838.265 586.744 838.264 584.176 838.264 580.609C838.264 577.513 838.275 575.273 838.398 573.609C838.526 571.893 838.759 571.119 838.98 570.749C839.094 570.56 839.235 570.384 839.907 570.245C840.714 570.078 841.878 570.053 843.778 570.053Z" fill="url(#paint18_radial_1054_106)" stroke="#FFDE57" stroke-width="4"/>
<path d="M786.03 569.891C788.17 569.891 789.505 569.898 790.451 570.066C791.276 570.213 791.448 570.42 791.567 570.609C791.804 570.985 792.053 571.786 792.191 573.617C792.292 574.947 792.326 576.627 792.346 578.791L792.361 581.121C792.361 584.549 792.36 587.013 792.232 588.839C792.1 590.726 791.847 591.559 791.598 591.955C791.466 592.164 791.271 592.386 790.396 592.54C789.404 592.715 788.006 592.723 785.785 592.723H777.781C775.433 592.723 773.728 592.386 772.492 591.783C771.313 591.208 770.455 590.339 769.849 589.016C768.541 586.161 768.402 581.228 769.63 573.079L769.632 573.066C769.888 571.287 770.333 570.657 770.58 570.426C770.798 570.222 771.128 570.074 771.945 570.019C773.392 569.956 774.847 569.957 776.352 569.957C777.836 569.957 779.371 569.956 780.913 569.891H786.03Z" fill="url(#paint19_radial_1054_106)" stroke="#FFDE57" stroke-width="4"/>
<path d="M823.71 569.932C824.365 569.867 824.784 569.854 825.1 569.909C825.344 569.952 825.437 570.019 825.522 570.123C825.649 570.277 825.898 570.705 826.034 571.75L826.035 571.759L826.037 571.769C826.532 575.307 827.083 579.077 827.151 582.649C827.22 586.243 826.789 589.359 825.527 591.679C825.006 592.615 824.484 592.98 824.043 593.153C823.544 593.349 822.904 593.396 822.013 593.296C821.011 593.184 820.261 592.983 819.032 592.784C818.07 592.629 816.877 592.497 815.693 592.755H810.211C808.117 592.755 806.823 592.738 805.918 592.562C805.149 592.413 804.982 592.213 804.855 591.999C804.612 591.589 804.372 590.743 804.247 588.878C804.126 587.071 804.125 584.639 804.125 581.272C804.125 577.938 804.126 575.541 804.248 573.766C804.374 571.933 804.615 571.121 804.852 570.734C804.974 570.534 805.147 570.327 805.955 570.169C806.887 569.986 808.206 569.957 810.325 569.923L810.324 569.922C814.164 569.921 817.852 569.793 821.506 570.05L821.531 570.052C822.304 570.096 823.165 569.985 823.71 569.932Z" fill="url(#paint20_radial_1054_106)" stroke="#FFDE57" stroke-width="4"/>
<path d="M927.089 570.025C927.718 570.001 928.089 570.098 928.311 570.206C928.509 570.303 928.703 570.463 928.895 570.795C929.318 571.527 929.627 572.904 929.664 575.326L929.668 575.825C929.606 581.565 929.684 585.402 929.594 588.175C929.549 589.542 929.465 590.514 929.329 591.22C929.192 591.929 929.031 592.204 928.949 592.308C928.868 592.409 928.619 592.696 926.571 592.729C925.622 592.743 924.501 592.711 923.042 592.689C921.618 592.668 919.945 592.66 917.995 592.727H914.024C911.742 592.727 910.3 592.719 909.277 592.536C908.375 592.375 908.163 592.143 908.018 591.907C907.753 591.48 907.497 590.597 907.372 588.633C907.251 586.73 907.265 584.161 907.285 580.595V580.583C907.285 577.451 907.291 575.194 907.409 573.521C907.531 571.79 907.758 571.028 907.971 570.673C908.069 570.509 908.191 570.338 908.875 570.204C909.694 570.043 910.87 570.026 912.8 570.026C917.458 570.026 922.298 570.159 927.067 570.026L927.078 570.025H927.089Z" fill="url(#paint21_radial_1054_106)" stroke="#FFDE57" stroke-width="4"/>
<path d="M1065.12 570.025C1065.75 570.001 1066.12 570.098 1066.34 570.206C1066.54 570.303 1066.73 570.463 1066.92 570.795C1067.34 571.527 1067.65 572.904 1067.69 575.326L1067.7 575.825C1067.63 581.565 1067.71 585.402 1067.62 588.175C1067.58 589.542 1067.49 590.514 1067.36 591.22C1067.22 591.929 1067.06 592.204 1066.98 592.308C1066.9 592.409 1066.65 592.696 1064.6 592.729C1063.65 592.743 1062.53 592.711 1061.07 592.689C1059.65 592.668 1057.97 592.66 1056.02 592.727H1052.05C1049.77 592.727 1048.33 592.719 1047.3 592.536C1046.4 592.375 1046.19 592.143 1046.04 591.907C1045.78 591.48 1045.52 590.597 1045.4 588.633C1045.28 586.73 1045.29 584.161 1045.31 580.595V580.583C1045.31 577.451 1045.32 575.194 1045.44 573.521C1045.56 571.79 1045.79 571.028 1046 570.673C1046.1 570.509 1046.22 570.338 1046.9 570.204C1047.72 570.043 1048.9 570.026 1050.83 570.026C1055.49 570.026 1060.32 570.159 1065.09 570.026L1065.11 570.025H1065.12Z" fill="url(#paint22_radial_1054_106)" stroke="#FFDE57" stroke-width="4"/>
<path d="M1029.1 570.025C1029.73 570.001 1030.1 570.098 1030.32 570.206C1030.52 570.303 1030.71 570.463 1030.91 570.795C1031.33 571.527 1031.64 572.904 1031.68 575.326L1031.68 575.825C1031.62 581.565 1031.7 585.402 1031.61 588.175C1031.56 589.542 1031.48 590.514 1031.34 591.22C1031.2 591.929 1031.04 592.204 1030.96 592.308C1030.88 592.409 1030.63 592.696 1028.58 592.729C1027.63 592.743 1026.51 592.711 1025.05 592.689C1023.63 592.668 1021.96 592.66 1020.01 592.727H1016.04C1013.75 592.727 1012.31 592.719 1011.29 592.536C1010.39 592.375 1010.17 592.143 1010.03 591.907C1009.76 591.48 1009.51 590.597 1009.38 588.633C1009.26 586.73 1009.28 584.161 1009.3 580.595V580.583C1009.3 577.451 1009.3 575.194 1009.42 573.521C1009.54 571.79 1009.77 571.028 1009.98 570.673C1010.08 570.509 1010.2 570.338 1010.89 570.204C1011.71 570.043 1012.88 570.026 1014.81 570.026C1019.47 570.026 1024.31 570.159 1029.08 570.026L1029.09 570.025H1029.1Z" fill="url(#paint23_radial_1054_106)" stroke="#FFDE57" stroke-width="4"/>
<path d="M892.698 570.024C893.296 570.001 893.649 570.104 893.865 570.218C894.068 570.325 894.279 570.508 894.487 570.882C894.93 571.677 895.237 573.11 895.273 575.472L895.276 575.957C895.256 581.541 895.322 585.35 895.208 588.062C895.151 589.407 895.054 590.373 894.905 591.078C894.757 591.784 894.585 592.089 894.478 592.224C894.349 592.385 894.037 592.677 892.109 592.73C891.203 592.756 890.123 592.732 888.735 592.711C887.382 592.691 885.796 592.676 883.958 592.726H881.676C879.083 592.726 877.255 592.478 875.954 591.972C874.745 591.501 873.966 590.799 873.424 589.696C872.836 588.502 872.473 586.723 872.419 584.035C872.366 581.368 872.619 577.981 873.126 573.68L873.127 573.669C873.354 571.651 873.811 570.81 874.133 570.465C874.372 570.208 874.72 570.026 875.55 570.026C881.202 570.026 886.923 570.158 892.667 570.025H892.683L892.698 570.024Z" fill="url(#paint24_radial_1054_106)" stroke="#FFDE57" stroke-width="4"/>
<path d="M739.645 570.053H755C755.524 570.053 755.84 570.144 756.038 570.245C756.222 570.339 756.41 570.492 756.604 570.8C756.992 571.42 757.325 572.534 757.509 574.449L757.578 575.32C757.824 580.093 757.991 583.595 757.912 586.217C757.832 588.9 757.494 590.284 757.016 591.058C756.642 591.662 756.04 592.12 754.517 592.407C752.9 592.712 750.643 592.752 747.322 592.752H745.607C743.079 592.752 741.277 592.477 739.987 591.939C738.778 591.436 737.967 590.683 737.4 589.517C736.796 588.271 736.424 586.455 736.373 583.785C736.322 581.131 736.588 577.791 737.135 573.598C737.397 571.597 737.88 570.795 738.2 570.475C738.453 570.222 738.817 570.053 739.645 570.053Z" fill="url(#paint25_radial_1054_106)" stroke="#FFDE57" stroke-width="4"/>
<path d="M953.398 570.242C960.345 570.242 963.43 571.438 964.857 573.697C965.613 574.893 966.08 576.635 966.134 579.25C966.188 581.86 965.829 585.164 965.096 589.343L965.093 589.354L965.091 589.366C964.855 590.811 964.477 591.521 964.148 591.866C963.887 592.141 963.484 592.367 962.615 592.367H951.822V592.597C946.777 592.359 943.842 590.665 942.33 588.015C940.595 584.974 940.328 580.037 942.197 572.773C942.503 571.596 942.893 571.087 943.19 570.841C943.48 570.602 943.914 570.42 944.715 570.369C947.623 570.242 950.433 570.242 953.398 570.242Z" fill="url(#paint26_radial_1054_106)" stroke="#FFDE57" stroke-width="4"/>
<path d="M986.615 569.891C989.183 569.891 991.012 570.174 992.321 570.726C993.55 571.243 994.376 572.016 994.95 573.216C995.563 574.495 995.933 576.354 995.976 579.074C996.018 581.778 995.736 585.176 995.169 589.436L995.168 589.445L995.167 589.454C994.976 590.996 994.662 591.781 994.397 592.146C994.238 592.367 994.104 592.458 993.722 592.458H984.942V592.651C983.499 592.503 982.335 592.124 981.403 591.57C980.201 590.855 979.253 589.771 978.578 588.212C977.182 584.984 977 579.801 978.45 572.371L978.449 572.37C978.702 571.087 979.03 570.542 979.236 570.317C979.377 570.165 979.55 570.054 979.986 570.018C982.194 569.891 984.332 569.891 986.615 569.891Z" fill="url(#paint27_radial_1054_106)" stroke="#FFDE57" stroke-width="4"/>
<path d="M843.778 700.697H852.273C854.983 700.697 856.869 700.9 858.205 701.363C859.435 701.79 860.169 702.424 860.677 703.431C861.24 704.55 861.593 706.273 861.645 708.995C861.696 711.691 861.452 715.159 860.983 719.638L860.982 719.651C860.754 721.995 860.218 722.754 859.932 723.008C859.666 723.243 859.234 723.396 858.072 723.396C855.533 723.396 852.536 723.268 849.648 723.396H845.085C842.802 723.396 841.36 723.39 840.336 723.207C839.432 723.046 839.214 722.812 839.063 722.57C838.795 722.14 838.533 721.255 838.396 719.292C838.265 717.389 838.264 714.82 838.264 711.254C838.264 708.158 838.275 705.918 838.398 704.254C838.526 702.537 838.759 701.763 838.98 701.394C839.094 701.204 839.235 701.029 839.907 700.89C840.714 700.723 841.878 700.697 843.778 700.697Z" fill="url(#paint28_radial_1054_106)" stroke="#FFDE57" stroke-width="4"/>
<path d="M786.03 700.535C788.17 700.535 789.505 700.543 790.451 700.711C791.276 700.858 791.448 701.064 791.567 701.254C791.804 701.63 792.053 702.43 792.191 704.262C792.292 705.591 792.326 707.272 792.346 709.436L792.361 711.766C792.361 715.193 792.36 717.658 792.232 719.483C792.1 721.371 791.847 722.204 791.598 722.6C791.466 722.809 791.271 723.03 790.396 723.185C789.404 723.36 788.006 723.367 785.785 723.367H777.781C775.433 723.367 773.728 723.031 772.492 722.428C771.313 721.852 770.455 720.983 769.849 719.66C768.541 716.806 768.402 711.873 769.63 703.724L769.632 703.711C769.888 701.932 770.333 701.301 770.58 701.07C770.798 700.866 771.128 700.719 771.945 700.663C773.392 700.601 774.847 700.602 776.352 700.602C777.836 700.602 779.371 700.601 780.913 700.535H786.03Z" fill="url(#paint29_radial_1054_106)" stroke="#FFDE57" stroke-width="4"/>
<path d="M823.71 700.57C824.365 700.506 824.784 700.492 825.1 700.548C825.344 700.591 825.437 700.658 825.522 700.762C825.649 700.916 825.898 701.344 826.034 702.389L826.035 702.397L826.037 702.407C826.532 705.946 827.083 709.715 827.151 713.288C827.22 716.881 826.789 719.997 825.527 722.317C825.006 723.254 824.484 723.619 824.043 723.792C823.544 723.988 822.904 724.034 822.013 723.935C821.011 723.822 820.261 723.621 819.032 723.423C818.07 723.268 816.877 723.136 815.693 723.394H810.211C808.117 723.394 806.823 723.377 805.918 723.201C805.149 723.052 804.982 722.851 804.855 722.638C804.612 722.228 804.372 721.382 804.247 719.517C804.126 717.71 804.125 715.278 804.125 711.911C804.125 708.577 804.126 706.18 804.248 704.404C804.374 702.571 804.615 701.76 804.852 701.373C804.974 701.173 805.147 700.966 805.955 700.808C806.887 700.625 808.206 700.596 810.325 700.562L810.324 700.561C814.164 700.56 817.852 700.431 821.506 700.688L821.531 700.69C822.304 700.735 823.165 700.624 823.71 700.57Z" fill="url(#paint30_radial_1054_106)" stroke="#FFDE57" stroke-width="4"/>
<path d="M927.089 700.668C927.718 700.644 928.089 700.741 928.311 700.849C928.509 700.946 928.703 701.106 928.895 701.438C929.318 702.17 929.627 703.547 929.664 705.969L929.668 706.468C929.606 712.208 929.684 716.045 929.594 718.817C929.549 720.185 929.465 721.156 929.329 721.862C929.192 722.571 929.031 722.847 928.949 722.95C928.868 723.052 928.619 723.339 926.571 723.371C925.622 723.386 924.501 723.354 923.042 723.332C921.618 723.311 919.945 723.303 917.995 723.369H914.024C911.742 723.369 910.3 723.361 909.277 723.179C908.375 723.018 908.163 722.785 908.018 722.55C907.753 722.122 907.497 721.239 907.372 719.275C907.251 717.372 907.265 714.804 907.285 711.237V711.226C907.285 708.094 907.291 705.837 907.409 704.163C907.531 702.433 907.758 701.67 907.971 701.315C908.069 701.151 908.191 700.981 908.875 700.847C909.694 700.686 910.87 700.669 912.8 700.669C917.458 700.669 922.298 700.802 927.067 700.669L927.078 700.668H927.089Z" fill="url(#paint31_radial_1054_106)" stroke="#FFDE57" stroke-width="4"/>
<path d="M1065.12 700.668C1065.75 700.644 1066.12 700.741 1066.34 700.849C1066.54 700.946 1066.73 701.106 1066.92 701.438C1067.34 702.17 1067.65 703.547 1067.69 705.969L1067.7 706.468C1067.63 712.208 1067.71 716.045 1067.62 718.817C1067.58 720.185 1067.49 721.156 1067.36 721.862C1067.22 722.571 1067.06 722.847 1066.98 722.95C1066.9 723.052 1066.65 723.339 1064.6 723.371C1063.65 723.386 1062.53 723.354 1061.07 723.332C1059.65 723.311 1057.97 723.303 1056.02 723.369H1052.05C1049.77 723.369 1048.33 723.361 1047.3 723.179C1046.4 723.018 1046.19 722.785 1046.04 722.55C1045.78 722.122 1045.52 721.239 1045.4 719.275C1045.28 717.372 1045.29 714.804 1045.31 711.237V711.226C1045.31 708.094 1045.32 705.837 1045.44 704.163C1045.56 702.433 1045.79 701.67 1046 701.315C1046.1 701.151 1046.22 700.981 1046.9 700.847C1047.72 700.686 1048.9 700.669 1050.83 700.669C1055.49 700.669 1060.32 700.802 1065.09 700.669L1065.11 700.668H1065.12Z" fill="url(#paint32_radial_1054_106)" stroke="#FFDE57" stroke-width="4"/>
<path d="M1029.1 700.668C1029.73 700.644 1030.1 700.741 1030.32 700.849C1030.52 700.946 1030.71 701.106 1030.91 701.438C1031.33 702.17 1031.64 703.547 1031.68 705.969L1031.68 706.468C1031.62 712.208 1031.7 716.045 1031.61 718.817C1031.56 720.185 1031.48 721.156 1031.34 721.862C1031.2 722.571 1031.04 722.847 1030.96 722.95C1030.88 723.052 1030.63 723.339 1028.58 723.371C1027.63 723.386 1026.51 723.354 1025.05 723.332C1023.63 723.311 1021.96 723.303 1020.01 723.369H1016.04C1013.75 723.369 1012.31 723.361 1011.29 723.179C1010.39 723.018 1010.17 722.785 1010.03 722.55C1009.76 722.122 1009.51 721.239 1009.38 719.275C1009.26 717.372 1009.28 714.804 1009.3 711.237V711.226C1009.3 708.094 1009.3 705.837 1009.42 704.163C1009.54 702.433 1009.77 701.67 1009.98 701.315C1010.08 701.151 1010.2 700.981 1010.89 700.847C1011.71 700.686 1012.88 700.669 1014.81 700.669C1019.47 700.669 1024.31 700.802 1029.08 700.669L1029.09 700.668H1029.1Z" fill="url(#paint33_radial_1054_106)" stroke="#FFDE57" stroke-width="4"/>
<path d="M892.698 700.667C893.296 700.644 893.649 700.747 893.865 700.86C894.068 700.967 894.279 701.151 894.487 701.524C894.93 702.32 895.237 703.752 895.273 706.114L895.276 706.6C895.256 712.184 895.322 715.992 895.208 718.704C895.151 720.049 895.054 721.015 894.905 721.721C894.757 722.426 894.585 722.732 894.478 722.866C894.349 723.027 894.037 723.319 892.109 723.373C891.203 723.398 890.123 723.374 888.735 723.354C887.382 723.333 885.796 723.319 883.958 723.368H881.676C879.083 723.368 877.255 723.121 875.954 722.614C874.745 722.143 873.966 721.442 873.424 720.339C872.836 719.144 872.473 717.366 872.419 714.678C872.366 712.01 872.619 708.624 873.126 704.322L873.127 704.312C873.354 702.293 873.811 701.452 874.133 701.107C874.372 700.851 874.72 700.669 875.55 700.669C881.202 700.669 886.923 700.801 892.667 700.668H892.683L892.698 700.667Z" fill="url(#paint34_radial_1054_106)" stroke="#FFDE57" stroke-width="4"/>
<path d="M739.645 700.697H755C755.524 700.697 755.84 700.789 756.038 700.89C756.222 700.983 756.41 701.136 756.604 701.444C756.992 702.065 757.325 703.179 757.509 705.094L757.578 705.965C757.824 710.738 757.991 714.24 757.912 716.861C757.832 719.545 757.494 720.928 757.016 721.702C756.642 722.307 756.04 722.764 754.517 723.052C752.9 723.357 750.643 723.396 747.322 723.396H745.607C743.079 723.396 741.277 723.121 739.987 722.584C738.778 722.08 737.967 721.328 737.4 720.161C736.796 718.916 736.424 717.1 736.373 714.43C736.322 711.776 736.588 708.436 737.135 704.242C737.397 702.242 737.88 701.44 738.2 701.119C738.453 700.866 738.817 700.697 739.645 700.697Z" fill="url(#paint35_radial_1054_106)" stroke="#FFDE57" stroke-width="4"/>
<path d="M953.398 700.877C960.345 700.877 963.43 702.073 964.857 704.332C965.613 705.528 966.08 707.27 966.134 709.885C966.188 712.495 965.829 715.799 965.096 719.978L965.093 719.989L965.091 720.001C964.855 721.446 964.477 722.156 964.148 722.501C963.887 722.775 963.484 723.002 962.615 723.002H951.822V723.231C946.777 722.994 943.842 721.299 942.33 718.649C940.595 715.609 940.328 710.672 942.197 703.408C942.503 702.231 942.893 701.721 943.19 701.476C943.48 701.237 943.914 701.055 944.715 701.004C947.623 700.877 950.433 700.877 953.398 700.877Z" fill="url(#paint36_radial_1054_106)" stroke="#FFDE57" stroke-width="4"/>
<path d="M986.615 700.535C989.183 700.535 991.012 700.819 992.321 701.37C993.55 701.887 994.376 702.661 994.95 703.86C995.563 705.139 995.933 706.998 995.976 709.719C996.018 712.423 995.736 715.82 995.169 720.08L995.168 720.09L995.167 720.099C994.976 721.64 994.662 722.426 994.397 722.791C994.238 723.012 994.104 723.102 993.722 723.103H984.942V723.296C983.499 723.147 982.335 722.769 981.403 722.215C980.201 721.5 979.253 720.416 978.578 718.856C977.182 715.629 977 710.446 978.45 703.016L978.449 703.015C978.702 701.731 979.03 701.186 979.236 700.962C979.377 700.809 979.55 700.699 979.986 700.662C982.194 700.536 984.332 700.535 986.615 700.535Z" fill="url(#paint37_radial_1054_106)" stroke="#FFDE57" stroke-width="4"/>
<path d="M676.889 433.206C676.889 438.106 673.013 442.079 668.232 442.079C663.45 442.079 659.574 438.106 659.574 433.206C659.574 428.306 663.45 414.869 668.232 414.869C673.013 414.869 676.889 428.306 676.889 433.206Z" fill="#FFDE57"/>
<path d="M1146.05 433.206C1146.05 438.106 1142.17 442.079 1137.39 442.079C1132.61 442.079 1128.73 438.106 1128.73 433.206C1128.73 428.306 1132.61 414.869 1137.39 414.869C1142.17 414.869 1146.05 428.306 1146.05 433.206Z" fill="#FFDE57"/>
<path d="M1321.72 577.987C1321.59 587.406 1314.63 594.502 1305.21 594.502C1296.18 594.502 1288.69 586.889 1288.69 577.987C1288.69 568.568 1296.69 560.568 1305.85 560.826C1314.89 561.213 1321.85 568.697 1321.72 577.987Z" fill="#FFDE57"/>
<path d="M479.663 653.656C483.92 649.011 481.34 643.85 479.405 638.173C477.598 633.012 482.114 629.786 487.533 632.496C491.92 634.689 495.017 636.237 499.403 632.366C501.468 630.431 505.468 630.302 507.661 632.625C510.113 635.205 509.725 639.076 507.532 641.656C504.306 645.398 504.564 648.108 507.532 651.72C509.467 654.043 509.983 657.526 507.661 659.978C505.339 662.429 501.597 662.171 499.403 660.365C495.404 657.139 492.694 657.784 488.436 660.365C483.017 663.591 478.888 660.494 479.663 653.656Z" fill="#FFDE57"/>
<path d="M1237.26 365.314C1231.58 370.346 1235.71 376.41 1237 382.862C1238.29 389.184 1232.74 389.829 1228.87 387.894C1224.22 385.571 1220.87 384.926 1215.84 386.99C1209.64 389.442 1205.9 385.055 1208.74 378.604C1210.42 374.604 1210.81 371.765 1208.35 368.024C1206.68 365.572 1206.42 362.089 1208.87 359.637C1211.32 357.186 1214.68 357.702 1217.13 359.637C1220.87 362.605 1223.58 361.83 1227.45 359.637C1233.26 356.282 1237.51 358.605 1237.26 365.314Z" fill="#FFDE57"/>
<path d="M895.731 325.797C902.24 325.797 909.036 326.35 915.565 327.183C925.628 328.958 933.861 336.393 933.861 346.207V382.483C933.861 392.805 925.827 401.08 915.683 401.08H877.733C864.457 401.08 853.218 412.459 853.218 425.456V442.1H840.899C835.601 442.1 831.41 440.196 828.212 436.948C824.997 433.683 822.748 429.018 821.444 423.46L821.443 423.455L821.117 422.072C817.963 408.405 818.081 399.697 821.129 386.515L821.443 385.181L821.444 385.176C824.287 372.994 833.72 366.537 844.388 366.537H897.505V360.061H859.415V346.347C859.415 340.878 860.15 336.869 862.696 333.869C865.251 330.859 869.764 328.705 877.73 327.319H877.734C883.126 326.352 889.218 325.797 895.731 325.797ZM875.222 335.923C870.865 335.923 867.31 339.499 867.31 343.975C867.31 348.451 870.865 352.026 875.222 352.026C879.578 352.026 883.134 348.451 883.134 343.975C883.134 339.499 879.578 335.923 875.222 335.923Z" fill="#306998" stroke="#397DB5" stroke-width="1.59339"/>
<path d="M953.627 366.675C958.907 366.675 962.736 368.633 965.603 371.897C968.497 375.194 970.446 379.863 971.828 385.32V385.321C975.571 400.571 975.692 411.853 971.846 423.53L971.845 423.533C969.963 429.316 968.014 433.994 965.231 437.229C962.493 440.413 958.915 442.236 953.627 442.236H895.905V448.714H933.855V462.427C933.855 467.678 931.642 471.621 928.248 474.613C924.831 477.626 920.212 479.677 915.455 481.056H915.454C901.248 485.193 889.825 484.506 877.96 481.059C867.972 478.007 859.549 472.178 859.549 462.427V426.151C859.549 416.105 867.725 407.555 877.727 407.555H915.677C928.68 407.555 940.192 396.169 940.192 382.62V366.675H953.627ZM918.049 456.607C913.568 456.607 909.981 460.174 910.137 464.687V464.686C910.151 469.149 913.701 472.711 918.049 472.711C922.405 472.711 925.961 469.135 925.961 464.659C925.961 460.183 922.405 456.607 918.049 456.607Z" fill="#FFDE57" stroke="#D0A601" stroke-width="1.59339"/>
<path d="M643.132 341.644C643.003 351.321 636.294 357.901 626.488 357.772C616.811 357.643 610.102 350.805 610.102 341.257C610.231 332.096 617.585 325 626.875 325C636.552 325 643.261 331.967 643.132 341.644Z" fill="#FFDE57"/>
<path d="M679.521 870.265C679.521 881.167 679.521 892.2 679.521 903.102C679.521 907.305 678.489 911.508 671.604 911.639C664.892 911.639 662.998 907.568 662.998 903.365C662.826 880.904 662.826 858.313 662.998 835.853C662.998 831.65 664.719 827.841 671.776 827.972C679.177 828.103 679.349 832.569 679.349 836.51C679.694 847.805 679.694 859.101 679.521 870.265Z" fill="#FFDE57"/>
<path d="M1141.14 869.083C1141.14 879.722 1141.14 890.361 1141.14 901.131C1141.14 905.859 1140.97 911.113 1132.88 911.376C1124.62 911.639 1123.93 906.385 1123.93 901.656C1123.93 880.378 1123.76 858.969 1123.93 837.691C1123.93 832.962 1124.28 827.84 1132.88 827.971C1141.32 828.103 1141.14 833.488 1141.32 838.085C1141.14 848.33 1141.14 858.706 1141.14 869.083Z" fill="#FFDE57"/>
<path d="M1140.97 949.977C1140.97 953.917 1141.15 957.858 1140.97 961.798C1140.8 965.607 1138.22 968.234 1132.88 968.365C1127.55 968.497 1124.28 966.132 1124.11 962.455C1123.59 953.917 1123.76 945.38 1124.11 936.842C1124.28 933.033 1127.21 930.538 1132.54 930.669C1137.7 930.8 1140.63 933.296 1140.8 937.105C1141.15 941.439 1140.97 945.642 1140.97 949.977Z" fill="#FFDE57"/>
<path d="M680.062 949.977C680.062 953.917 680.234 957.858 680.062 961.798C679.89 965.607 677.308 968.234 671.973 968.365C666.637 968.497 663.367 966.132 663.195 962.455C662.679 953.917 662.851 945.38 663.195 936.842C663.367 933.033 666.293 930.538 671.629 930.669C676.792 930.8 679.718 933.296 679.89 937.105C680.235 941.439 680.062 945.642 680.062 949.977Z" fill="#FFDE57"/>
<path d="M669.961 747.644C656.662 747.644 643.216 747.644 629.917 747.644C626.076 747.644 621.791 747.381 621.643 742.784C621.495 738.45 625.337 737.268 629.474 737.268C656.515 737.268 683.555 737.268 710.595 737.268C714.733 737.268 718.574 738.45 718.427 742.784C718.279 747.25 713.846 747.513 710.004 747.513C696.706 747.644 683.407 747.644 669.961 747.644Z" fill="#FFDE57"/>
<path d="M905.003 656.945C862.189 656.945 818.899 656.945 776.085 656.945C763.716 656.945 749.921 656.682 749.445 652.085C748.969 647.75 761.338 646.568 774.658 646.568C861.713 646.568 948.768 646.568 1035.82 646.568C1049.14 646.568 1061.51 647.75 1061.04 652.085C1060.56 656.551 1046.29 656.813 1033.92 656.813C991.106 656.945 948.292 656.945 905.003 656.945Z" fill="#FFDE57"/>
<path d="M1138.3 747.644C1125 747.644 1111.55 747.644 1098.26 747.644C1094.41 747.644 1090.13 747.381 1089.98 742.784C1089.83 738.45 1093.67 737.268 1097.81 737.268C1124.85 737.268 1151.89 737.268 1178.93 737.268C1183.07 737.268 1186.91 738.45 1186.76 742.784C1186.62 747.25 1182.18 747.513 1178.34 747.513C1165.04 747.644 1151.75 747.644 1138.3 747.644Z" fill="#FFDE57"/>
<path d="M672.061 728.385C667.921 728.385 663.928 728.516 659.788 728.385C656.387 728.253 653.873 726.546 653.873 723.262C653.873 720.504 655.943 718.665 658.901 718.402C668.068 717.483 677.236 717.483 686.404 718.402C689.214 718.665 691.432 720.635 691.432 723.394C691.284 726.546 688.77 728.253 685.369 728.385C680.933 728.516 676.497 728.385 672.061 728.385Z" fill="#FFDE57"/>
<path d="M1140.39 728.385C1136.25 728.385 1132.26 728.516 1128.12 728.385C1124.72 728.253 1122.2 726.546 1122.2 723.262C1122.2 720.504 1124.27 718.665 1127.23 718.402C1136.4 717.483 1145.57 717.483 1154.73 718.402C1157.54 718.665 1159.76 720.635 1159.76 723.394C1159.61 726.546 1157.1 728.253 1153.7 728.385C1149.26 728.516 1144.83 728.385 1140.39 728.385Z" fill="#FFDE57"/>
<path d="M634.605 728.094C632.565 728.094 630.526 728.227 628.486 728.094C624.698 727.962 621.639 726.769 621.639 722.795C621.784 718.82 625.135 717.76 628.632 717.628C632.711 717.363 636.79 717.495 640.724 717.628C644.22 717.76 647.863 718.688 648.008 722.53C648.3 727.034 644.366 727.962 640.433 728.094C638.684 728.227 636.645 728.227 634.605 728.094C634.605 728.227 634.605 728.227 634.605 728.094Z" fill="#FFDE57"/>
<path d="M1102.94 728.094C1100.9 728.094 1098.86 728.227 1096.82 728.094C1093.04 727.962 1089.98 726.769 1089.98 722.795C1090.12 718.82 1093.47 717.76 1096.97 717.628C1101.05 717.363 1105.13 717.495 1109.06 717.628C1112.56 717.76 1116.2 718.688 1116.35 722.53C1116.64 727.034 1112.7 727.962 1108.77 728.094C1107.02 728.227 1104.98 728.227 1102.94 728.094C1102.94 728.227 1102.94 728.227 1102.94 728.094Z" fill="#FFDE57"/>
<path d="M707.992 717.859C712.428 718.253 718.787 717.203 718.935 723.113C719.083 729.155 712.724 728.498 707.992 728.498C703.408 728.498 697.05 729.418 697.346 722.982C697.789 717.597 703.408 718.122 707.992 717.859Z" fill="#FFDE57"/>
<path d="M1176.32 717.859C1180.76 718.253 1187.12 717.203 1187.26 723.113C1187.41 729.155 1181.05 728.498 1176.32 728.498C1171.74 728.498 1165.38 729.418 1165.68 722.982C1166.12 717.597 1171.74 718.122 1176.32 717.859Z" fill="#FFDE57"/>
<path d="M671.475 573.256C659.93 573.256 648.242 573.256 636.696 573.256C631.992 573.256 627.574 572.337 627.431 567.214C627.146 561.698 631.565 559.99 636.696 559.99C659.93 559.99 683.021 559.99 706.254 559.99C711.243 559.99 714.949 561.829 715.092 566.689C715.234 571.943 711.243 573.256 706.397 573.256C694.709 573.256 683.021 573.256 671.475 573.256Z" fill="#FFDE57"/>
<path d="M1138.98 573.256C1127.43 573.256 1115.75 573.256 1104.2 573.256C1099.5 573.256 1095.08 572.337 1094.93 567.214C1094.65 561.698 1099.07 559.99 1104.2 559.99C1127.43 559.99 1150.52 559.99 1173.76 559.99C1178.75 559.99 1182.45 561.829 1182.6 566.689C1182.74 571.943 1178.75 573.256 1173.9 573.256C1162.21 573.256 1150.52 573.256 1138.98 573.256Z" fill="#FFDE57"/>
<path d="M821.044 838.482C794.169 838.482 794.169 838.482 794.169 811.049C794.169 802.259 792.954 793.014 800.698 786.648C808.897 779.828 817.248 773.311 829.091 778.464C841.086 783.768 848.981 791.498 847.766 805.745C847.311 811.352 847.766 816.96 847.615 822.568C847.463 836.057 845.185 838.33 831.52 838.482C828.028 838.633 824.536 838.482 821.044 838.482Z" fill="#FFDE57"/>
<path d="M803.826 810.926C801.65 796.224 805.784 785.197 820.797 783.13C831.458 781.751 838.203 793.467 838.639 810.467C839.074 823.791 838.421 833.439 821.015 833.209C804.261 832.98 801.65 824.939 803.826 810.926Z" fill="#2C70A8"/>
<path d="M752.411 891.614C725.536 891.614 725.536 891.615 725.536 864.182C725.536 855.392 724.321 846.146 732.065 839.781C740.264 832.961 748.615 826.443 760.458 831.597C772.453 836.901 780.348 844.631 779.133 858.877C778.678 864.485 779.134 870.093 778.982 875.701C778.83 889.19 776.552 891.463 762.887 891.614C759.395 891.766 755.903 891.614 752.411 891.614Z" fill="#FFDE57"/>
<path d="M734.847 863.211C732.543 848.509 736.92 837.482 752.816 835.415C764.105 834.036 771.247 845.752 771.708 862.752C772.168 876.076 771.477 885.724 753.047 885.494C735.308 885.265 732.543 877.224 734.847 863.211Z" fill="#2C70A8"/>
<path d="M904.417 818.562C877.542 818.562 877.542 818.562 877.542 791.129C877.542 782.339 876.327 773.094 884.071 766.728C892.27 759.908 900.621 753.391 912.464 758.544C924.459 763.848 932.354 771.578 931.139 785.825C930.684 791.432 931.139 797.04 930.988 802.648C930.836 816.137 928.558 818.41 914.893 818.562C911.401 818.713 907.909 818.562 904.417 818.562Z" fill="#FFDE57"/>
<path d="M885.429 790.012C883.125 775.31 887.502 764.283 903.398 762.215C914.687 760.837 921.829 772.553 922.29 789.553C922.75 802.876 922.059 812.525 903.629 812.295C885.89 812.065 883.125 804.025 885.429 790.012Z" fill="#2C70A8"/>
<path d="M987.809 838.482C960.935 838.482 960.935 838.482 960.935 811.049C960.935 802.259 959.72 793.014 967.463 786.648C975.662 779.828 984.013 773.311 995.856 778.464C1007.85 783.768 1015.75 791.498 1014.53 805.745C1014.08 811.352 1014.53 816.96 1014.38 822.568C1014.23 836.057 1011.95 838.33 998.286 838.482C994.794 838.633 991.301 838.482 987.809 838.482Z" fill="#FFDE57"/>
<path d="M1005.41 812.754C1007.93 825.857 1003.12 832.983 985.703 833.213C966.685 833.213 968.289 821.949 968.518 809.765C968.747 793.443 976.309 781.949 987.765 783.099C1001.74 784.478 1006.78 793.903 1005.41 807.236C1005.18 808.156 1005.41 809.305 1005.41 812.754Z" fill="#2C70A8"/>
<path d="M1052.75 891.614C1025.87 891.614 1025.87 891.615 1025.87 864.182C1025.87 855.392 1024.66 846.146 1032.4 839.781C1040.6 832.961 1048.95 826.443 1060.8 831.597C1072.79 836.901 1080.69 844.631 1079.47 858.877C1079.02 864.485 1079.47 870.093 1079.32 875.701C1079.17 889.19 1076.89 891.463 1063.23 891.614C1059.73 891.766 1056.24 891.614 1052.75 891.614Z" fill="#FFDE57"/>
<path d="M1072.3 866.278C1074.96 879.927 1069.88 887.35 1051.5 887.59C1031.42 887.59 1033.12 875.856 1033.36 863.165C1033.6 846.163 1041.58 834.19 1053.68 835.387C1068.43 836.824 1073.75 846.642 1072.3 860.531C1072.06 861.488 1072.3 862.686 1072.3 866.278Z" fill="#2C70A8"/>
<path d="M900.918 853.731C902.894 853.717 904.894 853.823 906.688 854.065C908.415 854.299 910.089 854.679 911.379 855.283L917.514 857.932C932.151 864.221 948.927 871.303 965.142 879.466C983.668 888.792 1001.63 899.605 1015 912.42L1015.43 912.837C1024.44 921.666 1030.73 934.856 1034.68 948.997C1038.71 963.395 1040.38 978.988 1039.97 992.443V992.451C1038.95 1021.76 1039.97 1061.9 1039.97 1091.34C1039.97 1122.17 1040.38 1142.7 1039.97 1173.37L1039.97 1173.37C1039.96 1174.93 1039.46 1176.3 1038.5 1177.4C1037.57 1178.47 1036.31 1179.18 1034.97 1179.66C1032.33 1180.61 1028.84 1180.86 1025.2 1180.83C1021.51 1180.8 1017.42 1180.48 1013.48 1180.16C1009.51 1179.84 1005.71 1179.52 1002.47 1179.47H1002.47C999.65 1179.41 997.17 1179.66 994.997 1179.94C992.909 1180.2 990.87 1180.54 989.263 1180.58C987.655 1180.63 985.788 1180.43 984.436 1179C983.142 1177.64 982.781 1175.63 982.78 1173.35L982.688 1151.03C982.446 1098.61 982.067 1044.12 982.781 992.354V992.346C983.19 969.923 981.729 951.868 967.349 938.615L967.346 938.612C956.466 928.535 948.667 922.13 940.328 916.814C931.987 911.497 923.041 907.227 909.808 901.478C907.817 900.649 904.475 900.166 900.933 900.166C897.388 900.166 894.043 900.65 892.053 901.479C878.108 907.489 868.611 911.257 859.798 916.293C851.049 921.292 842.959 927.557 832.031 938.555L832.025 938.56C819.369 951.204 810.568 973.08 810.765 992.354L810.837 997.85C811.531 1054.13 810.765 1095.07 810.765 1152.32C810.765 1154.59 810.866 1158.64 810.918 1162.81C810.969 1166.89 810.972 1171.12 810.757 1173.52L810.756 1173.52C810.593 1175.63 809.5 1177.12 807.929 1178.04C806.481 1178.88 804.692 1179.21 803.015 1179.35C801.305 1179.5 799.453 1179.47 797.773 1179.43C796.039 1179.4 794.513 1179.36 793.258 1179.46C790.409 1179.68 781.098 1179.96 772.332 1179.52C767.955 1179.3 763.621 1178.91 760.267 1178.21C758.601 1177.86 757.066 1177.42 755.862 1176.83C754.762 1176.3 753.398 1175.38 753.027 1173.8C752.723 1172.5 752.593 1170.76 752.545 1168.92C752.496 1167.05 752.53 1164.94 752.594 1162.85C752.725 1158.59 752.975 1154.58 752.975 1152.32C752.975 1092.07 753.383 1052.62 752.975 992.398V991.2C753.068 978.728 756.16 963.519 761.207 949.354C766.409 934.757 773.779 921.012 782.34 912.452C795.954 898.83 814.727 888.112 834.147 879.032C853.522 869.975 873.913 862.391 890.495 855.279L890.499 855.278C892.922 854.246 897.06 853.759 900.918 853.731Z" fill="#2C70A8" stroke="#FFDE57" stroke-width="4"/>
<defs>
<linearGradient id="paint0_linear_1054_106" x1="1157.95" y1="1317.87" x2="1157.95" y2="1475.03" gradientUnits="userSpaceOnUse">
<stop stop-color="#FFDE57"/>
<stop offset="1" stop-color="#FFE579"/>
</linearGradient>
<linearGradient id="paint1_linear_1054_106" x1="1038.91" y1="1265.48" x2="1038.91" y2="1422.64" gradientUnits="userSpaceOnUse">
<stop stop-color="#FFDE57"/>
<stop offset="1" stop-color="#FFE579"/>
</linearGradient>
<linearGradient id="paint2_linear_1054_106" x1="901.365" y1="1255" x2="901.365" y2="1425.43" gradientUnits="userSpaceOnUse">
<stop stop-color="#FFDE57"/>
<stop offset="1" stop-color="#FFE579"/>
</linearGradient>
<linearGradient id="paint3_linear_1054_106" x1="784.203" y1="1317.87" x2="784.203" y2="1475.03" gradientUnits="userSpaceOnUse">
<stop stop-color="#FFDE57"/>
<stop offset="1" stop-color="#FFE579"/>
</linearGradient>
<linearGradient id="paint4_linear_1054_106" x1="654.083" y1="1265.48" x2="654.083" y2="1422.64" gradientUnits="userSpaceOnUse">
<stop stop-color="#FFDE57"/>
<stop offset="1" stop-color="#FFE579"/>
</linearGradient>
<radialGradient id="paint5_radial_1054_106" cx="0" cy="0" r="1" gradientUnits="userSpaceOnUse" gradientTransform="translate(904.455 646.161) rotate(90) scale(39.1652 186.344)">
<stop stop-color="#306998"/>
<stop offset="1" stop-color="#2677BA"/>
</radialGradient>
<radialGradient id="paint6_radial_1054_106" cx="0" cy="0" r="1" gradientUnits="userSpaceOnUse" gradientTransform="translate(668.451 983.142) rotate(90) scale(204.146 45.9764)">
<stop stop-color="#306998"/>
<stop offset="1" stop-color="#2677BA"/>
</radialGradient>
<radialGradient id="paint7_radial_1054_106" cx="0" cy="0" r="1" gradientUnits="userSpaceOnUse" gradientTransform="translate(1135.74 959.054) rotate(90) scale(228.406 44.9369)">
<stop stop-color="#306998"/>
<stop offset="1" stop-color="#2677BA"/>
</radialGradient>
<radialGradient id="paint8_radial_1054_106" cx="0" cy="0" r="1" gradientUnits="userSpaceOnUse" gradientTransform="translate(667.817 732.07) rotate(90) scale(33.5783 66.7759)">
<stop stop-color="#306998"/>
<stop offset="1" stop-color="#2677BA"/>
</radialGradient>
<radialGradient id="paint9_radial_1054_106" cx="0" cy="0" r="1" gradientUnits="userSpaceOnUse" gradientTransform="translate(1138.11 732.068) rotate(90) scale(33.576 66.454)">
<stop stop-color="#306998"/>
<stop offset="1" stop-color="#2677BA"/>
</radialGradient>
<radialGradient id="paint10_radial_1054_106" cx="0" cy="0" r="1" gradientUnits="userSpaceOnUse" gradientTransform="translate(1136.7 566.977) rotate(90) scale(28.5531 65.0462)">
<stop stop-color="#306998"/>
<stop offset="1" stop-color="#2677BA"/>
</radialGradient>
<radialGradient id="paint11_radial_1054_106" cx="0" cy="0" r="1" gradientUnits="userSpaceOnUse" gradientTransform="translate(669.886 567.112) rotate(90) scale(28.688 65.1277)">
<stop stop-color="#306998"/>
<stop offset="1" stop-color="#2677BA"/>
</radialGradient>
<radialGradient id="paint12_radial_1054_106" cx="0" cy="0" r="1" gradientUnits="userSpaceOnUse" gradientTransform="translate(1137.34 646.728) rotate(90) scale(38.4295 42.8892)">
<stop stop-color="#306998"/>
<stop offset="1" stop-color="#2677BA"/>
</radialGradient>
<radialGradient id="paint13_radial_1054_106" cx="0" cy="0" r="1" gradientUnits="userSpaceOnUse" gradientTransform="translate(671.339 646.893) rotate(90) scale(38.5941 42.7141)">
<stop stop-color="#306998"/>
<stop offset="1" stop-color="#2677BA"/>
</radialGradient>
<radialGradient id="paint14_radial_1054_106" cx="0" cy="0" r="1" gradientUnits="userSpaceOnUse" gradientTransform="translate(667.517 461.244) rotate(90) scale(27.1051 57.628)">
<stop stop-color="#306998"/>
<stop offset="1" stop-color="#2677BA"/>
</radialGradient>
<radialGradient id="paint15_radial_1054_106" cx="0" cy="0" r="1" gradientUnits="userSpaceOnUse" gradientTransform="translate(1136.67 461.366) rotate(90) scale(27.0965 57.6492)">
<stop stop-color="#306998"/>
<stop offset="1" stop-color="#2677BA"/>
</radialGradient>
<radialGradient id="paint16_radial_1054_106" cx="0" cy="0" r="1" gradientUnits="userSpaceOnUse" gradientTransform="translate(670.689 513.47) rotate(90) scale(12.052 36.9042)">
<stop stop-color="#306998"/>
<stop offset="1" stop-color="#2677BA"/>
</radialGradient>
<radialGradient id="paint17_radial_1054_106" cx="0" cy="0" r="1" gradientUnits="userSpaceOnUse" gradientTransform="translate(1138.48 513.518) rotate(90) scale(11.9671 36.8204)">
<stop stop-color="#306998"/>
<stop offset="1" stop-color="#2677BA"/>
</radialGradient>
<radialGradient id="paint18_radial_1054_106" cx="0" cy="0" r="1" gradientUnits="userSpaceOnUse" gradientTransform="translate(849.957 581.403) rotate(90) scale(13.3498 13.6938)">
<stop stop-color="#306998"/>
<stop offset="1" stop-color="#2677BA"/>
</radialGradient>
<radialGradient id="paint19_radial_1054_106" cx="0" cy="0" r="1" gradientUnits="userSpaceOnUse" gradientTransform="translate(780.572 581.307) rotate(90) scale(13.4159 13.7893)">
<stop stop-color="#306998"/>
<stop offset="1" stop-color="#2677BA"/>
</radialGradient>
<radialGradient id="paint20_radial_1054_106" cx="0" cy="0" r="1" gradientUnits="userSpaceOnUse" gradientTransform="translate(815.642 581.611) rotate(90) scale(13.736 13.5166)">
<stop stop-color="#306998"/>
<stop offset="1" stop-color="#2677BA"/>
</radialGradient>
<radialGradient id="paint21_radial_1054_106" cx="0" cy="0" r="1" gradientUnits="userSpaceOnUse" gradientTransform="translate(918.47 581.377) rotate(90) scale(13.3554 13.1981)">
<stop stop-color="#306998"/>
<stop offset="1" stop-color="#2677BA"/>
</radialGradient>
<radialGradient id="paint22_radial_1054_106" cx="0" cy="0" r="1" gradientUnits="userSpaceOnUse" gradientTransform="translate(1056.5 581.377) rotate(90) scale(13.3554 13.1981)">
<stop stop-color="#306998"/>
<stop offset="1" stop-color="#2677BA"/>
</radialGradient>
<radialGradient id="paint23_radial_1054_106" cx="0" cy="0" r="1" gradientUnits="userSpaceOnUse" gradientTransform="translate(1020.48 581.377) rotate(90) scale(13.3554 13.1981)">
<stop stop-color="#306998"/>
<stop offset="1" stop-color="#2677BA"/>
</radialGradient>
<radialGradient id="paint24_radial_1054_106" cx="0" cy="0" r="1" gradientUnits="userSpaceOnUse" gradientTransform="translate(883.845 581.381) rotate(90) scale(13.36 13.4327)">
<stop stop-color="#306998"/>
<stop offset="1" stop-color="#2677BA"/>
</radialGradient>
<radialGradient id="paint25_radial_1054_106" cx="0" cy="0" r="1" gradientUnits="userSpaceOnUse" gradientTransform="translate(747.149 581.403) rotate(90) scale(13.3498 12.7823)">
<stop stop-color="#306998"/>
<stop offset="1" stop-color="#2677BA"/>
</radialGradient>
<radialGradient id="paint26_radial_1054_106" cx="0" cy="0" r="1" gradientUnits="userSpaceOnUse" gradientTransform="translate(953.523 581.435) rotate(90) scale(13.1925 14.6152)">
<stop stop-color="#306998"/>
<stop offset="1" stop-color="#2677BA"/>
</radialGradient>
<radialGradient id="paint27_radial_1054_106" cx="0" cy="0" r="1" gradientUnits="userSpaceOnUse" gradientTransform="translate(986.711 581.307) rotate(90) scale(13.4159 11.268)">
<stop stop-color="#306998"/>
<stop offset="1" stop-color="#2677BA"/>
</radialGradient>
<radialGradient id="paint28_radial_1054_106" cx="0" cy="0" r="1" gradientUnits="userSpaceOnUse" gradientTransform="translate(849.957 712.047) rotate(90) scale(13.3498 13.6938)">
<stop stop-color="#306998"/>
<stop offset="1" stop-color="#2677BA"/>
</radialGradient>
<radialGradient id="paint29_radial_1054_106" cx="0" cy="0" r="1" gradientUnits="userSpaceOnUse" gradientTransform="translate(780.572 711.951) rotate(90) scale(13.4159 13.7893)">
<stop stop-color="#306998"/>
<stop offset="1" stop-color="#2677BA"/>
</radialGradient>
<radialGradient id="paint30_radial_1054_106" cx="0" cy="0" r="1" gradientUnits="userSpaceOnUse" gradientTransform="translate(815.642 712.25) rotate(90) scale(13.736 13.5166)">
<stop stop-color="#306998"/>
<stop offset="1" stop-color="#2677BA"/>
</radialGradient>
<radialGradient id="paint31_radial_1054_106" cx="0" cy="0" r="1" gradientUnits="userSpaceOnUse" gradientTransform="translate(918.47 712.019) rotate(90) scale(13.3554 13.1981)">
<stop stop-color="#306998"/>
<stop offset="1" stop-color="#2677BA"/>
</radialGradient>
<radialGradient id="paint32_radial_1054_106" cx="0" cy="0" r="1" gradientUnits="userSpaceOnUse" gradientTransform="translate(1056.5 712.019) rotate(90) scale(13.3554 13.1981)">
<stop stop-color="#306998"/>
<stop offset="1" stop-color="#2677BA"/>
</radialGradient>
<radialGradient id="paint33_radial_1054_106" cx="0" cy="0" r="1" gradientUnits="userSpaceOnUse" gradientTransform="translate(1020.48 712.019) rotate(90) scale(13.3554 13.1981)">
<stop stop-color="#306998"/>
<stop offset="1" stop-color="#2677BA"/>
</radialGradient>
<radialGradient id="paint34_radial_1054_106" cx="0" cy="0" r="1" gradientUnits="userSpaceOnUse" gradientTransform="translate(883.845 712.024) rotate(90) scale(13.36 13.4327)">
<stop stop-color="#306998"/>
<stop offset="1" stop-color="#2677BA"/>
</radialGradient>
<radialGradient id="paint35_radial_1054_106" cx="0" cy="0" r="1" gradientUnits="userSpaceOnUse" gradientTransform="translate(747.149 712.047) rotate(90) scale(13.3498 12.7823)">
<stop stop-color="#306998"/>
<stop offset="1" stop-color="#2677BA"/>
</radialGradient>
<radialGradient id="paint36_radial_1054_106" cx="0" cy="0" r="1" gradientUnits="userSpaceOnUse" gradientTransform="translate(953.523 712.069) rotate(90) scale(13.1925 14.6152)">
<stop stop-color="#306998"/>
<stop offset="1" stop-color="#2677BA"/>
</radialGradient>
<radialGradient id="paint37_radial_1054_106" cx="0" cy="0" r="1" gradientUnits="userSpaceOnUse" gradientTransform="translate(986.711 711.951) rotate(90) scale(13.4159 11.268)">
<stop stop-color="#306998"/>
<stop offset="1" stop-color="#2677BA"/>
</radialGradient>
</defs>
</svg>
