<svg width="1800" height="1800" viewBox="0 0 1800 1800" fill="none" xmlns="http://www.w3.org/2000/svg">
<rect width="1800" height="1800" fill="#011F37"/>
<path d="M1106.61 1475.03L1141.54 1404.83L1098.76 1317.87H1132.28L1150.79 1356.28C1152.42 1359.77 1153.82 1362.98 1154.98 1365.89C1156.26 1368.68 1157.31 1371.42 1158.13 1374.09C1159.06 1371.42 1160.16 1368.68 1161.45 1365.89C1162.73 1362.98 1164.24 1359.77 1165.99 1356.28L1184.84 1317.87H1217.15L1139.27 1475.03H1106.61Z" fill="#FFDE57"/>
<path d="M985.305 1422.64V1265.48H1032.8C1043.75 1265.48 1053 1267.11 1060.57 1270.37C1068.25 1273.63 1074.42 1277.94 1079.08 1283.29C1083.73 1288.53 1087.11 1294.29 1089.21 1300.58C1091.42 1306.75 1092.52 1312.86 1092.52 1318.92C1092.52 1324.85 1091.48 1330.96 1089.38 1337.25C1087.28 1343.42 1083.85 1349.18 1079.08 1354.54C1074.42 1359.78 1068.31 1364.03 1060.74 1367.29C1053.17 1370.55 1043.86 1372.18 1032.8 1372.18H1015.69V1422.64H985.305ZM1015.69 1344.93H1031.06C1038.51 1344.93 1044.39 1343.65 1048.69 1341.09C1053.12 1338.41 1056.26 1335.1 1058.12 1331.14C1060.1 1327.18 1061.09 1323.11 1061.09 1318.92C1061.09 1314.84 1060.16 1310.82 1058.3 1306.87C1056.43 1302.79 1053.29 1299.42 1048.87 1296.74C1044.56 1294.06 1038.62 1292.72 1031.06 1292.72H1015.69V1344.93Z" fill="#FFDE57"/>
<path d="M898.222 1425.43C890.887 1425.43 884.019 1424.03 877.616 1421.24C871.33 1418.33 865.8 1414.37 861.027 1409.37C856.254 1404.24 852.47 1398.37 849.676 1391.73C846.999 1384.98 845.66 1377.82 845.66 1370.25C845.66 1362.68 846.999 1355.58 849.676 1348.95C852.47 1342.2 856.254 1336.32 861.027 1331.31C865.8 1326.19 871.33 1322.23 877.616 1319.44C884.019 1316.53 890.887 1315.07 898.222 1315.07C903.81 1315.07 908.99 1315.89 913.763 1317.51C918.536 1319.14 922.843 1321.47 926.685 1324.5V1255H957.07V1422.64H930.876V1412.34C926.918 1416.41 922.145 1419.61 916.557 1421.94C910.969 1424.27 904.857 1425.43 898.222 1425.43ZM901.714 1398.71C906.836 1398.71 911.493 1397.43 915.684 1394.87C919.875 1392.31 923.193 1388.88 925.637 1384.57C928.199 1380.26 929.479 1375.49 929.479 1370.25C929.479 1365.01 928.199 1360.24 925.637 1355.93C923.193 1351.62 919.875 1348.19 915.684 1345.63C911.493 1343.07 906.836 1341.79 901.714 1341.79C896.592 1341.79 891.935 1343.07 887.744 1345.63C883.553 1348.19 880.177 1351.62 877.616 1355.93C875.171 1360.24 873.949 1365.01 873.949 1370.25C873.949 1375.49 875.171 1380.26 877.616 1384.57C880.177 1388.88 883.553 1392.31 887.744 1394.87C891.935 1397.43 896.592 1398.71 901.714 1398.71Z" fill="#FFDE57"/>
<path d="M732.864 1475.03L767.788 1404.83L725.006 1317.87H758.533L777.043 1356.28C778.673 1359.77 780.07 1362.98 781.234 1365.89C782.515 1368.68 783.563 1371.42 784.378 1374.09C785.309 1371.42 786.415 1368.68 787.695 1365.89C788.976 1362.98 790.489 1359.77 792.236 1356.28L811.095 1317.87H843.4L765.518 1475.03H732.864Z" fill="#FFDE57"/>
<path d="M600.998 1422.64V1265.48H631.382V1315.77H676.784V1265.48H707.169V1422.64H676.784V1344.06H631.382V1422.64H600.998Z" fill="#FFDE57"/>
<path d="M763.517 608.846C768.324 608.886 773.144 609.208 778.038 609.517C782.911 609.824 787.849 610.118 792.787 610.084H792.791C881.225 609.292 969.658 609.688 1058.11 609.82H1058.12C1062.02 609.82 1065.96 610.326 1069.87 610.979C1075.66 612.034 1080.06 614.477 1083.09 618.155C1086.14 621.844 1087.96 626.962 1088.24 633.634V633.635C1088.68 647.417 1088.29 661.044 1088.43 675.038L1088.47 677.842C1088.5 679.784 1088.22 680.947 1087.89 681.639C1087.58 682.264 1087.2 682.572 1086.74 682.77C1086.2 682.999 1085.47 683.108 1084.46 683.127C1083.97 683.136 1083.45 683.124 1082.89 683.108C1082.35 683.093 1081.75 683.073 1081.16 683.073H728.766C726.033 683.073 724.177 683.069 722.828 682.897C721.494 682.727 721.091 682.437 720.904 682.224C720.668 681.952 720.376 681.342 720.217 679.699C720.061 678.092 720.059 675.905 720.059 672.792C720.059 660.197 719.826 647.588 720.174 635.079V635.076C720.341 628.745 721.697 624.867 724.037 621.969C726.439 618.995 730.058 616.811 735.335 614.244C744.55 609.808 753.924 608.764 763.517 608.846Z" fill="#2C70A8" stroke="#FFDE57" stroke-width="4"/>
<path d="M627.426 778.884L627.445 780.884C640.974 780.752 654.376 780.752 667.918 780.752C681.427 780.752 694.871 780.884 708.419 780.752C709.668 780.752 710.611 780.841 711.287 781.008C711.976 781.178 712.18 781.377 712.223 781.43C712.239 781.45 712.259 781.48 712.276 781.554C712.296 781.638 712.316 781.802 712.282 782.079C712.212 782.661 711.932 783.551 711.271 784.843C707.676 791.791 707.441 799.241 707.441 806.362V806.365C707.506 850.751 707.506 895.138 707.506 939.509C707.506 972.787 707.506 1006.06 707.533 1039.31L707.571 1072.56C707.571 1089.35 707.278 1108.06 706.985 1126.88C706.693 1145.7 706.4 1164.63 706.401 1181.81C706.401 1183.44 705.02 1184.83 703.321 1184.83H636.826C635.117 1184.83 633.81 1183.52 633.811 1181.91C633.829 1113.25 634.188 880.369 633.811 819.296L633.81 819.288L633.78 817.206C633.58 806.557 632.542 792.457 626.908 782.126C626.777 781.885 626.771 781.549 626.93 781.247C627.081 780.96 627.274 780.884 627.426 780.884V778.884Z" fill="#2C70A8" stroke="#FFDE57" stroke-width="4"/>
<path d="M1175.72 781.075C1176.91 781.075 1177.59 781.235 1177.95 781.396C1178.25 781.529 1178.26 781.627 1178.27 781.638C1178.3 781.721 1178.35 781.989 1178.23 782.567C1178.1 783.135 1177.84 783.847 1177.42 784.703L1177.41 784.713L1177.41 784.722C1172.41 795.265 1172.17 806.311 1172.17 817.173C1172.17 849.095 1171.96 925.251 1171.75 1001.58C1171.55 1076.39 1171.34 1151.36 1171.33 1185H1096.6C1096.54 1151.31 1096.73 1059.27 1096.94 974.896C1097.04 931.845 1097.15 890.79 1097.24 860.497C1097.28 845.351 1097.31 832.895 1097.34 824.226C1097.35 819.891 1097.36 816.503 1097.36 814.199C1097.37 813.047 1097.37 812.166 1097.37 811.573C1097.37 811.277 1097.37 811.052 1097.37 810.901C1097.37 810.858 1097.37 810.82 1097.37 810.789C1097.38 810.729 1097.38 810.671 1097.38 810.627C1097.39 810.517 1097.39 810.37 1097.4 810.198C1097.4 809.85 1097.41 809.345 1097.42 808.704C1097.43 807.42 1097.44 805.564 1097.45 803.271C1097.47 798.685 1097.48 792.336 1097.48 785.283C1097.49 783.905 1097.48 782.499 1097.49 781.075H1175.72ZM1093.38 784.619C1093.34 784.548 1093.31 784.475 1093.27 784.403C1092.2 782.267 1092.53 781.662 1092.54 781.647C1092.54 781.637 1092.64 781.488 1093.11 781.338C1093.19 781.311 1093.28 781.286 1093.38 781.263C1093.38 782.361 1093.38 783.479 1093.38 784.619Z" fill="#2C70A8" stroke="#FFDE57" stroke-width="4"/>
<path d="M609.449 700.299H609.466C628.956 700.563 648.456 700.432 667.91 700.432C687.106 700.432 706.348 700.563 725.452 700.299V700.3L725.466 700.299C728.575 700.235 730.165 700.751 731.03 701.569C731.869 702.362 732.512 703.909 732.452 707.235C732.064 723.524 732.194 739.804 732.452 756.193V756.201C732.515 759.404 732.008 761.076 731.201 761.982C730.451 762.825 729.005 763.472 725.851 763.41L725.838 763.409H725.825C686.87 763.145 647.917 763.276 608.847 763.408C606.067 763.408 604.772 762.91 604.104 762.243C603.446 761.586 602.92 760.287 602.981 757.394V757.382C603.24 740.452 603.24 723.522 602.981 706.592V706.583C602.92 703.447 603.534 702.082 604.269 701.408C605.047 700.694 606.509 700.235 609.449 700.299Z" fill="#2C70A8" stroke="#FFDE57" stroke-width="4"/>
<path d="M1196.31 700.293C1199.06 700.293 1200.36 700.814 1201.04 701.499C1201.71 702.179 1202.23 703.495 1202.17 706.308V706.321C1201.91 723.251 1201.91 740.181 1202.17 757.11V757.119C1202.23 760.231 1201.6 761.603 1200.85 762.286C1200.04 763.013 1198.57 763.467 1195.71 763.403H1195.69C1176.46 763.139 1157.21 763.271 1138.02 763.271C1118.56 763.271 1099.06 763.139 1079.57 763.403H1079.56C1076.61 763.466 1075.25 762.927 1074.54 762.198C1073.82 761.447 1073.28 759.974 1073.35 756.855L1073.35 756.854C1073.73 740.305 1073.6 723.632 1073.35 706.981L1073.35 706.97L1073.34 706.429C1073.34 703.81 1073.75 702.436 1074.4 701.67C1075.03 700.931 1076.3 700.294 1079.34 700.293C1118.29 700.557 1157.24 700.425 1196.31 700.293Z" fill="#2C70A8" stroke="#FFDE57" stroke-width="4"/>
<path d="M1191.32 540.313C1194.8 540.249 1196.72 540.748 1197.79 541.685C1198.71 542.489 1199.42 544.023 1199.36 547.312L1199.33 547.993C1198.69 560.877 1198.82 573.882 1198.95 586.686V586.706C1199.01 589.671 1198.41 591.174 1197.6 591.989C1196.77 592.812 1195.28 593.384 1192.44 593.384C1154.65 593.252 1116.99 593.252 1079.21 593.384C1076.56 593.383 1075.24 592.846 1074.53 592.121C1073.82 591.394 1073.28 590.021 1073.34 587.237V587.232C1073.6 573.732 1073.6 560.232 1073.34 546.731V546.73L1073.34 546.172C1073.37 543.477 1073.99 542.219 1074.73 541.554C1075.58 540.788 1077.11 540.316 1079.97 540.314C1098.81 540.579 1117.66 540.447 1136.47 540.447C1154.74 540.447 1172.98 540.711 1191.32 540.314L1191.32 540.313Z" fill="#2C70A8" stroke="#FFDE57" stroke-width="4"/>
<path d="M723.796 540.314C725.775 540.283 727.377 540.36 728.664 540.604C729.945 540.848 730.788 541.235 731.359 541.729C732.42 542.645 733.227 544.573 732.725 549.335V549.339C731.547 560.734 732.072 572.251 732.457 583.564V583.569C732.584 587.007 732.188 589.042 731.263 590.307C730.409 591.473 728.76 592.421 725.131 592.731C716.831 593.385 708.515 593.518 700.282 593.518H700.273C671.96 593.649 643.381 593.386 615.023 593.65H615.009C611.242 593.714 609.292 592.988 608.24 591.879C607.177 590.758 606.538 588.728 606.724 584.915L606.725 584.897V584.88C607.112 572.562 607.113 560.243 606.726 548.056C606.664 544.662 607.304 542.904 608.262 541.934C609.218 540.964 610.946 540.319 614.242 540.315C632.706 540.712 651.323 540.448 669.849 540.448C687.734 540.448 705.713 540.711 723.796 540.314Z" fill="#2C70A8" stroke="#FFDE57" stroke-width="4"/>
<path d="M1137.64 610.203C1149.67 610.203 1161.62 610.071 1173.47 610.203H1173.49C1174.37 610.203 1175.24 610.25 1175.99 610.382C1176.78 610.518 1177.29 610.718 1177.57 610.918C1177.79 611.067 1177.83 611.172 1177.85 611.34C1177.87 611.618 1177.8 612.27 1177.16 613.451L1177.15 613.458L1177.15 613.464C1173.15 620.903 1171.92 628.574 1171.64 636.152C1171.5 639.934 1171.6 643.722 1171.71 647.446C1171.82 651.19 1171.94 654.86 1171.88 658.501V658.506C1171.78 665.163 1171.73 669.99 1171.31 673.579C1170.89 677.188 1170.14 679.101 1169.01 680.261C1167.9 681.404 1166.08 682.159 1162.61 682.557C1159.14 682.953 1154.46 682.957 1147.96 682.957C1134.58 682.957 1121 682.825 1107.58 682.957H1107.55C1105.03 683.019 1103.82 682.528 1103.19 681.905C1102.57 681.283 1102.06 680.06 1102.12 677.474V677.461L1102.12 677.449C1102.18 671.749 1102.15 666.052 1102.12 660.391C1102.09 654.725 1102.05 649.095 1102.12 643.502C1102.25 633.594 1102.02 623.486 1096.99 613.881C1096.26 612.435 1096.11 611.595 1096.12 611.176C1096.13 610.899 1096.2 610.849 1096.31 610.772C1096.54 610.614 1097.01 610.437 1097.85 610.327C1098.66 610.222 1099.6 610.203 1100.63 610.203H1137.64Z" fill="#2C70A8" stroke="#FFDE57" stroke-width="4"/>
<path d="M672.038 610.203C684.062 610.203 696.015 610.071 707.995 610.203H708.017C708.859 610.203 709.651 610.197 710.387 610.262C711.148 610.329 711.609 610.457 711.846 610.586C711.971 610.655 711.921 610.635 711.924 610.657C711.946 610.851 711.904 611.46 711.266 612.709C707.22 620.388 705.866 628.33 705.472 636.226C705.275 640.172 705.316 644.132 705.389 648.044C705.462 651.975 705.566 655.84 705.502 659.691L705.501 659.704C705.436 666.061 705.395 670.665 705.005 674.085C704.612 677.525 703.903 679.329 702.855 680.413C701.825 681.48 700.128 682.198 696.845 682.576C693.567 682.954 689.144 682.957 683 682.957C670.508 682.957 657.679 682.295 645.077 683.226C640.483 683.544 638.322 682.681 637.218 681.403C636.033 680.032 635.481 677.555 635.735 673.184V673.181C636.062 667.431 636.061 661.695 636.013 656.009C635.964 650.304 635.868 644.669 635.996 639.029V639.017C636.127 631.12 635.486 623.07 631.789 615.636V615.635L631.522 615.082C630.945 613.839 630.663 612.91 630.575 612.236C630.479 611.499 630.631 611.226 630.707 611.122C630.807 610.987 631.084 610.734 631.86 610.524C632.636 610.316 633.719 610.203 635.157 610.203H672.038Z" fill="#2C70A8" stroke="#FFDE57" stroke-width="4"/>
<path d="M667.289 436.081C691.85 435.827 715.094 454.053 722.217 478.758V478.76C722.712 480.473 722.97 481.83 723.008 482.892C723.046 483.949 722.86 484.559 722.627 484.927C722.212 485.581 720.992 486.375 717.113 486.245H717.096L717.078 486.244L714.002 486.201C698.612 486.012 683.087 486.244 667.655 486.244C650.913 486.244 634.12 486.112 617.347 486.244H617.336L617.326 486.245C613.819 486.309 612.657 485.553 612.236 484.907C612.002 484.546 611.812 483.965 611.818 482.981C611.825 481.991 612.03 480.722 612.46 479.118L612.459 479.117C619.199 454.59 642.426 436.336 667.289 436.081Z" fill="#2C70A8" stroke="#FFDE57" stroke-width="4"/>
<path d="M1136.21 436.21H1136.22C1160.59 436.336 1183.58 453.677 1190.59 476.961L1190.91 478.073C1191.52 480.295 1191.85 481.919 1191.93 483.126C1192 484.331 1191.79 484.834 1191.61 485.076C1191.43 485.319 1191 485.667 1189.8 485.938C1188.61 486.209 1186.92 486.339 1184.56 486.372C1176.45 486.372 1168.37 486.34 1160.28 486.307C1152.19 486.274 1144.1 486.241 1135.97 486.241C1119.83 486.241 1103.61 486.373 1087.51 486.241H1087.51C1085.31 486.209 1083.75 486.078 1082.65 485.816C1081.56 485.557 1081.18 485.231 1081.02 485.012C1080.85 484.785 1080.65 484.304 1080.72 483.153C1080.78 482 1081.1 480.448 1081.67 478.326L1081.67 478.321C1088.02 454.61 1112 436.083 1136.21 436.21Z" fill="#2C70A8" stroke="#FFDE57" stroke-width="4"/>
<path d="M642.83 503.33V503.331C661.703 503.861 680.568 503.596 699.385 503.332C702.047 503.334 703.332 503.773 704.032 504.428C704.714 505.065 705.304 506.347 705.365 509.3V509.307C705.463 513.353 705.538 516.225 705.375 518.346C705.209 520.497 704.818 521.412 704.377 521.892C703.958 522.347 703.156 522.773 701.148 523.007C699.152 523.24 696.423 523.243 692.535 523.243H692.517L692.498 523.244C685.298 523.376 677.885 523.243 670.354 523.243C661.447 523.243 652.387 522.846 643.285 523.379H643.28C639.302 523.622 637.688 522.626 636.884 521.443C635.917 520.022 635.601 517.664 635.729 514.093C635.801 512.265 635.775 510.864 635.87 509.333C635.961 507.883 636.149 506.753 636.521 505.883C636.864 505.078 637.367 504.483 638.207 504.058C639.107 503.602 640.536 503.269 642.83 503.33Z" fill="#2C70A8" stroke="#FFDE57" stroke-width="4"/>
<path d="M1167.37 503.462C1169.28 503.403 1170.43 503.716 1171.12 504.108C1171.78 504.475 1172.19 504.997 1172.47 505.727C1172.77 506.508 1172.9 507.516 1172.93 508.763C1172.95 510.015 1172.86 511.312 1172.79 512.727C1172.72 514.156 1172.83 515.772 1172.88 517.078C1172.92 518.486 1172.9 519.649 1172.67 520.594C1172.45 521.479 1172.09 522.051 1171.51 522.446C1170.87 522.876 1169.72 523.272 1167.6 523.242H1167.57C1148.24 523.242 1128.74 523.111 1109.38 523.375H1109.38C1107.33 523.405 1106.07 523.068 1105.3 522.64C1104.58 522.239 1104.13 521.684 1103.84 520.929C1103.52 520.116 1103.37 519.071 1103.34 517.759C1103.3 516.427 1103.38 515.075 1103.41 513.531C1103.43 512.789 1103.42 512.036 1103.4 511.321C1103.39 510.592 1103.37 509.908 1103.37 509.237C1103.38 507.875 1103.47 506.776 1103.75 505.909C1104.01 505.105 1104.41 504.557 1105.06 504.171C1105.77 503.752 1106.99 503.403 1109.09 503.463H1109.1C1119.06 503.728 1128.96 503.463 1138.68 503.463C1148.18 503.463 1157.78 503.595 1167.34 503.463H1167.35L1167.37 503.462Z" fill="#2C70A8" stroke="#FFDE57" stroke-width="4"/>
<path d="M843.583 569.924H852.073C854.782 569.924 856.666 570.126 858.002 570.59C859.231 571.016 859.964 571.648 860.471 572.654C861.034 573.773 861.387 575.496 861.438 578.217C861.49 580.911 861.246 584.376 860.778 588.853L860.776 588.866C860.548 591.209 860.013 591.967 859.727 592.221C859.462 592.455 859.031 592.609 857.869 592.609C855.323 592.609 852.317 592.479 849.423 592.609H844.889C842.607 592.609 841.166 592.601 840.143 592.419C839.239 592.258 839.021 592.025 838.871 591.784C838.603 591.354 838.341 590.469 838.205 588.508C838.073 586.606 838.072 584.038 838.072 580.474C838.072 577.379 838.084 575.14 838.207 573.478C838.334 571.762 838.567 570.989 838.788 570.619C838.901 570.43 839.043 570.254 839.715 570.115C840.521 569.949 841.684 569.924 843.583 569.924Z" fill="#2C70A8" stroke="#FFDE57" stroke-width="4"/>
<path d="M785.868 569.76C788.006 569.76 789.341 569.767 790.286 569.936C791.11 570.082 791.281 570.288 791.4 570.478C791.637 570.853 791.886 571.653 792.024 573.483C792.158 575.255 792.174 577.649 792.194 580.982C792.194 584.409 792.193 586.873 792.065 588.697C791.933 590.584 791.68 591.415 791.431 591.811C791.299 592.019 791.105 592.241 790.231 592.396C789.24 592.57 787.842 592.577 785.623 592.577H777.623C775.277 592.577 773.573 592.241 772.338 591.639C771.159 591.063 770.301 590.195 769.695 588.873C768.388 586.021 768.25 581.09 769.478 572.945L769.479 572.933C769.736 571.155 770.18 570.525 770.427 570.294C770.644 570.091 770.973 569.944 771.79 569.888C773.236 569.826 774.691 569.826 776.194 569.826C777.679 569.826 779.212 569.826 780.754 569.76H785.868Z" fill="#2C70A8" stroke="#FFDE57" stroke-width="4"/>
<path d="M823.528 569.801C824.183 569.737 824.601 569.723 824.917 569.778C825.161 569.821 825.254 569.888 825.339 569.992C825.465 570.146 825.715 570.573 825.851 571.617L825.852 571.627L825.854 571.636C826.348 575.173 826.898 578.94 826.967 582.511C827.036 586.097 826.606 589.208 825.35 591.525C824.827 592.468 824.303 592.834 823.86 593.008C823.362 593.203 822.723 593.25 821.832 593.15C820.831 593.038 820.082 592.838 818.854 592.64C817.892 592.484 816.699 592.351 815.516 592.609H810.037C807.944 592.609 806.651 592.593 805.746 592.417C804.977 592.268 804.811 592.068 804.685 591.854C804.441 591.445 804.202 590.599 804.077 588.735C803.956 586.929 803.955 584.5 803.955 581.135C803.955 577.802 803.956 575.407 804.078 573.632C804.204 571.8 804.445 570.989 804.682 570.603C804.804 570.403 804.976 570.195 805.784 570.037C806.716 569.855 808.033 569.825 810.15 569.791C813.988 569.79 817.674 569.662 821.326 569.919L821.338 569.92L821.351 569.921C822.122 569.966 822.984 569.854 823.528 569.801Z" fill="#2C70A8" stroke="#FFDE57" stroke-width="4"/>
<path d="M926.851 569.895C927.48 569.87 927.85 569.967 928.071 570.075C928.27 570.172 928.463 570.332 928.654 570.663C929.077 571.395 929.387 572.771 929.424 575.191L929.427 575.69C929.365 581.428 929.443 585.262 929.353 588.033C929.308 589.4 929.225 590.371 929.089 591.076C928.952 591.785 928.791 592.06 928.709 592.163C928.628 592.265 928.379 592.552 926.333 592.584C925.384 592.599 924.264 592.566 922.806 592.545C921.382 592.524 919.71 592.515 917.762 592.581H913.794C911.512 592.581 910.071 592.574 909.049 592.392C908.147 592.231 907.936 591.998 907.791 591.763C907.527 591.335 907.27 590.454 907.146 588.491C907.055 587.065 907.04 585.264 907.047 582.949L907.059 580.457V580.446C907.059 577.316 907.065 575.059 907.183 573.387C907.304 571.657 907.532 570.896 907.744 570.541C907.842 570.377 907.964 570.207 908.646 570.073C909.465 569.913 910.641 569.896 912.569 569.896C917.225 569.896 922.063 570.029 926.83 569.896L926.84 569.895H926.851Z" fill="#2C70A8" stroke="#FFDE57" stroke-width="4"/>
<path d="M1064.81 569.895C1065.43 569.87 1065.81 569.967 1066.03 570.075C1066.22 570.172 1066.42 570.332 1066.61 570.663C1067.03 571.395 1067.34 572.771 1067.38 575.191L1067.38 575.69C1067.32 581.428 1067.4 585.262 1067.31 588.033C1067.26 589.4 1067.18 590.371 1067.04 591.076C1066.91 591.785 1066.75 592.06 1066.66 592.163C1066.58 592.265 1066.33 592.552 1064.29 592.584C1063.34 592.599 1062.22 592.566 1060.76 592.545C1059.34 592.524 1057.67 592.515 1055.72 592.581H1051.75C1049.47 592.581 1048.03 592.574 1047 592.392C1046.1 592.231 1045.89 591.998 1045.75 591.763C1045.48 591.335 1045.23 590.454 1045.1 588.491C1045.01 587.065 1045 585.264 1045 582.949L1045.01 580.457V580.446C1045.01 577.316 1045.02 575.059 1045.14 573.387C1045.26 571.657 1045.49 570.896 1045.7 570.541C1045.8 570.377 1045.92 570.207 1046.6 570.073C1047.42 569.913 1048.6 569.896 1050.52 569.896C1055.18 569.896 1060.02 570.029 1064.79 569.896L1064.79 569.895H1064.81Z" fill="#2C70A8" stroke="#FFDE57" stroke-width="4"/>
<path d="M1028.81 569.895C1029.44 569.87 1029.81 569.967 1030.03 570.075C1030.23 570.172 1030.42 570.332 1030.61 570.663C1031.04 571.395 1031.35 572.771 1031.38 575.191L1031.39 575.69C1031.32 581.428 1031.4 585.262 1031.31 588.033C1031.27 589.4 1031.18 590.371 1031.05 591.076C1030.91 591.785 1030.75 592.06 1030.67 592.163C1030.59 592.265 1030.34 592.552 1028.29 592.584C1027.34 592.599 1026.22 592.566 1024.76 592.545C1023.34 592.524 1021.67 592.515 1019.72 592.581H1015.75C1013.47 592.581 1012.03 592.574 1011.01 592.392C1010.11 592.231 1009.9 591.998 1009.75 591.763C1009.49 591.335 1009.23 590.454 1009.1 588.491C1009.01 587.065 1009 585.264 1009.01 582.949L1009.02 580.457V580.446C1009.02 577.316 1009.02 575.059 1009.14 573.387C1009.26 571.657 1009.49 570.896 1009.7 570.541C1009.8 570.377 1009.92 570.207 1010.61 570.073C1011.42 569.913 1012.6 569.896 1014.53 569.896C1019.18 569.896 1024.02 570.029 1028.79 569.896L1028.8 569.895H1028.81Z" fill="#2C70A8" stroke="#FFDE57" stroke-width="4"/>
<path d="M892.478 569.894C893.075 569.871 893.428 569.974 893.644 570.087C893.846 570.194 894.057 570.377 894.265 570.75C894.707 571.545 895.013 572.976 895.05 575.337L895.054 575.821C895.033 581.403 895.099 585.209 894.985 587.92C894.929 589.265 894.83 590.231 894.682 590.936C894.533 591.64 894.362 591.945 894.255 592.079C894.127 592.24 893.816 592.532 891.889 592.586C890.983 592.611 889.903 592.587 888.517 592.566C887.152 592.546 885.551 592.53 883.692 592.581H881.461C878.869 592.581 877.043 592.334 875.743 591.827C874.535 591.356 873.757 590.656 873.215 589.554C872.628 588.36 872.264 586.582 872.21 583.896C872.157 581.229 872.409 577.845 872.916 573.546L872.917 573.535C873.144 571.518 873.602 570.677 873.923 570.333C874.162 570.077 874.509 569.896 875.338 569.896C880.987 569.896 886.705 570.027 892.446 569.895H892.462L892.478 569.894Z" fill="#2C70A8" stroke="#FFDE57" stroke-width="4"/>
<path d="M739.507 569.924H754.854C755.378 569.924 755.694 570.016 755.892 570.116C756.075 570.21 756.263 570.362 756.456 570.67C756.898 571.376 757.267 572.721 757.428 575.16H757.429C757.675 579.945 757.842 583.453 757.764 586.078C757.683 588.76 757.346 590.143 756.868 590.916C756.495 591.52 755.894 591.976 754.371 592.264C752.756 592.569 750.5 592.609 747.181 592.609H745.467C742.94 592.609 741.139 592.334 739.85 591.797C738.641 591.293 737.831 590.542 737.265 589.376C736.66 588.131 736.289 586.316 736.238 583.647C736.188 580.995 736.454 577.658 737 573.468C737.262 571.467 737.744 570.665 738.064 570.345C738.316 570.093 738.68 569.924 739.507 569.924Z" fill="#2C70A8" stroke="#FFDE57" stroke-width="4"/>
<path d="M953.146 570.111C960.089 570.111 963.172 571.306 964.599 573.563C965.353 574.758 965.82 576.5 965.874 579.113C965.928 581.722 965.569 585.024 964.836 589.2L964.832 589.224C964.597 590.668 964.218 591.377 963.89 591.722C963.628 591.996 963.226 592.223 962.358 592.223H951.57V592.451C946.528 592.213 943.596 590.521 942.085 587.873C940.351 584.834 940.085 579.9 941.953 572.641C942.258 571.464 942.647 570.955 942.944 570.709C943.233 570.471 943.667 570.289 944.467 570.238C947.373 570.112 950.182 570.111 953.146 570.111Z" fill="#2C70A8" stroke="#FFDE57" stroke-width="4"/>
<path d="M986.346 569.76C988.911 569.76 990.739 570.043 992.048 570.594C993.276 571.111 994.101 571.883 994.675 573.082C995.287 574.36 995.657 576.218 995.699 578.938C995.742 581.64 995.461 585.036 994.895 589.293L994.893 589.303L994.892 589.312C994.701 590.852 994.387 591.637 994.123 592.002C993.963 592.223 993.83 592.313 993.448 592.313H984.672V592.506C983.23 592.357 982.067 591.979 981.137 591.426C979.935 590.711 978.988 589.628 978.313 588.069C976.918 584.844 976.736 579.665 978.185 572.24L978.186 572.241C978.438 570.957 978.765 570.411 978.971 570.187C979.111 570.034 979.284 569.924 979.721 569.887C981.927 569.761 984.064 569.76 986.346 569.76Z" fill="#2C70A8" stroke="#FFDE57" stroke-width="4"/>
<path d="M843.583 700.496H852.073C854.782 700.496 856.666 700.699 858.002 701.162C859.231 701.588 859.964 702.221 860.471 703.227C861.034 704.345 861.387 706.068 861.438 708.789C861.49 711.483 861.246 714.948 860.778 719.425L860.776 719.438C860.548 721.781 860.013 722.539 859.727 722.793C859.462 723.028 859.031 723.182 857.869 723.182C855.323 723.182 852.317 723.051 849.423 723.182H844.889C842.607 723.182 841.166 723.174 840.143 722.991C839.239 722.83 839.021 722.597 838.871 722.356C838.603 721.926 838.341 721.042 838.205 719.08C838.073 717.178 838.072 714.61 838.072 711.046C838.072 707.951 838.084 705.713 838.207 704.05C838.334 702.334 838.567 701.561 838.788 701.191C838.901 701.003 839.043 700.826 839.715 700.688C840.521 700.521 841.684 700.496 843.583 700.496Z" fill="#2C70A8" stroke="#FFDE57" stroke-width="4"/>
<path d="M785.868 700.334C788.006 700.334 789.341 700.342 790.286 700.51C791.11 700.656 791.281 700.862 791.4 701.052C791.637 701.427 791.886 702.227 792.024 704.058C792.158 705.829 792.174 708.224 792.194 711.557C792.194 714.983 792.193 717.447 792.065 719.271C791.933 721.158 791.68 721.989 791.431 722.385C791.299 722.594 791.105 722.816 790.231 722.97C789.24 723.145 787.842 723.151 785.623 723.151H777.623C775.277 723.151 773.573 722.816 772.338 722.213C771.159 721.638 770.301 720.77 769.695 719.447C768.388 716.595 768.25 711.665 769.478 703.52L769.479 703.507C769.736 701.729 770.18 701.099 770.427 700.868C770.644 700.665 770.973 700.518 771.79 700.462C773.236 700.4 774.691 700.4 776.194 700.4C777.679 700.4 779.212 700.4 780.754 700.334H785.868Z" fill="#2C70A8" stroke="#FFDE57" stroke-width="4"/>
<path d="M823.528 700.369C824.183 700.305 824.601 700.291 824.917 700.347C825.161 700.389 825.254 700.457 825.339 700.561C825.465 700.714 825.715 701.141 825.851 702.186L825.852 702.195L825.854 702.204C826.348 705.741 826.898 709.508 826.967 713.079C827.036 716.665 826.606 719.776 825.35 722.094C824.827 723.037 824.303 723.403 823.86 723.576C823.362 723.772 822.723 723.819 821.832 723.719C820.831 723.606 820.082 723.406 818.854 723.208C817.892 723.053 816.699 722.92 815.516 723.178H810.037C807.944 723.178 806.651 723.161 805.746 722.985C804.977 722.836 804.811 722.636 804.685 722.423C804.441 722.013 804.202 721.168 804.077 719.304C803.956 717.498 803.955 715.068 803.955 711.703C803.955 708.37 803.956 705.975 804.078 704.2C804.204 702.368 804.445 701.557 804.682 701.171C804.804 700.971 804.976 700.764 805.784 700.605C806.716 700.423 808.033 700.394 810.15 700.359C813.988 700.359 817.674 700.23 821.326 700.487L821.338 700.488L821.351 700.489C822.122 700.534 822.984 700.423 823.528 700.369Z" fill="#2C70A8" stroke="#FFDE57" stroke-width="4"/>
<path d="M926.851 700.469C927.48 700.445 927.85 700.542 928.071 700.649C928.27 700.746 928.463 700.906 928.654 701.237C929.077 701.969 929.387 703.345 929.424 705.766L929.427 706.265C929.365 712.002 929.443 715.836 929.353 718.607C929.308 719.974 929.225 720.945 929.089 721.65C928.952 722.359 928.791 722.634 928.709 722.737C928.628 722.839 928.379 723.126 926.333 723.158C925.384 723.173 924.264 723.141 922.806 723.119C921.382 723.098 919.71 723.089 917.762 723.155H913.794C911.512 723.155 910.071 723.148 909.049 722.966C908.147 722.805 907.936 722.572 907.791 722.337C907.527 721.91 907.27 721.028 907.146 719.065C907.055 717.639 907.04 715.838 907.047 713.523L907.059 711.031V711.021C907.059 707.89 907.065 705.634 907.183 703.961C907.304 702.232 907.532 701.47 907.744 701.115C907.842 700.952 907.964 700.781 908.646 700.647C909.465 700.487 910.641 700.47 912.569 700.47C917.225 700.47 922.063 700.603 926.83 700.47L926.84 700.469H926.851Z" fill="#2C70A8" stroke="#FFDE57" stroke-width="4"/>
<path d="M1064.81 700.469C1065.43 700.445 1065.81 700.542 1066.03 700.649C1066.22 700.746 1066.42 700.906 1066.61 701.237C1067.03 701.969 1067.34 703.345 1067.38 705.766L1067.38 706.265C1067.32 712.002 1067.4 715.836 1067.31 718.607C1067.26 719.974 1067.18 720.945 1067.04 721.65C1066.91 722.359 1066.75 722.634 1066.66 722.737C1066.58 722.839 1066.33 723.126 1064.29 723.158C1063.34 723.173 1062.22 723.141 1060.76 723.119C1059.34 723.098 1057.67 723.089 1055.72 723.155H1051.75C1049.47 723.155 1048.03 723.148 1047 722.966C1046.1 722.805 1045.89 722.572 1045.75 722.337C1045.48 721.91 1045.23 721.028 1045.1 719.065C1045.01 717.639 1045 715.838 1045 713.523L1045.01 711.031V711.021C1045.01 707.89 1045.02 705.634 1045.14 703.961C1045.26 702.232 1045.49 701.47 1045.7 701.115C1045.8 700.952 1045.92 700.781 1046.6 700.647C1047.42 700.487 1048.6 700.47 1050.52 700.47C1055.18 700.47 1060.02 700.603 1064.79 700.47L1064.79 700.469H1064.81Z" fill="#2C70A8" stroke="#FFDE57" stroke-width="4"/>
<path d="M1028.81 700.469C1029.44 700.445 1029.81 700.542 1030.03 700.649C1030.23 700.746 1030.42 700.906 1030.61 701.237C1031.04 701.969 1031.35 703.345 1031.38 705.766L1031.39 706.265C1031.32 712.002 1031.4 715.836 1031.31 718.607C1031.27 719.974 1031.18 720.945 1031.05 721.65C1030.91 722.359 1030.75 722.634 1030.67 722.737C1030.59 722.839 1030.34 723.126 1028.29 723.158C1027.34 723.173 1026.22 723.141 1024.76 723.119C1023.34 723.098 1021.67 723.089 1019.72 723.155H1015.75C1013.47 723.155 1012.03 723.148 1011.01 722.966C1010.11 722.805 1009.9 722.572 1009.75 722.337C1009.49 721.91 1009.23 721.028 1009.1 719.065C1009.01 717.639 1009 715.838 1009.01 713.523L1009.02 711.031V711.021C1009.02 707.89 1009.02 705.634 1009.14 703.961C1009.26 702.232 1009.49 701.47 1009.7 701.115C1009.8 700.952 1009.92 700.781 1010.61 700.647C1011.42 700.487 1012.6 700.47 1014.53 700.47C1019.18 700.47 1024.02 700.603 1028.79 700.47L1028.8 700.469H1028.81Z" fill="#2C70A8" stroke="#FFDE57" stroke-width="4"/>
<path d="M892.478 700.468C893.075 700.445 893.428 700.548 893.644 700.661C893.846 700.768 894.057 700.951 894.265 701.324C894.707 702.119 895.013 703.55 895.05 705.911L895.054 706.396C895.033 711.977 895.099 715.784 894.985 718.494C894.929 719.839 894.83 720.805 894.682 721.51C894.533 722.214 894.362 722.519 894.255 722.653C894.127 722.814 893.816 723.106 891.889 723.16C890.983 723.185 889.903 723.161 888.517 723.141C887.152 723.12 885.551 723.105 883.692 723.155H881.461C878.869 723.155 877.043 722.908 875.743 722.401C874.535 721.931 873.757 721.23 873.215 720.128C872.628 718.934 872.264 717.156 872.21 714.47C872.157 711.804 872.409 708.419 872.916 704.12L872.917 704.109C873.144 702.092 873.602 701.252 873.923 700.907C874.162 700.651 874.509 700.47 875.338 700.47C880.987 700.47 886.705 700.601 892.446 700.469H892.462L892.478 700.468Z" fill="#2C70A8" stroke="#FFDE57" stroke-width="4"/>
<path d="M739.507 700.496H754.854C755.378 700.496 755.694 700.588 755.892 700.688C756.075 700.782 756.263 700.935 756.456 701.242C756.898 701.948 757.267 703.293 757.428 705.732H757.429C757.675 710.517 757.842 714.025 757.764 716.65C757.683 719.332 757.346 720.715 756.868 721.488C756.495 722.092 755.894 722.548 754.371 722.836C752.756 723.141 750.5 723.182 747.181 723.182H745.467C742.94 723.182 741.139 722.906 739.85 722.369C738.641 721.866 737.831 721.114 737.265 719.948C736.66 718.704 736.289 716.888 736.238 714.22C736.188 711.568 736.454 708.231 737 704.04C737.262 702.039 737.744 701.237 738.064 700.917C738.316 700.665 738.68 700.496 739.507 700.496Z" fill="#2C70A8" stroke="#FFDE57" stroke-width="4"/>
<path d="M953.146 700.676C960.089 700.676 963.172 701.871 964.599 704.128C965.353 705.323 965.82 707.064 965.874 709.678C965.928 712.286 965.569 715.588 964.836 719.765L964.832 719.788C964.597 721.232 964.218 721.942 963.89 722.286C963.628 722.56 963.226 722.787 962.358 722.787H951.57V723.016C946.528 722.778 943.596 721.085 942.085 718.438C940.351 715.399 940.085 710.465 941.953 703.205C942.258 702.028 942.647 701.519 942.944 701.273C943.233 701.035 943.667 700.854 944.467 700.803C947.373 700.676 950.182 700.676 953.146 700.676Z" fill="#2C70A8" stroke="#FFDE57" stroke-width="4"/>
<path d="M986.346 700.334C988.911 700.334 990.739 700.617 992.048 701.168C993.276 701.685 994.101 702.457 994.675 703.656C995.287 704.934 995.657 706.792 995.699 709.512C995.742 712.214 995.461 715.61 994.895 719.867L994.893 719.877L994.892 719.886C994.701 721.426 994.387 722.211 994.123 722.576C993.963 722.797 993.83 722.888 993.448 722.888H984.672V723.08C983.23 722.931 982.067 722.553 981.137 722C979.935 721.285 978.988 720.202 978.313 718.644C976.918 715.418 976.736 710.239 978.185 702.814L978.186 702.815C978.438 701.531 978.765 700.985 978.971 700.761C979.111 700.608 979.284 700.498 979.721 700.461C981.927 700.335 984.064 700.334 986.346 700.334Z" fill="#2C70A8" stroke="#FFDE57" stroke-width="4"/>
<path d="M676.786 433.149C676.786 438.047 672.912 442.017 668.133 442.017C663.355 442.017 659.48 438.047 659.48 433.149C659.48 428.252 663.355 414.822 668.133 414.822C672.912 414.822 676.786 428.252 676.786 433.149Z" fill="#FFDE57"/>
<path d="M1145.69 433.149C1145.69 438.047 1141.82 442.017 1137.04 442.017C1132.26 442.017 1128.39 438.047 1128.39 433.149C1128.39 428.252 1132.26 414.822 1137.04 414.822C1141.82 414.822 1145.69 428.252 1145.69 433.149Z" fill="#FFDE57"/>
<path d="M1321.27 577.851C1321.15 587.264 1314.18 594.357 1304.77 594.357C1295.74 594.357 1288.26 586.749 1288.26 577.851C1288.26 568.437 1296.26 560.442 1305.41 560.699C1314.44 561.086 1321.4 568.566 1321.27 577.851Z" fill="#FFDE57"/>
<path d="M479.662 653.479C483.918 648.837 481.339 643.679 479.404 638.005C477.599 632.846 482.112 629.623 487.529 632.331C491.913 634.523 495.008 636.07 499.393 632.202C501.456 630.267 505.454 630.138 507.646 632.46C510.096 635.039 509.709 638.907 507.517 641.486C504.293 645.226 504.551 647.934 507.517 651.545C509.451 653.866 509.967 657.348 507.646 659.798C505.325 662.248 501.585 661.991 499.393 660.185C495.395 656.961 492.687 657.606 488.431 660.185C483.015 663.409 478.889 660.314 479.662 653.479Z" fill="#FFDE57"/>
<path d="M1236.85 365.291C1231.18 370.32 1235.31 376.381 1236.6 382.829C1237.88 389.148 1232.34 389.792 1228.47 387.858C1223.83 385.537 1220.48 384.892 1215.45 386.955C1209.26 389.406 1205.52 385.021 1208.35 378.573C1210.03 374.576 1210.42 371.739 1207.97 367.999C1206.29 365.549 1206.03 362.067 1208.48 359.617C1210.93 357.166 1214.29 357.682 1216.74 359.617C1220.48 362.583 1223.18 361.809 1227.05 359.617C1232.86 356.264 1237.11 358.585 1236.85 365.291Z" fill="#FFDE57"/>
<path d="M895.397 325.5C901.923 325.5 908.732 326.055 915.271 326.89C925.423 328.68 933.804 336.199 933.805 346.196V382.454C933.805 392.928 925.649 401.338 915.339 401.338H877.408C864.303 401.338 853.201 412.579 853.201 425.405V442.337H840.593C835.218 442.337 830.954 440.403 827.701 437.1C824.438 433.786 822.171 429.068 820.859 423.479L820.858 423.476L820.531 422.088C817.264 407.927 817.498 399.058 820.858 385.081L820.859 385.078C823.733 372.763 833.285 366.22 844.079 366.22H896.874V360.339H858.804V346.336C858.804 340.854 859.537 336.756 862.153 333.673C864.775 330.584 869.371 328.415 877.354 327.026H877.357C882.765 326.056 888.871 325.5 895.397 325.5ZM874.898 336.214C870.711 336.214 867.286 339.652 867.286 343.966C867.286 348.28 870.711 351.717 874.898 351.717C879.085 351.717 882.51 348.279 882.51 343.966C882.51 339.652 879.085 336.214 874.898 336.214Z" fill="#2C70A8" stroke="#0F64AA"/>
<path d="M953.261 366.354C958.624 366.354 962.532 368.348 965.453 371.675C968.393 375.022 970.355 379.745 971.741 385.221C975.491 400.498 975.619 411.832 971.752 423.57L971.751 423.572C969.87 429.355 967.907 434.081 965.084 437.363C962.289 440.613 958.629 442.472 953.261 442.472H895.864V448.352H933.796V462.355C933.796 467.7 931.537 471.718 928.091 474.757C924.846 477.618 920.545 479.613 916.085 480.991L915.19 481.259C901.373 485.283 890.17 484.76 878.654 481.575L877.539 481.259C867.537 478.201 858.934 472.313 858.934 462.355V426.098C858.934 415.901 867.231 407.214 877.399 407.214H915.33C928.16 407.214 939.537 395.97 939.537 382.589V366.354H953.261ZM917.7 456.835C913.519 456.835 910.155 460.055 910.085 464.199L910.089 464.604C910.098 468.909 913.519 472.338 917.7 472.338C921.887 472.338 925.312 468.9 925.312 464.586C925.312 460.272 921.887 456.835 917.7 456.835Z" fill="#FFDE57" stroke="#E0B402"/>
<path d="M643.044 341.635C642.915 351.307 636.209 357.884 626.409 357.755C616.737 357.626 610.031 350.791 610.031 341.249C610.16 332.093 617.511 325 626.796 325C636.467 325 643.173 331.964 643.044 341.635Z" fill="#FFDE57"/>
<path d="M679.413 869.973C679.413 880.869 679.413 891.897 679.413 902.792C679.413 906.993 678.381 911.194 671.5 911.325C664.791 911.325 662.899 907.256 662.899 903.055C662.727 880.607 662.727 858.027 662.899 835.579C662.899 831.378 664.619 827.571 671.672 827.703C679.069 827.834 679.241 832.297 679.241 836.235C679.585 847.525 679.585 858.815 679.413 869.973Z" fill="#FFDE57"/>
<path d="M1140.79 868.791C1140.79 879.424 1140.79 890.058 1140.79 900.822C1140.79 905.548 1140.62 910.799 1132.53 911.062C1124.28 911.325 1123.59 906.073 1123.59 901.348C1123.59 880.081 1123.42 858.683 1123.59 837.416C1123.59 832.69 1123.93 827.57 1132.53 827.702C1140.96 827.833 1140.79 833.215 1140.96 837.81C1140.79 848.049 1140.79 858.42 1140.79 868.791Z" fill="#FFDE57"/>
<path d="M1140.62 949.642C1140.62 953.581 1140.8 957.519 1140.62 961.457C1140.45 965.264 1137.87 967.89 1132.54 968.021C1127.21 968.152 1123.94 965.789 1123.77 962.114C1123.25 953.581 1123.42 945.048 1123.77 936.515C1123.94 932.708 1126.86 930.214 1132.19 930.345C1137.36 930.476 1140.28 932.97 1140.45 936.777C1140.8 941.109 1140.62 945.31 1140.62 949.642Z" fill="#FFDE57"/>
<path d="M679.954 949.642C679.954 953.581 680.126 957.519 679.954 961.457C679.782 965.264 677.201 967.89 671.868 968.021C666.536 968.152 663.267 965.789 663.095 962.114C662.579 953.581 662.751 945.048 663.095 936.515C663.267 932.708 666.192 930.214 671.525 930.345C676.685 930.476 679.61 932.97 679.782 936.777C680.126 941.109 679.954 945.31 679.954 949.642Z" fill="#FFDE57"/>
<path d="M669.861 747.416C656.57 747.416 643.13 747.416 629.839 747.416C625.999 747.416 621.716 747.153 621.569 742.558C621.421 738.226 625.261 737.045 629.396 737.045C656.422 737.045 683.448 737.045 710.474 737.045C714.609 737.045 718.449 738.226 718.301 742.558C718.153 747.022 713.723 747.284 709.883 747.284C696.592 747.416 683.3 747.416 669.861 747.416Z" fill="#FFDE57"/>
<path d="M904.777 656.765C861.986 656.765 818.719 656.765 775.928 656.765C763.566 656.765 749.778 656.503 749.302 651.908C748.827 647.576 761.189 646.395 774.502 646.395C861.51 646.395 948.519 646.395 1035.53 646.395C1048.84 646.395 1061.2 647.576 1060.73 651.908C1060.25 656.371 1045.99 656.634 1033.63 656.634C990.835 656.765 948.044 656.765 904.777 656.765Z" fill="#FFDE57"/>
<path d="M1137.95 747.416C1124.66 747.416 1111.22 747.416 1097.92 747.416C1094.08 747.416 1089.8 747.153 1089.65 742.558C1089.51 738.226 1093.35 737.045 1097.48 737.045C1124.51 737.045 1151.53 737.045 1178.56 737.045C1182.69 737.045 1186.53 738.226 1186.39 742.558C1186.24 747.022 1181.81 747.284 1177.97 747.284C1164.68 747.416 1151.39 747.416 1137.95 747.416Z" fill="#FFDE57"/>
<path d="M671.959 728.168C667.821 728.168 663.831 728.299 659.693 728.168C656.294 728.037 653.781 726.33 653.781 723.048C653.781 720.292 655.85 718.454 658.806 718.191C667.969 717.272 677.132 717.272 686.295 718.191C689.103 718.454 691.32 720.423 691.32 723.18C691.172 726.33 688.66 728.037 685.26 728.168C680.827 728.299 676.393 728.168 671.959 728.168Z" fill="#FFDE57"/>
<path d="M1140.04 728.168C1135.9 728.168 1131.91 728.299 1127.77 728.168C1124.38 728.037 1121.86 726.33 1121.86 723.048C1121.86 720.292 1123.93 718.454 1126.89 718.191C1136.05 717.272 1145.21 717.272 1154.38 718.191C1157.18 718.454 1159.4 720.423 1159.4 723.18C1159.25 726.33 1156.74 728.037 1153.34 728.168C1148.91 728.299 1144.48 728.168 1140.04 728.168Z" fill="#FFDE57"/>
<path d="M634.524 727.878C632.485 727.878 630.447 728.01 628.408 727.878C624.622 727.745 621.564 726.553 621.564 722.581C621.71 718.608 625.059 717.549 628.554 717.417C632.631 717.152 636.708 717.284 640.64 717.417C644.134 717.549 647.775 718.476 647.92 722.316C648.211 726.818 644.28 727.745 640.348 727.878C638.601 728.01 636.562 728.01 634.524 727.878C634.524 728.01 634.524 728.01 634.524 727.878Z" fill="#FFDE57"/>
<path d="M1102.61 727.878C1100.57 727.878 1098.53 728.01 1096.49 727.878C1092.71 727.745 1089.65 726.553 1089.65 722.581C1089.8 718.608 1093.15 717.549 1096.64 717.417C1100.72 717.152 1104.79 717.284 1108.73 717.417C1112.22 717.549 1115.86 718.476 1116.01 722.316C1116.3 726.818 1112.37 727.745 1108.43 727.878C1106.69 728.01 1104.65 728.01 1102.61 727.878C1102.61 728.01 1102.61 728.01 1102.61 727.878Z" fill="#FFDE57"/>
<path d="M707.869 717.648C712.303 718.042 718.658 716.992 718.806 722.899C718.954 728.938 712.599 728.282 707.869 728.282C703.288 728.282 696.933 729.201 697.229 722.768C697.672 717.386 703.288 717.911 707.869 717.648Z" fill="#FFDE57"/>
<path d="M1175.96 717.648C1180.39 718.042 1186.74 716.992 1186.89 722.899C1187.04 728.938 1180.68 728.282 1175.96 728.282C1171.37 728.282 1165.02 729.201 1165.31 722.768C1165.76 717.386 1171.37 717.911 1175.96 717.648Z" fill="#FFDE57"/>
<path d="M671.372 573.122C659.832 573.122 648.15 573.122 636.611 573.122C631.91 573.122 627.493 572.203 627.351 567.083C627.066 561.57 631.482 559.863 636.611 559.863C659.832 559.863 682.911 559.863 706.132 559.863C711.118 559.863 714.822 561.701 714.965 566.558C715.107 571.809 711.118 573.122 706.275 573.122C694.593 573.122 682.911 573.122 671.372 573.122Z" fill="#FFDE57"/>
<path d="M1138.63 573.122C1127.09 573.122 1115.41 573.122 1103.87 573.122C1099.17 573.122 1094.75 572.203 1094.61 567.083C1094.32 561.57 1098.74 559.863 1103.87 559.863C1127.09 559.863 1150.17 559.863 1173.39 559.863C1178.38 559.863 1182.08 561.701 1182.22 566.558C1182.37 571.809 1178.38 573.122 1173.53 573.122C1161.85 573.122 1150.17 573.122 1138.63 573.122Z" fill="#FFDE57"/>
<path d="M820.861 838.209C794.001 838.209 794.001 838.209 794.001 810.791C794.001 802.005 792.787 792.765 800.526 786.402C808.721 779.586 817.067 773.072 828.904 778.222C840.893 783.524 848.784 791.25 847.57 805.489C847.115 811.094 847.57 816.698 847.418 822.303C847.266 835.785 844.99 838.057 831.332 838.209C827.842 838.36 824.352 838.209 820.861 838.209Z" fill="#FFDE57"/>
<path d="M803.653 810.665C801.479 795.971 805.611 784.95 820.616 782.883C831.271 781.506 838.013 793.215 838.448 810.206C838.883 823.523 838.23 833.166 820.833 832.936C804.088 832.707 801.479 824.671 803.653 810.665Z" fill="#2C70A8"/>
<path d="M752.266 891.31C725.405 891.31 725.405 891.31 725.405 863.892C725.405 855.106 724.191 845.866 731.93 839.504C740.125 832.687 748.472 826.174 760.308 831.324C772.297 836.626 780.188 844.351 778.974 858.59C778.519 864.195 778.974 869.8 778.822 875.405C778.671 888.886 776.394 891.159 762.737 891.31C759.246 891.462 755.756 891.31 752.266 891.31Z" fill="#FFDE57"/>
<path d="M734.712 862.923C732.409 848.228 736.784 837.208 752.672 835.141C763.954 833.764 771.092 845.473 771.553 862.464C772.013 875.781 771.323 885.424 752.902 885.194C735.172 884.965 732.409 876.929 734.712 862.923Z" fill="#2C70A8"/>
<path d="M904.191 818.296C877.331 818.296 877.331 818.296 877.331 790.879C877.331 782.093 876.117 772.852 883.856 766.49C892.051 759.674 900.398 753.16 912.234 758.31C924.223 763.612 932.114 771.338 930.9 785.577C930.445 791.182 930.9 796.786 930.748 802.391C930.596 815.873 928.32 818.145 914.662 818.296C911.172 818.448 907.682 818.296 904.191 818.296Z" fill="#FFDE57"/>
<path d="M885.214 789.763C882.911 775.068 887.286 764.047 903.174 761.981C914.456 760.603 921.594 772.313 922.055 789.304C922.515 802.62 921.825 812.264 903.404 812.034C885.674 811.804 882.911 803.768 885.214 789.763Z" fill="#2C70A8"/>
<path d="M987.537 838.209C960.677 838.209 960.677 838.209 960.677 810.791C960.677 802.005 959.463 792.765 967.202 786.402C975.397 779.586 983.743 773.072 995.58 778.222C1007.57 783.524 1015.46 791.25 1014.25 805.489C1013.79 811.094 1014.25 816.698 1014.09 822.303C1013.94 835.785 1011.67 838.057 998.008 838.209C994.518 838.36 991.027 838.209 987.537 838.209Z" fill="#FFDE57"/>
<path d="M1005.13 812.492C1007.65 825.588 1002.84 832.711 985.434 832.94C966.426 832.94 968.029 821.682 968.258 809.505C968.487 793.192 976.045 781.704 987.495 782.853C1001.47 784.231 1006.5 793.651 1005.13 806.977C1004.9 807.896 1005.13 809.045 1005.13 812.492Z" fill="#2C70A8"/>
<path d="M1052.44 891.31C1025.58 891.31 1025.58 891.31 1025.58 863.892C1025.58 855.106 1024.37 845.866 1032.11 839.504C1040.3 832.687 1048.65 826.174 1060.49 831.324C1072.47 836.626 1080.37 844.351 1079.15 858.59C1078.7 864.195 1079.15 869.8 1079 875.405C1078.85 888.886 1076.57 891.159 1062.91 891.31C1059.42 891.462 1055.93 891.31 1052.44 891.31Z" fill="#FFDE57"/>
<path d="M1071.98 865.988C1074.64 879.63 1069.57 887.049 1051.19 887.289C1031.13 887.289 1032.82 875.561 1033.06 862.876C1033.31 845.884 1041.28 833.917 1053.37 835.114C1068.12 836.55 1073.43 846.362 1071.98 860.244C1071.74 861.201 1071.98 862.398 1071.98 865.988Z" fill="#2C70A8"/>
<path d="M900.694 853.446C902.67 853.432 904.667 853.538 906.46 853.78C908.19 854.014 909.867 854.395 911.157 855.001C927.115 861.933 946.365 869.845 964.884 879.167C983.4 888.488 1001.35 899.295 1014.72 912.104L1015.15 912.521C1024.15 921.345 1030.43 934.529 1034.39 948.662C1038.41 963.052 1040.08 978.637 1039.67 992.085V992.094C1038.65 1021.39 1039.67 1061.5 1039.67 1090.93C1039.67 1121.74 1040.08 1142.26 1039.67 1172.92L1039.67 1172.92C1039.67 1174.47 1039.16 1175.84 1038.2 1176.95C1037.27 1178.02 1036.01 1178.73 1034.67 1179.21C1032.03 1180.15 1028.54 1180.4 1024.91 1180.37C1021.22 1180.34 1017.13 1180.02 1013.2 1179.7C1009.23 1179.38 1005.43 1179.06 1002.19 1179.01H1002.19C999.372 1178.96 996.894 1179.2 994.723 1179.48C992.635 1179.75 990.598 1180.08 988.991 1180.13C987.384 1180.17 985.518 1179.97 984.166 1178.55C982.873 1177.18 982.512 1175.17 982.512 1172.9L982.42 1150.58C982.177 1098.19 981.798 1043.74 982.512 991.996V991.987C982.92 969.577 981.461 951.533 967.089 938.287L967.085 938.284C956.211 928.212 948.416 921.81 940.082 916.497C931.745 911.182 922.804 906.915 909.578 901.169C907.589 900.341 904.248 899.858 900.708 899.858C897.165 899.858 893.823 900.342 891.834 901.171L891.833 901.17C877.896 907.176 868.404 910.944 859.596 915.977C850.852 920.973 842.766 927.233 831.844 938.226L831.839 938.231C819.189 950.869 810.393 972.732 810.59 991.996L810.661 997.489C811.355 1053.74 810.59 1094.66 810.59 1151.88C810.59 1154.15 810.691 1158.2 810.742 1162.36C810.793 1166.44 810.797 1170.67 810.582 1173.07L810.58 1173.07C810.418 1175.17 809.325 1176.67 807.754 1177.58C806.307 1178.43 804.519 1178.76 802.843 1178.9C801.134 1179.04 799.283 1179.01 797.604 1178.98C795.87 1178.94 794.345 1178.9 793.091 1179C790.243 1179.23 780.937 1179.5 772.176 1179.07C767.801 1178.85 763.47 1178.45 760.117 1177.75C758.452 1177.41 756.918 1176.97 755.715 1176.38C754.615 1175.84 753.251 1174.93 752.881 1173.35C752.577 1172.05 752.447 1170.31 752.398 1168.47C752.349 1166.59 752.383 1164.49 752.447 1162.4C752.578 1158.14 752.828 1154.13 752.828 1151.88C752.828 1091.66 753.236 1052.23 752.828 992.04V990.843C752.921 978.377 756.011 963.175 761.056 949.019C766.255 934.429 773.622 920.691 782.179 912.136L782.82 911.5C796.372 898.187 814.851 887.667 833.958 878.734C853.322 869.681 873.702 862.102 890.275 854.994L890.28 854.992C892.702 853.96 896.838 853.474 900.694 853.446Z" fill="#2C70A8" stroke="#FFDE57" stroke-width="4"/>
</svg>
